# WC3 MDX geosets → Unity Y-up
mtllib materials.mtl
usemtl Faceless
o Model
v -0.090456 0.226669 -0.391170
v -0.105700 0.097323 -0.468670
v -0.101801 0.233574 -0.442825
v 0.175172 0.713031 0.001102
v 0.160869 0.872873 0.001102
v 0.129306 0.754807 -0.137441
v 0.094673 0.871679 -0.096798
v 0.105145 0.934026 -0.037812
v 0.037391 0.917297 -0.069678
v 0.037629 1.011350 -0.062094
v -0.058478 0.993910 -0.086902
v -0.011408 1.059200 0.001102
v -0.104326 1.091260 0.001102
v -0.058478 0.993910 0.089106
v 0.037629 1.011350 0.064300
v 0.037391 0.917297 0.071883
v 0.073015 1.051030 0.001102
v 0.108765 0.996175 -0.056114
v 0.108765 0.996175 0.058319
v 0.126992 1.002680 0.001102
v 0.143702 0.970854 0.001102
v 0.142621 0.930507 0.000987
v 0.105145 0.934026 0.040016
v 0.094673 0.871679 0.099003
v 0.129306 0.754807 0.139646
v 0.087027 0.525900 0.250671
v 0.100972 0.478095 0.288595
v 0.066973 0.553689 0.273787
v 0.060759 0.522577 0.232998
v 0.050234 0.554942 0.200835
v -0.062764 0.497826 0.169288
v -0.110516 0.550191 0.193756
v -0.053145 0.412574 0.242880
v -0.088001 0.481739 0.239151
v -0.044666 0.460848 0.340941
v -0.088135 0.534665 0.282513
v -0.036134 0.582951 0.353696
v -0.116411 0.588717 0.242303
v 0.012253 0.501353 0.290902
v -0.038829 0.468079 0.240832
v -0.009746 0.514320 0.202567
v -0.008714 0.590305 0.240013
v -0.116411 0.588717 0.242303
v 0.012253 0.501353 0.290902
v -0.008714 0.590305 0.240013
v -0.088135 0.534665 0.282513
v -0.038829 0.468079 0.240832
v -0.088001 0.481739 0.239151
v -0.009746 0.514320 0.202567
v -0.110516 0.550191 0.193756
v 0.060759 0.522577 0.232998
v 0.008801 0.552953 0.234363
v 0.087027 0.525900 0.250671
v 0.028390 0.546455 0.252038
v 0.100972 0.478095 0.288595
v 0.068956 0.002652 -0.053166
v -0.057207 0.129696 -0.095665
v 0.092314 0.050592 -0.062468
v 0.028643 0.130711 -0.161812
v 0.117110 0.068108 -0.124393
v 0.036180 0.000886 -0.159956
v 0.093753 0.002652 -0.124393
v -0.041765 0.000886 -0.115748
v 0.204293 0.001474 -0.083949
v 0.045760 0.002652 -0.284449
v 0.069117 0.056558 -0.270974
v -0.057114 0.129703 -0.214016
v 0.093914 0.068108 -0.201063
v 0.070556 0.002652 -0.201063
v 0.159682 0.001474 -0.292210
v 0.027290 0.726348 0.128543
v -0.031368 0.768662 0.155918
v 0.060118 0.843423 0.144274
v 0.083719 0.741541 0.087410
v 0.115311 0.756735 0.001102
v 0.150404 0.675285 0.072128
v 0.027661 0.675291 0.105658
v 0.027661 0.675291 -0.103453
v 0.083719 0.741541 -0.085205
v 0.027290 0.726348 -0.126338
v 0.060118 0.843423 -0.142069
v 0.075027 0.876205 0.001102
v -0.023329 0.930183 0.136211
v -0.033780 0.743998 -0.150840
v 0.151388 0.675281 -0.073157
v 0.150404 0.675285 0.072128
v -0.023329 0.930183 -0.134006
v -0.041004 0.994405 0.001102
v -0.057114 0.129703 0.216222
v 0.045760 0.002652 0.286653
v -0.042097 0.000886 0.211737
v -0.159663 0.000886 0.211504
v -0.109140 0.128917 0.159693
v -0.041765 0.000886 0.117953
v -0.057207 0.129696 0.097870
v 0.068956 0.002652 0.055371
v -0.085250 0.436637 -0.359074
v -0.100059 0.473768 -0.258677
v -0.086913 0.537770 -0.236354
v -0.069886 0.594810 -0.327854
v -0.041588 0.481823 -0.366030
v -0.120292 0.561101 -0.394033
v -0.106012 0.436192 -0.402971
v -0.139240 0.512319 -0.410320
v 0.112862 0.441715 -0.110359
v 0.017520 0.631898 -0.127627
v 0.001561 0.527187 -0.178463
v 0.107377 0.564617 -0.058109
v -0.009681 0.382913 -0.026828
v 0.039399 0.542504 0.001102
v -0.009671 0.395474 -0.165821
v 0.103325 0.366502 -0.125010
v 0.036180 0.000886 0.162161
v -0.159663 0.000886 0.211504
v -0.042097 0.000886 0.211737
v -0.041765 0.000886 0.117953
v 0.093753 0.002652 0.126598
v 0.068956 0.002652 0.055371
v 0.204293 0.001474 0.086154
v 0.045760 0.002652 0.286653
v 0.159682 0.001474 0.294414
v 0.070556 0.002652 0.203267
v -0.201317 0.793942 -0.194116
v -0.103275 0.890574 -0.338464
v -0.195611 0.873508 -0.142293
v -0.074642 0.837227 -0.331251
v -0.124809 0.741078 -0.340755
v -0.033780 0.743998 -0.150840
v -0.088550 0.687108 -0.175415
v -0.179473 0.699362 -0.222124
v -0.050916 0.570746 -0.054589
v 0.039399 0.542504 0.001102
v -0.009681 0.382913 -0.026828
v -0.067727 0.387125 -0.125034
v -0.127209 0.315769 -0.129140
v -0.009671 0.395474 -0.165821
v 0.001561 0.527187 -0.178463
v 0.150404 0.675285 0.072128
v 0.107377 0.564617 -0.058109
v 0.107421 0.564687 0.057709
v 0.151388 0.675281 -0.073157
v 0.017520 0.631898 -0.127627
v 0.027661 0.675291 -0.103453
v 0.039399 0.542504 0.001102
v 0.028390 0.546455 0.252038
v 0.008801 0.552953 0.234363
v 0.028184 0.698657 0.255886
v -0.051339 0.704683 0.323588
v -0.047756 0.808805 0.295872
v 0.026490 0.811106 0.225564
v -0.044204 0.667369 0.188264
v -0.031368 0.768662 0.155918
v 0.028643 0.130711 0.164018
v -0.057114 0.129703 0.216222
v -0.010978 0.304465 0.223302
v 0.103325 0.366502 0.127215
v -0.009671 0.395474 0.168027
v -0.009681 0.382913 0.029033
v -0.003570 0.248379 0.037682
v -0.057207 0.129696 0.097870
v -0.009671 0.395474 0.168027
v -0.127209 0.315769 0.131344
v -0.067727 0.387125 0.127239
v -0.009681 0.382913 0.029033
v -0.003570 0.248379 0.037682
v -0.109140 0.128917 0.159693
v -0.057207 0.129696 0.097870
v -0.057114 0.129703 0.216222
v -0.010978 0.304465 0.223302
v -0.057207 0.129696 -0.095665
v 0.068956 0.002652 -0.053166
v -0.041765 0.000886 -0.115748
v -0.109140 0.128917 -0.157488
v -0.159663 0.000886 -0.209298
v -0.057114 0.129703 -0.214016
v -0.042097 0.000886 -0.209533
v 0.045760 0.002652 -0.284449
v 0.068956 0.002652 -0.053166
v 0.204293 0.001474 -0.083949
v 0.093753 0.002652 -0.124393
v -0.041765 0.000886 -0.115748
v 0.036180 0.000886 -0.159956
v -0.159663 0.000886 -0.209298
v -0.042097 0.000886 -0.209533
v 0.070556 0.002652 -0.201063
v 0.045760 0.002652 -0.284449
v 0.159682 0.001474 -0.292210
v 0.103325 0.366502 -0.125010
v -0.009671 0.395474 -0.165821
v -0.010978 0.304465 -0.221096
v 0.028643 0.130711 -0.161812
v -0.057114 0.129703 -0.214016
v -0.009681 0.382913 -0.026828
v -0.003570 0.248379 -0.035477
v -0.057207 0.129696 -0.095665
v -0.127209 0.315769 -0.129140
v -0.009681 0.382913 -0.026828
v -0.003570 0.248379 -0.035477
v -0.057207 0.129696 -0.095665
v -0.109140 0.128917 -0.157488
v -0.057114 0.129703 -0.214016
v -0.010978 0.304465 -0.221096
v -0.009671 0.395474 -0.165821
v -0.173020 0.592491 -0.303276
v -0.086913 0.537770 -0.236354
v -0.100059 0.473768 -0.258677
v -0.185032 0.479354 -0.340271
v -0.139240 0.512319 -0.410320
v -0.120292 0.561101 -0.394033
v -0.041588 0.481823 -0.366030
v -0.090456 0.226669 -0.391170
v -0.085250 0.436637 -0.359074
v -0.043286 0.243230 -0.428836
v -0.106012 0.436192 -0.402971
v -0.101801 0.233574 -0.442825
v -0.185032 0.479354 -0.340271
v -0.085250 0.436637 -0.359074
v -0.090456 0.226669 -0.391170
v -0.101801 0.233574 -0.442825
v -0.106012 0.436192 -0.402971
v -0.103275 0.890574 -0.338464
v -0.195611 0.873508 -0.142293
v -0.268938 0.867537 -0.190515
v -0.120921 0.864468 -0.426366
v 0.125111 0.816455 -0.281443
v 0.060118 0.843423 -0.142069
v -0.036134 0.582951 0.353696
v -0.116411 0.588717 0.242303
v -0.134529 0.682220 0.243414
v -0.051339 0.704683 0.323588
v 0.028184 0.698657 0.255886
v -0.008714 0.590305 0.240013
v -0.008714 0.590305 0.240013
v 0.028184 0.698657 0.255886
v -0.044204 0.667369 0.188264
v -0.116411 0.588717 0.242303
v -0.134529 0.682220 0.243414
v 0.112862 0.441715 0.112564
v 0.103325 0.366502 0.127215
v -0.009671 0.395474 0.168027
v 0.001561 0.527187 0.180669
v 0.017520 0.631898 0.129832
v 0.107421 0.564687 0.057709
v -0.009681 0.382913 0.029033
v 0.039399 0.542504 0.001102
v -0.101801 0.233574 -0.442825
v -0.105700 0.097323 -0.468670
v -0.043286 0.243230 -0.428836
v -0.090456 0.226669 -0.391170
v 0.037629 1.011350 -0.062094
v -0.019807 0.955328 -0.134427
v 0.037391 0.917297 -0.069678
v -0.033782 1.041060 -0.107503
v 0.105145 0.934026 -0.037812
v 0.037391 0.917297 -0.069678
v 0.080159 0.882881 -0.032005
v 0.142621 0.930507 0.000987
v 0.105145 0.934026 0.040016
v 0.080159 0.882881 0.034210
v 0.037391 0.917297 0.071883
v 0.027290 0.726348 0.128543
v -0.169757 0.752555 0.093274
v -0.031368 0.768662 0.155918
v -0.195611 0.873508 0.144498
v -0.236023 0.873508 0.001102
v -0.123850 0.939061 0.085066
v -0.125264 0.984458 0.001102
v -0.023329 0.930183 0.136211
v -0.041004 0.994405 0.001102
v -0.123850 0.939061 -0.082862
v -0.187926 0.752555 0.001102
v -0.152812 0.675287 0.073014
v -0.152812 0.675287 0.073014
v -0.153705 0.675281 -0.073229
v -0.169757 0.752555 -0.091069
v -0.195611 0.873508 -0.142293
v -0.023329 0.930183 -0.134006
v 0.027661 0.675291 -0.103453
v 0.027290 0.726348 -0.126338
v -0.033780 0.743998 -0.150840
v 0.027661 0.675291 0.105658
v -0.019807 0.955328 0.136632
v -0.033782 1.041060 0.109708
v 0.037629 1.011350 0.064300
v 0.037391 0.917297 0.071883
v -0.050892 0.570694 0.053844
v -0.009681 0.382913 0.029033
v 0.039399 0.542504 0.001102
v -0.067727 0.387125 0.127239
v 0.001561 0.527187 0.180669
v -0.009671 0.395474 0.168027
v -0.050892 0.570694 0.053844
v 0.039399 0.542504 0.001102
v -0.050916 0.570746 -0.054589
v -0.153705 0.675281 -0.073229
v -0.152812 0.675287 0.073014
v 0.017520 0.631898 -0.127627
v 0.027661 0.675291 -0.103453
v 0.001561 0.527187 -0.178463
v 0.017520 0.631898 0.129832
v 0.027661 0.675291 0.105658
v 0.150404 0.675285 0.072128
v 0.107421 0.564687 0.057709
v 0.017520 0.631898 0.129832
v 0.001561 0.527187 0.180669
v -0.050892 0.570694 0.053844
v -0.152812 0.675287 0.073014
v 0.027661 0.675291 0.105658
v -0.086913 0.537770 -0.236354
v -0.088550 0.687108 -0.175415
v -0.029547 0.721809 -0.295191
v -0.069886 0.594810 -0.327854
v -0.124809 0.741078 -0.340755
v -0.120292 0.561101 -0.394033
v -0.120292 0.561101 -0.394033
v -0.124809 0.741078 -0.340755
v -0.173020 0.592491 -0.303276
v -0.179473 0.699362 -0.222124
v -0.088550 0.687108 -0.175415
v -0.086913 0.537770 -0.236354
v -0.106012 0.436192 -0.402971
v -0.139240 0.512319 -0.410320
v -0.127552 0.370760 -0.482610
v -0.136475 0.339830 -0.448974
v -0.185032 0.479354 -0.340271
v -0.136475 0.339830 -0.448974
v -0.166135 0.387902 -0.457828
v -0.185032 0.479354 -0.340271
v -0.139240 0.512319 -0.410320
v -0.127552 0.370760 -0.482610
v -0.127552 0.370760 -0.482610
v -0.161072 0.218208 -0.512495
v -0.136475 0.339830 -0.448974
v -0.136475 0.339830 -0.448974
v -0.161072 0.218208 -0.512495
v -0.166135 0.387902 -0.457828
v -0.127552 0.370760 -0.482610
v -0.132421 0.313868 -0.311758
v -0.100059 0.473768 -0.258677
v -0.078325 0.317891 -0.342089
v -0.085250 0.436637 -0.359074
v -0.109605 0.308117 -0.365062
v -0.185032 0.479354 -0.340271
v -0.100059 0.473768 -0.258677
v -0.132421 0.313868 -0.311758
v -0.185032 0.479354 -0.340271
v -0.109605 0.308117 -0.365062
v -0.132421 0.313868 -0.311758
v -0.078325 0.317891 -0.342089
v -0.111589 0.214659 -0.370979
v -0.109605 0.308117 -0.365062
v -0.109605 0.308117 -0.365062
v -0.132421 0.313868 -0.311758
v -0.111589 0.214659 -0.370979
v -0.033780 0.743998 -0.150840
v 0.060118 0.843423 -0.142069
v 0.019934 0.792042 -0.237313
v -0.103275 0.890574 -0.338464
v -0.074642 0.837227 -0.331251
v -0.088550 0.687108 -0.175415
v -0.029547 0.721809 -0.295191
v -0.124809 0.741078 -0.340755
v 0.334777 0.393717 0.344588
v 0.411244 0.517248 0.418474
v 0.429211 0.402764 0.314673
v 0.360456 0.458911 0.278901
v 0.411244 0.517248 0.418474
v 0.334777 0.393717 0.344588
v 0.429211 0.402764 0.314673
v 0.411244 0.517248 0.418474
v 0.360456 0.458911 0.278901
v 0.334777 0.393717 0.344588
v 0.429211 0.402764 0.314673
v 0.372837 0.423653 0.308411
v 0.360456 0.458911 0.278901
v 0.264302 0.418790 0.175398
v 0.251632 0.417338 0.349818
v 0.231067 0.334903 0.259962
v 0.284869 0.501222 0.265254
v 0.456209 0.356645 0.177423
v 0.441893 0.355004 0.374516
v 0.479449 0.449795 0.278959
v 0.418653 0.261854 0.272980
v 0.264302 0.418790 0.175398
v 0.418653 0.261854 0.272980
v 0.456209 0.356645 0.177423
v 0.231067 0.334903 0.259962
v 0.231067 0.334903 0.259962
v 0.441893 0.355004 0.374516
v 0.418653 0.261854 0.272980
v 0.251632 0.417338 0.349818
v 0.251632 0.417338 0.349818
v 0.479449 0.449795 0.278959
v 0.441893 0.355004 0.374516
v 0.284869 0.501222 0.265254
v 0.284869 0.501222 0.265254
v 0.456209 0.356645 0.177423
v 0.479449 0.449795 0.278959
v 0.264302 0.418790 0.175398
v -0.241903 0.582102 0.189288
v -0.247453 0.581465 0.265687
v -0.256462 0.545359 0.226329
v -0.232894 0.618209 0.228647
v 0.490850 0.344146 0.218041
v 0.482055 0.343140 0.339129
v 0.505129 0.401375 0.280422
v 0.467776 0.285911 0.276749
v -0.241903 0.582102 0.189288
v 0.467776 0.285911 0.276749
v 0.490850 0.344146 0.218041
v -0.256462 0.545359 0.226329
v -0.256462 0.545359 0.226329
v 0.482055 0.343140 0.339129
v 0.467776 0.285911 0.276749
v -0.247453 0.581465 0.265687
v -0.247453 0.581465 0.265687
v 0.505129 0.401375 0.280422
v 0.482055 0.343140 0.339129
v -0.232894 0.618209 0.228647
v -0.232894 0.618209 0.228647
v 0.490850 0.344146 0.218041
v 0.505129 0.401375 0.280422
v -0.241903 0.582102 0.189288
v 0.343065 0.386599 0.192905
v 0.341123 0.238792 0.124230
v 0.409562 0.325134 0.234073
v 0.317117 0.321492 0.258572
v 0.341123 0.238792 0.124230
v 0.343065 0.386599 0.192905
v 0.409562 0.325134 0.234073
v 0.341123 0.238792 0.124230
v 0.317117 0.321492 0.258572
v 0.343065 0.386599 0.192905
v 0.409562 0.325134 0.234073
v 0.351414 0.341544 0.232327
v 0.317117 0.321492 0.258572
v 0.363119 0.463492 0.264302
v 0.431408 0.516381 0.126078
v 0.434940 0.402638 0.232164
v 0.347010 0.399513 0.194505
v 0.431408 0.516381 0.126078
v 0.363119 0.463492 0.264302
v 0.434940 0.402638 0.232164
v 0.431408 0.516381 0.126078
v 0.347010 0.399513 0.194505
v 0.363119 0.463492 0.264302
v 0.434940 0.402638 0.232164
v 0.377131 0.419087 0.225760
v 0.347010 0.399513 0.194505
v 0.316562 0.322468 0.273208
v 0.322797 0.245305 0.416643
v 0.405671 0.330905 0.316601
v 0.332401 0.386536 0.342986
v 0.322797 0.245305 0.416643
v 0.316562 0.322468 0.273208
v 0.405671 0.330905 0.316601
v 0.322797 0.245305 0.416643
v 0.332401 0.386536 0.342986
v 0.316562 0.322468 0.273208
v 0.405671 0.330905 0.316601
v 0.348959 0.351757 0.314995
v 0.332401 0.386536 0.342986
v -0.225086 0.577220 0.171735
v -0.233342 0.576274 0.285403
v -0.246746 0.522552 0.226844
v -0.211683 0.630942 0.230293
v -0.156272 0.554807 0.176546
v -0.164528 0.553861 0.290214
v -0.142868 0.608527 0.235104
v -0.177931 0.500139 0.231657
v -0.225086 0.577220 0.171735
v -0.177931 0.500139 0.231657
v -0.156272 0.554807 0.176546
v -0.246746 0.522552 0.226844
v -0.164528 0.553861 0.290214
v -0.246746 0.522552 0.226844
v -0.233342 0.576274 0.285403
v -0.246746 0.522552 0.226844
v -0.164528 0.553861 0.290214
v -0.177931 0.500139 0.231657
v -0.233342 0.576274 0.285403
v -0.142868 0.608527 0.235104
v -0.164528 0.553861 0.290214
v -0.211683 0.630942 0.230293
v -0.211683 0.630942 0.230293
v -0.156272 0.554807 0.176546
v -0.142868 0.608527 0.235104
v -0.225086 0.577220 0.171735
v -0.047756 0.808805 0.295872
v -0.067148 0.850662 0.361613
v 0.026490 0.811106 0.225564
v 0.060118 0.843423 0.144274
v -0.031368 0.768662 0.155918
v -0.147763 0.803432 0.215408
v -0.031368 0.768662 0.155918
v -0.195611 0.873508 0.144498
v -0.067148 0.850662 0.361613
v -0.047756 0.808805 0.295872
v 0.145288 0.799247 0.247010
v -0.066913 0.806485 0.443884
v -0.067148 0.850662 0.361613
v -0.258980 0.851405 0.247320
v -0.195611 0.873508 0.144498
v 0.060118 0.843423 0.144274
v -0.051339 0.704683 0.323588
v -0.134529 0.682220 0.243414
v -0.147763 0.803432 0.215408
v -0.047756 0.808805 0.295872
v -0.044204 0.667369 0.188264
v -0.031368 0.768662 0.155918
v -0.041004 0.994405 0.001102
v -0.104326 1.091260 0.001102
v -0.058478 0.993910 0.089106
v -0.104326 1.091260 0.001102
v -0.041004 0.994405 0.001102
v -0.058478 0.993910 -0.086902
v -0.058478 0.993910 -0.086902
v -0.041004 0.994405 0.001102
v 0.037391 0.917297 -0.069678
v -0.041004 0.994405 0.001102
v -0.058478 0.993910 0.089106
v 0.037391 0.917297 0.071883
v -0.055883 0.957518 -0.040793
v -0.229650 1.064320 -0.244353
v -0.129014 0.715553 -0.015279
v -0.347757 0.778815 -0.174796
v -0.055883 0.957518 0.042997
v -0.129014 0.715553 0.017484
v -0.229650 1.064320 0.246557
v -0.347757 0.778815 0.177000
v 0.036180 0.000886 0.162161
v -0.057207 0.129696 0.097870
v -0.041765 0.000886 0.117953
v 0.028643 0.130711 0.164018
v 0.092314 0.050592 0.064673
v 0.117110 0.068108 0.126598
v 0.204293 0.001474 0.086154
v 0.093753 0.002652 0.126598
v 0.068956 0.002652 0.055371
v 0.045760 0.002652 0.286653
v -0.057114 0.129703 0.216222
v 0.069117 0.056558 0.273178
v 0.093914 0.068108 0.203267
v 0.070556 0.002652 0.203267
v 0.159682 0.001474 0.294414
vn -0.125560 -0.406884 0.904809
vn -0.416688 -0.849924 -0.322491
vn -0.666400 0.048298 -0.744028
vn 0.996020 0.089130 -0.000000
vn 0.947091 0.320964 -0.000406
vn 0.875684 0.250399 -0.412888
vn 0.599571 0.503040 -0.622467
vn 0.574459 0.128797 -0.808337
vn 0.289556 0.283848 -0.914105
vn 0.185889 0.433111 -0.881964
vn 0.176559 0.571865 -0.801122
vn 0.141763 0.989901 0.000000
vn 0.326180 0.945308 0.000000
vn 0.176559 0.571865 0.801123
vn 0.185889 0.433111 0.881964
vn 0.349492 0.131943 0.927603
vn 0.375325 0.926893 -0.000000
vn 0.629432 0.358292 -0.689523
vn 0.629432 0.358292 0.689523
vn 0.788218 0.615396 -0.000000
vn 0.996178 0.087340 -0.000424
vn 0.996106 -0.088151 -0.001643
vn 0.584873 0.011617 0.811041
vn 0.599571 0.503041 0.622466
vn 0.875685 0.250400 0.412888
vn 0.209632 -0.911768 -0.353177
vn 0.297901 -0.532825 0.792056
vn 0.547674 0.826511 0.130126
vn 0.240837 -0.805320 0.541717
vn 0.376309 0.823843 -0.423881
vn 0.282759 -0.678044 -0.678457
vn -0.924392 0.015388 0.381135
vn -0.050311 -0.901534 -0.429773
vn -0.843952 0.250789 0.474184
vn -0.406332 -0.515242 0.754599
vn -0.939184 0.155423 -0.306231
vn 0.008817 0.019033 0.999780
vn -0.623173 -0.527730 -0.577197
vn 0.835808 -0.299559 -0.460097
vn 0.773993 0.189321 -0.604228
vn 0.109978 -0.297559 0.948348
vn 0.762990 -0.294313 -0.575522
vn -0.623173 -0.527730 -0.577197
vn 0.835808 -0.299559 -0.460097
vn 0.762990 -0.294313 -0.575522
vn -0.939184 0.155423 -0.306231
vn 0.773993 0.189321 -0.604228
vn -0.843952 0.250789 0.474184
vn 0.109978 -0.297559 0.948348
vn -0.924392 0.015388 0.381135
vn 0.240837 -0.805320 0.541717
vn -0.444076 -0.064763 0.893646
vn 0.209632 -0.911768 -0.353177
vn -0.903729 0.240309 0.354296
vn 0.297901 -0.532825 0.792056
vn -0.102448 -0.554431 0.825900
vn -0.181589 -0.109808 0.977224
vn 0.296496 0.626018 0.721244
vn 0.981595 0.190701 0.010246
vn 0.672860 0.426479 -0.604462
vn 0.585111 -0.775508 0.237133
vn 0.229029 -0.861551 -0.453074
vn -0.270399 -0.716241 0.643337
vn 0.893165 -0.211329 0.396985
vn -0.291449 -0.474315 -0.830712
vn 0.224265 0.698741 -0.679313
vn -0.322252 0.181695 -0.929054
vn 0.843110 0.325714 0.427874
vn 0.364386 -0.876456 0.314719
vn 0.873634 -0.110144 -0.473954
vn 0.240415 -0.424572 0.872891
vn -0.091954 -0.484397 0.870003
vn 0.857715 0.335425 0.389635
vn 0.746316 -0.111572 0.656174
vn 0.992144 0.125101 0.000581
vn 0.917253 0.053081 0.394752
vn 0.140444 0.070026 0.987609
vn 0.129362 0.082595 -0.988152
vn 0.740913 -0.098017 -0.664410
vn 0.267931 -0.501212 -0.822800
vn 0.842773 0.376107 -0.385068
vn 0.809472 0.587158 -0.000000
vn 0.211217 0.942449 0.259187
vn -0.096493 -0.619850 -0.778765
vn 0.914579 0.077824 -0.396850
vn 0.917253 0.053081 0.394752
vn 0.210187 0.950769 -0.227729
vn 0.350268 0.936650 0.000000
vn -0.322252 0.181695 0.929054
vn -0.291449 -0.474315 0.830712
vn -0.167240 -0.856213 0.488804
vn -0.574439 -0.732755 0.364813
vn -0.983648 0.006911 -0.179969
vn -0.270399 -0.716241 -0.643337
vn -0.181589 -0.109809 -0.977224
vn -0.102448 -0.554431 -0.825900
vn 0.532329 -0.306553 0.789082
vn 0.075754 -0.131726 0.988387
vn 0.645565 -0.358348 0.674413
vn 0.951752 0.065528 -0.299790
vn 0.985619 0.074100 -0.151871
vn 0.081286 0.307112 -0.948196
vn 0.149049 0.183106 -0.971729
vn -0.335285 0.435047 -0.835654
vn 0.896503 0.015672 -0.442760
vn 0.184946 0.284735 -0.940596
vn -0.273668 0.197929 -0.941239
vn 0.972845 -0.226989 0.045255
vn 0.012044 -0.111867 0.993650
vn 0.153443 -0.777894 0.609374
vn -0.082112 0.336848 -0.937972
vn 0.990076 -0.041388 -0.134298
vn 0.585111 -0.775508 -0.237133
vn -0.574439 -0.732755 0.364813
vn -0.167240 -0.856213 0.488804
vn -0.270399 -0.716241 -0.643337
vn 0.229029 -0.861551 0.453074
vn -0.102448 -0.554431 -0.825900
vn 0.893164 -0.211329 -0.396985
vn -0.291449 -0.474315 0.830712
vn 0.873634 -0.110144 0.473954
vn 0.364386 -0.876456 -0.314720
vn -0.978223 -0.168905 0.120628
vn 0.080030 0.894439 -0.439971
vn -0.781113 0.623660 0.030180
vn 0.156132 0.079632 -0.984521
vn -0.389254 0.179808 -0.903411
vn 0.277613 -0.706681 0.650794
vn 0.069766 -0.586866 0.806673
vn -0.930713 -0.266379 0.250629
vn -0.970071 -0.218854 -0.105192
vn 0.153443 -0.777894 0.609374
vn 0.012044 -0.111867 0.993650
vn -0.915550 0.220143 -0.336609
vn -0.925161 0.371710 -0.076870
vn -0.082112 0.336848 -0.937972
vn -0.273668 0.197929 -0.941239
vn 0.917253 0.053081 0.394752
vn 0.972845 -0.226989 0.045255
vn 0.928141 -0.350449 0.125459
vn 0.914579 0.077824 -0.396850
vn 0.184946 0.284735 -0.940596
vn 0.129362 0.082595 -0.988152
vn 0.153443 -0.777894 0.609374
vn -0.903729 0.240309 0.354296
vn -0.444076 -0.064763 0.893646
vn 0.981480 -0.033845 0.188550
vn -0.207735 0.216658 0.953890
vn 0.270291 -0.249875 0.929788
vn 0.948425 -0.296342 0.112566
vn 0.132356 -0.302694 -0.943853
vn 0.176337 -0.724485 -0.666353
vn 0.981595 0.190701 -0.010246
vn -0.322252 0.181695 0.929054
vn 0.114139 0.195996 0.973939
vn 0.990076 -0.041387 0.134298
vn -0.083583 0.274328 0.957997
vn -0.066889 -0.056022 -0.996186
vn 0.187724 -0.295376 -0.936757
vn -0.181589 -0.109809 -0.977224
vn -0.083583 0.274328 0.957997
vn -0.967858 0.247211 0.046237
vn -0.904940 0.293195 0.308415
vn -0.066889 -0.056022 -0.996186
vn 0.187724 -0.295376 -0.936757
vn -0.983648 0.006911 -0.179969
vn -0.181589 -0.109809 -0.977224
vn -0.322252 0.181695 0.929054
vn 0.114139 0.195996 0.973939
vn -0.181589 -0.109808 0.977224
vn -0.102448 -0.554431 0.825900
vn -0.270399 -0.716241 0.643337
vn -0.983648 0.006912 0.179968
vn -0.574440 -0.732755 -0.364813
vn -0.322252 0.181695 -0.929054
vn -0.167240 -0.856213 -0.488804
vn -0.291449 -0.474315 -0.830712
vn -0.102448 -0.554431 0.825900
vn 0.893165 -0.211329 0.396985
vn 0.229029 -0.861551 -0.453074
vn -0.270399 -0.716241 0.643337
vn 0.585111 -0.775508 0.237133
vn -0.574440 -0.732755 -0.364813
vn -0.167240 -0.856213 -0.488804
vn 0.364386 -0.876456 0.314719
vn -0.291449 -0.474315 -0.830712
vn 0.873634 -0.110144 -0.473954
vn 0.990076 -0.041388 -0.134298
vn -0.082112 0.336848 -0.937972
vn 0.114139 0.195996 -0.973939
vn 0.981595 0.190701 0.010246
vn -0.322252 0.181695 -0.929054
vn 0.012044 -0.111867 0.993650
vn 0.187724 -0.295376 0.936757
vn -0.181589 -0.109808 0.977224
vn -0.925161 0.371710 -0.076870
vn 0.012044 -0.111867 0.993650
vn 0.187724 -0.295376 0.936757
vn -0.181589 -0.109808 0.977224
vn -0.983648 0.006912 0.179968
vn -0.322252 0.181695 -0.929054
vn 0.114139 0.195996 -0.973939
vn -0.082112 0.336848 -0.937972
vn -0.987247 -0.013952 0.158583
vn 0.645565 -0.358348 0.674413
vn 0.075754 -0.131726 0.988387
vn -0.964329 -0.260982 0.044250
vn -0.335285 0.435047 -0.835654
vn 0.081286 0.307112 -0.948196
vn 0.985619 0.074100 -0.151871
vn -0.125560 -0.406884 0.904809
vn 0.532329 -0.306553 0.789082
vn 0.853700 -0.046807 -0.518658
vn 0.149049 0.183106 -0.971729
vn -0.666400 0.048298 -0.744028
vn -0.964329 -0.260982 0.044250
vn 0.532329 -0.306553 0.789082
vn -0.125560 -0.406884 0.904809
vn -0.666400 0.048298 -0.744028
vn 0.149049 0.183106 -0.971729
vn 0.080030 0.894439 -0.439971
vn -0.781113 0.623660 0.030180
vn -0.214092 0.972818 -0.088258
vn 0.025650 0.956886 -0.289328
vn 0.344989 0.920002 -0.185957
vn 0.842773 0.376107 -0.385068
vn 0.008817 0.019033 0.999780
vn -0.623173 -0.527730 -0.577197
vn -0.988961 -0.097072 0.111954
vn -0.207735 0.216658 0.953890
vn 0.981480 -0.033845 0.188550
vn 0.762990 -0.294313 -0.575522
vn 0.762990 -0.294313 -0.575522
vn 0.981480 -0.033845 0.188550
vn 0.132356 -0.302694 -0.943853
vn -0.623173 -0.527730 -0.577197
vn -0.988961 -0.097072 0.111954
vn 0.898062 0.014105 0.439642
vn 0.990076 -0.041387 0.134298
vn -0.083583 0.274328 0.957997
vn -0.279250 0.198892 0.939394
vn 0.189499 0.288016 0.938689
vn 0.928141 -0.350449 0.125459
vn -0.066889 -0.056022 -0.996186
vn 0.181921 -0.223537 -0.957568
vn -0.666400 0.048298 -0.744028
vn -0.416688 -0.849924 -0.322491
vn 0.853700 -0.046807 -0.518658
vn -0.125560 -0.406884 0.904809
vn 0.185889 0.433111 -0.881964
vn 0.982872 -0.184289 0.000000
vn 0.289556 0.283848 -0.914105
vn 0.000000 0.000000 1.000000
vn 0.560170 -0.358457 -0.746806
vn 0.466838 -0.321599 -0.823794
vn 0.560170 -0.358457 -0.746806
vn 0.996106 -0.088151 -0.001643
vn 0.584873 0.011617 0.811041
vn 0.561169 -0.358839 0.745871
vn 0.349492 0.131943 0.927603
vn 0.240415 -0.424572 0.872891
vn -0.571547 -0.534720 0.622422
vn -0.091954 -0.484397 0.870003
vn -0.874858 0.389844 0.287482
vn -0.969239 0.246121 -0.000000
vn -0.425764 0.805186 0.412795
vn -0.358177 0.933654 0.000000
vn 0.211217 0.942449 0.259187
vn 0.350268 0.936650 0.000000
vn -0.425764 0.805187 -0.412795
vn -0.817260 -0.576268 0.000595
vn -0.827058 -0.252125 0.502402
vn -0.827058 -0.252125 0.502402
vn -0.913160 -0.214928 -0.346330
vn -0.585310 -0.577384 -0.569245
vn -0.781113 0.623660 0.030180
vn 0.210187 0.950769 -0.227729
vn 0.129362 0.082595 -0.988152
vn 0.267931 -0.501212 -0.822800
vn -0.096493 -0.619850 -0.778765
vn 0.140444 0.070026 0.987609
vn -0.992278 -0.124035 0.000000
vn 0.000000 0.000000 1.000000
vn 0.185889 0.433111 0.881964
vn 0.349492 0.131943 0.927603
vn -0.966710 -0.195468 0.165119
vn -0.066889 -0.056022 -0.996186
vn 0.181921 -0.223537 -0.957568
vn -0.904940 0.293195 0.308415
vn -0.279250 0.198892 0.939394
vn -0.083583 0.274328 0.957997
vn -0.966710 -0.195468 0.165119
vn 0.153443 -0.777894 0.609374
vn -0.970071 -0.218854 -0.105192
vn -0.913160 -0.214928 -0.346330
vn -0.827058 -0.252125 0.502402
vn 0.184946 0.284735 -0.940596
vn 0.129362 0.082595 -0.988152
vn -0.273668 0.197929 -0.941239
vn 0.189499 0.288016 0.938689
vn 0.140444 0.070026 0.987609
vn 0.917253 0.053081 0.394752
vn 0.928141 -0.350449 0.125459
vn 0.189499 0.288016 0.938689
vn -0.279250 0.198892 0.939394
vn -0.966710 -0.195468 0.165119
vn -0.827058 -0.252125 0.502402
vn 0.140444 0.070026 0.987609
vn 0.645565 -0.358348 0.674413
vn 0.069766 -0.586866 0.806673
vn 0.884636 -0.228721 -0.406331
vn 0.951752 0.065528 -0.299790
vn -0.389254 0.179808 -0.903411
vn 0.081286 0.307112 -0.948196
vn 0.081286 0.307112 -0.948196
vn -0.389254 0.179808 -0.903411
vn -0.987247 -0.013952 0.158583
vn -0.930713 -0.266379 0.250629
vn 0.069766 -0.586866 0.806673
vn 0.645565 -0.358348 0.674413
vn 0.967367 -0.214683 0.134582
vn -0.335285 0.435047 -0.835654
vn 0.638157 0.126933 -0.759371
vn 0.318092 -0.628075 0.710168
vn -0.964329 -0.260982 0.044250
vn 0.318092 -0.628075 0.710168
vn -0.957575 0.061289 -0.281592
vn -0.964329 -0.260982 0.044250
vn -0.335285 0.435047 -0.835654
vn 0.638157 0.126933 -0.759371
vn 0.638157 0.126933 -0.759371
vn -0.380454 -0.871550 -0.309282
vn 0.318092 -0.628075 0.710168
vn 0.318092 -0.628075 0.710168
vn -0.380454 -0.871550 -0.309282
vn -0.957575 0.061289 -0.281592
vn 0.638157 0.126933 -0.759371
vn -0.637822 -0.300933 0.708959
vn 0.075754 -0.131726 0.988387
vn 0.987682 -0.134004 0.080787
vn 0.774764 -0.000385 -0.632250
vn -0.123037 -0.100206 -0.987330
vn -0.964329 -0.260982 0.044250
vn 0.075754 -0.131726 0.988387
vn -0.637822 -0.300933 0.708959
vn -0.964329 -0.260982 0.044250
vn -0.123037 -0.100206 -0.987330
vn -0.637822 -0.300933 0.708959
vn 0.987682 -0.134004 0.080787
vn 0.342278 -0.458927 -0.819898
vn -0.123037 -0.100206 -0.987330
vn -0.123037 -0.100206 -0.987330
vn -0.637822 -0.300933 0.708959
vn 0.342278 -0.458927 -0.819898
vn 0.277613 -0.706681 0.650794
vn 0.842773 0.376107 -0.385068
vn 0.910313 -0.264922 -0.318036
vn 0.080030 0.894439 -0.439971
vn 0.156132 0.079632 -0.984521
vn 0.069766 -0.586866 0.806673
vn 0.884636 -0.228721 -0.406331
vn -0.389254 0.179808 -0.903411
vn 0.290724 -0.617239 0.731092
vn 0.290724 -0.617239 0.731092
vn 0.290724 -0.617239 0.731092
vn -0.875030 0.468262 0.122689
vn -0.875030 0.468262 0.122689
vn -0.875030 0.468262 0.122689
vn 0.691244 0.541910 -0.478032
vn 0.691244 0.541910 -0.478032
vn 0.691244 0.541910 -0.478032
vn -0.166311 -0.666605 -0.726621
vn -0.166311 -0.666605 -0.726621
vn -0.166311 -0.666605 -0.726621
vn -0.166311 -0.666605 -0.726621
vn -0.948740 0.309017 -0.066343
vn -0.948740 0.309017 -0.066343
vn -0.948740 0.309017 -0.066343
vn -0.948740 0.309017 -0.066343
vn 0.948740 -0.309017 0.066343
vn 0.948740 -0.309017 0.066343
vn 0.948740 -0.309017 0.066343
vn 0.948740 -0.309017 0.066343
vn -0.204012 -0.653752 -0.728689
vn -0.204012 -0.653752 -0.728689
vn -0.204012 -0.653752 -0.728689
vn -0.204012 -0.653752 -0.728689
vn -0.306382 -0.665479 0.680637
vn -0.306382 -0.665479 0.680637
vn -0.306382 -0.665479 0.680637
vn -0.306382 -0.665480 0.680637
vn 0.128345 0.678398 0.723398
vn 0.128345 0.678398 0.723398
vn 0.128345 0.678398 0.723398
vn 0.128345 0.678398 0.723398
vn 0.230715 0.690125 -0.685928
vn 0.230715 0.690125 -0.685928
vn 0.230715 0.690125 -0.685928
vn 0.230715 0.690125 -0.685928
vn -0.664187 -0.005793 -0.747544
vn -0.622171 0.424786 0.657617
vn -0.691312 -0.684803 0.230504
vn -0.122659 0.949918 -0.287420
vn 0.746929 0.030746 -0.664192
vn 0.496095 -0.435607 0.751090
vn 0.615179 0.709886 0.342954
vn 0.119180 -0.949085 -0.291605
vn -0.664187 -0.005793 -0.747544
vn 0.119180 -0.949085 -0.291605
vn 0.746929 0.030746 -0.664192
vn -0.691312 -0.684803 0.230504
vn -0.691312 -0.684803 0.230504
vn 0.496095 -0.435607 0.751090
vn 0.119180 -0.949085 -0.291605
vn -0.622171 0.424786 0.657617
vn -0.622171 0.424786 0.657617
vn 0.615179 0.709886 0.342954
vn 0.496095 -0.435607 0.751090
vn -0.122659 0.949918 -0.287420
vn -0.122659 0.949918 -0.287420
vn 0.746929 0.030746 -0.664192
vn 0.615179 0.709886 0.342954
vn -0.664187 -0.005793 -0.747544
vn 0.686594 0.298913 -0.662752
vn 0.686594 0.298913 -0.662752
vn 0.686594 0.298913 -0.662752
vn -0.959335 0.129214 -0.250960
vn -0.959335 0.129214 -0.250960
vn -0.959335 0.129214 -0.250960
vn 0.175216 -0.824128 0.538621
vn 0.175216 -0.824128 0.538621
vn 0.175216 -0.824128 0.538621
vn 0.166311 0.666605 0.726621
vn 0.166311 0.666605 0.726621
vn 0.166311 0.666605 0.726621
vn 0.166311 0.666605 0.726621
vn 0.673630 0.515167 0.529930
vn 0.673630 0.515167 0.529930
vn 0.673630 0.515167 0.529930
vn -0.848204 0.473190 -0.237995
vn -0.848204 0.473190 -0.237995
vn -0.848204 0.473190 -0.237995
vn 0.321462 -0.640497 -0.697443
vn 0.321462 -0.640497 -0.697443
vn 0.321462 -0.640497 -0.697443
vn -0.268763 -0.678342 0.683827
vn -0.268762 -0.678342 0.683827
vn -0.268763 -0.678342 0.683827
vn -0.268763 -0.678342 0.683827
vn 0.303688 -0.833492 -0.461589
vn 0.303688 -0.833492 -0.461589
vn 0.303688 -0.833492 -0.461589
vn -0.986161 0.124287 0.109724
vn -0.986161 0.124287 0.109724
vn -0.986161 0.124287 0.109724
vn 0.544999 0.358279 0.758032
vn 0.544999 0.358279 0.758032
vn 0.544999 0.358279 0.758032
vn 0.268763 0.678342 -0.683827
vn 0.268763 0.678342 -0.683827
vn 0.268763 0.678342 -0.683827
vn 0.268763 0.678342 -0.683827
vn -0.948740 0.309017 -0.066342
vn -0.948740 0.309017 -0.066342
vn -0.948740 0.309017 -0.066342
vn -0.948740 0.309017 -0.066342
vn 0.948740 -0.309017 0.066343
vn 0.948740 -0.309017 0.066343
vn 0.948740 -0.309017 0.066343
vn 0.948740 -0.309017 0.066343
vn -0.166311 -0.666605 -0.726621
vn -0.166311 -0.666605 -0.726621
vn -0.166311 -0.666605 -0.726621
vn -0.166311 -0.666605 -0.726621
vn -0.268762 -0.678342 0.683827
vn -0.268762 -0.678342 0.683827
vn -0.268762 -0.678342 0.683827
vn -0.268763 -0.678342 0.683827
vn -0.268763 -0.678342 0.683827
vn -0.268763 -0.678342 0.683827
vn 0.166311 0.666605 0.726621
vn 0.166311 0.666605 0.726621
vn 0.166311 0.666605 0.726621
vn 0.166311 0.666605 0.726621
vn 0.268762 0.678342 -0.683827
vn 0.268762 0.678342 -0.683827
vn 0.268762 0.678342 -0.683827
vn 0.268762 0.678342 -0.683827
vn 0.270291 -0.249875 0.929788
vn 0.134786 0.725019 0.675412
vn 0.948425 -0.296342 0.112566
vn 0.857715 0.335425 0.389635
vn 0.176337 -0.724485 -0.666353
vn -0.906205 -0.417228 0.068654
vn 0.176337 -0.724485 -0.666353
vn -0.874858 0.389844 0.287482
vn 0.134786 0.725019 0.675412
vn 0.270291 -0.249875 0.929788
vn 0.371018 0.881416 0.292319
vn 0.082818 0.878092 0.471270
vn 0.134786 0.725019 0.675412
vn -0.182189 0.932498 0.311857
vn -0.874858 0.389844 0.287482
vn 0.857715 0.335425 0.389635
vn -0.207735 0.216658 0.953890
vn -0.988961 -0.097072 0.111954
vn -0.906205 -0.417228 0.068654
vn 0.270291 -0.249875 0.929788
vn 0.132356 -0.302694 -0.943853
vn 0.176337 -0.724485 -0.666353
vn -0.745823 -0.666145 -0.000000
vn -0.825252 -0.539540 -0.166900
vn -0.825252 -0.539540 -0.166900
vn -0.825252 -0.539540 0.166899
vn -0.745823 -0.666145 -0.000000
vn -0.825252 -0.539540 0.166899
vn -0.633135 -0.763045 0.130011
vn -0.745823 -0.666145 -0.000000
vn -0.633135 -0.763045 0.130011
vn -0.745823 -0.666145 -0.000000
vn -0.633135 -0.763044 -0.130011
vn -0.633135 -0.763044 -0.130011
vn 0.000000 0.000000 1.000000
vn -1.000000 -0.000000 0.000000
vn -1.000000 -0.000000 0.000000
vn 0.000000 0.000000 1.000000
vn 0.000000 0.000000 1.000000
vn -0.707107 -0.000000 0.707107
vn -0.707107 -0.000000 0.707107
vn 0.000000 0.000000 1.000000
vn 0.585111 -0.775508 -0.237133
vn -0.181589 -0.109809 -0.977224
vn -0.270399 -0.716241 -0.643337
vn 0.981595 0.190701 -0.010246
vn 0.296495 0.626018 -0.721244
vn 0.672860 0.426479 0.604463
vn 0.893164 -0.211329 -0.396985
vn 0.229029 -0.861551 0.453074
vn -0.102448 -0.554431 -0.825900
vn -0.291449 -0.474315 0.830712
vn -0.322252 0.181695 0.929054
vn 0.224265 0.698742 0.679312
vn 0.843110 0.325714 -0.427874
vn 0.364386 -0.876456 -0.314720
vn 0.873634 -0.110144 0.473954
vt 0.302928 0.410603
vt 0.273390 0.272598
vt 0.259511 0.408232
vt 0.007458 0.163350
vt 0.007525 0.439711
vt 0.251320 0.232326
vt 0.182998 0.437644
vt 0.085703 0.555335
vt 0.133103 0.518717
vt 0.118257 0.666661
vt 0.160405 0.694378
vt 0.007228 0.770696
vt 0.007047 0.817293
vt 0.160405 0.694378
vt 0.118257 0.666661
vt 0.133103 0.518717
vt 0.007002 0.722444
vt 0.081146 0.646575
vt 0.081146 0.646575
vt 0.007263 0.664146
vt 0.007525 0.609114
vt 0.007525 0.539358
vt 0.085703 0.555335
vt 0.182998 0.437644
vt 0.251320 0.232326
vt 0.941457 0.384062
vt 0.928463 0.267992
vt 0.914516 0.381770
vt 0.941008 0.426886
vt 0.918823 0.424959
vt 0.916967 0.461006
vt 0.887273 0.524856
vt 0.917550 0.493996
vt 0.878876 0.571172
vt 0.917695 0.573083
vt 0.868416 0.595320
vt 0.913345 0.637545
vt 0.849511 0.637962
vt 0.959549 0.588472
vt 0.943776 0.538766
vt 0.942846 0.477503
vt 0.963894 0.648423
vt 0.242497 0.627513
vt 0.349699 0.592229
vt 0.354516 0.648566
vt 0.249438 0.568626
vt 0.329859 0.499831
vt 0.255540 0.506964
vt 0.311559 0.447131
vt 0.260433 0.453498
vt 0.301496 0.396784
vt 0.258695 0.410774
vt 0.292177 0.359462
vt 0.265275 0.368620
vt 0.276847 0.282608
vt 0.709872 0.142475
vt 0.754219 0.249040
vt 0.736523 0.181721
vt 0.809704 0.249891
vt 0.778317 0.197380
vt 0.808147 0.142445
vt 0.778317 0.142475
vt 0.771065 0.142445
vt 0.744371 0.142627
vt 0.931419 0.142475
vt 0.881935 0.185759
vt 0.853492 0.249046
vt 0.842627 0.197380
vt 0.842627 0.142475
vt 0.903156 0.142441
vt 0.779949 0.749510
vt 0.800501 0.785002
vt 0.793144 0.847712
vt 0.745446 0.762254
vt 0.674296 0.774999
vt 0.735724 0.706684
vt 0.760753 0.706684
vt 0.760753 0.706684
vt 0.745446 0.762254
vt 0.779949 0.749510
vt 0.793144 0.847712
vt 0.674243 0.875210
vt 0.786380 0.920486
vt 0.800501 0.785002
vt 0.735724 0.706684
vt 0.614795 0.706684
vt 0.786380 0.920486
vt 0.673984 0.974356
vt 0.348136 0.252121
vt 0.289325 0.144323
vt 0.356842 0.144557
vt 0.417782 0.144855
vt 0.402496 0.251466
vt 0.466623 0.144557
vt 0.446962 0.252116
vt 0.482450 0.144323
vt 0.874219 0.568973
vt 0.849519 0.599809
vt 0.849486 0.648993
vt 0.910831 0.658192
vt 0.914495 0.592905
vt 0.959210 0.644163
vt 0.941538 0.554334
vt 0.962266 0.596304
vt 0.766545 0.510761
vt 0.781029 0.670285
vt 0.823671 0.582454
vt 0.722718 0.613851
vt 0.696479 0.461438
vt 0.675223 0.595302
vt 0.813067 0.471973
vt 0.778833 0.447673
vt 0.163759 0.900522
vt 0.042303 0.981344
vt 0.122412 0.953155
vt 0.100024 0.889215
vt 0.194386 0.862425
vt 0.160326 0.819903
vt 0.259990 0.808441
vt 0.200299 0.982981
vt 0.279684 0.960587
vt 0.197078 0.920223
vt 0.346572 0.814696
vt 0.225430 0.850230
vt 0.406074 0.841985
vt 0.276557 0.819184
vt 0.247344 0.726497
vt 0.400889 0.785663
vt 0.375751 0.709052
vt 0.328764 0.718086
vt 0.481262 0.620400
vt 0.525602 0.596817
vt 0.504442 0.463556
vt 0.422438 0.467073
vt 0.419010 0.407490
vt 0.388380 0.474044
vt 0.377823 0.584027
vt 0.614795 0.706684
vt 0.722718 0.613851
vt 0.627756 0.613968
vt 0.735724 0.706684
vt 0.781029 0.670285
vt 0.760753 0.706684
vt 0.675223 0.595302
vt 0.897937 0.414080
vt 0.890999 0.477181
vt 0.893043 0.727334
vt 0.951334 0.727474
vt 0.929985 0.810518
vt 0.885225 0.813361
vt 0.819412 0.712498
vt 0.808082 0.790498
vt 0.809704 0.249891
vt 0.853492 0.249046
vt 0.859431 0.395636
vt 0.778833 0.447673
vt 0.813067 0.471973
vt 0.696479 0.461438
vt 0.703734 0.348591
vt 0.754219 0.249040
vt 0.388380 0.474044
vt 0.419010 0.407490
vt 0.422438 0.467073
vt 0.504442 0.463556
vt 0.497220 0.351217
vt 0.402496 0.251466
vt 0.446962 0.252116
vt 0.348136 0.252121
vt 0.342225 0.398051
vt 0.446962 0.252116
vt 0.482450 0.144323
vt 0.466623 0.144557
vt 0.402496 0.251466
vt 0.417782 0.144910
vt 0.348136 0.252121
vt 0.356677 0.144557
vt 0.289325 0.144323
vt 0.160326 0.819903
vt 0.259990 0.808441
vt 0.194386 0.862425
vt 0.100024 0.889215
vt 0.163759 0.900522
vt 0.042303 0.981344
vt 0.122412 0.953155
vt 0.197078 0.920223
vt 0.200299 0.982981
vt 0.279684 0.960587
vt 0.778833 0.447673
vt 0.813067 0.471973
vt 0.859431 0.395636
vt 0.809704 0.249891
vt 0.853492 0.249046
vt 0.696479 0.461438
vt 0.703734 0.348591
vt 0.754219 0.249040
vt 0.419010 0.407490
vt 0.504442 0.463556
vt 0.497220 0.351217
vt 0.446962 0.252116
vt 0.402496 0.251466
vt 0.348136 0.252121
vt 0.342225 0.398051
vt 0.388380 0.474044
vt 0.294335 0.658141
vt 0.354565 0.650266
vt 0.356301 0.604404
vt 0.288555 0.593764
vt 0.239131 0.610827
vt 0.243332 0.645570
vt 0.914495 0.592905
vt 0.900131 0.408245
vt 0.874219 0.568973
vt 0.923490 0.415523
vt 0.941538 0.554334
vt 0.938231 0.405251
vt 0.288555 0.593764
vt 0.336042 0.566947
vt 0.302928 0.410603
vt 0.259511 0.408232
vt 0.256828 0.556644
vt 0.056476 0.149922
vt 0.274922 0.233956
vt 0.277590 0.109870
vt 0.009075 0.089980
vt 0.277549 0.109922
vt 0.274819 0.234107
vt 0.913345 0.637545
vt 0.849511 0.637962
vt 0.820393 0.711678
vt 0.896291 0.723452
vt 0.955230 0.727550
vt 0.963894 0.648423
vt 0.354516 0.648566
vt 0.374836 0.706522
vt 0.312003 0.714620
vt 0.242497 0.627513
vt 0.245155 0.716480
vt 0.766545 0.510761
vt 0.778833 0.447673
vt 0.813067 0.471973
vt 0.823671 0.582454
vt 0.781029 0.670285
vt 0.722718 0.613851
vt 0.696479 0.461438
vt 0.675223 0.595302
vt 0.938231 0.405251
vt 0.928577 0.269616
vt 0.923490 0.415523
vt 0.900131 0.408245
vt 0.009926 0.831418
vt 0.124539 0.844914
vt 0.115275 0.746548
vt 0.041352 0.938144
vt 0.070805 0.443722
vt 0.073922 0.419052
vt 0.119902 0.420488
vt 0.056827 0.486563
vt 0.070805 0.443722
vt 0.119902 0.420488
vt 0.073922 0.419052
vt 0.416345 0.753833
vt 0.467815 0.768711
vt 0.400889 0.785663
vt 0.406074 0.841985
vt 0.526720 0.873211
vt 0.457653 0.927949
vt 0.526261 0.965857
vt 0.414946 0.920536
vt 0.526211 0.986047
vt 0.457653 0.927949
vt 0.528739 0.772214
vt 0.472380 0.709699
vt 0.585758 0.709699
vt 0.472380 0.709699
vt 0.467815 0.768711
vt 0.406074 0.841985
vt 0.414946 0.920536
vt 0.444962 0.714703
vt 0.416345 0.753833
vt 0.400889 0.785663
vt 0.444962 0.714703
vt 0.124539 0.844914
vt 0.041352 0.938144
vt 0.009926 0.831418
vt 0.115275 0.746548
vt 0.481262 0.620400
vt 0.504442 0.463556
vt 0.525602 0.596817
vt 0.422438 0.467073
vt 0.377823 0.584027
vt 0.388380 0.474044
vt 0.569342 0.620314
vt 0.525602 0.596817
vt 0.481262 0.620400
vt 0.472380 0.709699
vt 0.585758 0.709699
vt 0.420273 0.671462
vt 0.444962 0.714703
vt 0.377823 0.584027
vt 0.781029 0.670285
vt 0.760753 0.706684
vt 0.735724 0.706684
vt 0.722718 0.613851
vt 0.420273 0.671462
vt 0.377823 0.584027
vt 0.481262 0.620400
vt 0.472380 0.709699
vt 0.444962 0.714703
vt 0.849486 0.648993
vt 0.823648 0.714361
vt 0.899164 0.725276
vt 0.910831 0.658192
vt 0.949736 0.729986
vt 0.959210 0.644163
vt 0.243332 0.645570
vt 0.247344 0.726497
vt 0.294335 0.658141
vt 0.328764 0.718086
vt 0.375751 0.709052
vt 0.354565 0.650266
vt 0.941538 0.554334
vt 0.962266 0.596304
vt 0.989290 0.495813
vt 0.962318 0.478681
vt 0.914490 0.592902
vt 0.239801 0.480722
vt 0.223219 0.512575
vt 0.288555 0.593764
vt 0.239131 0.610827
vt 0.212341 0.499606
vt 0.989290 0.495813
vt 0.990790 0.382720
vt 0.962318 0.478681
vt 0.239801 0.480722
vt 0.211457 0.385193
vt 0.223219 0.512575
vt 0.212341 0.499606
vt 0.828206 0.487996
vt 0.849519 0.599809
vt 0.843826 0.487650
vt 0.874219 0.568973
vt 0.861752 0.476613
vt 0.914490 0.592902
vt 0.356301 0.604404
vt 0.373309 0.489995
vt 0.288555 0.593764
vt 0.339914 0.478663
vt 0.828206 0.487996
vt 0.843826 0.487650
vt 0.874236 0.374728
vt 0.861752 0.476613
vt 0.339914 0.478663
vt 0.373309 0.489995
vt 0.329599 0.376738
vt 0.800501 0.785002
vt 0.793144 0.847712
vt 0.863582 0.820604
vt 0.975447 0.853783
vt 0.920391 0.816673
vt 0.823648 0.714361
vt 0.899164 0.725276
vt 0.949736 0.729986
vt 0.999518 0.004686
vt 0.956253 0.116693
vt 0.909519 0.004899
vt 0.909518 0.004900
vt 0.956253 0.116693
vt 0.999518 0.004686
vt 0.909521 0.004899
vt 0.956250 0.116693
vt 0.999551 0.004683
vt 0.000000 0.000000
vt 0.000000 0.000000
vt 0.000000 0.000000
vt 0.000000 0.000000
vt 0.996724 0.996911
vt 0.907825 0.908830
vt 0.996423 0.908808
vt 0.908179 0.997349
vt 0.996733 0.996920
vt 0.907707 0.908738
vt 0.908105 0.997417
vt 0.996561 0.908645
vt 0.900402 0.122025
vt 0.734781 0.004161
vt 0.734826 0.121731
vt 0.900329 0.004012
vt 0.900414 0.122021
vt 0.734776 0.004146
vt 0.734785 0.121715
vt 0.900351 0.003951
vt 0.900329 0.004012
vt 0.734826 0.121731
vt 0.734781 0.004161
vt 0.900402 0.122025
vt 0.900414 0.122022
vt 0.734776 0.004146
vt 0.734785 0.121715
vt 0.900352 0.003951
vt 0.996730 0.996912
vt 0.907796 0.908767
vt 0.996520 0.908696
vt 0.908162 0.997362
vt 0.996729 0.996911
vt 0.907759 0.908730
vt 0.908138 0.997351
vt 0.996491 0.908632
vt 0.609135 0.077935
vt 0.004348 0.004907
vt 0.004108 0.077952
vt 0.609088 0.004756
vt 0.609134 0.077929
vt 0.004348 0.004888
vt 0.004107 0.077945
vt 0.609088 0.004713
vt 0.609088 0.004756
vt 0.004108 0.077952
vt 0.004348 0.004907
vt 0.609135 0.077935
vt 0.609135 0.077930
vt 0.004349 0.004892
vt 0.004108 0.077944
vt 0.609090 0.004726
vt 0.999540 0.004679
vt 0.956254 0.116696
vt 0.909522 0.004899
vt 0.909522 0.004900
vt 0.956254 0.116696
vt 0.999540 0.004679
vt 0.909524 0.004899
vt 0.956254 0.116696
vt 0.999543 0.004681
vt 0.000000 0.000000
vt 0.000000 0.000000
vt 0.000000 0.000000
vt 0.000000 0.000000
vt 0.999506 0.004711
vt 0.956253 0.116697
vt 0.909522 0.004906
vt 0.999506 0.004711
vt 0.956253 0.116697
vt 0.909529 0.004906
vt 0.909522 0.004906
vt 0.956253 0.116697
vt 0.999506 0.004711
vt 0.999506 0.004711
vt 0.909522 0.004906
vt 0.956253 0.116696
vt 0.999506 0.004711
vt 0.999540 0.004679
vt 0.956254 0.116692
vt 0.909522 0.004900
vt 0.999518 0.004681
vt 0.956254 0.116692
vt 0.909522 0.004900
vt 0.909522 0.004900
vt 0.956254 0.116692
vt 0.999518 0.004681
vt 0.000000 0.000000
vt 0.000000 0.000000
vt 0.000000 0.000000
vt 0.000000 0.000000
vt 0.996729 0.996913
vt 0.907791 0.908785
vt 0.996495 0.908728
vt 0.908159 0.997368
vt 0.996729 0.996914
vt 0.907791 0.908790
vt 0.908158 0.997372
vt 0.996494 0.908738
vt 0.725445 0.121868
vt 0.618713 0.004467
vt 0.618715 0.121666
vt 0.725473 0.004503
vt 0.618713 0.004514
vt 0.725450 0.121848
vt 0.725471 0.004534
vt 0.725450 0.121848
vt 0.618713 0.004514
vt 0.618714 0.121631
vt 0.725473 0.004503
vt 0.618715 0.121666
vt 0.618713 0.004467
vt 0.725445 0.121868
vt 0.725449 0.121850
vt 0.618713 0.004516
vt 0.618714 0.121634
vt 0.725471 0.004535
vt 0.920391 0.816673
vt 0.975447 0.853783
vt 0.863582 0.820604
vt 0.793144 0.847712
vt 0.800501 0.785002
vt 0.346572 0.814696
vt 0.400889 0.785663
vt 0.406074 0.841985
vt 0.225430 0.850230
vt 0.276557 0.819184
vt 0.277549 0.109922
vt 0.009075 0.089980
vt 0.056476 0.149922
vt 0.277590 0.109870
vt 0.274922 0.233956
vt 0.274819 0.234107
vt 0.247559 0.724347
vt 0.327680 0.721001
vt 0.338242 0.808496
vt 0.262342 0.802360
vt 0.381137 0.705858
vt 0.384996 0.802724
vt 0.224248 0.608991
vt 0.172261 0.690595
vt 0.151102 0.561805
vt 0.172261 0.690595
vt 0.224248 0.608991
vt 0.150804 0.561615
vt 0.150804 0.561615
vt 0.224248 0.608991
vt 0.206530 0.506368
vt 0.224248 0.608991
vt 0.151102 0.561805
vt 0.206645 0.506441
vt 0.541762 0.895416
vt 0.668692 0.921536
vt 0.540192 0.781689
vt 0.668464 0.782848
vt 0.541762 0.895416
vt 0.540192 0.781689
vt 0.668692 0.921536
vt 0.668464 0.782848
vt 0.808147 0.142445
vt 0.754219 0.249040
vt 0.771065 0.142445
vt 0.809704 0.249891
vt 0.736523 0.181721
vt 0.778317 0.197380
vt 0.744371 0.142627
vt 0.778317 0.142475
vt 0.709872 0.142475
vt 0.931419 0.142475
vt 0.853492 0.249046
vt 0.881935 0.185759
vt 0.842627 0.197380
vt 0.842627 0.142475
vt 0.903156 0.142441
f 3/3/3 2/2/2 1/1/1
f 6/6/6 5/5/5 4/4/4
f 5/5/5 6/6/6 7/7/7
f 7/7/7 8/8/8 5/5/5
f 8/8/8 7/7/7 9/9/9
f 8/8/8 9/9/9 10/10/10
f 10/10/10 9/9/9 11/11/11
f 12/12/12 10/10/10 11/11/11
f 11/11/11 13/13/13 12/12/12
f 13/13/13 14/14/14 12/12/12
f 16/16/16 15/15/15 14/14/14
f 15/15/15 12/12/12 14/14/14
f 15/15/15 17/17/17 12/12/12
f 17/17/17 10/10/10 12/12/12
f 18/18/18 10/10/10 17/17/17
f 8/8/8 10/10/10 18/18/18
f 15/15/15 19/19/19 17/17/17
f 17/17/17 19/19/19 20/20/20
f 18/18/18 17/17/17 20/20/20
f 21/21/21 18/18/18 20/20/20
f 8/8/8 18/18/18 21/21/21
f 8/8/8 21/21/21 22/22/22
f 22/22/22 5/5/5 8/8/8
f 5/5/5 22/22/22 23/23/23
f 23/23/23 24/24/24 5/5/5
f 24/24/24 23/23/23 16/16/16
f 21/21/21 23/23/23 22/22/22
f 19/19/19 21/21/21 20/20/20
f 23/23/23 21/21/21 19/19/19
f 15/15/15 23/23/23 19/19/19
f 16/16/16 23/23/23 15/15/15
f 5/5/5 25/25/25 4/4/4
f 25/25/25 5/5/5 24/24/24
f 28/28/28 27/27/27 26/26/26
f 26/26/26 29/29/29 28/28/28
f 30/30/30 28/28/28 29/29/29
f 31/31/31 30/30/30 29/29/29
f 30/30/30 31/31/31 32/32/32
f 31/31/31 33/33/33 32/32/32
f 34/34/34 32/32/32 33/33/33
f 33/33/33 35/35/35 34/34/34
f 36/36/36 34/34/34 35/35/35
f 35/35/35 37/37/37 36/36/36
f 38/38/38 36/36/36 37/37/37
f 39/39/39 37/37/37 35/35/35
f 35/35/35 33/33/33 39/39/39
f 40/40/40 39/39/39 33/33/33
f 33/33/33 31/31/31 40/40/40
f 41/41/41 40/40/40 31/31/31
f 29/29/29 41/41/41 31/31/31
f 37/37/37 39/39/39 42/42/42
f 45/45/45 44/44/44 43/43/43
f 46/46/46 43/43/43 44/44/44
f 44/44/44 47/47/47 46/46/46
f 48/48/48 46/46/46 47/47/47
f 47/47/47 49/49/49 48/48/48
f 50/50/50 48/48/48 49/49/49
f 49/49/49 51/51/51 50/50/50
f 52/52/52 50/50/50 51/51/51
f 51/51/51 53/53/53 52/52/52
f 54/54/54 52/52/52 53/53/53
f 53/53/53 55/55/55 54/54/54
f 58/58/58 57/57/57 56/56/56
f 57/57/57 58/58/58 59/59/59
f 60/60/60 59/59/59 58/58/58
f 59/59/59 60/60/60 61/61/61
f 62/62/62 61/61/61 60/60/60
f 57/57/57 63/63/63 61/61/61
f 61/61/61 59/59/59 57/57/57
f 56/56/56 64/64/64 58/58/58
f 58/58/58 64/64/64 60/60/60
f 60/60/60 64/64/64 62/62/62
f 67/67/67 66/66/66 65/65/65
f 66/66/66 67/67/67 59/59/59
f 59/59/59 68/68/68 66/66/66
f 68/68/68 59/59/59 61/61/61
f 61/61/61 69/69/69 68/68/68
f 70/70/70 68/68/68 69/69/69
f 70/70/70 66/66/66 68/68/68
f 70/70/70 65/65/65 66/66/66
f 73/73/73 72/72/72 71/71/71
f 74/74/74 73/73/73 71/71/71
f 75/75/75 73/73/73 74/74/74
f 75/75/75 74/74/74 76/76/76
f 74/74/74 71/71/71 77/77/77
f 74/74/74 77/77/77 76/76/76
f 80/80/80 79/79/79 78/78/78
f 81/81/81 79/79/79 80/80/80
f 81/81/81 75/75/75 79/79/79
f 81/81/81 82/82/82 75/75/75
f 82/82/82 73/73/73 75/75/75
f 82/82/82 83/83/83 73/73/73
f 84/84/84 81/81/81 80/80/80
f 75/75/75 86/86/86 85/85/85
f 79/79/79 75/75/75 85/85/85
f 78/78/78 79/79/79 85/85/85
f 87/87/87 82/82/82 81/81/81
f 82/82/82 87/87/87 88/88/88
f 83/83/83 82/82/82 88/88/88
f 91/91/91 90/90/90 89/89/89
f 91/91/91 89/89/89 92/92/92
f 93/93/93 92/92/92 89/89/89
f 92/92/92 93/93/93 94/94/94
f 95/95/95 94/94/94 93/93/93
f 96/96/96 94/94/94 95/95/95
f 99/99/99 98/98/98 97/97/97
f 99/99/99 97/97/97 100/100/100
f 101/101/101 100/100/100 97/97/97
f 100/100/100 101/101/101 102/102/102
f 103/103/103 102/102/102 101/101/101
f 104/104/104 102/102/102 103/103/103
f 107/107/107 106/106/106 105/105/105
f 105/105/105 106/106/106 108/108/108
f 105/105/105 108/108/108 109/109/109
f 109/109/109 108/108/108 110/110/110
f 111/111/111 107/107/107 105/105/105
f 112/112/112 111/111/111 105/105/105
f 112/112/112 105/105/105 109/109/109
f 115/115/115 114/114/114 113/113/113
f 116/116/116 113/113/113 114/114/114
f 117/117/117 113/113/113 116/116/116
f 116/116/116 118/118/118 117/117/117
f 119/119/119 117/117/117 118/118/118
f 122/122/122 121/121/121 120/120/120
f 120/120/120 115/115/115 122/122/122
f 113/113/113 122/122/122 115/115/115
f 125/125/125 124/124/124 123/123/123
f 123/123/123 124/124/124 126/126/126
f 123/123/123 126/126/126 127/127/127
f 128/128/128 125/125/125 123/123/123
f 128/128/128 123/123/123 129/129/129
f 129/129/129 123/123/123 130/130/130
f 130/130/130 123/123/123 127/127/127
f 133/133/133 132/132/132 131/131/131
f 133/133/133 131/131/131 134/134/134
f 135/135/135 133/133/133 134/134/134
f 135/135/135 134/134/134 136/136/136
f 134/134/134 131/131/131 137/137/137
f 136/136/136 134/134/134 137/137/137
f 140/140/140 139/139/139 138/138/138
f 141/141/141 138/138/138 139/139/139
f 141/141/141 139/139/139 142/142/142
f 143/143/143 141/141/141 142/142/142
f 140/140/140 144/144/144 139/139/139
f 145/145/145 27/27/27 28/28/28
f 28/28/28 30/30/30 145/145/145
f 146/146/146 145/145/145 30/30/30
f 32/32/32 146/146/146 30/30/30
f 149/149/149 148/148/148 147/147/147
f 150/150/150 149/149/149 147/147/147
f 150/150/150 147/147/147 151/151/151
f 152/152/152 150/150/150 151/151/151
f 155/155/155 154/154/154 153/153/153
f 155/155/155 153/153/153 156/156/156
f 157/157/157 155/155/155 156/156/156
f 156/156/156 159/159/159 158/158/158
f 153/153/153 159/159/159 156/156/156
f 153/153/153 160/160/160 159/159/159
f 163/163/163 162/162/162 161/161/161
f 164/164/164 162/162/162 163/163/163
f 164/164/164 165/165/165 162/162/162
f 167/167/167 166/166/166 162/162/162
f 165/165/165 167/167/167 162/162/162
f 162/162/162 166/166/166 168/168/168
f 162/162/162 168/168/168 169/169/169
f 162/162/162 169/169/169 161/161/161
f 172/172/172 171/171/171 170/170/170
f 172/172/172 170/170/170 173/173/173
f 173/173/173 174/174/174 172/172/172
f 174/174/174 173/173/173 175/175/175
f 175/175/175 176/176/176 174/174/174
f 177/177/177 176/176/176 175/175/175
f 180/180/180 179/179/179 178/178/178
f 178/178/178 181/181/181 180/180/180
f 182/182/182 180/180/180 181/181/181
f 182/182/182 181/181/181 183/183/183
f 183/183/183 184/184/184 182/182/182
f 185/185/185 182/182/182 184/184/184
f 184/184/184 186/186/186 185/185/185
f 187/187/187 185/185/185 186/186/186
f 190/190/190 189/189/189 188/188/188
f 191/191/191 190/190/190 188/188/188
f 192/192/192 190/190/190 191/191/191
f 194/194/194 188/188/188 193/193/193
f 194/194/194 191/191/191 188/188/188
f 195/195/195 191/191/191 194/194/194
f 198/198/198 197/197/197 196/196/196
f 199/199/199 198/198/198 196/196/196
f 200/200/200 199/199/199 196/196/196
f 200/200/200 196/196/196 201/201/201
f 201/201/201 196/196/196 202/202/202
f 202/202/202 196/196/196 203/203/203
f 206/206/206 205/205/205 204/204/204
f 204/204/204 207/207/207 206/206/206
f 204/204/204 208/208/208 207/207/207
f 208/208/208 204/204/204 209/209/209
f 212/212/212 211/211/211 210/210/210
f 213/213/213 210/210/210 211/211/211
f 210/210/210 213/213/213 214/214/214
f 215/215/215 214/214/214 213/213/213
f 218/218/218 217/217/217 216/216/216
f 216/216/216 219/219/219 218/218/218
f 220/220/220 219/219/219 216/216/216
f 223/223/223 222/222/222 221/221/221
f 221/221/221 224/224/224 223/223/223
f 224/224/224 221/221/221 225/225/225
f 226/226/226 225/225/225 221/221/221
f 229/229/229 228/228/228 227/227/227
f 230/230/230 229/229/229 227/227/227
f 231/231/231 230/230/230 227/227/227
f 231/231/231 227/227/227 232/232/232
f 235/235/235 234/234/234 233/233/233
f 235/235/235 233/233/233 236/236/236
f 237/237/237 235/235/235 236/236/236
f 240/240/240 239/239/239 238/238/238
f 241/241/241 240/240/240 238/238/238
f 242/242/242 241/241/241 238/238/238
f 242/242/242 238/238/238 243/243/243
f 243/243/243 238/238/238 244/244/244
f 238/238/238 239/239/239 244/244/244
f 243/243/243 244/244/244 245/245/245
f 248/248/248 247/247/247 246/246/246
f 249/249/249 247/247/247 248/248/248
f 252/252/252 251/251/251 250/250/250
f 253/253/253 250/250/250 251/251/251
f 251/251/251 250/250/250 253/253/253
f 250/250/250 251/251/251 252/252/252
f 256/256/256 255/255/255 254/254/254
f 257/257/257 256/256/256 254/254/254
f 259/259/259 257/257/257 258/258/258
f 260/260/260 259/259/259 258/258/258
f 263/263/263 262/262/262 261/261/261
f 264/264/264 262/262/262 263/263/263
f 265/265/265 262/262/262 264/264/264
f 266/266/266 265/265/265 264/264/264
f 266/266/266 267/267/267 265/265/265
f 268/268/268 267/267/267 266/266/266
f 268/268/268 269/269/269 267/267/267
f 268/268/268 266/266/266 264/264/264
f 267/267/267 270/270/270 265/265/265
f 271/271/271 262/262/262 265/265/265
f 262/262/262 271/271/271 272/272/272
f 274/274/274 273/273/273 271/271/271
f 271/271/271 275/275/275 274/274/274
f 275/275/275 271/271/271 265/265/265
f 275/275/275 265/265/265 276/276/276
f 265/265/265 270/270/270 276/276/276
f 270/270/270 277/277/277 276/276/276
f 267/267/267 277/277/277 270/270/270
f 269/269/269 277/277/277 267/267/267
f 274/274/274 275/275/275 278/278/278
f 275/275/275 279/279/279 278/278/278
f 275/275/275 280/280/280 279/279/279
f 275/275/275 276/276/276 280/280/280
f 261/261/261 262/262/262 281/281/281
f 262/262/262 272/272/272 281/281/281
f 284/284/284 283/283/283 282/282/282
f 282/282/282 285/285/285 284/284/284
f 284/284/284 282/282/282 283/283/283
f 282/282/282 284/284/284 285/285/285
f 288/288/288 287/287/287 286/286/286
f 286/286/286 287/287/287 289/289/289
f 286/286/286 289/289/289 290/290/290
f 289/289/289 291/291/291 290/290/290
f 294/294/294 293/293/293 292/292/292
f 294/294/294 292/292/292 295/295/295
f 296/296/296 295/295/295 292/292/292
f 295/295/295 298/298/298 297/297/297
f 295/295/295 297/297/297 294/294/294
f 299/299/299 294/294/294 297/297/297
f 302/302/302 301/301/301 300/300/300
f 303/303/303 302/302/302 300/300/300
f 306/306/306 305/305/305 304/304/304
f 304/304/304 307/307/307 306/306/306
f 308/308/308 307/307/307 304/304/304
f 311/311/311 310/310/310 309/309/309
f 312/312/312 311/311/311 309/309/309
f 313/313/313 311/311/311 312/312/312
f 313/313/313 312/312/312 314/314/314
f 317/317/317 316/316/316 315/315/315
f 318/318/318 316/316/316 317/317/317
f 319/319/319 318/318/318 317/317/317
f 320/320/320 319/319/319 317/317/317
f 323/323/323 322/322/322 321/321/321
f 321/321/321 324/324/324 323/323/323
f 324/324/324 321/321/321 325/325/325
f 328/328/328 327/327/327 326/326/326
f 327/327/327 328/328/328 329/329/329
f 329/329/329 330/330/330 327/327/327
f 333/333/333 332/332/332 331/331/331
f 336/336/336 335/335/335 334/334/334
f 337/337/337 335/335/335 336/336/336
f 340/340/340 339/339/339 338/338/338
f 340/340/340 341/341/341 339/339/339
f 341/341/341 340/340/340 342/342/342
f 341/341/341 342/342/342 343/343/343
f 346/346/346 345/345/345 344/344/344
f 345/345/345 346/346/346 347/347/347
f 350/350/350 349/349/349 348/348/348
f 350/350/350 351/351/351 349/349/349
f 354/354/354 353/353/353 352/352/352
f 357/357/357 356/356/356 355/355/355
f 358/358/358 356/356/356 357/357/357
f 358/358/358 357/357/357 359/359/359
f 357/357/357 355/355/355 360/360/360
f 361/361/361 357/357/357 360/360/360
f 359/359/359 357/357/357 361/361/361
f 362/362/362 359/359/359 361/361/361
f 365/365/365 364/364/364 363/363/363
f 368/368/368 367/367/367 366/366/366
f 371/371/371 370/370/370 369/369/369
f 374/374/374 373/373/373 372/372/372
f 374/374/374 375/375/375 373/373/373
f 374/374/374 372/372/372 375/375/375
f 378/378/378 377/377/377 376/376/376
f 379/379/379 376/376/376 377/377/377
f 382/382/382 381/381/381 380/380/380
f 383/383/383 380/380/380 381/381/381
f 386/386/386 385/385/385 384/384/384
f 387/387/387 384/384/384 385/385/385
f 390/390/390 389/389/389 388/388/388
f 391/391/391 388/388/388 389/389/389
f 394/394/394 393/393/393 392/392/392
f 395/395/395 392/392/392 393/393/393
f 398/398/398 397/397/397 396/396/396
f 399/399/399 396/396/396 397/397/397
f 402/402/402 401/401/401 400/400/400
f 403/403/403 400/400/400 401/401/401
f 406/406/406 405/405/405 404/404/404
f 407/407/407 404/404/404 405/405/405
f 410/410/410 409/409/409 408/408/408
f 411/411/411 408/408/408 409/409/409
f 414/414/414 413/413/413 412/412/412
f 415/415/415 412/412/412 413/413/413
f 418/418/418 417/417/417 416/416/416
f 419/419/419 416/416/416 417/417/417
f 422/422/422 421/421/421 420/420/420
f 423/423/423 420/420/420 421/421/421
f 426/426/426 425/425/425 424/424/424
f 429/429/429 428/428/428 427/427/427
f 432/432/432 431/431/431 430/430/430
f 435/435/435 434/434/434 433/433/433
f 435/435/435 436/436/436 434/434/434
f 435/435/435 433/433/433 436/436/436
f 439/439/439 438/438/438 437/437/437
f 442/442/442 441/441/441 440/440/440
f 445/445/445 444/444/444 443/443/443
f 448/448/448 447/447/447 446/446/446
f 448/448/448 449/449/449 447/447/447
f 448/448/448 446/446/446 449/449/449
f 452/452/452 451/451/451 450/450/450
f 455/455/455 454/454/454 453/453/453
f 458/458/458 457/457/457 456/456/456
f 461/461/461 460/460/460 459/459/459
f 461/461/461 462/462/462 460/460/460
f 461/461/461 459/459/459 462/462/462
f 465/465/465 464/464/464 463/463/463
f 466/466/466 463/463/463 464/464/464
f 469/469/469 468/468/468 467/467/467
f 470/470/470 467/467/467 468/468/468
f 473/473/473 472/472/472 471/471/471
f 474/474/474 471/471/471 472/472/472
f 477/477/477 476/476/476 475/475/475
f 480/480/480 479/479/479 478/478/478
f 483/483/483 482/482/482 481/481/481
f 484/484/484 481/481/481 482/482/482
f 487/487/487 486/486/486 485/485/485
f 488/488/488 485/485/485 486/486/486
f 491/491/491 490/490/490 489/489/489
f 492/492/492 490/490/490 491/491/491
f 492/492/492 491/491/491 493/493/493
f 496/496/496 495/495/495 494/494/494
f 497/497/497 496/496/496 494/494/494
f 497/497/497 494/494/494 498/498/498
f 501/501/501 500/500/500 499/499/499
f 500/500/500 501/501/501 502/502/502
f 503/503/503 502/502/502 501/501/501
f 499/499/499 504/504/504 501/501/501
f 507/507/507 506/506/506 505/505/505
f 508/508/508 507/507/507 505/505/505
f 507/507/507 510/510/510 509/509/509
f 507/507/507 509/509/509 506/506/506
f 513/513/513 512/512/512 511/511/511
f 516/516/516 515/515/515 514/514/514
f 519/519/519 518/518/518 517/517/517
f 522/522/522 521/521/521 520/520/520
f 525/525/525 524/524/524 523/523/523
f 524/524/524 525/525/525 526/526/526
f 523/523/523 524/524/524 525/525/525
f 526/526/526 525/525/525 524/524/524
f 529/529/529 528/528/528 527/527/527
f 528/528/528 529/529/529 530/530/530
f 529/529/529 527/527/527 528/528/528
f 528/528/528 530/530/530 529/529/529
f 533/533/533 532/532/532 531/531/531
f 534/534/534 531/531/531 532/532/532
f 535/535/535 532/532/532 534/534/534
f 534/534/534 536/536/536 535/535/535
f 537/537/537 535/535/535 536/536/536
f 537/537/537 536/536/536 538/538/538
f 536/536/536 534/534/534 531/531/531
f 531/531/531 538/538/538 536/536/536
f 537/537/537 539/539/539 535/535/535
f 532/532/532 535/535/535 539/539/539
f 542/542/542 541/541/541 540/540/540
f 541/541/541 542/542/542 534/534/534
f 543/543/543 534/534/534 542/542/542
f 534/534/534 543/543/543 531/531/531
f 544/544/544 531/531/531 543/543/543
f 543/543/543 545/545/545 544/544/544
f 542/542/542 545/545/545 543/543/543
f 540/540/540 545/545/545 542/542/542
v -0.105324 0.428782 0.026392
v -0.105810 0.428782 -0.029351
v -0.105566 0.284461 -0.001479
v -0.104670 0.555629 -0.050107
v -0.103821 0.555629 0.047126
v -0.152812 0.675287 0.073014
v -0.153705 0.675281 -0.073229
v -0.104670 0.555629 -0.050107
v -0.153705 0.675281 -0.073229
v -0.152812 0.675287 0.073014
v -0.103821 0.555629 0.047126
v -0.105810 0.428782 -0.029351
v -0.105324 0.428782 0.026392
v -0.103821 0.555629 0.047126
v -0.104670 0.555629 -0.050107
v -0.105810 0.428782 -0.029351
v -0.104670 0.555629 -0.050107
v -0.103821 0.555629 0.047126
v -0.105324 0.428782 0.026392
v 0.138464 0.555629 0.047274
v 0.150404 0.675285 0.072128
v 0.151388 0.675281 -0.073157
v 0.138464 0.555629 -0.049962
v 0.114785 0.428782 0.026529
v 0.114785 0.428782 -0.029217
v 0.138464 0.555629 -0.049962
v 0.138464 0.555629 0.047274
v 0.114785 0.428782 0.026529
v 0.138464 0.555629 0.047274
v 0.138464 0.555629 -0.049962
v 0.114785 0.428782 -0.029217
v 0.060118 0.843423 -0.142069
v -0.023329 0.930183 -0.134006
v -0.057694 0.937396 -0.169034
v -0.103275 0.890574 -0.338464
v -0.057694 0.937396 -0.169034
v -0.023329 0.930183 -0.134006
v -0.195611 0.873508 -0.142293
v -0.103275 0.890574 -0.338464
v 0.060118 0.843423 0.144274
v -0.067148 0.850662 0.361613
v -0.056259 0.932869 0.200060
v -0.023329 0.930183 0.136211
v -0.067148 0.850662 0.361613
v -0.195611 0.873508 0.144498
v -0.056259 0.932869 0.200060
v -0.023329 0.930183 0.136211
v -0.105566 0.284461 -0.001479
v -0.105810 0.428782 -0.029351
v -0.105324 0.428782 0.026392
v 0.138464 0.555629 0.047274
v 0.138464 0.555629 -0.049962
v 0.151388 0.675281 -0.073157
v 0.150404 0.675285 0.072128
v 0.114785 0.428782 -0.029217
v 0.114785 0.428782 0.026529
v 0.114785 0.284461 -0.001344
v 0.114785 0.284461 -0.001344
v 0.114785 0.428782 0.026529
v 0.114785 0.428782 -0.029217
vn 0.999948 -0.005210 -0.008726
vn 0.999948 -0.005210 -0.008726
vn 0.999962 0.000000 -0.008726
vn 0.999926 -0.009151 -0.008070
vn 0.999926 -0.008476 -0.008726
vn 0.999941 -0.007884 -0.007414
vn 0.999939 -0.009234 -0.006102
vn -0.999926 0.009151 0.008070
vn -0.913160 -0.214928 -0.346330
vn -0.827058 -0.252125 0.502402
vn -0.999926 0.008476 0.008726
vn 0.999948 -0.005210 -0.008726
vn 0.999948 -0.005210 -0.008726
vn 0.999926 -0.008476 -0.008726
vn 0.999926 -0.009151 -0.008070
vn -0.999948 0.005210 0.008726
vn -0.999926 0.009151 0.008070
vn -0.999926 0.008476 0.008726
vn -0.999948 0.005210 0.008726
vn 0.998364 0.057152 0.001684
vn 0.917253 0.053081 0.394752
vn 0.914579 0.077824 -0.396850
vn 0.998460 0.055470 0.000000
vn -0.999986 -0.005210 -0.000001
vn -0.999986 -0.005210 -0.000001
vn -0.998460 -0.055470 -0.000000
vn -0.998364 -0.057152 -0.001684
vn 0.999986 0.005210 0.000001
vn 0.998364 0.057152 0.001684
vn 0.998460 0.055470 0.000000
vn 0.999986 0.005210 0.000001
vn 0.842773 0.376107 -0.385068
vn 0.210187 0.950769 -0.227729
vn 0.163008 0.973798 -0.158573
vn 0.080030 0.894439 -0.439971
vn 0.163008 0.973798 -0.158573
vn 0.210187 0.950769 -0.227729
vn -0.781113 0.623660 0.030180
vn 0.080030 0.894439 -0.439971
vn 0.857715 0.335425 0.389635
vn 0.134786 0.725019 0.675412
vn 0.168830 0.948504 0.268025
vn 0.211217 0.942449 0.259187
vn 0.134786 0.725019 0.675412
vn -0.874858 0.389844 0.287482
vn 0.168830 0.948504 0.268025
vn 0.211217 0.942449 0.259187
vn -0.999962 -0.000000 0.008726
vn -0.999948 0.005210 0.008726
vn -0.999948 0.005210 0.008726
vn -0.998364 -0.057152 -0.001684
vn -0.998460 -0.055470 -0.000000
vn -0.994597 -0.103759 -0.003364
vn -0.994225 -0.107108 -0.006728
vn -0.999986 -0.005210 -0.000001
vn -0.999986 -0.005210 -0.000001
vn -1.000000 -0.000000 -0.000001
vn 1.000000 0.000000 0.000001
vn 0.999986 0.005210 0.000001
vn 0.999986 0.005210 0.000001
vt 0.636190 0.481883
vt 0.559731 0.481883
vt 0.597968 0.679826
vt 0.531280 0.307900
vt 0.664619 0.307928
vt 0.695831 0.143805
vt 0.500089 0.143818
vt 0.531280 0.307900
vt 0.500089 0.143818
vt 0.695831 0.143805
vt 0.664619 0.307928
vt 0.559731 0.481883
vt 0.636190 0.481883
vt 0.664619 0.307928
vt 0.531280 0.307900
vt 0.559731 0.481883
vt 0.531280 0.307900
vt 0.664619 0.307928
vt 0.636190 0.481883
vt 0.531296 0.307879
vt 0.500117 0.143762
vt 0.695855 0.143775
vt 0.664697 0.307851
vt 0.559754 0.481864
vt 0.636217 0.481865
vt 0.664697 0.307851
vt 0.531296 0.307879
vt 0.559754 0.481864
vt 0.531296 0.307879
vt 0.664697 0.307851
vt 0.636217 0.481865
vt 0.793144 0.847712
vt 0.786380 0.920486
vt 0.839937 0.922738
vt 0.975447 0.853783
vt 0.361631 0.922778
vt 0.414946 0.920536
vt 0.406074 0.841985
vt 0.225430 0.850230
vt 0.793144 0.847712
vt 0.975447 0.853783
vt 0.839937 0.922738
vt 0.786380 0.920486
vt 0.225430 0.850230
vt 0.406074 0.841985
vt 0.361631 0.922778
vt 0.414946 0.920536
vt 0.597968 0.679826
vt 0.559731 0.481883
vt 0.636190 0.481883
vt 0.531296 0.307879
vt 0.664697 0.307851
vt 0.695855 0.143775
vt 0.500117 0.143762
vt 0.636217 0.481865
vt 0.559754 0.481864
vt 0.597978 0.679823
vt 0.597978 0.679823
vt 0.559754 0.481864
vt 0.636217 0.481865
f 548/548/548 547/547/547 546/546/546
f 551/551/551 550/550/550 549/549/549
f 549/549/549 552/552/552 551/551/551
f 555/555/555 554/554/554 553/553/553
f 553/553/553 556/556/556 555/555/555
f 559/559/559 558/558/558 557/557/557
f 557/557/557 560/560/560 559/559/559
f 563/563/563 562/562/562 561/561/561
f 561/561/561 564/564/564 563/563/563
f 567/567/567 566/566/566 565/565/565
f 565/565/565 568/568/568 567/567/567
f 571/571/571 570/570/570 569/569/569
f 569/569/569 572/572/572 571/571/571
f 575/575/575 574/574/574 573/573/573
f 573/573/573 576/576/576 575/575/575
f 579/579/579 578/578/578 577/577/577
f 580/580/580 579/579/579 577/577/577
f 583/583/583 582/582/582 581/581/581
f 583/583/583 581/581/581 584/584/584
f 587/587/587 586/586/586 585/585/585
f 588/588/588 587/587/587 585/585/585
f 591/591/591 590/590/590 589/589/589
f 592/592/592 590/590/590 591/591/591
f 595/595/595 594/594/594 593/593/593
f 598/598/598 597/597/597 596/596/596
f 596/596/596 599/599/599 598/598/598
f 602/602/602 601/601/601 600/600/600
f 605/605/605 604/604/604 603/603/603
v -0.063162 0.091169 -0.735959
v 0.336225 0.091169 -0.422057
v -0.093350 0.091169 -0.471002
v 0.366413 0.091169 -0.687014
v -0.096426 0.047014 -0.647619
v -0.138780 0.085529 -0.709195
v -0.185965 0.064714 -0.670791
v -0.093116 0.128446 -0.694793
v -0.045074 0.110319 -0.653753
v -0.058149 0.185515 -0.628956
v -0.047141 0.101440 -0.588656
v -0.048007 0.152945 -0.551913
v -0.100335 0.103849 -0.511832
v -0.097462 0.191597 -0.543917
v -0.144646 0.170781 -0.505513
v -0.187001 0.209297 -0.567090
v -0.190310 0.127863 -0.519916
v -0.076715 0.049070 -0.565909
v -0.139990 0.037707 -0.564654
v -0.173353 0.066906 -0.519510
v -0.170421 0.024279 -0.621351
v -0.238353 0.145992 -0.560955
v -0.225279 0.070796 -0.585752
v -0.236285 0.154870 -0.626053
v -0.235419 0.103365 -0.662795
v -0.185965 0.064714 -0.670791
v -0.206711 0.207241 -0.648798
v -0.170421 0.024279 -0.621351
v -0.139990 0.037707 -0.564654
v -0.173353 0.066906 -0.519510
v -0.113006 0.232031 -0.593358
v -0.143436 0.218603 -0.650055
v -0.183090 0.152461 -0.702878
v -0.235419 0.103365 -0.662795
v -0.110072 0.189405 -0.695197
v -0.110072 0.189405 -0.695197
v -0.093116 0.128446 -0.694793
v -0.138780 0.085529 -0.709195
v 0.052463 0.124704 -0.638816
v 0.116337 0.124706 -0.078185
v -0.335886 0.124706 -0.594570
v -0.272010 0.124706 -0.033938
v -0.511465 0.091169 -0.366932
v -0.376096 0.091169 -0.632610
v -0.273859 0.091169 -0.245867
v -0.138491 0.091169 -0.511543
v -0.007224 0.091169 -0.223528
v -0.144412 0.091169 0.186483
v -0.260114 0.091169 -0.308145
v -0.397302 0.091169 0.101866
v -0.078097 0.124706 -0.034004
v -0.108255 0.124706 0.397296
v -0.281166 0.124706 -0.048204
v -0.311326 0.124706 0.383097
v 0.273255 0.124706 0.287861
v 0.231047 0.124706 -0.095208
v 0.413230 0.124706 0.202084
v 0.091074 0.124706 -0.009431
v 0.101389 0.091169 0.109334
v 0.102574 0.091169 -0.300324
v 0.284757 0.091169 -0.003033
v -0.080791 0.091169 -0.187957
vn -0.000000 1.000000 -0.000000
vn -0.000000 1.000000 -0.000000
vn -0.000000 1.000000 -0.000000
vn -0.000000 1.000000 -0.000000
vn 0.447189 -0.801220 -0.397579
vn 0.053127 -0.418799 -0.906524
vn -0.421495 -0.663676 -0.617961
vn 0.511289 -0.023403 -0.859090
vn 0.884427 -0.182463 -0.429530
vn 0.806351 0.553487 -0.208445
vn 0.948240 -0.280082 0.149652
vn 0.846908 0.236322 0.476338
vn 0.387065 -0.227374 0.893578
vn 0.421495 0.663676 0.617961
vn -0.053127 0.418799 0.906524
vn -0.447189 0.801220 0.397579
vn -0.511289 0.023403 0.859090
vn 0.590577 -0.734513 0.334231
vn 0.015455 -0.920354 0.390781
vn -0.305233 -0.554519 0.774172
vn -0.247208 -0.959229 -0.136997
vn -0.884427 0.182463 0.429530
vn -0.806351 -0.553487 0.208445
vn -0.948240 0.280082 -0.149652
vn -0.846908 -0.236322 -0.476338
vn -0.421495 -0.663676 -0.617961
vn -0.590577 0.734513 -0.334231
vn -0.247208 -0.959229 -0.136997
vn 0.015455 -0.920354 0.390781
vn -0.305233 -0.554519 0.774172
vn 0.247209 0.959229 0.136997
vn -0.015455 0.920354 -0.390781
vn -0.387065 0.227374 -0.893578
vn -0.846908 -0.236322 -0.476338
vn 0.305233 0.554519 -0.774172
vn 0.305233 0.554519 -0.774172
vn 0.511289 -0.023403 -0.859090
vn 0.053127 -0.418799 -0.906524
vn 0.000000 1.000000 -0.000000
vn 0.000000 1.000000 -0.000000
vn 0.000000 1.000000 -0.000000
vn 0.000000 1.000000 -0.000000
vn 0.000000 1.000000 0.000000
vn 0.000000 1.000000 0.000000
vn 0.000000 1.000000 0.000000
vn 0.000000 1.000000 0.000000
vn -0.000000 1.000000 0.000000
vn -0.000000 1.000000 0.000000
vn -0.000000 1.000000 0.000000
vn -0.000000 1.000000 0.000000
vn -0.000000 1.000000 0.000000
vn -0.000000 1.000000 0.000000
vn -0.000000 1.000000 0.000000
vn -0.000000 1.000000 0.000000
vn 0.000000 1.000000 -0.000000
vn 0.000000 1.000000 -0.000000
vn 0.000000 1.000000 -0.000000
vn 0.000000 1.000000 -0.000000
vn -0.000000 1.000000 0.000000
vn -0.000000 1.000000 0.000000
vn -0.000000 1.000000 0.000000
vn -0.000000 1.000000 0.000000
vt 0.317742 0.004831
vt 0.619104 0.504831
vt 0.625025 0.007246
vt 0.319716 0.495169
vt 0.743443 0.747175
vt 0.743443 0.878016
vt 0.720412 0.878015
vt 0.766475 0.878016
vt 0.766475 0.747175
vt 0.784386 0.747175
vt 0.766475 0.616335
vt 0.784386 0.616335
vt 0.807417 0.616335
vt 0.802296 0.616335
vt 0.825328 0.616335
vt 0.825328 0.747175
vt 0.848360 0.616335
vt 0.743443 0.616335
vt 0.720412 0.616335
vt 0.784386 0.616335
vt 0.720412 0.747175
vt 0.848360 0.747175
vt 0.886635 0.747175
vt 0.848360 0.878015
vt 0.886635 0.878015
vt 0.924911 0.878015
vt 0.825328 0.878015
vt 0.924911 0.747175
vt 0.924911 0.616335
vt 0.886635 0.616335
vt 0.802296 0.747175
vt 0.802296 0.878016
vt 0.761354 0.878016
vt 0.784386 0.878015
vt 0.738322 0.878016
vt 0.784386 0.878016
vt 0.674348 0.878016
vt 0.697380 0.878016
vt 0.635485 0.495169
vt 0.633511 0.004831
vt 0.994079 0.497585
vt 1.000000 0.000000
vt 0.319716 0.495169
vt 0.317742 0.004831
vt 0.619104 0.504831
vt 0.625025 0.007246
vt 0.005921 0.995169
vt 0.003947 0.504831
vt 0.305309 1.004831
vt 0.311229 0.507246
vt 0.005921 0.492754
vt 0.003947 0.002415
vt 0.305309 0.502415
vt 0.311229 0.004831
vt 0.003947 0.002415
vt 0.305309 0.502415
vt 0.311229 0.004831
vt 0.005921 0.492754
vt 0.003947 0.504831
vt 0.305309 1.004831
vt 0.311229 0.507246
vt 0.005921 0.995169
f 608/608/608 607/607/607 606/606/606
f 609/609/609 606/606/606 607/607/607
f 612/612/612 611/611/611 610/610/610
f 610/610/610 611/611/611 613/613/613
f 613/613/613 614/614/614 610/610/610
f 615/615/615 614/614/614 613/613/613
f 616/616/616 614/614/614 615/615/615
f 615/615/615 617/617/617 616/616/616
f 616/616/616 617/617/617 618/618/618
f 618/618/618 617/617/617 619/619/619
f 619/619/619 620/620/620 618/618/618
f 621/621/621 620/620/620 619/619/619
f 618/618/618 620/620/620 622/622/622
f 618/618/618 623/623/623 616/616/616
f 610/610/610 614/614/614 616/616/616
f 616/616/616 623/623/623 610/610/610
f 610/610/610 623/623/623 624/624/624
f 624/624/624 623/623/623 618/618/618
f 618/618/618 625/625/625 624/624/624
f 622/622/622 625/625/625 618/618/618
f 610/610/610 626/626/626 612/612/612
f 624/624/624 626/626/626 610/610/610
f 622/622/622 620/620/620 621/621/621
f 621/621/621 627/627/627 622/622/622
f 622/622/622 627/627/627 628/628/628
f 628/628/628 627/627/627 629/629/629
f 629/629/629 630/630/630 628/628/628
f 628/628/628 630/630/630 631/631/631
f 621/621/621 632/632/632 629/629/629
f 629/629/629 627/627/627 621/621/621
f 631/631/631 633/633/633 628/628/628
f 628/628/628 633/633/633 634/634/634
f 634/634/634 635/635/635 628/628/628
f 628/628/628 635/635/635 622/622/622
f 619/619/619 617/617/617 615/615/615
f 615/615/615 636/636/636 619/619/619
f 619/619/619 636/636/636 621/621/621
f 621/621/621 636/636/636 637/637/637
f 637/637/637 632/632/632 621/621/621
f 638/638/638 632/632/632 637/637/637
f 629/629/629 632/632/632 638/638/638
f 638/638/638 639/639/639 629/629/629
f 637/637/637 640/640/640 638/638/638
f 637/637/637 636/636/636 615/615/615
f 615/615/615 641/641/641 637/637/637
f 613/613/613 641/641/641 615/615/615
f 612/612/612 639/639/639 638/638/638
f 638/638/638 640/640/640 642/642/642
f 642/642/642 643/643/643 638/638/638
f 638/638/638 643/643/643 612/612/612
f 646/646/646 645/645/645 644/644/644
f 645/645/645 646/646/646 647/647/647
f 650/650/650 649/649/649 648/648/648
f 649/649/649 650/650/650 651/651/651
f 654/654/654 653/653/653 652/652/652
f 653/653/653 654/654/654 655/655/655
f 658/658/658 657/657/657 656/656/656
f 657/657/657 658/658/658 659/659/659
f 662/662/662 661/661/661 660/660/660
f 663/663/663 660/660/660 661/661/661
f 666/666/666 665/665/665 664/664/664
f 667/667/667 664/664/664 665/665/665
