# WC3 MDX geosets → Unity Y-up
mtllib materials.mtl
usemtl Faceless
o Model
v 0.038504 1.283360 0.089976
v 0.038504 1.283360 -0.081733
v -0.140608 0.955551 -0.303372
v -0.085479 0.991185 -0.373552
v -0.219997 1.067430 -0.196459
v -0.101117 1.198810 -0.362288
v -0.130920 1.261280 -0.272950
v -0.014569 1.202540 -0.264193
v -0.120045 1.253130 -0.174330
v 0.004444 1.200820 -0.172527
v 0.009690 0.964689 -0.306644
v 0.056885 1.080820 -0.169787
v -0.050266 0.927232 -0.271256
v -0.028888 0.915969 0.454300
v 0.089197 0.729011 0.417304
v -0.007246 0.760419 0.480654
v 0.053639 0.895147 0.323297
v -0.085478 0.991327 0.377666
v 0.009692 0.964832 0.310757
v -0.009055 0.724779 0.362094
v -0.140607 0.955693 0.307486
v -0.170438 0.839073 0.326935
v -0.053843 0.739420 0.372081
v -0.050265 0.927375 0.275370
v -0.058738 0.845288 0.244846
v 0.009692 0.964832 0.310757
v 0.056887 1.080970 0.173899
v -0.050265 0.927375 0.275370
v -0.014677 1.202690 0.268306
v -0.085478 0.991327 0.377666
v -0.101115 1.198950 0.366400
v -0.219995 1.067570 0.200571
v -0.130918 1.261420 0.277063
v -0.120044 1.253270 0.178444
v 0.004446 1.200960 0.176639
v -0.140607 0.955693 0.307486
v -0.198311 1.174380 0.001786
v -0.120044 1.253270 0.178444
v -0.219995 1.067570 0.200571
v -0.081439 0.887563 0.060831
v -0.081439 0.887563 0.002269
v 0.082619 0.873205 0.107218
v -0.219997 1.067430 -0.196459
v -0.120045 1.253130 -0.174330
v -0.123610 1.298700 0.002000
v -0.081439 0.887564 -0.058308
v 0.082619 0.873206 -0.103576
v 0.038504 1.283360 -0.081733
v 0.056018 1.223540 -0.089892
v 0.038504 1.283360 0.089976
v 0.056018 1.223540 0.096988
v -0.219995 1.067570 0.200571
v 0.056887 1.080970 0.173899
v 0.082619 0.873205 0.107218
v 0.112827 1.109770 0.001786
v 0.100089 0.860680 0.001786
v 0.082619 0.873206 -0.103576
v 0.056885 1.080820 -0.169787
v -0.219997 1.067430 -0.196459
v 0.056018 1.223540 0.096988
v 0.004446 1.200960 0.176639
v 0.056018 1.223540 0.003182
v 0.056018 1.223540 -0.089892
v 0.004444 1.200820 -0.172527
v -0.120045 1.253130 -0.174330
v -0.123610 1.298700 0.002000
v 0.038504 1.283360 0.089976
v -0.120044 1.253270 0.178444
v 0.040328 0.197872 -0.137908
v -0.079795 0.196921 -0.130642
v 0.024325 0.386147 -0.052779
v 0.031600 0.190471 -0.231858
v 0.042695 0.407066 -0.215461
v -0.086135 0.197898 -0.236191
v -0.077223 0.415530 -0.220342
v -0.137792 0.413458 -0.086782
v -0.243134 0.456231 0.154715
v -0.137792 0.413458 0.090646
v -0.053555 0.431707 0.010756
v 0.024325 0.386147 0.056643
v 0.109065 0.383944 0.110780
v 0.042695 0.407067 0.219325
v 0.008330 0.441372 0.297392
v -0.077223 0.415530 0.224206
v -0.109582 0.674751 0.394407
v 0.039337 0.583130 0.422963
v -0.033389 0.630336 0.299631
v 0.089197 0.729011 0.417304
v -0.103647 0.641800 0.498016
v -0.007246 0.760419 0.480654
v -0.053843 0.739420 0.372081
v -0.009055 0.724779 0.362094
v -0.053554 0.431707 -0.006892
v 0.109065 0.383942 -0.106915
v 0.024325 0.386147 -0.052779
v 0.042695 0.407066 -0.215461
v 0.008331 0.441372 -0.293528
v -0.077223 0.415530 -0.220342
v -0.243132 0.456231 -0.150851
v -0.137792 0.413458 -0.086782
v -0.109583 0.674609 -0.390294
v -0.033390 0.630194 -0.295519
v 0.063155 0.582779 -0.418852
v 0.089195 0.728869 -0.413191
v -0.103648 0.641658 -0.493903
v -0.007248 0.760277 -0.476542
v -0.053844 0.739276 -0.367969
v -0.009056 0.724637 -0.357981
v -0.005700 1.205370 -0.122447
v -0.005700 1.205370 0.131241
v 0.038504 1.283360 0.089976
v 0.038504 1.283360 -0.081733
v 0.038504 1.283360 0.089976
v 0.038504 1.283360 -0.081733
v 0.038504 1.283360 0.089976
v 0.050415 1.279980 0.003100
v 0.056018 1.223540 0.003182
v 0.038504 1.283360 -0.081733
v 0.056018 1.223540 -0.089892
v 0.056018 1.223540 0.096988
v -0.098142 0.084968 -0.273180
v 0.175548 0.081516 -0.313237
v 0.031600 0.190471 -0.231858
v 0.226406 0.080995 -0.113332
v 0.040328 0.197872 -0.137908
v -0.098574 0.084186 -0.113643
v -0.079795 0.196921 -0.130642
v -0.089430 0.196898 -0.236191
v 0.226406 0.080995 -0.113332
v 0.175548 0.081516 -0.313237
v -0.098142 0.084968 -0.273180
v -0.098574 0.084186 -0.113643
v 0.040328 0.197872 0.142020
v -0.079796 0.196921 0.134631
v -0.098574 0.084186 0.117756
v 0.226406 0.080995 0.117445
v 0.031600 0.190471 0.235847
v 0.175548 0.081516 0.317352
v -0.098142 0.084968 0.277294
v -0.089430 0.196898 0.240179
v -0.098142 0.084968 0.277294
v 0.175548 0.081516 0.317352
v 0.226406 0.080995 0.117445
v -0.098574 0.084186 0.117756
v 0.044724 0.194652 0.142427
v 0.024325 0.386147 0.056643
v -0.079796 0.196921 0.134631
v 0.031600 0.190471 0.235847
v 0.042695 0.407067 0.219325
v -0.089430 0.196898 0.240179
v -0.077223 0.415530 0.224206
v -0.137792 0.413458 0.090646
v -0.140608 0.955551 -0.303372
v -0.050266 0.927232 -0.271256
v -0.058740 0.845145 -0.240732
v 0.053637 0.895003 -0.319185
v -0.009056 0.724637 -0.357981
v 0.089195 0.728869 -0.413191
v 0.009690 0.964689 -0.306644
v -0.170440 0.838929 -0.322821
v -0.053844 0.739276 -0.367969
v -0.085479 0.991185 -0.373552
v -0.028889 0.915826 -0.450186
v -0.007247 0.760277 -0.476542
vn 0.233923 0.185677 0.954361
vn 0.335762 0.092947 -0.937350
vn -0.989122 -0.133881 0.060940
vn 0.059155 0.383875 -0.921488
vn -0.853452 -0.309362 -0.419422
vn -0.201393 0.447223 -0.871454
vn -0.329183 0.905649 -0.267280
vn 0.716607 0.564402 -0.409787
vn -0.245230 0.947567 -0.204886
vn 0.658093 0.671436 -0.340716
vn 0.974885 0.200064 -0.097841
vn 0.953206 -0.104690 -0.283616
vn 0.185631 -0.291071 0.938520
vn -0.050147 0.443266 0.894987
vn 0.980337 0.016443 0.196646
vn -0.315094 0.081328 0.945570
vn 0.872504 0.278972 -0.401138
vn 0.059228 0.383928 0.921461
vn 0.974847 0.200218 0.097907
vn 0.294299 -0.033925 -0.955111
vn -0.989122 -0.133879 -0.060939
vn -0.944787 -0.305224 0.119229
vn -0.548750 -0.783949 -0.290341
vn 0.185630 -0.291070 -0.938520
vn -0.098381 -0.258859 -0.960892
vn 0.974847 0.200218 0.097907
vn 0.952408 -0.107641 0.285190
vn 0.185630 -0.291070 -0.938520
vn 0.716588 0.564348 0.409893
vn 0.059228 0.383928 0.921461
vn -0.201144 0.447326 0.871459
vn -0.854022 -0.310307 0.417559
vn -0.328986 0.905720 0.267281
vn -0.246542 0.946716 0.207233
vn 0.655919 0.669575 0.348482
vn -0.989122 -0.133879 -0.060939
vn -0.998342 0.057553 0.000031
vn -0.246542 0.946716 0.207233
vn -0.854022 -0.310307 0.417559
vn -0.951323 0.000807 0.308196
vn -0.999999 0.001563 0.000001
vn 0.624052 -0.201676 0.754908
vn -0.853452 -0.309362 -0.419422
vn -0.245230 0.947567 -0.204886
vn -0.771377 0.623231 0.128688
vn -0.950638 0.000046 -0.310302
vn 0.623833 -0.200422 -0.755422
vn 0.335762 0.092947 -0.937350
vn 0.620031 0.612561 -0.490235
vn 0.233923 0.185677 0.954361
vn 0.619095 0.608714 0.496175
vn -0.854022 -0.310307 0.417559
vn 0.952408 -0.107641 0.285190
vn 0.624052 -0.201676 0.754908
vn 0.979175 0.203016 -0.000318
vn 0.997353 -0.072710 -0.000065
vn 0.623833 -0.200422 -0.755422
vn 0.953206 -0.104690 -0.283616
vn -0.853452 -0.309362 -0.419422
vn 0.619095 0.608714 0.496175
vn 0.655919 0.669575 0.348482
vn 0.928042 0.372475 -0.000544
vn 0.620031 0.612561 -0.490235
vn 0.658093 0.671436 -0.340716
vn -0.245230 0.947567 -0.204886
vn -0.771377 0.623231 0.128688
vn 0.233923 0.185677 0.954361
vn -0.246542 0.946716 0.207233
vn 0.582363 0.176124 0.793621
vn -0.718310 -0.123164 0.684735
vn 0.425081 -0.587189 0.688851
vn 0.671983 0.445303 -0.591730
vn 0.411217 -0.515205 -0.751974
vn -0.604691 -0.019513 -0.796221
vn -0.468132 -0.455748 -0.757064
vn -0.688816 -0.584748 0.428489
vn -0.914844 -0.364391 0.174010
vn -0.746281 -0.560971 -0.358296
vn -0.099026 -0.350815 -0.931194
vn 0.429788 -0.582487 -0.689921
vn 0.906871 -0.420623 -0.025727
vn 0.410779 -0.515374 0.752097
vn 0.224699 -0.284926 0.931841
vn -0.468907 -0.452434 0.758571
vn -0.923175 -0.272586 -0.271006
vn 0.096653 -0.994746 0.033744
vn 0.008166 0.055148 -0.998445
vn 0.980337 0.016443 0.196646
vn -0.459463 0.045477 0.887032
vn -0.315094 0.081328 0.945570
vn -0.651039 0.683571 -0.329969
vn 0.294299 -0.033925 -0.955111
vn -0.038407 -0.303561 0.952038
vn 0.906870 -0.420624 0.025727
vn 0.425081 -0.587189 0.688851
vn 0.411217 -0.515205 -0.751974
vn 0.224699 -0.284927 -0.931841
vn -0.468132 -0.455748 -0.757064
vn -0.851139 -0.453633 -0.264158
vn -0.688816 -0.584748 0.428489
vn -0.915380 -0.303666 0.264322
vn 0.015433 0.088818 0.995928
vn 0.128494 -0.991389 -0.025260
vn 0.988267 -0.016759 -0.151814
vn -0.447893 0.068470 -0.891462
vn -0.242081 0.330260 -0.912319
vn -0.651039 0.683571 0.329969
vn 0.218884 0.498407 0.838857
vn 0.999793 0.017765 -0.009944
vn 0.999793 0.017766 0.009944
vn 0.233923 0.185677 0.954361
vn 0.335762 0.092947 -0.937350
vn 0.233923 0.185677 0.954361
vn 0.335762 0.092947 -0.937350
vn 0.233923 0.185677 0.954361
vn 0.995108 0.098782 -0.001578
vn 0.928042 0.372475 -0.000544
vn 0.335762 0.092947 -0.937350
vn 0.620031 0.612561 -0.490235
vn 0.619095 0.608714 0.496175
vn -0.720804 -0.344693 -0.601355
vn 0.367322 0.277117 -0.887852
vn 0.671983 0.445303 -0.591730
vn 0.823799 -0.102596 0.557521
vn 0.582363 0.176124 0.793621
vn -0.420590 -0.219701 0.880247
vn -0.718310 -0.123164 0.684735
vn -0.712477 0.269558 -0.647854
vn 0.823799 -0.102596 0.557521
vn 0.367322 0.277117 -0.887852
vn -0.720804 -0.344693 -0.601355
vn -0.420590 -0.219701 0.880247
vn 0.263206 0.518880 -0.813318
vn -0.716211 -0.121133 -0.687291
vn -0.420590 -0.219701 -0.880247
vn 0.823799 -0.102596 -0.557521
vn 0.662338 0.451973 0.597519
vn 0.367322 0.277117 0.887852
vn -0.720804 -0.344693 0.601355
vn -0.670574 0.127950 0.730725
vn -0.720804 -0.344693 0.601355
vn 0.367322 0.277117 0.887852
vn 0.823799 -0.102596 -0.557521
vn -0.420590 -0.219701 -0.880247
vn 0.787085 -0.180407 -0.589874
vn 0.429788 -0.582487 -0.689921
vn -0.716211 -0.121133 -0.687291
vn 0.662338 0.451973 0.597519
vn 0.410779 -0.515374 0.752097
vn -0.670574 0.127950 0.730725
vn -0.468907 -0.452434 0.758571
vn -0.746281 -0.560971 -0.358296
vn -0.989122 -0.133881 0.060940
vn 0.185631 -0.291071 0.938520
vn -0.098380 -0.258860 0.960892
vn 0.872504 0.278971 0.401138
vn 0.280668 -0.555994 0.782366
vn 0.966111 0.143360 -0.214657
vn 0.974885 0.200064 -0.097841
vn -0.944787 -0.305224 -0.119228
vn -0.548751 -0.783948 0.290341
vn 0.059155 0.383875 -0.921488
vn -0.050147 0.443267 -0.894986
vn -0.366555 -0.173166 -0.914140
vt -0.205254 0.636316
vt -0.205254 0.636316
vt 0.901550 0.621695
vt 0.955711 0.628005
vt 0.798240 0.797609
vt 0.879286 0.800501
vt 0.856990 0.875339
vt 0.856097 0.808326
vt 0.795919 0.906811
vt 0.824465 0.834354
vt 0.911158 0.622081
vt 0.798246 0.794452
vt 0.865193 0.616553
vt 0.963603 0.581041
vt 0.926037 0.525591
vt 0.979148 0.545022
vt 0.917849 0.556497
vt 0.959331 0.628098
vt 0.913954 0.632656
vt 0.867169 0.519164
vt 0.915816 0.626646
vt 0.920134 0.551186
vt 0.861487 0.528793
vt 0.857261 0.622654
vt 0.859393 0.560321
vt 0.915912 0.627032
vt 0.807746 0.806610
vt 0.861896 0.621365
vt 0.843006 0.835581
vt 0.955740 0.628098
vt 0.871477 0.794523
vt 0.827299 0.769941
vt 0.849994 0.874217
vt 0.795569 0.903800
vt 0.799607 0.835144
vt 0.906304 0.626646
vt 0.527953 0.880080
vt 0.410175 0.939271
vt 0.418200 0.821775
vt 0.512710 0.757018
vt 0.512778 0.758219
vt 0.444714 0.751304
vt 0.414040 0.823153
vt 0.412938 0.942808
vt 0.528075 0.954605
vt 0.512848 0.759434
vt 0.447187 0.751293
vt 0.483506 0.974793
vt 0.447923 0.956037
vt 0.480505 0.954242
vt 0.446075 0.953621
vt 0.800884 0.793790
vt 0.788968 0.822179
vt 0.769677 0.737292
vt 0.696138 0.847803
vt 0.684226 0.759983
vt 0.766699 0.734866
vt 0.798246 0.794452
vt 0.798240 0.797609
vt 0.723639 0.922634
vt 0.824075 0.834448
vt 0.696932 0.922634
vt 0.721779 0.922634
vt 0.824465 0.834354
vt 0.795920 0.906811
vt 0.696260 0.972072
vt 0.721464 0.961981
vt 0.796400 0.905690
vt 0.791012 0.402875
vt 0.804849 0.415731
vt 0.773926 0.536942
vt 0.755567 0.394482
vt 0.721749 0.519274
vt 0.739201 0.395925
vt 0.701342 0.516516
vt 0.794658 0.541102
vt 0.744015 0.536201
vt 0.743059 0.538684
vt 0.823167 0.578637
vt 0.804550 0.540203
vt 0.742847 0.536479
vt 0.705756 0.507944
vt 0.675251 0.540081
vt 0.711141 0.523442
vt 0.931444 0.438899
vt 0.929998 0.439352
vt 0.883714 0.480627
vt 0.929118 0.525591
vt 0.945714 0.506398
vt 0.982229 0.542606
vt 0.864567 0.528793
vt 0.870249 0.519164
vt 0.817795 0.583137
vt 0.733115 0.539525
vt 0.773926 0.536942
vt 0.721749 0.519274
vt 0.677604 0.543535
vt 0.701342 0.516516
vt 0.732318 0.540925
vt 0.794658 0.541102
vt 0.936296 0.449735
vt 0.886825 0.478105
vt 0.923530 0.441550
vt 0.924391 0.535211
vt 0.945341 0.513590
vt 0.983598 0.546155
vt 0.868548 0.529914
vt 0.874231 0.520285
vt 0.192133 0.557192
vt 0.192133 0.557192
vt -0.205254 0.636316
vt -0.205254 0.636316
vt -0.205254 0.636316
vt -0.205254 0.636316
vt 0.480912 0.976020
vt 0.480436 0.977313
vt 0.473997 0.923393
vt 0.480023 0.978436
vt 0.474917 0.924596
vt 0.473069 0.922180
vt 0.736380 0.375864
vt 0.741487 0.249616
vt 0.755953 0.393401
vt 0.857294 0.285694
vt 0.790300 0.404869
vt 0.826932 0.397442
vt 0.804069 0.417915
vt 0.739422 0.395306
vt 0.076892 0.647368
vt 0.079120 0.566135
vt -0.100301 0.563552
vt -0.100527 0.642775
vt 0.790300 0.404869
vt 0.804069 0.417915
vt 0.826932 0.397442
vt 0.857294 0.285694
vt 0.755953 0.393401
vt 0.741487 0.249616
vt 0.736380 0.375864
vt 0.739422 0.395306
vt -0.100301 0.563552
vt 0.079120 0.566135
vt 0.076892 0.647368
vt -0.100527 0.642775
vt 0.794476 0.395320
vt 0.800986 0.544059
vt 0.811593 0.401985
vt 0.754332 0.386929
vt 0.698129 0.523174
vt 0.734774 0.393967
vt 0.707576 0.527298
vt 0.739495 0.542541
vt 0.901550 0.621695
vt 0.865193 0.616553
vt 0.858618 0.557799
vt 0.930136 0.552760
vt 0.874231 0.520285
vt 0.924391 0.535211
vt 0.911159 0.622081
vt 0.926325 0.554736
vt 0.868548 0.529914
vt 0.955712 0.628005
vt 0.963002 0.578519
vt 0.983598 0.546155
f 5/5/5 4/4/4 3/3/3
f 5/5/5 6/6/6 4/4/4
f 7/7/7 6/6/6 5/5/5
f 7/7/7 8/8/8 6/6/6
f 9/9/9 8/8/8 7/7/7
f 9/9/9 10/10/10 8/8/8
f 9/9/9 7/7/7 5/5/5
f 8/8/8 11/11/11 4/4/4
f 6/6/6 8/8/8 4/4/4
f 10/10/10 12/12/12 8/8/8
f 8/8/8 12/12/12 11/11/11
f 12/12/12 13/13/13 11/11/11
f 3/3/3 13/13/13 5/5/5
f 5/5/5 13/13/13 12/12/12
f 16/16/16 15/15/15 14/14/14
f 17/17/17 14/14/14 15/15/15
f 17/17/17 18/18/18 14/14/14
f 19/19/19 18/18/18 17/17/17
f 20/20/20 17/17/17 15/15/15
f 18/18/18 21/21/21 14/14/14
f 14/14/14 21/21/21 22/22/22
f 14/14/14 22/22/22 16/16/16
f 16/16/16 22/22/22 23/23/23
f 19/19/19 17/17/17 24/24/24
f 25/25/25 24/24/24 17/17/17
f 25/25/25 17/17/17 20/20/20
f 23/23/23 25/25/25 20/20/20
f 24/24/24 25/25/25 21/21/21
f 22/22/22 21/21/21 25/25/25
f 22/22/22 25/25/25 23/23/23
f 28/28/28 27/27/27 26/26/26
f 27/27/27 29/29/29 26/26/26
f 26/26/26 29/29/29 30/30/30
f 29/29/29 31/31/31 30/30/30
f 30/30/30 31/31/31 32/32/32
f 32/32/32 31/31/31 33/33/33
f 33/33/33 34/34/34 32/32/32
f 31/31/31 29/29/29 33/33/33
f 29/29/29 34/34/34 33/33/33
f 35/35/35 34/34/34 29/29/29
f 27/27/27 35/35/35 29/29/29
f 28/28/28 32/32/32 27/27/27
f 28/28/28 36/36/36 32/32/32
f 30/30/30 32/32/32 36/36/36
f 39/39/39 38/38/38 37/37/37
f 40/40/40 39/39/39 37/37/37
f 41/41/41 40/40/40 37/37/37
f 42/42/42 39/39/39 40/40/40
f 44/44/44 43/43/43 37/37/37
f 44/44/44 37/37/37 45/45/45
f 37/37/37 38/38/38 45/45/45
f 46/46/46 41/41/41 37/37/37
f 43/43/43 46/46/46 37/37/37
f 43/43/43 47/47/47 46/46/46
f 48/48/48 49/49/49 45/45/45
f 50/50/50 45/45/45 51/51/51
f 54/54/54 53/53/53 52/52/52
f 54/54/54 55/55/55 53/53/53
f 56/56/56 55/55/55 54/54/54
f 55/55/55 56/56/56 57/57/57
f 55/55/55 57/57/57 58/58/58
f 58/58/58 57/57/57 59/59/59
f 53/53/53 55/55/55 60/60/60
f 53/53/53 60/60/60 61/61/61
f 55/55/55 62/62/62 60/60/60
f 55/55/55 63/63/63 62/62/62
f 55/55/55 58/58/58 63/63/63
f 63/63/63 58/58/58 64/64/64
f 65/65/65 63/63/63 64/64/64
f 65/65/65 66/66/66 63/63/63
f 67/67/67 60/60/60 66/66/66
f 60/60/60 68/68/68 61/61/61
f 66/66/66 68/68/68 60/60/60
f 67/67/67 66/66/66 60/60/60
f 71/71/71 70/70/70 69/69/69
f 71/71/71 69/69/69 72/72/72
f 72/72/72 73/73/73 71/71/71
f 73/73/73 72/72/72 74/74/74
f 74/74/74 75/75/75 73/73/73
f 76/76/76 75/75/75 74/74/74
f 76/76/76 74/74/74 70/70/70
f 71/71/71 76/76/76 70/70/70
f 79/79/79 78/78/78 77/77/77
f 78/78/78 79/79/79 80/80/80
f 81/81/81 80/80/80 79/79/79
f 80/80/80 81/81/81 82/82/82
f 83/83/83 82/82/82 81/81/81
f 83/83/83 84/84/84 82/82/82
f 84/84/84 77/77/77 78/78/78
f 83/83/83 77/77/77 84/84/84
f 87/87/87 86/86/86 85/85/85
f 87/87/87 88/88/88 86/86/86
f 86/86/86 88/88/88 89/89/89
f 90/90/90 89/89/89 88/88/88
f 90/90/90 91/91/91 89/89/89
f 89/89/89 91/91/91 85/85/85
f 85/85/85 86/86/86 89/89/89
f 85/85/85 91/91/91 87/87/87
f 92/92/92 87/87/87 91/91/91
f 92/92/92 88/88/88 87/87/87
f 95/95/95 94/94/94 93/93/93
f 94/94/94 95/95/95 96/96/96
f 96/96/96 97/97/97 94/94/94
f 98/98/98 97/97/97 96/96/96
f 99/99/99 97/97/97 98/98/98
f 99/99/99 98/98/98 100/100/100
f 93/93/93 100/100/100 95/95/95
f 103/103/103 102/102/102 101/101/101
f 104/104/104 102/102/102 103/103/103
f 104/104/104 103/103/103 105/105/105
f 105/105/105 106/106/106 104/104/104
f 107/107/107 106/106/106 105/105/105
f 107/107/107 105/105/105 101/101/101
f 103/103/103 101/101/101 105/105/105
f 107/107/107 101/101/101 102/102/102
f 102/102/102 108/108/108 107/107/107
f 104/104/104 108/108/108 102/102/102
f 117/117/117 116/116/116 115/115/115
f 117/117/117 118/118/118 116/116/116
f 118/118/118 117/117/117 119/119/119
f 115/115/115 120/120/120 117/117/117
f 123/123/123 122/122/122 121/121/121
f 123/123/123 124/124/124 122/122/122
f 123/123/123 125/125/125 124/124/124
f 125/125/125 126/126/126 124/124/124
f 125/125/125 127/127/127 126/126/126
f 128/128/128 123/123/123 121/121/121
f 127/127/127 128/128/128 121/121/121
f 127/127/127 121/121/121 126/126/126
f 131/131/131 130/130/130 129/129/129
f 129/129/129 132/132/132 131/131/131
f 135/135/135 134/134/134 133/133/133
f 136/136/136 135/135/135 133/133/133
f 136/136/136 133/133/133 137/137/137
f 138/138/138 136/136/136 137/137/137
f 139/139/139 138/138/138 137/137/137
f 139/139/139 137/137/137 140/140/140
f 139/139/139 140/140/140 134/134/134
f 135/135/135 139/139/139 134/134/134
f 143/143/143 142/142/142 141/141/141
f 141/141/141 144/144/144 143/143/143
f 147/147/147 146/146/146 145/145/145
f 145/145/145 146/146/146 148/148/148
f 149/149/149 148/148/148 146/146/146
f 148/148/148 149/149/149 150/150/150
f 151/151/151 150/150/150 149/149/149
f 151/151/151 152/152/152 150/150/150
f 152/152/152 146/146/146 147/147/147
f 150/150/150 152/152/152 147/147/147
f 155/155/155 154/154/154 153/153/153
f 154/154/154 155/155/155 156/156/156
f 156/156/156 155/155/155 157/157/157
f 156/156/156 157/157/157 158/158/158
f 156/156/156 159/159/159 154/154/154
f 153/153/153 160/160/160 155/155/155
f 155/155/155 160/160/160 161/161/161
f 155/155/155 161/161/161 157/157/157
f 162/162/162 159/159/159 156/156/156
f 162/162/162 156/156/156 163/163/163
f 163/163/163 156/156/156 158/158/158
f 158/158/158 164/164/164 163/163/163
f 153/153/153 162/162/162 163/163/163
f 153/153/153 163/163/163 160/160/160
f 160/160/160 163/163/163 164/164/164
f 160/160/160 164/164/164 161/161/161
v -0.131106 0.766757 0.001932
v 0.118863 0.690027 0.001932
v -0.053554 0.431707 -0.006892
v -0.243134 0.456231 0.154715
v -0.152826 0.758277 0.101406
v -0.053555 0.431707 0.010756
v 0.109065 0.383944 0.110780
v -0.030691 0.750799 0.204906
v 0.008330 0.441372 0.297392
v 0.082619 0.873205 0.107218
v 0.100089 0.860680 0.001786
v 0.118863 0.690027 0.001932
v 0.082619 0.873206 -0.103576
v -0.030691 0.750799 -0.201042
v -0.081439 0.887564 -0.058308
v -0.152826 0.758277 -0.097542
v -0.131106 0.766757 0.001932
v -0.030691 0.750799 0.204906
v -0.081439 0.887563 0.060831
v -0.152826 0.758277 0.101406
v -0.081439 0.887563 0.002269
v -0.243132 0.456231 -0.150851
v -0.152826 0.758277 -0.097542
v -0.131106 0.766757 0.001932
v -0.030691 0.750799 -0.201042
v 0.008331 0.441372 -0.293528
v 0.109065 0.383942 -0.106915
v -0.053554 0.431707 -0.006892
v -0.137792 0.413458 -0.086782
v 0.118863 0.690027 0.001932
vn -0.983585 0.180438 0.001357
vn 0.993811 -0.111079 -0.000573
vn -0.038407 -0.303561 0.952038
vn -0.914844 -0.364391 0.174010
vn -0.850316 0.429450 0.304197
vn -0.099026 -0.350815 -0.931194
vn 0.906871 -0.420623 -0.025727
vn 0.130666 0.388812 0.912004
vn 0.224699 -0.284926 0.931841
vn 0.624052 -0.201676 0.754908
vn 0.997353 -0.072710 -0.000065
vn 0.993811 -0.111079 -0.000573
vn 0.623833 -0.200422 -0.755422
vn 0.130947 0.386771 -0.912831
vn -0.950638 0.000046 -0.310302
vn -0.850647 0.428336 -0.304841
vn -0.983585 0.180438 0.001357
vn 0.130666 0.388812 0.912004
vn -0.951323 0.000807 0.308196
vn -0.850316 0.429450 0.304197
vn -0.999999 0.001563 0.000001
vn -0.851139 -0.453633 -0.264158
vn -0.850647 0.428336 -0.304841
vn -0.983585 0.180438 0.001357
vn 0.130947 0.386771 -0.912831
vn 0.224699 -0.284927 -0.931841
vn 0.906870 -0.420624 0.025727
vn -0.038407 -0.303561 0.952038
vn -0.688816 -0.584748 0.428489
vn 0.993811 -0.111079 -0.000573
vt 0.635665 0.141552
vt 0.594665 0.144616
vt 0.509916 0.158544
vt 0.527933 0.243126
vt 0.620511 0.246449
vt 0.511105 0.155363
vt 0.528365 0.244247
vt 0.603077 0.319503
vt 0.546025 0.336527
vt 0.661748 0.335933
vt 0.686760 0.139454
vt 0.594656 0.144676
vt 0.659560 0.334554
vt 0.602240 0.316699
vt 0.672216 0.245910
vt 0.620503 0.246508
vt 0.635656 0.141612
vt 0.603032 0.319814
vt 0.672513 0.244503
vt 0.620467 0.246759
vt 0.686876 0.138529
vt 0.529646 0.252210
vt 0.620503 0.246508
vt 0.635656 0.141612
vt 0.602240 0.316699
vt 0.544530 0.331879
vt 0.528152 0.251609
vt 0.511745 0.158211
vt 0.515887 0.160655
vt 0.594656 0.144676
f 167/167/167 166/166/166 165/165/165
f 169/169/169 165/165/165 168/168/168
f 168/168/168 165/165/165 170/170/170
f 166/166/166 170/170/170 165/165/165
f 170/170/170 166/166/166 171/171/171
f 166/166/166 172/172/172 171/171/171
f 171/171/171 172/172/172 173/173/173
f 173/173/173 172/172/172 168/168/168
f 169/169/169 168/168/168 172/172/172
f 176/176/176 175/175/175 174/174/174
f 176/176/176 177/177/177 175/175/175
f 177/177/177 176/176/176 178/178/178
f 179/179/179 177/177/177 178/178/178
f 179/179/179 178/178/178 180/180/180
f 179/179/179 180/180/180 181/181/181
f 174/174/174 183/183/183 182/182/182
f 174/174/174 182/182/182 176/176/176
f 182/182/182 183/183/183 184/184/184
f 184/184/184 183/183/183 181/181/181
f 185/185/185 181/181/181 183/183/183
f 179/179/179 181/181/181 185/185/185
f 188/188/188 187/187/187 186/186/186
f 186/186/186 187/187/187 189/189/189
f 189/189/189 190/190/190 186/186/186
f 189/189/189 191/191/191 190/190/190
f 193/193/193 192/192/192 186/186/186
f 188/188/188 186/186/186 192/192/192
f 194/194/194 192/192/192 191/191/191
f 189/189/189 194/194/194 191/191/191
v -0.123891 1.227240 -0.251331
v -0.123292 1.226340 -0.272076
v -0.114865 1.315460 -0.267370
v -0.106909 1.227080 -0.250827
v -0.114865 1.315460 -0.267370
v -0.106309 1.226170 -0.271572
v -0.106909 1.227080 -0.250827
v -0.123891 1.227240 -0.251331
v -0.114865 1.315460 -0.267370
v -0.123292 1.226340 -0.272076
v -0.106309 1.226170 -0.271572
v -0.114865 1.315460 -0.267370
v -0.122162 1.227820 -0.291478
v -0.121560 1.224850 -0.312030
v -0.112750 1.313970 -0.316187
v -0.105181 1.227630 -0.290947
v -0.112750 1.313970 -0.316187
v -0.104578 1.224660 -0.311499
v -0.105181 1.227630 -0.290947
v -0.122162 1.227820 -0.291478
v -0.112750 1.313970 -0.316187
v -0.121560 1.224850 -0.312030
v -0.104578 1.224660 -0.311499
v -0.112750 1.313970 -0.316187
v -0.120573 1.212490 -0.326368
v -0.120011 1.203900 -0.345276
v -0.110111 1.288200 -0.374105
v -0.103595 1.212250 -0.325750
v -0.110111 1.288200 -0.374105
v -0.103033 1.203660 -0.344658
v -0.103595 1.212250 -0.325750
v -0.120573 1.212490 -0.326368
v -0.110111 1.288200 -0.374105
v -0.120011 1.203900 -0.345276
v -0.103033 1.203660 -0.344658
v -0.110111 1.288200 -0.374105
vn -0.985976 0.162502 -0.038009
vn -0.985976 0.162502 -0.038009
vn -0.985976 0.162502 -0.038009
vn 0.987826 0.154317 0.019664
vn 0.987826 0.154317 0.019664
vn 0.987826 0.154317 0.019664
vn -0.027253 0.249288 0.968046
vn -0.027253 0.249288 0.968046
vn -0.027253 0.249288 0.968046
vn 0.029502 0.135552 -0.990331
vn 0.029502 0.135552 -0.990331
vn 0.029502 0.135552 -0.990331
vn -0.985254 0.162122 -0.054693
vn -0.985254 0.162122 -0.054693
vn -0.985254 0.162122 -0.054693
vn 0.988475 0.151302 0.004995
vn 0.988475 0.151302 0.004995
vn 0.988475 0.151302 0.004995
vn -0.026496 0.344254 0.938503
vn -0.026496 0.344254 0.938503
vn -0.026496 0.344254 0.938503
vn 0.030410 0.036461 -0.998872
vn 0.030410 0.036461 -0.998872
vn 0.030410 0.036461 -0.998872
vn -0.983203 0.152055 -0.100948
vn -0.983203 0.152055 -0.100948
vn -0.983203 0.152055 -0.100948
vn 0.990256 0.134986 -0.034226
vn 0.990256 0.134986 -0.034226
vn 0.990256 0.134986 -0.034226
vn -0.022093 0.592777 0.805063
vn -0.022093 0.592777 0.805063
vn -0.022093 0.592777 0.805063
vn 0.030662 -0.244111 -0.969263
vn 0.030662 -0.244111 -0.969263
vn 0.030662 -0.244111 -0.969263
vt 0.244950 0.154113
vt 0.218442 0.206468
vt 0.252655 0.216171
vt 0.218442 0.204443
vt 0.252655 0.216171
vt 0.249342 0.122582
vt 0.218442 0.204443
vt 0.244950 0.154113
vt 0.252655 0.216171
vt 0.218442 0.206468
vt 0.249342 0.122582
vt 0.252655 0.216171
vt 0.244950 0.154113
vt 0.218442 0.206468
vt 0.252655 0.216171
vt 0.218442 0.204443
vt 0.252655 0.216171
vt 0.249342 0.122582
vt 0.218442 0.204443
vt 0.244950 0.154113
vt 0.252655 0.216171
vt 0.218442 0.206468
vt 0.249342 0.122582
vt 0.252655 0.216171
vt 0.244950 0.154113
vt 0.218442 0.206468
vt 0.252655 0.216171
vt 0.218442 0.204443
vt 0.252655 0.216171
vt 0.249342 0.122582
vt 0.218442 0.204443
vt 0.244950 0.154113
vt 0.252655 0.216171
vt 0.218442 0.206468
vt 0.249342 0.122582
vt 0.252655 0.216171
f 197/197/197 196/196/196 195/195/195
f 200/200/200 199/199/199 198/198/198
f 203/203/203 202/202/202 201/201/201
f 206/206/206 205/205/205 204/204/204
f 209/209/209 208/208/208 207/207/207
f 212/212/212 211/211/211 210/210/210
f 215/215/215 214/214/214 213/213/213
f 218/218/218 217/217/217 216/216/216
f 221/221/221 220/220/220 219/219/219
f 224/224/224 223/223/223 222/222/222
f 227/227/227 226/226/226 225/225/225
f 230/230/230 229/229/229 228/228/228
v -0.103198 1.252750 0.240975
v -0.103686 1.250510 0.260426
v -0.111691 1.334640 0.262009
v -0.119212 1.252620 0.240551
v -0.111691 1.334640 0.262009
v -0.119700 1.250370 0.260003
v -0.119212 1.252620 0.240551
v -0.103198 1.252750 0.240975
v -0.111691 1.334640 0.262009
v -0.103686 1.250510 0.260426
v -0.119700 1.250370 0.260003
v -0.111691 1.334640 0.262009
v -0.104680 1.250600 0.278776
v -0.105171 1.246430 0.297908
v -0.113503 1.329950 0.307827
v -0.120693 1.250440 0.278326
v -0.113503 1.329950 0.307827
v -0.121184 1.246280 0.297458
v -0.120693 1.250440 0.278326
v -0.104680 1.250600 0.278776
v -0.113503 1.329950 0.307827
v -0.105171 1.246430 0.297908
v -0.121184 1.246280 0.297458
v -0.113503 1.329950 0.307827
v -0.106042 1.233840 0.310566
v -0.106498 1.224490 0.327774
v -0.115766 1.301830 0.360578
v -0.122052 1.233650 0.310031
v -0.115766 1.301830 0.360578
v -0.122508 1.224300 0.327239
v -0.122052 1.233650 0.310031
v -0.106042 1.233840 0.310566
v -0.115766 1.301830 0.360578
v -0.106498 1.224490 0.327774
v -0.122508 1.224300 0.327239
v -0.115766 1.301830 0.360578
vn 0.986036 0.160148 0.045651
vn 0.986036 0.160148 0.045651
vn 0.986036 0.160148 0.045651
vn -0.987972 0.154561 -0.004804
vn -0.987972 0.154561 -0.004804
vn -0.987972 0.154561 -0.004804
vn 0.023332 0.317552 -0.947954
vn 0.023332 0.317552 -0.947954
vn 0.023332 0.317552 -0.947954
vn -0.025683 0.064726 0.997573
vn -0.025683 0.064726 0.997573
vn -0.025683 0.064726 0.997573
vn 0.985380 0.158581 0.062268
vn 0.985380 0.158581 0.062268
vn 0.985380 0.158581 0.062268
vn -0.988562 0.150510 0.009616
vn -0.988562 0.150510 0.009616
vn -0.988562 0.150510 0.009616
vn 0.022644 0.410174 -0.911726
vn 0.022644 0.410174 -0.911726
vn 0.022644 0.410174 -0.911726
vn -0.026509 -0.034723 0.999045
vn -0.026509 -0.034723 0.999045
vn -0.026509 -0.034723 0.999045
vn 0.983516 0.145248 0.107698
vn 0.983516 0.145248 0.107698
vn 0.983516 0.145248 0.107698
vn -0.990181 0.131443 0.047584
vn -0.990181 0.131443 0.047584
vn -0.990181 0.131443 0.047584
vn 0.018641 0.648570 -0.760926
vn 0.018641 0.648570 -0.760926
vn 0.018641 0.648570 -0.760926
vn -0.026738 -0.312477 0.949549
vn -0.026738 -0.312477 0.949549
vn -0.026738 -0.312477 0.949549
vt 0.245189 0.164532
vt 0.212298 0.199232
vt 0.251618 0.219800
vt 0.212298 0.197207
vt 0.251618 0.219800
vt 0.252135 0.126211
vt 0.212298 0.197207
vt 0.245189 0.164532
vt 0.251618 0.219800
vt 0.212298 0.199232
vt 0.252135 0.126211
vt 0.251618 0.219800
vt 0.245189 0.164532
vt 0.212298 0.199232
vt 0.251618 0.219800
vt 0.212298 0.197207
vt 0.251618 0.219800
vt 0.252135 0.126211
vt 0.212298 0.197207
vt 0.245189 0.164532
vt 0.251618 0.219800
vt 0.212298 0.199232
vt 0.252135 0.126211
vt 0.251618 0.219800
vt 0.245189 0.164532
vt 0.212298 0.199232
vt 0.251618 0.219800
vt 0.212298 0.197207
vt 0.251618 0.219800
vt 0.252135 0.126211
vt 0.212298 0.197207
vt 0.245189 0.164532
vt 0.251618 0.219800
vt 0.212298 0.199232
vt 0.252135 0.126211
vt 0.251618 0.219800
f 233/233/233 232/232/232 231/231/231
f 236/236/236 235/235/235 234/234/234
f 239/239/239 238/238/238 237/237/237
f 242/242/242 241/241/241 240/240/240
f 245/245/245 244/244/244 243/243/243
f 248/248/248 247/247/247 246/246/246
f 251/251/251 250/250/250 249/249/249
f 254/254/254 253/253/253 252/252/252
f 257/257/257 256/256/256 255/255/255
f 260/260/260 259/259/259 258/258/258
f 263/263/263 262/262/262 261/261/261
f 266/266/266 265/265/265 264/264/264
v 0.172100 1.009040 0.001103
v 0.157797 1.224870 0.001103
v 0.126234 1.067860 -0.164402
v 0.076241 1.223190 -0.115849
v 0.068281 1.310980 -0.045384
v 0.000527 1.287420 -0.083451
v 0.000765 1.419850 -0.074392
v -0.138350 1.273320 -0.104027
v -0.091280 1.445520 0.001103
v -0.184198 1.360560 0.001103
v -0.138350 1.273320 0.106234
v 0.000765 1.419850 0.076599
v 0.000527 1.287420 0.085658
v 0.036151 1.475720 0.001103
v 0.071901 1.398480 -0.067249
v 0.071901 1.398480 0.069455
v 0.090128 1.407640 0.001103
v 0.106838 1.362830 0.001103
v 0.124189 1.306020 0.000965
v 0.068281 1.310980 0.047590
v 0.076241 1.223190 0.118056
v 0.126234 1.067860 0.166609
v -0.120876 1.274020 0.001103
v 0.000765 1.419850 -0.074392
v -0.056671 1.340970 -0.160802
v 0.000527 1.287420 -0.083451
v -0.070646 1.461680 -0.128638
v 0.068281 1.310980 -0.045384
v 0.000527 1.287420 -0.083451
v 0.043295 1.238970 -0.038447
v 0.124189 1.306020 0.000965
v 0.068281 1.310980 0.047590
v 0.043295 1.238970 0.040654
v 0.000527 1.287420 0.085658
v -0.120876 1.274020 0.001103
v -0.056671 1.340970 0.163008
v -0.070646 1.461680 0.130845
v 0.000765 1.419850 0.076599
v 0.000527 1.287420 0.085658
v -0.120876 1.274020 0.001103
v -0.184198 1.360560 0.001103
v -0.138350 1.273320 0.106234
v -0.184198 1.360560 0.001103
v -0.120876 1.274020 0.001103
v -0.138350 1.273320 -0.104027
v -0.138350 1.273320 -0.104027
v -0.120876 1.274020 0.001103
v 0.000527 1.287420 -0.083451
v -0.120876 1.274020 0.001103
v -0.138350 1.273320 0.106234
v 0.000527 1.287420 0.085658
vn 0.996020 0.089130 0.000000
vn 0.947091 0.320964 -0.000406
vn 0.875684 0.250399 -0.412888
vn 0.599571 0.503040 -0.622467
vn 0.574459 0.128797 -0.808337
vn 0.289556 0.283848 -0.914105
vn 0.185889 0.433111 -0.881964
vn 0.176559 0.571865 -0.801122
vn 0.141763 0.989901 0.000000
vn 0.326180 0.945308 0.000000
vn 0.176559 0.571865 0.801123
vn 0.185889 0.433111 0.881964
vn 0.349492 0.131943 0.927603
vn 0.375325 0.926893 0.000000
vn 0.629432 0.358292 -0.689523
vn 0.629432 0.358292 0.689523
vn 0.788218 0.615396 0.000000
vn 0.996178 0.087340 -0.000424
vn 0.996106 -0.088151 -0.001643
vn 0.584873 0.011617 0.811041
vn 0.599571 0.503041 0.622466
vn 0.875685 0.250400 0.412888
vn 0.350268 0.936650 0.000000
vn 0.185889 0.433111 -0.881964
vn 0.982872 -0.184289 0.000000
vn 0.289556 0.283848 -0.914105
vn 0.000000 0.000000 1.000000
vn 0.560170 -0.358457 -0.746806
vn 0.466838 -0.321599 -0.823794
vn 0.560170 -0.358457 -0.746806
vn 0.996106 -0.088151 -0.001643
vn 0.584873 0.011617 0.811041
vn 0.561169 -0.358839 0.745871
vn 0.349492 0.131943 0.927603
vn 0.350268 0.936650 0.000000
vn -0.992278 -0.124035 0.000000
vn 0.000000 0.000000 1.000000
vn 0.185889 0.433111 0.881964
vn 0.349492 0.131943 0.927603
vn -0.745823 -0.666145 0.000000
vn -0.825252 -0.539540 -0.166900
vn -0.825252 -0.539540 -0.166900
vn -0.825252 -0.539540 0.166899
vn -0.745823 -0.666145 0.000000
vn -0.825252 -0.539540 0.166899
vn -0.633135 -0.763045 0.130011
vn -0.745823 -0.666145 0.000000
vn -0.633135 -0.763045 0.130011
vn -0.745823 -0.666145 0.000000
vn -0.633135 -0.763044 -0.130011
vn -0.633135 -0.763044 -0.130011
vt 0.007458 0.163350
vt 0.007525 0.439711
vt 0.251320 0.232326
vt 0.182998 0.437644
vt 0.085704 0.555335
vt 0.133103 0.518717
vt 0.118257 0.666661
vt 0.160405 0.694378
vt 0.007228 0.770696
vt 0.007047 0.817293
vt 0.160405 0.694378
vt 0.118257 0.666661
vt 0.133103 0.518717
vt 0.007002 0.722444
vt 0.081146 0.646575
vt 0.081146 0.646575
vt 0.007263 0.664146
vt 0.007525 0.609114
vt 0.007525 0.539358
vt 0.085704 0.555335
vt 0.182998 0.437644
vt 0.251320 0.232326
vt 0.673984 0.974356
vt 0.009926 0.831418
vt 0.124539 0.844914
vt 0.115275 0.746548
vt 0.041352 0.938144
vt 0.070805 0.443722
vt 0.073922 0.419052
vt 0.119902 0.420488
vt 0.056827 0.486563
vt 0.070805 0.443722
vt 0.119902 0.420488
vt 0.073922 0.419052
vt 0.526211 0.986047
vt 0.124539 0.844914
vt 0.041352 0.938144
vt 0.009926 0.831418
vt 0.115275 0.746548
vt 0.224248 0.608991
vt 0.172261 0.690595
vt 0.151102 0.561805
vt 0.172261 0.690595
vt 0.224248 0.608991
vt 0.150804 0.561615
vt 0.150804 0.561615
vt 0.224248 0.608991
vt 0.206530 0.506368
vt 0.224248 0.608991
vt 0.151102 0.561805
vt 0.206645 0.506441
f 269/269/269 268/268/268 267/267/267
f 268/268/268 269/269/269 270/270/270
f 270/270/270 271/271/271 268/268/268
f 271/271/271 270/270/270 272/272/272
f 271/271/271 272/272/272 273/273/273
f 273/273/273 272/272/272 274/274/274
f 275/275/275 273/273/273 274/274/274
f 274/274/274 276/276/276 275/275/275
f 276/276/276 277/277/277 275/275/275
f 279/279/279 278/278/278 277/277/277
f 278/278/278 275/275/275 277/277/277
f 278/278/278 280/280/280 275/275/275
f 280/280/280 273/273/273 275/275/275
f 281/281/281 273/273/273 280/280/280
f 271/271/271 273/273/273 281/281/281
f 278/278/278 282/282/282 280/280/280
f 280/280/280 282/282/282 283/283/283
f 281/281/281 280/280/280 283/283/283
f 284/284/284 281/281/281 283/283/283
f 271/271/271 281/281/281 284/284/284
f 271/271/271 284/284/284 285/285/285
f 285/285/285 268/268/268 271/271/271
f 268/268/268 285/285/285 286/286/286
f 286/286/286 287/287/287 268/268/268
f 287/287/287 286/286/286 279/279/279
f 284/284/284 286/286/286 285/285/285
f 282/282/282 284/284/284 283/283/283
f 286/286/286 284/284/284 282/282/282
f 278/278/278 286/286/286 282/282/282
f 279/279/279 286/286/286 278/278/278
f 268/268/268 288/288/288 267/267/267
f 288/288/288 268/268/268 287/287/287
f 292/292/292 291/291/291 290/290/290
f 293/293/293 290/290/290 291/291/291
f 291/291/291 290/290/290 293/293/293
f 290/290/290 291/291/291 292/292/292
f 296/296/296 295/295/295 294/294/294
f 297/297/297 296/296/296 294/294/294
f 299/299/299 297/297/297 298/298/298
f 300/300/300 299/299/299 298/298/298
f 304/304/304 303/303/303 302/302/302
f 302/302/302 305/305/305 304/304/304
f 304/304/304 302/302/302 303/303/303
f 302/302/302 304/304/304 305/305/305
f 308/308/308 307/307/307 306/306/306
f 311/311/311 310/310/310 309/309/309
f 314/314/314 313/313/313 312/312/312
f 317/317/317 316/316/316 315/315/315
v 0.061097 1.415480 0.066840
v 0.034821 1.410600 0.065944
v 0.024062 1.524060 0.083962
v 0.060854 1.420730 0.045611
v 0.024062 1.524060 0.083962
v 0.034578 1.415850 0.044714
v 0.060854 1.420730 0.045611
v 0.061097 1.415480 0.066840
v 0.024062 1.524060 0.083962
v 0.034821 1.410600 0.065944
v 0.034578 1.415850 0.044714
v 0.024062 1.524060 0.083962
v 0.009791 1.409080 0.065140
v -0.015864 1.401700 0.063580
v -0.037924 1.513590 0.081178
v 0.009586 1.414310 0.043906
v -0.037924 1.513590 0.081178
v -0.016069 1.406930 0.042345
v 0.009586 1.414310 0.043906
v 0.009791 1.409080 0.065140
v -0.037924 1.513590 0.081178
v -0.015864 1.401700 0.063580
v -0.016069 1.406930 0.042345
v -0.037924 1.513590 0.081178
v -0.031908 1.384030 0.058484
v -0.054438 1.370010 0.055160
v -0.107087 1.471610 0.070025
v -0.031994 1.389220 0.037239
v -0.107087 1.471610 0.070025
v -0.054524 1.375210 0.033915
v -0.031994 1.389220 0.037239
v -0.031908 1.384030 0.058484
v -0.107087 1.471610 0.070025
v -0.054438 1.370010 0.055160
v -0.054524 1.375210 0.033915
v -0.107087 1.471610 0.070025
v 0.061097 1.420270 -0.043003
v 0.034821 1.415510 -0.041625
v 0.024062 1.525060 -0.076207
v 0.060854 1.415480 -0.064342
v 0.024062 1.525060 -0.076207
v 0.034578 1.410720 -0.062964
v 0.060854 1.415480 -0.064342
v 0.061097 1.420270 -0.043003
v 0.024062 1.525060 -0.076207
v 0.034821 1.415510 -0.041625
v 0.034578 1.410720 -0.062964
v 0.024062 1.525060 -0.076207
v 0.009791 1.413790 -0.041665
v -0.015864 1.406490 -0.039764
v -0.037924 1.514450 -0.074017
v 0.009586 1.408980 -0.063000
v -0.037924 1.514450 -0.074017
v -0.016069 1.401680 -0.061099
v 0.009586 1.408980 -0.063000
v 0.009791 1.413790 -0.041665
v -0.037924 1.514450 -0.074017
v -0.015864 1.406490 -0.039764
v -0.016069 1.401680 -0.061099
v -0.037924 1.514450 -0.074017
v -0.031908 1.388400 -0.036425
v -0.054438 1.374380 -0.033136
v -0.107087 1.471910 -0.065237
v -0.031994 1.383550 -0.057751
v -0.107087 1.471910 -0.065237
v -0.054524 1.369530 -0.054463
v -0.031994 1.383550 -0.057751
v -0.031908 1.388400 -0.036425
v -0.107087 1.471910 -0.065237
v -0.054438 1.374380 -0.033136
v -0.054524 1.369530 -0.054463
v -0.107087 1.471910 -0.065237
vn -0.019364 -0.091929 0.995577
vn -0.019364 -0.091929 0.995577
vn -0.019364 -0.091929 0.995577
vn -0.043861 0.393196 -0.918408
vn -0.043861 0.393196 -0.918408
vn -0.043861 0.393196 -0.918408
vn 0.923100 0.375420 0.083342
vn 0.923100 0.375420 0.083342
vn 0.923100 0.375420 0.083342
vn -0.999902 -0.009470 0.010395
vn -0.999902 -0.009470 0.010395
vn -0.999902 -0.009470 0.010395
vn -0.035840 -0.094585 0.994871
vn -0.035840 -0.094585 0.994871
vn -0.035840 -0.094585 0.994871
vn -0.057967 0.388296 -0.919710
vn -0.057967 0.388296 -0.919710
vn -0.057967 0.388296 -0.919710
vn 0.880361 0.462215 0.106404
vn 0.880361 0.462215 0.106404
vn 0.880361 0.462215 0.106404
vn -0.994310 -0.105446 -0.015107
vn -0.994310 -0.105446 -0.015107
vn -0.994310 -0.105446 -0.015107
vn -0.080241 -0.110573 0.990623
vn -0.080241 -0.110573 0.990623
vn -0.080241 -0.110573 0.990623
vn -0.094513 0.367296 -0.925290
vn -0.094513 0.367296 -0.925290
vn -0.094513 0.367296 -0.925290
vn 0.712905 0.681643 0.164707
vn 0.712905 0.681643 0.164707
vn 0.712905 0.681643 0.164707
vn -0.925182 -0.369803 -0.085348
vn -0.925182 -0.369803 -0.085348
vn -0.925182 -0.369803 -0.085348
vn -0.019364 0.362638 0.931728
vn -0.019364 0.362638 0.931728
vn -0.019364 0.362638 0.931728
vn -0.043861 -0.058640 -0.997315
vn -0.043861 -0.058640 -0.997315
vn -0.043861 -0.058640 -0.997315
vn 0.923100 0.373095 -0.093200
vn 0.923100 0.373095 -0.093200
vn 0.923100 0.373095 -0.093200
vn -0.999902 -0.003827 0.013531
vn -0.999902 -0.003827 0.013531
vn -0.999902 -0.003827 0.013531
vn -0.035840 0.359946 0.932284
vn -0.035840 0.359946 0.932284
vn -0.035840 0.359946 0.932284
vn -0.057967 -0.063605 -0.996290
vn -0.057967 -0.063605 -0.996290
vn -0.057967 -0.063605 -0.996290
vn 0.880361 0.461048 -0.111353
vn 0.880361 0.461048 -0.111353
vn 0.880361 0.461048 -0.111353
vn -0.994310 -0.101084 0.033605
vn -0.994310 -0.101084 0.033605
vn -0.994310 -0.101084 0.033605
vn -0.080241 0.343746 0.935628
vn -0.080241 0.343746 0.935628
vn -0.080241 0.343746 0.935628
vn -0.094513 -0.084885 -0.991898
vn -0.094513 -0.084885 -0.991898
vn -0.094513 -0.084885 -0.991898
vn 0.712905 0.683402 -0.157247
vn 0.712905 0.683402 -0.157247
vn 0.712905 0.683402 -0.157247
vn -0.925182 -0.368966 0.088896
vn -0.925182 -0.368966 0.088896
vn -0.925182 -0.368966 0.088896
vt 0.238907 0.171878
vt 0.216230 0.212011
vt 0.250443 0.218998
vt 0.216230 0.209986
vt 0.250443 0.218998
vt 0.247130 0.129483
vt 0.216230 0.209986
vt 0.238907 0.171878
vt 0.250443 0.218998
vt 0.216230 0.212011
vt 0.247130 0.129483
vt 0.250443 0.218998
vt 0.238907 0.171878
vt 0.216230 0.212011
vt 0.250443 0.218998
vt 0.216230 0.209986
vt 0.250443 0.218998
vt 0.247130 0.129483
vt 0.216230 0.209986
vt 0.238907 0.171878
vt 0.250443 0.218998
vt 0.216230 0.212011
vt 0.247130 0.129483
vt 0.250443 0.218998
vt 0.238907 0.171878
vt 0.216230 0.212011
vt 0.250443 0.218998
vt 0.216230 0.209986
vt 0.250443 0.218998
vt 0.247130 0.129483
vt 0.216230 0.209986
vt 0.238907 0.171878
vt 0.250443 0.218998
vt 0.216230 0.212011
vt 0.247130 0.129483
vt 0.250443 0.218998
vt 0.238907 0.171878
vt 0.216230 0.212011
vt 0.250443 0.218998
vt 0.216230 0.209986
vt 0.250443 0.218998
vt 0.247130 0.129483
vt 0.216230 0.209986
vt 0.238907 0.171878
vt 0.250443 0.218998
vt 0.216230 0.212011
vt 0.247130 0.129483
vt 0.250443 0.218998
vt 0.238907 0.171878
vt 0.216230 0.212011
vt 0.250443 0.218998
vt 0.216230 0.209986
vt 0.250443 0.218998
vt 0.247130 0.129483
vt 0.216230 0.209986
vt 0.238907 0.171878
vt 0.250443 0.218998
vt 0.216230 0.212011
vt 0.247130 0.129483
vt 0.250443 0.218998
vt 0.238907 0.171878
vt 0.216230 0.212011
vt 0.250443 0.218998
vt 0.216230 0.209986
vt 0.250443 0.218998
vt 0.247130 0.129483
vt 0.216230 0.209986
vt 0.238907 0.171878
vt 0.250443 0.218998
vt 0.216230 0.212011
vt 0.247130 0.129483
vt 0.250443 0.218998
f 320/320/320 319/319/319 318/318/318
f 323/323/323 322/322/322 321/321/321
f 326/326/326 325/325/325 324/324/324
f 329/329/329 328/328/328 327/327/327
f 332/332/332 331/331/331 330/330/330
f 335/335/335 334/334/334 333/333/333
f 338/338/338 337/337/337 336/336/336
f 341/341/341 340/340/340 339/339/339
f 344/344/344 343/343/343 342/342/342
f 347/347/347 346/346/346 345/345/345
f 350/350/350 349/349/349 348/348/348
f 353/353/353 352/352/352 351/351/351
f 356/356/356 355/355/355 354/354/354
f 359/359/359 358/358/358 357/357/357
f 362/362/362 361/361/361 360/360/360
f 365/365/365 364/364/364 363/363/363
f 368/368/368 367/367/367 366/366/366
f 371/371/371 370/370/370 369/369/369
f 374/374/374 373/373/373 372/372/372
f 377/377/377 376/376/376 375/375/375
f 380/380/380 379/379/379 378/378/378
f 383/383/383 382/382/382 381/381/381
f 386/386/386 385/385/385 384/384/384
f 389/389/389 388/388/388 387/387/387
v 0.631810 0.658194 -0.413148
v 0.630420 0.774942 -0.395450
v 0.323223 0.731845 -0.395450
v 0.631810 0.658194 -0.377752
v -0.229308 0.700522 -0.377752
v -0.229308 0.700522 -0.413148
v -0.229308 0.731702 -0.395450
v 0.482730 0.895447 -0.391907
v 0.587950 0.803758 -0.375419
v 0.520878 0.803758 -0.375419
v 0.520878 0.803758 -0.408973
v 0.494415 0.596142 -0.423069
v 0.587950 0.803758 -0.408973
v 0.605460 0.596142 -0.443722
v 0.605460 0.596142 -0.340757
v 0.581410 0.422632 -0.392241
v 0.272161 0.490035 -0.392241
v 0.494415 0.596142 -0.361413
vn -0.027977 -0.265907 -0.963593
vn -0.138931 0.990302 0.000000
vn -0.007492 0.999972 0.000000
vn -0.042589 -0.619846 0.783567
vn -0.515739 -0.083888 0.852629
vn -0.468137 -0.481890 -0.740696
vn -0.716915 0.697161 0.000000
vn -0.367979 0.929833 0.001529
vn 0.431435 0.358008 0.828066
vn -0.839994 0.033596 0.541554
vn -0.714462 -0.001511 -0.699673
vn -0.650565 0.362931 -0.667118
vn 0.623343 0.329812 -0.708990
vn 0.498608 -0.006992 -0.866799
vn 0.684786 0.016435 0.728559
vn 0.788139 -0.615497 0.000000
vn -0.787278 0.616598 0.000000
vn -0.483784 0.390228 0.783374
vt 0.021294 0.301328
vt 0.058879 0.302113
vt 0.034529 0.538058
vt 0.021294 0.301328
vt 0.016831 0.787858
vt 0.016831 0.787858
vt 0.034449 0.787858
vt 0.336960 0.093677
vt 0.275493 0.023141
vt 0.275493 0.068103
vt 0.275493 0.068103
vt 0.136315 0.085842
vt 0.275493 0.023141
vt 0.136315 0.011399
vt 0.136315 0.011399
vt 0.019997 0.027526
vt 0.065183 0.259976
vt 0.136315 0.085842
f 392/392/392 391/391/391 390/390/390
f 391/391/391 392/392/392 393/393/393
f 394/394/394 393/393/393 392/392/392
f 393/393/393 394/394/394 395/395/395
f 395/395/395 394/394/394 396/396/396
f 395/395/395 390/390/390 393/393/393
f 390/390/390 395/395/395 392/392/392
f 396/396/396 392/392/392 395/395/395
f 392/392/392 396/396/396 394/394/394
f 399/399/399 398/398/398 397/397/397
f 400/400/400 399/399/399 397/397/397
f 399/399/399 400/400/400 401/401/401
f 401/401/401 400/400/400 402/402/402
f 402/402/402 403/403/403 401/401/401
f 404/404/404 403/403/403 402/402/402
f 403/403/403 404/404/404 405/405/405
f 406/406/406 405/405/405 404/404/404
f 404/404/404 407/407/407 406/406/406
f 407/407/407 404/404/404 398/398/398
f 402/402/402 398/398/398 404/404/404
f 398/398/398 402/402/402 397/397/397
f 397/397/397 402/402/402 400/400/400
f 398/398/398 399/399/399 407/407/407
f 401/401/401 407/407/407 399/399/399
f 407/407/407 401/401/401 406/406/406
f 406/406/406 401/401/401 403/403/403
f 403/403/403 405/405/405 406/406/406
