# WC3 MDX geosets → Unity Y-up
mtllib materials.mtl
usemtl Faceless
o Model
v -0.091022 0.048476 0.065251
v -0.230076 0.039126 0.103459
v -0.102433 0.054728 0.167602
v 0.001042 1.057630 0.000000
v -0.124713 0.251541 -0.045360
v -0.038253 0.130838 -0.101113
v -0.147524 0.122747 -0.062406
v 0.053801 0.392061 -0.084818
v -0.161662 0.300583 -0.016337
v -0.079595 0.409324 -0.042801
v -0.222961 0.353776 -0.086270
v -0.158985 0.443210 -0.075521
v -0.111162 0.299538 -0.172891
v -0.077460 0.440354 -0.150369
v -0.181630 0.263859 -0.101957
v -0.209825 0.148479 -0.105158
v -0.146513 0.129770 -0.134973
v -0.026913 0.892057 -0.143473
v -0.002305 1.000870 -0.134104
v 0.006506 0.933074 -0.227122
v -0.084715 1.024940 -0.227935
v -0.085433 0.948771 -0.290447
v -0.181798 0.960650 -0.202469
v -0.085805 0.868901 -0.270664
v -0.163939 0.879698 -0.195258
v -0.122448 0.775388 -0.303083
v -0.173057 0.750790 -0.200862
v -0.016200 0.767246 -0.255396
v -0.179859 0.895457 -0.170545
v -0.137527 1.027250 -0.133022
v -0.080275 0.818386 0.143828
v 0.018127 0.802600 0.036588
v -0.074476 0.771824 0.081763
v 0.037187 0.899811 0.049621
v 0.037188 0.899771 -0.054848
v -0.002346 1.000600 0.000756
v -0.002305 1.000870 -0.134104
v -0.062852 1.050490 -0.076670
v -0.137527 1.027250 -0.133022
v -0.094072 1.067200 -0.002028
v 0.018127 0.802600 -0.043331
v -0.080275 0.818386 -0.150804
v -0.074476 0.771824 -0.089265
v -0.026913 0.892057 -0.143473
v -0.179859 0.895457 -0.170545
v -0.062857 1.050480 0.072575
v -0.137597 1.027190 0.124698
v -0.002383 1.000350 0.125410
v -0.026725 0.892254 0.135434
v -0.180345 0.895937 0.162047
v -0.080275 0.818386 0.143828
v -0.187873 0.849273 -0.003239
v -0.180345 0.895937 0.162047
v -0.215417 0.905212 -0.002816
v -0.179859 0.895457 -0.170545
v -0.180261 1.029710 -0.003334
v -0.137527 1.027250 -0.133022
v -0.094072 1.067200 -0.002028
v -0.137597 1.027190 0.124698
v -0.080275 0.818386 -0.150804
v -0.074476 0.771824 -0.089265
v -0.142547 0.779438 -0.003360
v -0.074476 0.771824 0.081763
v -0.083259 0.579085 -0.003745
v 0.040176 0.665773 -0.064998
v 0.053801 0.392061 -0.084818
v -0.079595 0.409324 -0.042801
v -0.181955 0.682449 -0.024017
v -0.158985 0.443210 -0.075521
v -0.087664 0.523347 -0.174570
v -0.077460 0.440354 -0.150369
v -0.086317 0.687711 -0.111003
v -0.091022 0.048476 0.065251
v -0.147525 0.122747 0.055802
v -0.230076 0.039126 0.103459
v -0.146513 0.129770 0.128368
v -0.102433 0.054728 0.167602
v -0.147525 0.122747 0.055802
v -0.209825 0.148479 0.098556
v -0.230076 0.039126 0.103459
v -0.146513 0.129770 0.128368
v -0.146513 0.129770 0.128368
v 0.007579 0.046994 0.214689
v -0.102433 0.054728 0.167602
v 0.070878 0.048910 0.079681
v -0.091022 0.048476 0.065251
v -0.146513 0.129770 0.128368
v -0.038253 0.130838 0.094510
v 0.007579 0.046994 0.214689
v 0.070878 0.048910 0.079681
v -0.147525 0.122747 0.055802
v -0.091022 0.048476 0.065251
v -0.038253 0.130838 0.094510
v 0.053573 0.392058 0.077964
v -0.124713 0.251541 0.038756
v -0.161662 0.300583 0.009733
v -0.181630 0.263859 0.095354
v -0.222963 0.353776 0.079665
v -0.111162 0.299538 0.166287
v -0.159440 0.443186 0.068418
v -0.077914 0.440330 0.143266
v -0.146513 0.129770 0.128368
v -0.080050 0.409300 0.035697
v -0.209825 0.148479 0.098556
v -0.147525 0.122747 0.055802
v 0.040169 0.665772 0.057672
v -0.083259 0.579085 -0.003745
v 0.053573 0.392058 0.077964
v -0.080050 0.409300 0.035697
v -0.182769 0.682449 0.016692
v -0.159440 0.443186 0.068418
v -0.088831 0.523941 0.166648
v -0.077914 0.440330 0.143266
v -0.087009 0.687695 0.103325
v -0.181955 0.682449 -0.024017
v -0.166658 0.600978 -0.111596
v -0.086317 0.687711 -0.111003
v -0.182769 0.682449 0.016692
v -0.087009 0.687695 0.103325
v -0.170474 0.596324 0.101483
v 0.018127 0.802600 -0.043331
v -0.074476 0.771824 -0.089265
v 0.000247 0.742442 -0.046508
v 0.018127 0.802600 0.036588
v 0.000247 0.742442 0.039006
v -0.074476 0.771824 0.081763
v 0.040169 0.665772 0.057672
v -0.087009 0.687695 0.103325
v -0.086317 0.687711 -0.111003
v 0.040176 0.665773 -0.064998
v -0.074476 0.771824 -0.089265
v -0.142547 0.779438 -0.003360
v -0.086317 0.687711 -0.111003
v -0.181955 0.682449 -0.024017
v -0.182769 0.682449 0.016692
v -0.087009 0.687695 0.103325
v -0.074476 0.771824 0.081763
v -0.166658 0.600978 -0.111596
v -0.181955 0.682449 -0.024017
v -0.230303 0.508321 -0.003224
v -0.182769 0.682449 0.016692
v -0.170474 0.596324 0.101483
v 0.073074 0.458837 0.038316
v 0.040169 0.665772 0.057672
v 0.040176 0.665773 -0.064998
v 0.073074 0.458837 -0.045986
v 0.035382 0.511409 0.202812
v -0.126340 0.550236 0.208330
v -0.059008 0.516180 0.288735
v -0.116653 0.611265 0.228952
v -0.075502 0.605387 0.329626
v -0.008468 0.625867 0.280580
v -0.122447 0.775388 0.295156
v -0.173057 0.750790 0.192936
v -0.163939 0.879698 0.187332
v -0.085805 0.868901 0.262567
v -0.181798 0.960650 0.194542
v -0.085433 0.948771 0.282521
v -0.084715 1.024940 0.220009
v 0.006506 0.933074 0.219197
v -0.002383 1.000350 0.125410
v -0.026725 0.892254 0.135434
v -0.016200 0.767246 0.247469
v -0.137597 1.027190 0.124698
v -0.180345 0.895937 0.162047
v 0.001042 1.057630 0.000000
v -0.075503 0.605387 -0.337551
v -0.116653 0.611265 -0.236877
v -0.059008 0.516180 -0.296662
v -0.126340 0.550237 -0.216256
v 0.035382 0.511409 -0.210739
v -0.008468 0.625867 -0.288507
v -0.062857 1.050480 0.072575
v 0.001042 1.057630 0.000000
v -0.002346 1.000600 0.000756
v -0.062852 1.050490 -0.076670
v -0.147524 0.122747 -0.062406
v -0.091063 0.048495 -0.071817
v -0.230076 0.039126 -0.110064
v -0.091063 0.048495 -0.071817
v -0.102433 0.054728 -0.178400
v -0.230076 0.039126 -0.110064
v -0.146513 0.129770 -0.134973
v -0.209825 0.148479 -0.105158
v -0.147524 0.122747 -0.062406
v -0.230076 0.039126 -0.110064
v -0.146513 0.129770 -0.134973
v 0.070878 0.048910 -0.086285
v -0.102433 0.054728 -0.178400
v -0.091063 0.048495 -0.071817
v 0.007579 0.046994 -0.221294
v -0.146513 0.129770 -0.134973
v 0.007579 0.046994 -0.221294
v 0.070878 0.048910 -0.086285
v -0.038253 0.130838 -0.101113
v -0.146513 0.129770 -0.134973
v -0.091063 0.048495 -0.071817
v -0.147524 0.122747 -0.062406
v 0.073074 0.458837 0.038316
v 0.073074 0.458837 -0.045986
v 0.073074 0.458837 0.038316
v 0.073074 0.458837 -0.045986
v 0.073074 0.458837 0.038316
v 0.073074 0.458837 -0.045986
v 0.073074 0.458837 0.038316
v 0.073074 0.458837 -0.045986
v 0.073074 0.458837 0.038316
v 0.073074 0.458837 -0.045986
v 0.073074 0.458837 0.038316
v 0.073074 0.458837 -0.045986
v 0.073074 0.458837 0.038316
v 0.073074 0.458837 -0.045986
v 0.073074 0.458837 0.038316
v 0.073074 0.458837 -0.045986
v 0.073074 0.458837 0.038316
v 0.073074 0.458837 -0.045986
v 0.073074 0.458837 0.038316
v 0.073074 0.458837 -0.045986
v 0.073074 0.458837 0.038316
v 0.073074 0.458837 -0.045986
v 0.073074 0.458837 0.038316
v 0.073074 0.458837 -0.045986
v 0.073074 0.458837 0.038316
v 0.073074 0.458837 -0.045986
v 0.073074 0.458837 0.038316
v 0.073074 0.458837 -0.045986
v 0.073074 0.458837 0.038316
v 0.073074 0.458837 -0.045986
v 0.073074 0.458837 0.038316
v 0.073074 0.458837 -0.045986
v 0.073074 0.458837 0.038316
v 0.073074 0.458837 -0.045986
v 0.073074 0.458837 0.038316
v 0.073074 0.458837 -0.045986
v 0.073074 0.458837 0.038316
v 0.073074 0.458837 -0.045986
v 0.073074 0.458837 0.038316
v 0.073074 0.458837 -0.045986
v 0.073074 0.458837 0.038316
v 0.073074 0.458837 -0.045986
v 0.073074 0.458837 0.038316
v 0.073074 0.458837 -0.045986
v 0.073074 0.458837 0.038316
v 0.073074 0.458837 -0.045986
v 0.073074 0.458837 0.038316
v 0.073074 0.458837 -0.045986
v 0.073074 0.458837 0.038316
v 0.073074 0.458837 -0.045986
v 0.073074 0.458837 0.038316
v 0.073074 0.458837 -0.045986
v 0.073074 0.458837 0.038316
v 0.073074 0.458837 -0.045986
v 0.073074 0.458837 0.038316
v 0.073074 0.458837 -0.045986
v 0.073074 0.458837 0.038316
v 0.073074 0.458837 -0.045986
v 0.073074 0.458837 0.038316
v 0.073074 0.458837 -0.045986
v 0.073074 0.458837 0.038316
v 0.073074 0.458837 -0.045986
vn 0.082659 -0.580017 -0.810400
vn -0.932401 -0.357284 0.054556
vn -0.229347 -0.697530 0.678861
vn -0.215568 -0.976489 0.000001
vn -0.026976 -0.323817 0.945735
vn 0.887582 -0.458777 0.041493
vn -0.164746 0.038214 0.985596
vn 0.935786 -0.241261 0.257095
vn -0.306115 -0.233412 0.922937
vn -0.198569 0.003264 0.980081
vn -0.969487 0.153408 0.191208
vn -0.947748 0.107437 -0.300386
vn -0.238346 0.025594 -0.970843
vn -0.145107 -0.057197 -0.987761
vn -0.945733 -0.227479 0.232042
vn -0.920660 0.321429 -0.221515
vn -0.199514 0.348152 -0.915961
vn 0.620659 -0.587056 0.519757
vn 0.728707 0.643084 -0.235432
vn 0.880138 -0.013026 -0.474539
vn 0.068744 0.865221 -0.496655
vn -0.045695 0.235973 -0.970685
vn -0.857676 0.168213 -0.485896
vn 0.084678 -0.069313 -0.993995
vn -0.953680 -0.213430 -0.211996
vn -0.279337 0.473754 -0.835182
vn -0.893144 -0.068109 0.444583
vn 0.955877 0.214117 0.201131
vn -0.916167 -0.275227 -0.291356
vn -0.428976 0.876056 -0.220240
vn 0.101116 -0.629166 0.770665
vn 0.831763 -0.455920 0.316712
vn -0.107219 -0.309897 0.944705
vn 0.861558 -0.075128 0.502068
vn 0.890028 -0.176537 -0.420338
vn 0.948262 0.317369 0.008704
vn 0.728707 0.643084 -0.235432
vn 0.333718 0.661960 -0.671150
vn -0.428976 0.876056 -0.220240
vn -0.260750 0.965404 0.001972
vn 0.757792 -0.466554 -0.456157
vn 0.106957 -0.634472 -0.765510
vn -0.161076 -0.373432 -0.913566
vn 0.378710 -0.107105 -0.919297
vn -0.916167 -0.275227 -0.291356
vn 0.335767 0.648903 0.682778
vn -0.431302 0.872435 0.229860
vn 0.727337 0.642041 0.242415
vn 0.363265 -0.088066 0.927515
vn -0.916986 -0.269662 0.293972
vn 0.101116 -0.629166 0.770665
vn -0.781316 -0.624135 0.000849
vn -0.916986 -0.269662 0.293972
vn -0.995668 -0.092981 0.000356
vn -0.916167 -0.275227 -0.291356
vn -0.820643 0.571440 0.001144
vn -0.428976 0.876056 -0.220240
vn -0.260750 0.965404 0.001972
vn -0.431302 0.872435 0.229860
vn 0.106957 -0.634472 -0.765510
vn -0.161076 -0.373432 -0.913566
vn -0.999990 -0.004440 0.000132
vn -0.107219 -0.309897 0.944705
vn 0.104704 -0.168187 0.980179
vn 0.908525 0.319381 -0.269402
vn 0.935786 -0.241261 0.257095
vn -0.198569 0.003264 0.980081
vn -0.900074 0.335560 -0.277967
vn -0.947748 0.107437 -0.300386
vn -0.135472 0.040179 -0.989966
vn -0.145107 -0.057197 -0.987761
vn -0.161803 0.426246 -0.890019
vn 0.082659 -0.580017 -0.810400
vn -0.164678 0.038046 -0.985613
vn -0.932401 -0.357284 0.054556
vn -0.205095 0.328315 0.922033
vn -0.229347 -0.697530 0.678861
vn -0.164678 0.038046 -0.985613
vn -0.920660 0.321429 0.221515
vn -0.932401 -0.357284 0.054556
vn -0.205095 0.328315 0.922033
vn -0.205095 0.328315 0.922033
vn 0.069659 0.486788 0.870738
vn -0.229347 -0.697530 0.678861
vn 0.349790 -0.776487 -0.524132
vn 0.082659 -0.580017 -0.810400
vn -0.205095 0.328315 0.922033
vn 0.381287 0.844634 -0.375783
vn 0.069659 0.486788 0.870738
vn 0.349790 -0.776487 -0.524132
vn -0.164678 0.038046 -0.985613
vn 0.082659 -0.580017 -0.810400
vn 0.887722 -0.458469 -0.041907
vn 0.937088 -0.238341 -0.255067
vn -0.027207 -0.323956 -0.945681
vn -0.306600 -0.235142 -0.922337
vn -0.945732 -0.227479 -0.232042
vn -0.969893 0.150857 -0.191179
vn -0.238122 0.026754 0.970867
vn -0.947785 0.106897 0.300462
vn -0.144377 -0.050776 0.988219
vn -0.205095 0.328315 0.922033
vn -0.199151 0.000248 -0.979969
vn -0.920660 0.321429 0.221515
vn -0.164678 0.038046 -0.985613
vn 0.878507 0.296059 0.374933
vn 0.105998 -0.170092 -0.979711
vn 0.937088 -0.238341 -0.255067
vn -0.199151 0.000248 -0.979969
vn -0.903012 0.332116 0.272522
vn -0.947785 0.106897 0.300462
vn -0.136175 0.044023 0.989706
vn -0.144377 -0.050776 0.988219
vn -0.304938 0.410344 0.859436
vn -0.900074 0.335560 -0.277967
vn -0.768735 0.356456 -0.531023
vn -0.161803 0.426246 -0.890019
vn -0.903012 0.332116 0.272522
vn -0.304938 0.410344 0.859436
vn -0.775303 0.344490 0.529370
vn 0.757792 -0.466554 -0.456157
vn -0.161076 -0.373432 -0.913566
vn 0.849894 0.070064 -0.522275
vn 0.831763 -0.455920 0.316712
vn 0.899638 0.221477 0.376297
vn -0.107219 -0.309897 0.944705
vn 0.878507 0.296059 0.374933
vn -0.304938 0.410344 0.859436
vn -0.161803 0.426246 -0.890019
vn 0.908525 0.319381 -0.269402
vn -0.161076 -0.373432 -0.913566
vn -0.999990 -0.004440 0.000132
vn -0.161803 0.426246 -0.890019
vn -0.900074 0.335560 -0.277967
vn -0.903012 0.332116 0.272522
vn -0.304938 0.410344 0.859436
vn -0.107219 -0.309897 0.944705
vn -0.768735 0.356456 -0.531023
vn -0.900074 0.335560 -0.277967
vn -0.990631 0.136162 -0.010497
vn -0.903012 0.332116 0.272522
vn -0.775303 0.344490 0.529370
vn 0.978746 0.205074 -0.000001
vn 0.878507 0.296059 0.374933
vn 0.908525 0.319381 -0.269402
vn 0.978746 0.205075 0.000000
vn 0.897953 -0.333953 -0.286629
vn -0.734862 -0.544443 -0.404426
vn -0.500530 -0.629012 0.594823
vn -0.522967 -0.129907 -0.842395
vn -0.165570 -0.380522 0.909829
vn 0.957909 0.129305 0.256303
vn -0.279009 0.474197 0.835040
vn -0.893186 -0.068125 -0.444497
vn -0.953687 -0.212929 0.212466
vn 0.084751 -0.069513 0.993974
vn -0.856675 0.169324 0.487275
vn -0.045824 0.234992 0.970917
vn 0.070018 0.866307 0.494580
vn 0.880762 -0.013225 0.473374
vn 0.727337 0.642041 0.242415
vn 0.620588 -0.587203 -0.519676
vn 0.955864 0.214681 -0.200589
vn -0.431302 0.872435 0.229860
vn -0.916986 -0.269662 0.293972
vn -0.215568 -0.976489 0.000001
vn -0.165571 -0.380522 -0.909829
vn -0.522967 -0.129907 0.842395
vn -0.500530 -0.629012 -0.594823
vn -0.734862 -0.544443 0.404426
vn 0.897952 -0.333954 0.286629
vn 0.957909 0.129305 -0.256303
vn 0.335767 0.648903 0.682778
vn 0.926149 0.376722 0.018137
vn 0.948262 0.317369 0.008704
vn 0.333718 0.661960 -0.671150
vn -0.164746 0.038214 0.985596
vn 0.082356 -0.579106 0.811082
vn -0.941608 -0.334284 -0.040343
vn 0.082356 -0.579106 0.811082
vn -0.229042 -0.740275 -0.632086
vn -0.941608 -0.334284 -0.040343
vn -0.199514 0.348152 -0.915961
vn -0.920660 0.321429 -0.221515
vn -0.164746 0.038214 0.985596
vn -0.941608 -0.334284 -0.040343
vn -0.199514 0.348152 -0.915961
vn 0.348052 -0.775132 0.527286
vn -0.229042 -0.740275 -0.632086
vn 0.082356 -0.579106 0.811082
vn 0.088663 0.514616 -0.852825
vn -0.199514 0.348152 -0.915961
vn 0.088663 0.514616 -0.852825
vn 0.348052 -0.775132 0.527286
vn 0.381255 0.844713 0.375639
vn -0.199514 0.348152 -0.915961
vn 0.082356 -0.579106 0.811082
vn -0.164746 0.038214 0.985596
vn 0.978746 0.205074 -0.000001
vn 0.978746 0.205075 0.000000
vn 0.978746 0.205074 -0.000001
vn 0.978746 0.205075 0.000000
vn 0.978746 0.205074 -0.000001
vn 0.978746 0.205075 0.000000
vn 0.978746 0.205074 -0.000001
vn 0.978746 0.205075 0.000000
vn 0.978746 0.205074 -0.000001
vn 0.978746 0.205075 0.000000
vn 0.978746 0.205074 -0.000001
vn 0.978746 0.205075 0.000000
vn 0.978746 0.205074 -0.000001
vn 0.978746 0.205075 0.000000
vn 0.978746 0.205074 -0.000001
vn 0.978746 0.205075 0.000000
vn 0.978746 0.205074 -0.000001
vn 0.978746 0.205075 0.000000
vn 0.978746 0.205074 -0.000001
vn 0.978746 0.205075 0.000000
vn 0.978746 0.205074 -0.000001
vn 0.978746 0.205075 0.000000
vn 0.978746 0.205074 -0.000001
vn 0.978746 0.205075 0.000000
vn 0.978746 0.205074 -0.000001
vn 0.978746 0.205075 0.000000
vn 0.978746 0.205074 -0.000001
vn 0.978746 0.205075 0.000000
vn 0.978746 0.205074 -0.000001
vn 0.978746 0.205075 0.000000
vn 0.978746 0.205074 -0.000001
vn 0.978746 0.205075 0.000000
vn 0.978746 0.205074 -0.000001
vn 0.978746 0.205075 0.000000
vn 0.978746 0.205074 -0.000001
vn 0.978746 0.205075 0.000000
vn 0.978746 0.205074 -0.000001
vn 0.978746 0.205075 0.000000
vn 0.978746 0.205074 -0.000001
vn 0.978746 0.205075 0.000000
vn 0.978746 0.205074 -0.000001
vn 0.978746 0.205075 0.000000
vn 0.978746 0.205074 -0.000001
vn 0.978746 0.205075 0.000000
vn 0.978746 0.205074 -0.000001
vn 0.978746 0.205075 0.000000
vn 0.978746 0.205074 -0.000001
vn 0.978746 0.205075 0.000000
vn 0.978746 0.205074 -0.000001
vn 0.978746 0.205075 0.000000
vn 0.978746 0.205074 -0.000001
vn 0.978746 0.205075 0.000000
vn 0.978746 0.205074 -0.000001
vn 0.978746 0.205075 0.000000
vn 0.978746 0.205074 -0.000001
vn 0.978746 0.205075 0.000000
vn 0.978746 0.205074 -0.000001
vn 0.978746 0.205075 0.000000
vn 0.978746 0.205074 -0.000001
vn 0.978746 0.205075 0.000000
vn 0.978746 0.205074 -0.000001
vn 0.978746 0.205075 0.000000
vt 0.903424 0.178087
vt 0.846108 0.230136
vt 0.862520 0.208914
vt 0.005000 0.218916
vt 0.409051 0.297754
vt 0.366645 0.230616
vt 0.412843 0.216133
vt 0.373496 0.400168
vt 0.450342 0.327233
vt 0.430679 0.398345
vt 0.503521 0.359953
vt 0.485640 0.423195
vt 0.405391 0.328347
vt 0.431261 0.417892
vt 0.472578 0.305515
vt 0.450539 0.242831
vt 0.412740 0.220576
vt 0.941475 0.704392
vt 0.926374 0.816983
vt 0.886940 0.707978
vt 0.822666 0.800362
vt 0.835565 0.714535
vt 0.894963 0.742057
vt 0.855871 0.638872
vt 0.905859 0.674134
vt 0.877231 0.546031
vt 0.966130 0.560579
vt 0.928248 0.560950
vt 0.937989 0.705676
vt 0.868191 0.853310
vt 0.510389 0.778779
vt 0.527433 0.845430
vt 0.446602 0.881102
vt 0.469263 0.908518
vt 0.469387 0.908692
vt 0.527564 0.845484
vt 0.512628 0.948485
vt 0.427144 0.802764
vt 0.527507 0.904089
vt 0.491865 0.920667
vt 0.527151 0.844685
vt 0.508336 0.778830
vt 0.445964 0.880096
vt 0.432792 0.854488
vt 0.430696 0.748037
vt 0.427610 0.800923
vt 0.528690 0.905548
vt 0.514600 0.947330
vt 0.433305 0.856327
vt 0.429501 0.752434
vt 0.790151 0.813646
vt 0.704247 0.819155
vt 0.793065 0.832159
vt 0.736116 0.859185
vt 0.793687 0.833087
vt 0.747181 0.914542
vt 0.793874 0.903882
vt 0.743578 0.949625
vt 0.793451 0.904472
vt 0.790478 0.811970
vt 0.767962 0.784655
vt 0.690791 0.801741
vt 0.768575 0.785063
vt 0.450466 0.521320
vt 0.428128 0.704292
vt 0.374950 0.405895
vt 0.439476 0.404556
vt 0.531713 0.628474
vt 0.498042 0.431206
vt 0.449597 0.482767
vt 0.440115 0.426007
vt 0.489436 0.667036
vt 0.776476 0.210574
vt 0.834249 0.168975
vt 0.798888 0.250372
vt 0.845779 0.204365
vt 0.808122 0.234087
vt 0.824229 0.176197
vt 0.801452 0.251111
vt 0.857554 0.209413
vt 0.846390 0.207062
vt 0.906958 0.178523
vt 0.810362 0.274332
vt 0.850991 0.208616
vt 0.759149 0.197981
vt 0.822560 0.166293
vt 0.757154 0.225206
vt 0.763962 0.248472
vt 0.818313 0.181201
vt 0.861960 0.209269
vt 0.777625 0.265527
vt 0.815912 0.243588
vt 0.363841 0.233979
vt 0.371665 0.400748
vt 0.405683 0.299911
vt 0.446664 0.328908
vt 0.468640 0.307589
vt 0.502927 0.358419
vt 0.402082 0.330003
vt 0.482064 0.423369
vt 0.428282 0.418048
vt 0.409311 0.224000
vt 0.427710 0.398822
vt 0.446633 0.246098
vt 0.409412 0.219630
vt 0.430667 0.707851
vt 0.449063 0.528236
vt 0.380267 0.419346
vt 0.438871 0.417693
vt 0.525983 0.631939
vt 0.495262 0.443257
vt 0.448810 0.492092
vt 0.439475 0.437994
vt 0.487384 0.666226
vt 0.695584 0.160107
vt 0.539076 0.238468
vt 0.534885 0.237138
vt 0.693047 0.160255
vt 0.536512 0.236023
vt 0.535435 0.237420
vt 0.805694 0.526115
vt 0.799250 0.608827
vt 0.697936 0.531264
vt 0.803560 0.524883
vt 0.699321 0.532063
vt 0.802021 0.610427
vt 0.652348 0.673960
vt 0.697133 0.692731
vt 0.700679 0.694759
vt 0.653301 0.674511
vt 0.796769 0.780012
vt 0.709695 0.791804
vt 0.768831 0.720023
vt 0.678046 0.745173
vt 0.681945 0.745173
vt 0.773177 0.720003
vt 0.794399 0.780012
vt 0.660641 0.341386
vt 0.538417 0.236136
vt 0.693554 0.161605
vt 0.536567 0.236976
vt 0.658616 0.337668
vt 0.535415 0.351618
vt 0.498578 0.147182
vt 0.699299 0.142892
vt 0.656823 0.356202
vt 0.837345 0.296301
vt 0.855026 0.397948
vt 0.751764 0.301053
vt 0.811310 0.421417
vt 0.711035 0.415563
vt 0.759885 0.435960
vt 0.880387 0.547508
vt 0.969285 0.562056
vt 0.909014 0.675610
vt 0.859026 0.640349
vt 0.898029 0.735491
vt 0.834069 0.721836
vt 0.825821 0.801839
vt 0.890006 0.701412
vt 0.931799 0.815203
vt 0.944637 0.706088
vt 0.931404 0.562426
vt 0.866955 0.852668
vt 0.941398 0.707799
vt 0.005000 0.218916
vt 0.718934 0.415563
vt 0.819208 0.421417
vt 0.759662 0.301053
vt 0.851490 0.397948
vt 0.845244 0.296301
vt 0.767784 0.435960
vt 0.731107 0.559509
vt 0.772911 0.586579
vt 0.789422 0.526634
vt 0.731598 0.559725
vt 0.429420 0.205488
vt 0.325876 0.201781
vt 0.433960 0.243566
vt 0.794029 0.234510
vt 0.799750 0.195068
vt 0.818838 0.242871
vt 0.820250 0.171053
vt 0.818946 0.242945
vt 0.841270 0.213188
vt 0.855445 0.211005
vt 0.821465 0.170775
vt 0.760511 0.199332
vt 0.844132 0.204033
vt 0.817624 0.171389
vt 0.810399 0.272849
vt 0.910982 0.178107
vt 0.820094 0.182904
vt 0.859312 0.210143
vt 0.762891 0.245697
vt 0.757662 0.226665
vt 0.815039 0.246134
vt 0.773266 0.264550
vt 0.535415 0.351618
vt 0.656823 0.356202
vt 0.535415 0.351618
vt 0.656823 0.356202
vt 0.535415 0.351618
vt 0.656823 0.356202
vt 0.535415 0.351618
vt 0.656823 0.356202
vt 0.535415 0.351618
vt 0.656823 0.356202
vt 0.535415 0.351618
vt 0.656823 0.356202
vt 0.535415 0.351618
vt 0.656823 0.356202
vt 0.535415 0.351618
vt 0.656823 0.356202
vt 0.535415 0.351618
vt 0.656823 0.356202
vt 0.535415 0.351618
vt 0.656823 0.356202
vt 0.535415 0.351618
vt 0.656823 0.356202
vt 0.535415 0.351618
vt 0.656823 0.356202
vt 0.535415 0.351618
vt 0.656823 0.356202
vt 0.535415 0.351618
vt 0.656823 0.356202
vt 0.535415 0.351618
vt 0.656823 0.356202
vt 0.535415 0.351618
vt 0.656823 0.356202
vt 0.535415 0.351618
vt 0.656823 0.356202
vt 0.535415 0.351618
vt 0.656823 0.356202
vt 0.535415 0.351618
vt 0.656823 0.356202
vt 0.535415 0.351618
vt 0.656823 0.356202
vt 0.535415 0.351618
vt 0.656823 0.356202
vt 0.535415 0.351618
vt 0.656823 0.356202
vt 0.535415 0.351618
vt 0.656823 0.356202
vt 0.535415 0.351618
vt 0.656823 0.356202
vt 0.535415 0.351618
vt 0.656823 0.356202
vt 0.535415 0.351618
vt 0.656823 0.356202
vt 0.535415 0.351618
vt 0.656823 0.356202
vt 0.535415 0.351618
vt 0.656823 0.356202
vt 0.535415 0.351618
vt 0.656823 0.356202
vt 0.535415 0.351618
vt 0.656823 0.356202
vt 0.535415 0.351618
vt 0.656823 0.356202
f 3/3/3 2/2/2 1/1/1
f 7/7/7 6/6/6 5/5/5
f 6/6/6 8/8/8 5/5/5
f 9/9/9 5/5/5 8/8/8
f 10/10/10 9/9/9 8/8/8
f 9/9/9 10/10/10 11/11/11
f 12/12/12 11/11/11 10/10/10
f 11/11/11 12/12/12 13/13/13
f 14/14/14 13/13/13 12/12/12
f 14/14/14 8/8/8 13/13/13
f 11/11/11 15/15/15 9/9/9
f 5/5/5 9/9/9 15/15/15
f 7/7/7 5/5/5 15/15/15
f 15/15/15 11/11/11 13/13/13
f 16/16/16 15/15/15 13/13/13
f 16/16/16 7/7/7 15/15/15
f 17/17/17 16/16/16 13/13/13
f 6/6/6 17/17/17 13/13/13
f 6/6/6 13/13/13 8/8/8
f 20/20/20 19/19/19 18/18/18
f 20/20/20 21/21/21 19/19/19
f 20/20/20 22/22/22 21/21/21
f 23/23/23 21/21/21 22/22/22
f 23/23/23 22/22/22 24/24/24
f 25/25/25 23/23/23 24/24/24
f 26/26/26 25/25/25 24/24/24
f 26/26/26 27/27/27 25/25/25
f 27/27/27 28/28/28 18/18/18
f 28/28/28 24/24/24 18/18/18
f 24/24/24 20/20/20 18/18/18
f 20/20/20 24/24/24 22/22/22
f 28/28/28 26/26/26 24/24/24
f 27/27/27 18/18/18 25/25/25
f 25/25/25 18/18/18 29/29/29
f 23/23/23 25/25/25 29/29/29
f 23/23/23 29/29/29 30/30/30
f 21/21/21 23/23/23 30/30/30
f 19/19/19 21/21/21 30/30/30
f 33/33/33 32/32/32 31/31/31
f 34/34/34 31/31/31 32/32/32
f 34/34/34 32/32/32 35/35/35
f 36/36/36 34/34/34 35/35/35
f 36/36/36 35/35/35 37/37/37
f 38/38/38 36/36/36 37/37/37
f 38/38/38 37/37/37 39/39/39
f 40/40/40 38/38/38 39/39/39
f 35/35/35 32/32/32 41/41/41
f 43/43/43 42/42/42 41/41/41
f 35/35/35 41/41/41 42/42/42
f 35/35/35 42/42/42 44/44/44
f 35/35/35 44/44/44 37/37/37
f 44/44/44 42/42/42 45/45/45
f 40/40/40 47/47/47 46/46/46
f 46/46/46 47/47/47 48/48/48
f 46/46/46 48/48/48 36/36/36
f 48/48/48 49/49/49 34/34/34
f 48/48/48 34/34/34 36/36/36
f 49/49/49 31/31/31 34/34/34
f 50/50/50 31/31/31 49/49/49
f 53/53/53 52/52/52 51/51/51
f 53/53/53 54/54/54 52/52/52
f 55/55/55 52/52/52 54/54/54
f 56/56/56 55/55/55 54/54/54
f 57/57/57 55/55/55 56/56/56
f 57/57/57 56/56/56 58/58/58
f 56/56/56 59/59/59 58/58/58
f 59/59/59 56/56/56 53/53/53
f 56/56/56 54/54/54 53/53/53
f 61/61/61 52/52/52 60/60/60
f 55/55/55 60/60/60 52/52/52
f 62/62/62 52/52/52 61/61/61
f 62/62/62 63/63/63 52/52/52
f 63/63/63 51/51/51 52/52/52
f 66/66/66 65/65/65 64/64/64
f 67/67/67 66/66/66 64/64/64
f 67/67/67 64/64/64 68/68/68
f 69/69/69 67/67/67 68/68/68
f 70/70/70 69/69/69 68/68/68
f 71/71/71 69/69/69 70/70/70
f 66/66/66 71/71/71 70/70/70
f 66/66/66 70/70/70 65/65/65
f 70/70/70 68/68/68 72/72/72
f 70/70/70 72/72/72 65/65/65
f 75/75/75 74/74/74 73/73/73
f 77/77/77 76/76/76 75/75/75
f 80/80/80 79/79/79 78/78/78
f 81/81/81 79/79/79 80/80/80
f 84/84/84 83/83/83 82/82/82
f 84/84/84 85/85/85 83/83/83
f 85/85/85 84/84/84 86/86/86
f 89/89/89 88/88/88 87/87/87
f 89/89/89 90/90/90 88/88/88
f 92/92/92 91/91/91 88/88/88
f 90/90/90 92/92/92 88/88/88
f 95/95/95 94/94/94 93/93/93
f 94/94/94 95/95/95 96/96/96
f 97/97/97 96/96/96 95/95/95
f 96/96/96 97/97/97 98/98/98
f 99/99/99 98/98/98 97/97/97
f 99/99/99 100/100/100 98/98/98
f 100/100/100 99/99/99 101/101/101
f 99/99/99 94/94/94 101/101/101
f 94/94/94 99/99/99 93/93/93
f 93/93/93 99/99/99 102/102/102
f 103/103/103 98/98/98 100/100/100
f 98/98/98 103/103/103 96/96/96
f 94/94/94 96/96/96 103/103/103
f 99/99/99 104/104/104 102/102/102
f 99/99/99 97/97/97 104/104/104
f 97/97/97 105/105/105 104/104/104
f 97/97/97 95/95/95 105/105/105
f 95/95/95 93/93/93 105/105/105
f 108/108/108 107/107/107 106/106/106
f 109/109/109 107/107/107 108/108/108
f 109/109/109 110/110/110 107/107/107
f 111/111/111 110/110/110 109/109/109
f 111/111/111 112/112/112 110/110/110
f 113/113/113 112/112/112 111/111/111
f 113/113/113 108/108/108 112/112/112
f 112/112/112 114/114/114 110/110/110
f 112/112/112 106/106/106 114/114/114
f 108/108/108 106/106/106 112/112/112
f 117/117/117 116/116/116 115/115/115
f 120/120/120 119/119/119 118/118/118
f 123/123/123 122/122/122 121/121/121
f 123/123/123 121/121/121 124/124/124
f 125/125/125 123/123/123 124/124/124
f 126/126/126 125/125/125 124/124/124
f 127/127/127 125/125/125 126/126/126
f 128/128/128 127/127/127 126/126/126
f 129/129/129 122/122/122 123/123/123
f 130/130/130 129/129/129 123/123/123
f 130/130/130 123/123/123 125/125/125
f 127/127/127 130/130/130 125/125/125
f 133/133/133 132/132/132 131/131/131
f 134/134/134 132/132/132 133/133/133
f 134/134/134 135/135/135 132/132/132
f 135/135/135 136/136/136 132/132/132
f 136/136/136 137/137/137 132/132/132
f 140/140/140 139/139/139 138/138/138
f 141/141/141 139/139/139 140/140/140
f 142/142/142 141/141/141 140/140/140
f 145/145/145 144/144/144 143/143/143
f 146/146/146 145/145/145 143/143/143
f 149/149/149 148/148/148 147/147/147
f 150/150/150 148/148/148 149/149/149
f 151/151/151 150/150/150 149/149/149
f 150/150/150 152/152/152 147/147/147
f 150/150/150 147/147/147 148/148/148
f 151/151/151 149/149/149 147/147/147
f 152/152/152 151/151/151 147/147/147
f 155/155/155 154/154/154 153/153/153
f 156/156/156 155/155/155 153/153/153
f 156/156/156 157/157/157 155/155/155
f 156/156/156 158/158/158 157/157/157
f 158/158/158 159/159/159 157/157/157
f 159/159/159 158/158/158 160/160/160
f 161/161/161 159/159/159 160/160/160
f 162/162/162 161/161/161 160/160/160
f 158/158/158 156/156/156 160/160/160
f 156/156/156 153/153/153 163/163/163
f 162/162/162 156/156/156 163/163/163
f 162/162/162 160/160/160 156/156/156
f 164/164/164 159/159/159 161/161/161
f 164/164/164 157/157/157 159/159/159
f 164/164/164 165/165/165 157/157/157
f 157/157/157 165/165/165 155/155/155
f 165/165/165 162/162/162 155/155/155
f 155/155/155 162/162/162 154/154/154
f 162/162/162 163/163/163 154/154/154
f 169/169/169 168/168/168 167/167/167
f 169/169/169 170/170/170 168/168/168
f 171/171/171 170/170/170 169/169/169
f 171/171/171 172/172/172 168/168/168
f 170/170/170 171/171/171 168/168/168
f 171/171/171 169/169/169 167/167/167
f 171/171/171 167/167/167 172/172/172
f 175/175/175 174/174/174 173/173/173
f 176/176/176 174/174/174 175/175/175
f 179/179/179 178/178/178 177/177/177
f 182/182/182 181/181/181 180/180/180
f 181/181/181 182/182/182 183/183/183
f 186/186/186 185/185/185 184/184/184
f 187/187/187 186/186/186 184/184/184
f 190/190/190 189/189/189 188/188/188
f 191/191/191 188/188/188 189/189/189
f 192/192/192 191/191/191 189/189/189
f 195/195/195 194/194/194 193/193/193
f 196/196/196 195/195/195 193/193/193
f 195/195/195 198/198/198 197/197/197
f 195/195/195 197/197/197 194/194/194
v -0.016200 0.767246 -0.255396
v -0.122448 0.775388 -0.303083
v 0.000987 0.725398 -0.278066
v -0.168338 0.701549 -0.189743
v -0.116653 0.611265 -0.236877
v -0.075503 0.605387 -0.337551
v -0.173057 0.750790 -0.200862
v -0.100621 0.732341 -0.343119
v -0.008468 0.625867 -0.288507
v -0.168338 0.701549 0.181816
v -0.016200 0.767246 0.247469
v -0.173057 0.750790 0.192936
v -0.100621 0.732342 0.335192
v -0.122447 0.775388 0.295156
v 0.000987 0.725398 0.270139
v -0.116653 0.611265 0.228952
v -0.008468 0.625867 0.280580
v -0.075502 0.605387 0.329626
vn 0.955877 0.214117 0.201131
vn -0.279337 0.473754 -0.835182
vn 0.919802 0.325906 0.218519
vn -0.643905 -0.311837 0.698674
vn -0.522967 -0.129907 0.842395
vn -0.165571 -0.380522 -0.909829
vn -0.893144 -0.068109 0.444583
vn -0.288988 0.204314 -0.935276
vn 0.957909 0.129305 -0.256303
vn -0.643905 -0.311837 -0.698674
vn 0.955864 0.214681 -0.200589
vn -0.893186 -0.068125 -0.444497
vn -0.288988 0.204314 0.935276
vn -0.279009 0.474197 0.835040
vn 0.919802 0.325905 -0.218519
vn -0.522967 -0.129907 -0.842395
vn 0.957909 0.129305 0.256303
vn -0.165570 -0.380522 0.909829
vt 0.678324 0.245959
vt 0.662910 0.332016
vt 0.611691 0.244217
vt 0.618275 0.144411
vt 0.500890 0.158533
vt 0.534827 0.331180
vt 0.698833 0.143176
vt 0.609948 0.314392
vt 0.530321 0.242840
vt 0.618212 0.145085
vt 0.678261 0.246632
vt 0.698769 0.143849
vt 0.609884 0.315066
vt 0.662847 0.332689
vt 0.611628 0.244890
vt 0.500828 0.159192
vt 0.530258 0.243513
vt 0.534763 0.331853
f 263/263/263 262/262/262 261/261/261
f 263/263/263 261/261/261 264/264/264
f 265/265/265 263/263/263 264/264/264
f 266/266/266 265/265/265 264/264/264
f 264/264/264 261/261/261 267/267/267
f 264/264/264 267/267/267 268/268/268
f 266/266/266 264/264/264 268/268/268
f 269/269/269 266/266/266 268/268/268
f 268/268/268 267/267/267 262/262/262
f 268/268/268 262/262/262 263/263/263
f 269/269/269 268/268/268 263/263/263
f 265/265/265 269/269/269 263/263/263
f 272/272/272 271/271/271 270/270/270
f 273/273/273 272/272/272 270/270/270
f 274/274/274 272/272/272 273/273/273
f 275/275/275 274/274/274 273/273/273
f 271/271/271 274/274/274 275/275/275
f 270/270/270 271/271/271 275/275/275
f 270/270/270 275/275/275 276/276/276
f 275/275/275 277/277/277 276/276/276
f 270/270/270 276/276/276 278/278/278
f 273/273/273 270/270/270 278/278/278
f 273/273/273 278/278/278 277/277/277
f 275/275/275 273/273/273 277/277/277
v 0.044464 0.569832 -0.289247
v 0.027580 0.593882 -0.271268
v -0.265026 0.593567 -0.272682
v -0.235311 0.570629 -0.283005
v -0.417061 0.571330 -0.269515
v 0.044498 0.571146 -0.250909
v -0.235288 0.571541 -0.256391
v -0.417061 0.571330 -0.269515
v 0.044498 0.571146 -0.250909
v 0.056182 0.547163 -0.267257
v -0.236407 0.548703 -0.265721
v -0.235288 0.571541 -0.256391
v -0.417061 0.571330 -0.269515
v 0.044464 0.569832 -0.289247
v -0.235311 0.570629 -0.283005
v -0.417061 0.571330 -0.269515
vn 0.010242 0.504574 -0.863307
vn -0.000802 0.894539 0.446989
vn -0.040599 0.938488 -0.342917
vn -0.050082 0.505249 -0.861519
vn -0.115729 0.474964 -0.872362
vn 0.000530 0.525138 0.851016
vn -0.006070 0.559072 0.829097
vn -0.012147 0.574608 0.818338
vn 0.006991 -0.461610 0.887055
vn -0.008719 -0.915385 -0.402485
vn -0.048019 -0.920132 0.388654
vn -0.053338 -0.461868 0.885343
vn -0.118719 -0.430540 0.894729
vn -0.004759 -0.566309 -0.824179
vn -0.011617 -0.599068 -0.800614
vn -0.017811 -0.614005 -0.789101
vt 0.323422 0.057039
vt 0.321578 0.012464
vt 0.484535 0.012464
vt 0.484786 0.070009
vt 0.131657 0.012464
vt 0.323422 0.056163
vt 0.484786 0.069542
vt 0.131657 0.012464
vt 0.323422 0.057039
vt 0.321578 0.012464
vt 0.484535 0.012464
vt 0.484786 0.070009
vt 0.131657 0.012464
vt 0.323422 0.056163
vt 0.484786 0.069542
vt 0.131657 0.012464
f 281/281/281 280/280/280 279/279/279
f 282/282/282 281/281/281 279/279/279
f 283/283/283 281/281/281 282/282/282
f 285/285/285 284/284/284 280/280/280
f 281/281/281 285/285/285 280/280/280
f 286/286/286 285/285/285 281/281/281
f 289/289/289 288/288/288 287/287/287
f 290/290/290 289/289/289 287/287/287
f 291/291/291 289/289/289 290/290/290
f 293/293/293 292/292/292 288/288/288
f 289/289/289 293/293/293 288/288/288
f 294/294/294 293/293/293 289/289/289
v 0.066964 0.565032 0.232753
v 0.050080 0.589082 0.250732
v -0.242526 0.588767 0.249318
v -0.212811 0.565829 0.238995
v -0.394561 0.566530 0.252485
v 0.066998 0.566346 0.271091
v -0.212788 0.566741 0.265609
v -0.394561 0.566530 0.252485
v 0.066998 0.566346 0.271091
v 0.078682 0.542363 0.254743
v -0.213907 0.543903 0.256279
v -0.212788 0.566741 0.265609
v -0.394561 0.566530 0.252485
v 0.066964 0.565032 0.232753
v -0.212811 0.565829 0.238995
v -0.394561 0.566530 0.252485
vn 0.010242 0.504574 -0.863307
vn -0.000802 0.894539 0.446989
vn -0.040599 0.938488 -0.342917
vn -0.050082 0.505249 -0.861519
vn -0.115729 0.474964 -0.872362
vn 0.000530 0.525138 0.851016
vn -0.006070 0.559072 0.829097
vn -0.012147 0.574608 0.818338
vn 0.006991 -0.461610 0.887055
vn -0.008719 -0.915385 -0.402485
vn -0.048019 -0.920132 0.388654
vn -0.053338 -0.461868 0.885343
vn -0.118719 -0.430540 0.894729
vn -0.004759 -0.566309 -0.824179
vn -0.011617 -0.599068 -0.800614
vn -0.017811 -0.614005 -0.789101
vt 0.323422 0.057039
vt 0.321578 0.012464
vt 0.484535 0.012464
vt 0.484786 0.070009
vt 0.131657 0.012464
vt 0.323422 0.056163
vt 0.484786 0.069542
vt 0.131657 0.012464
vt 0.323422 0.057039
vt 0.321578 0.012464
vt 0.484535 0.012464
vt 0.484786 0.070009
vt 0.131657 0.012464
vt 0.323422 0.056163
vt 0.484786 0.069542
vt 0.131657 0.012464
f 297/297/297 296/296/296 295/295/295
f 298/298/298 297/297/297 295/295/295
f 299/299/299 297/297/297 298/298/298
f 301/301/301 300/300/300 296/296/296
f 297/297/297 301/301/301 296/296/296
f 302/302/302 301/301/301 297/297/297
f 305/305/305 304/304/304 303/303/303
f 306/306/306 305/305/305 303/303/303
f 307/307/307 305/305/305 306/306/306
f 309/309/309 308/308/308 304/304/304
f 305/305/305 309/309/309 304/304/304
f 310/310/310 309/309/309 305/305/305
v -0.170256 0.917061 -0.000543
v -0.324267 0.912891 -0.011295
v -0.131762 0.771866 -0.005442
v -0.262235 0.735636 -0.018441
v -0.094963 1.029340 -0.000543
v -0.195917 1.145720 -0.011295
v -0.182750 0.907454 -0.005442
v -0.293546 0.985300 -0.018441
vn 0.656358 0.041877 0.753286
vn 0.645894 0.484800 -0.589736
vn 0.645894 0.484800 -0.589736
vn 0.653955 0.047266 0.755055
vn 0.448876 -0.480698 0.753286
vn 0.784553 -0.191540 -0.589736
vn 0.784553 -0.191540 -0.589736
vn 0.451517 -0.475420 0.755055
vt 0.541762 0.895416
vt 0.668692 0.921536
vt 0.540192 0.781689
vt 0.668464 0.782848
vt 0.541762 0.895416
vt 0.668692 0.921536
vt 0.540192 0.781689
vt 0.668464 0.782848
f 313/313/313 312/312/312 311/311/311
f 312/312/312 313/313/313 314/314/314
f 311/311/311 312/312/312 313/313/313
f 314/314/314 313/313/313 312/312/312
f 317/317/317 316/316/316 315/315/315
f 316/316/316 317/317/317 318/318/318
f 315/315/315 316/316/316 317/317/317
f 318/318/318 317/317/317 316/316/316
v 0.089896 0.847703 0.001102
v 0.067025 1.006320 0.001102
v 0.045029 0.886492 -0.097870
v 0.005989 1.000940 -0.072135
v 0.011885 1.063820 -0.037812
v -0.049649 1.042840 -0.069678
v -0.055118 1.136710 -0.062094
v -0.142782 1.111650 -0.086902
v -0.103279 1.179790 0.001102
v -0.190994 1.182310 0.001102
v -0.142782 1.111650 0.089106
v -0.055118 1.136710 0.064300
v -0.049649 1.042840 0.071883
v -0.024852 1.178550 0.001102
v 0.011468 1.126070 -0.056114
v 0.011468 1.126070 0.058319
v 0.027901 1.133720 0.001102
v 0.045251 1.103010 0.001102
v 0.046693 1.062680 0.000987
v 0.011885 1.063820 0.040016
v 0.005989 1.000940 0.074340
v 0.045029 0.886492 0.100075
v -0.126681 1.113250 0.001102
v -0.055118 1.136710 -0.062094
v -0.104750 1.077170 -0.134427
v -0.049649 1.042840 -0.069678
v -0.122836 1.161840 -0.107503
v 0.011885 1.063820 -0.037812
v -0.049649 1.042840 -0.069678
v -0.008086 1.011200 -0.032005
v 0.046693 1.062680 0.000987
v 0.011885 1.063820 0.040016
v -0.008086 1.011200 0.034210
v -0.049649 1.042840 0.071883
v -0.126681 1.113250 0.001102
v -0.104750 1.077170 0.136632
v -0.122836 1.161840 0.109708
v -0.055118 1.136710 0.064300
v -0.049649 1.042840 0.071883
v -0.126681 1.113250 0.001102
v -0.190994 1.182310 0.001102
v -0.142782 1.111650 0.089106
v -0.190994 1.182310 0.001102
v -0.126681 1.113250 0.001102
v -0.142782 1.111650 -0.086902
v -0.142782 1.111650 -0.086902
v -0.126681 1.113250 0.001102
v -0.049649 1.042840 -0.069678
v -0.126681 1.113250 0.001102
v -0.142782 1.111650 0.089106
v -0.049649 1.042840 0.071883
vn 0.988228 0.152985 0.000000
vn 0.924495 0.381194 -0.000406
vn 0.857773 0.306183 -0.412888
vn 0.565987 0.540549 -0.622467
vn 0.564989 0.165466 -0.808337
vn 0.270707 0.301878 -0.914105
vn 0.157657 0.444167 -0.881964
vn 0.139425 0.582034 -0.801122
vn 0.077824 0.996968 0.000000
vn 0.264726 0.964324 0.000000
vn 0.139425 0.582034 0.801123
vn 0.157657 0.444167 0.881964
vn 0.340286 0.154141 0.927603
vn 0.314953 0.949107 0.000000
vn 0.605093 0.398020 -0.689523
vn 0.605093 0.398020 0.689523
vn 0.747020 0.664802 0.000000
vn 0.988501 0.151209 -0.000424
vn 0.999713 -0.023924 -0.001643
vn 0.582916 0.049198 0.811041
vn 0.565987 0.540550 0.622466
vn 0.857774 0.306184 0.412888
vn 0.289321 0.957233 0.000000
vn 0.157657 0.444167 -0.881964
vn 0.992687 -0.120714 0.000000
vn 0.270707 0.301878 -0.914105
vn 0.000000 0.000000 1.000000
vn 0.582058 -0.321699 -0.746806
vn 0.486549 -0.290918 -0.823794
vn 0.582058 -0.321699 -0.746806
vn 0.999713 -0.023924 -0.001643
vn 0.582916 0.049198 0.811041
vn 0.583080 -0.322016 0.745871
vn 0.340286 0.154141 0.927603
vn 0.289321 0.957233 0.000000
vn -0.982250 -0.187577 0.000000
vn 0.000000 0.000000 1.000000
vn 0.157657 0.444167 0.881964
vn 0.340286 0.154141 0.927603
vn -0.701450 -0.712720 0.000000
vn -0.788855 -0.591484 -0.166900
vn -0.788855 -0.591484 -0.166900
vn -0.788855 -0.591484 0.166899
vn -0.701450 -0.712720 0.000000
vn -0.788855 -0.591484 0.166899
vn -0.582765 -0.802174 0.130011
vn -0.701450 -0.712720 0.000000
vn -0.582765 -0.802174 0.130011
vn -0.701450 -0.712720 0.000000
vn -0.582765 -0.802173 -0.130011
vn -0.582765 -0.802173 -0.130011
vt 0.007458 0.163350
vt 0.007525 0.439711
vt 0.251320 0.232326
vt 0.182998 0.437644
vt 0.085704 0.555335
vt 0.133103 0.518717
vt 0.118257 0.666661
vt 0.160405 0.694378
vt 0.007228 0.770696
vt 0.007047 0.817293
vt 0.160405 0.694378
vt 0.118257 0.666661
vt 0.133103 0.518717
vt 0.007002 0.722444
vt 0.081146 0.646575
vt 0.081146 0.646575
vt 0.007263 0.664146
vt 0.007525 0.609114
vt 0.007525 0.539358
vt 0.085704 0.555335
vt 0.182998 0.437644
vt 0.251320 0.232326
vt 0.673984 0.974356
vt 0.009926 0.831418
vt 0.124539 0.844914
vt 0.115275 0.746548
vt 0.041352 0.938144
vt 0.070805 0.443722
vt 0.073922 0.419052
vt 0.119902 0.420488
vt 0.056827 0.486563
vt 0.070805 0.443722
vt 0.119902 0.420488
vt 0.073922 0.419052
vt 0.526211 0.986047
vt 0.124539 0.844914
vt 0.041352 0.938144
vt 0.009926 0.831418
vt 0.115275 0.746548
vt 0.224248 0.608991
vt 0.172261 0.690595
vt 0.151102 0.561805
vt 0.172261 0.690595
vt 0.224248 0.608991
vt 0.150804 0.561615
vt 0.150804 0.561615
vt 0.224248 0.608991
vt 0.206530 0.506368
vt 0.224248 0.608991
vt 0.151102 0.561805
vt 0.206645 0.506441
f 321/321/321 320/320/320 319/319/319
f 320/320/320 321/321/321 322/322/322
f 322/322/322 323/323/323 320/320/320
f 323/323/323 322/322/322 324/324/324
f 323/323/323 324/324/324 325/325/325
f 325/325/325 324/324/324 326/326/326
f 327/327/327 325/325/325 326/326/326
f 326/326/326 328/328/328 327/327/327
f 328/328/328 329/329/329 327/327/327
f 331/331/331 330/330/330 329/329/329
f 330/330/330 327/327/327 329/329/329
f 330/330/330 332/332/332 327/327/327
f 332/332/332 325/325/325 327/327/327
f 333/333/333 325/325/325 332/332/332
f 323/323/323 325/325/325 333/333/333
f 330/330/330 334/334/334 332/332/332
f 332/332/332 334/334/334 335/335/335
f 333/333/333 332/332/332 335/335/335
f 336/336/336 333/333/333 335/335/335
f 323/323/323 333/333/333 336/336/336
f 323/323/323 336/336/336 337/337/337
f 337/337/337 320/320/320 323/323/323
f 320/320/320 337/337/337 338/338/338
f 338/338/338 339/339/339 320/320/320
f 339/339/339 338/338/338 331/331/331
f 336/336/336 338/338/338 337/337/337
f 334/334/334 336/336/336 335/335/335
f 338/338/338 336/336/336 334/334/334
f 330/330/330 338/338/338 334/334/334
f 331/331/331 338/338/338 330/330/330
f 320/320/320 340/340/340 319/319/319
f 340/340/340 320/320/320 339/339/339
f 344/344/344 343/343/343 342/342/342
f 345/345/345 342/342/342 343/343/343
f 343/343/343 342/342/342 345/345/345
f 342/342/342 343/343/343 344/344/344
f 348/348/348 347/347/347 346/346/346
f 349/349/349 348/348/348 346/346/346
f 351/351/351 349/349/349 350/350/350
f 352/352/352 351/351/351 350/350/350
f 356/356/356 355/355/355 354/354/354
f 354/354/354 357/357/357 356/356/356
f 356/356/356 354/354/354 355/355/355
f 354/354/354 356/356/356 357/357/357
f 360/360/360 359/359/359 358/358/358
f 363/363/363 362/362/362 361/361/361
f 366/366/366 365/365/365 364/364/364
f 369/369/369 368/368/368 367/367/367
