# WC3 MDX geosets → Unity Y-up
mtllib materials.mtl
usemtl Faceless
o Model
v -0.200156 1.082560 0.516493
v -0.199207 1.221870 0.521313
v -0.175023 1.175950 0.555685
v -0.114423 1.272480 0.540139
v -0.122356 1.208410 0.569014
v -0.033311 1.251920 0.576958
v -0.068277 1.175440 0.579030
v 0.017353 1.190660 0.562700
v 0.010400 1.121740 0.573736
v 0.028879 1.192950 0.544206
v -0.061341 1.232150 0.514194
v -0.096865 1.224290 0.512526
v -0.160431 1.197030 0.496813
v -0.200156 1.082560 0.516493
v 0.181578 0.991609 0.569933
v 0.163246 1.099800 0.614945
v 0.156051 1.064760 0.540932
v 0.184120 0.988170 0.621276
v 0.137944 0.983677 0.628968
v 0.102678 1.090540 0.481960
v 0.102791 1.046510 0.499463
v 0.020190 1.075540 0.593560
v 0.094851 1.053640 0.623732
v 0.041590 1.035390 0.582262
v -0.037415 1.128190 0.540052
v 0.001316 1.058710 0.490522
v -0.020058 1.168820 0.483258
v 0.028988 1.140260 0.450214
v 0.085157 1.199670 0.517326
v 0.094970 1.153310 0.570643
v 0.020858 1.215120 0.522984
v 0.036502 1.190830 0.583152
v 0.001314 1.199560 0.550318
v 0.042558 1.207050 0.494519
v 0.074139 1.157410 0.565388
v 0.019531 1.157410 0.501450
v -0.009944 0.839713 0.556848
v -0.043890 0.849642 0.537408
v 0.067155 0.629840 0.516064
v 0.014866 1.157410 0.560723
v -0.045468 0.851837 0.572989
v 0.062635 0.638681 0.564762
v 0.013831 0.629840 0.561608
v 0.018350 0.621000 0.512910
v -0.043890 0.849642 0.537408
v 0.051662 1.267380 0.461997
v 0.060065 1.198420 0.504914
v 0.045772 1.196020 0.521351
v -0.014009 1.240760 0.450158
v -0.009793 1.291500 0.398582
v -0.025401 1.237280 0.415842
v -0.047562 1.249440 0.316149
v -0.056396 1.215940 0.356063
v -0.037220 1.112170 0.296054
v 0.051460 1.197210 0.417038
v 0.075937 1.133640 0.485070
v 0.022139 1.234680 0.373524
v -0.002757 1.207260 0.322622
v -0.037220 1.112170 0.296054
v -0.093158 0.621032 -0.120248
v -0.021753 0.621158 -0.119869
v -0.015881 0.482917 -0.176173
v 0.032972 0.540608 -0.146786
v 0.150936 0.446516 -0.075428
v 0.123163 0.518332 -0.075050
v 0.151690 0.538170 0.022531
v 0.084579 0.613268 0.072837
v 0.109454 0.556302 0.117229
v 0.179464 0.474496 0.063401
vn -0.977226 0.013983 -0.211739
vn -0.715176 0.562357 -0.415064
vn -0.591766 0.276151 0.757334
vn -0.288702 0.953147 0.090345
vn -0.296538 0.314919 0.901605
vn 0.368316 0.661859 0.652906
vn 0.077465 0.054970 0.995479
vn 0.392852 0.201365 0.897284
vn 0.161388 0.140146 0.976890
vn 0.696693 0.716628 0.032592
vn 0.289319 0.724664 -0.625426
vn -0.077745 0.529689 -0.844622
vn -0.323254 0.358985 -0.875578
vn -0.977226 0.013983 -0.211739
vn 0.968700 0.215441 -0.123313
vn 0.627285 0.554682 0.546664
vn 0.852265 0.218025 -0.475510
vn 0.756385 0.177151 0.629681
vn 0.105314 0.096574 0.989739
vn 0.746419 0.200805 -0.634458
vn 0.647674 -0.280022 -0.708595
vn -0.402727 0.016865 0.915165
vn -0.222354 0.046439 0.973859
vn -0.445112 -0.454380 0.771631
vn -0.935429 0.015777 0.353163
vn -0.688187 -0.446420 -0.571933
vn -0.742676 0.434049 -0.509935
vn 0.070981 0.169619 -0.982950
vn 0.657436 0.699479 -0.280189
vn 0.572399 0.645126 0.506133
vn -0.044019 0.994190 0.098224
vn -0.151504 0.566346 0.810123
vn -0.678197 0.662609 0.317802
vn 0.035339 0.780275 -0.624437
vn 0.626557 -0.149533 0.764896
vn -0.421818 0.006025 -0.906661
vn 0.985146 0.109457 -0.132314
vn -0.383640 0.030238 -0.922988
vn 0.623270 0.329706 -0.709104
vn -0.743552 0.172741 0.645981
vn -0.522488 0.046066 0.851401
vn 0.569708 0.200987 0.796892
vn -0.875816 -0.256037 0.409134
vn -0.662020 -0.100636 -0.742699
vn -0.383640 0.030238 -0.922988
vn 0.654029 0.705398 0.273238
vn 0.945128 0.287737 0.154728
vn 0.151726 0.624632 0.766038
vn -0.589318 0.577476 0.565001
vn -0.108237 0.983344 -0.146013
vn -0.881595 0.399078 0.252048
vn -0.673019 0.570173 -0.471113
vn -0.966949 0.254970 -0.000014
vn -0.495103 0.089212 -0.864242
vn 0.961174 0.192999 -0.197219
vn 0.959316 0.264931 -0.097593
vn 0.731371 0.479646 -0.484806
vn 0.509889 0.452501 -0.731612
vn -0.495103 0.089212 -0.864242
vn 0.004249 0.377354 -0.926059
vn 0.054972 0.378634 -0.923913
vn 0.217986 0.262624 -0.939953
vn 0.439458 0.218924 -0.871177
vn 0.728756 0.212369 -0.651010
vn 0.850825 0.277465 -0.446218
vn 0.920563 0.390193 -0.017679
vn 0.805653 0.533332 0.257839
vn 0.809555 0.537479 0.236084
vn 0.904580 0.426077 -0.013892
vt 0.346443 0.144549
vt 0.369229 0.210046
vt 0.388959 0.179014
vt 0.421294 0.234727
vt 0.422599 0.192908
vt 0.479402 0.209864
vt 0.451715 0.170052
vt 0.492870 0.168996
vt 0.485609 0.131036
vt 0.491732 0.169139
vt 0.434853 0.204088
vt 0.414890 0.203657
vt 0.372845 0.195019
vt 0.346353 0.144656
vt 0.484022 0.012104
vt 0.493038 0.076607
vt 0.463120 0.051686
vt 0.504216 0.012104
vt 0.484022 0.012104
vt 0.411363 0.059840
vt 0.424800 0.038414
vt 0.411363 0.059840
vt 0.463120 0.051686
vt 0.424800 0.038414
vt 0.365910 0.099565
vt 0.365910 0.055988
vt 0.348732 0.123106
vt 0.365910 0.099565
vt 0.422713 0.130255
vt 0.457148 0.115154
vt 0.416737 0.147079
vt 0.422713 0.130255
vt 0.387544 0.133202
vt 0.387544 0.133202
vt 0.564579 0.987450
vt 0.511463 0.987352
vt 0.597752 0.834248
vt 0.553859 0.835517
vt 0.553268 0.714479
vt 0.541025 0.987783
vt 0.574400 0.835159
vt 0.533657 0.717216
vt 0.514619 0.719988
vt 0.564782 0.713353
vt 0.596713 0.834422
vt 0.479402 0.209864
vt 0.492870 0.168996
vt 0.491732 0.169139
vt 0.434853 0.204088
vt 0.421294 0.234727
vt 0.414890 0.203657
vt 0.369229 0.210046
vt 0.372845 0.195019
vt 0.346353 0.144656
vt 0.451715 0.170052
vt 0.485609 0.131036
vt 0.422599 0.192908
vt 0.388959 0.179014
vt 0.346443 0.144549
vt 0.267866 0.554799
vt 0.184240 0.608073
vt 0.146754 0.504735
vt 0.103971 0.529269
vt 0.267866 0.554799
vt 0.184240 0.608073
vt 0.103971 0.529269
vt 0.184240 0.608073
vt 0.267866 0.554799
vt 0.146754 0.504735
f 3/3/3 2/2/2 1/1/1
f 2/2/2 3/3/3 4/4/4
f 5/5/5 4/4/4 3/3/3
f 4/4/4 5/5/5 6/6/6
f 7/7/7 6/6/6 5/5/5
f 7/7/7 8/8/8 6/6/6
f 8/8/8 7/7/7 9/9/9
f 6/6/6 8/8/8 10/10/10
f 10/10/10 11/11/11 6/6/6
f 6/6/6 11/11/11 4/4/4
f 12/12/12 4/4/4 11/11/11
f 4/4/4 12/12/12 2/2/2
f 13/13/13 2/2/2 12/12/12
f 2/2/2 13/13/13 14/14/14
f 17/17/17 16/16/16 15/15/15
f 18/18/18 15/15/15 16/16/16
f 16/16/16 19/19/19 18/18/18
f 17/17/17 20/20/20 16/16/16
f 20/20/20 17/17/17 21/21/21
f 24/24/24 23/23/23 22/22/22
f 16/16/16 22/22/22 23/23/23
f 19/19/19 16/16/16 23/23/23
f 26/26/26 22/22/22 25/25/25
f 26/26/26 25/25/25 27/27/27
f 28/28/28 26/26/26 27/27/27
f 28/28/28 20/20/20 26/26/26
f 20/20/20 28/28/28 29/29/29
f 29/29/29 30/30/30 20/20/20
f 29/29/29 31/31/31 30/30/30
f 30/30/30 31/31/31 32/32/32
f 33/33/33 32/32/32 31/31/31
f 29/29/29 28/28/28 34/34/34
f 31/31/31 29/29/29 34/34/34
f 34/34/34 27/27/27 31/31/31
f 31/31/31 27/27/27 33/33/33
f 25/25/25 33/33/33 27/27/27
f 33/33/33 25/25/25 32/32/32
f 32/32/32 25/25/25 22/22/22
f 22/22/22 30/30/30 32/32/32
f 22/22/22 16/16/16 30/30/30
f 30/30/30 16/16/16 20/20/20
f 27/27/27 34/34/34 28/28/28
f 37/37/37 36/36/36 35/35/35
f 36/36/36 37/37/37 38/38/38
f 39/39/39 38/38/38 37/37/37
f 41/41/41 35/35/35 40/40/40
f 35/35/35 41/41/41 37/37/37
f 37/37/37 41/41/41 42/42/42
f 42/42/42 39/39/39 37/37/37
f 44/44/44 43/43/43 38/38/38
f 41/41/41 38/38/38 43/43/43
f 38/38/38 41/41/41 36/36/36
f 40/40/40 36/36/36 41/41/41
f 43/43/43 42/42/42 41/41/41
f 45/45/45 39/39/39 44/44/44
f 48/48/48 47/47/47 46/46/46
f 46/46/46 49/49/49 48/48/48
f 50/50/50 49/49/49 46/46/46
f 49/49/49 50/50/50 51/51/51
f 52/52/52 51/51/51 50/50/50
f 51/51/51 52/52/52 53/53/53
f 54/54/54 53/53/53 52/52/52
f 56/56/56 55/55/55 47/47/47
f 46/46/46 47/47/47 55/55/55
f 57/57/57 46/46/46 55/55/55
f 46/46/46 57/57/57 50/50/50
f 58/58/58 50/50/50 57/57/57
f 50/50/50 58/58/58 52/52/52
f 59/59/59 52/52/52 58/58/58
f 67/67/67 68/68/68 69/69/69
f 69/69/69 66/66/66 67/67/67
f 65/65/65 66/66/66 69/69/69
f 69/69/69 64/64/64 65/65/65
f 63/63/63 65/65/65 64/64/64
f 64/64/64 62/62/62 63/63/63
f 61/61/61 63/63/63 62/62/62
f 62/62/62 60/60/60 61/61/61
v 0.067155 0.629840 0.516064
v 0.030844 -0.002919 0.527538
v 0.051790 -0.002919 0.529188
v 0.062635 0.638681 0.564762
v 0.050142 -0.002919 0.550134
v 0.013831 0.629840 0.561608
v 0.029195 -0.002919 0.548485
v 0.018350 0.621000 0.512910
vn 0.515403 -0.030127 -0.856418
vn -0.379185 -0.029626 -0.924846
vn 0.929039 -0.029590 -0.368798
vn 0.854390 -0.028727 0.518838
vn 0.382130 -0.029114 0.923650
vn -0.511329 -0.029960 0.858862
vn -0.927836 -0.029892 0.371788
vn -0.855198 -0.029406 -0.517466
vt 0.553268 0.714479
vt 0.560780 0.418468
vt 0.544079 0.420717
vt 0.533657 0.717216
vt 0.525661 0.422270
vt 0.514619 0.719988
vt 0.525285 0.422023
vt 0.564782 0.713353
f 72/72/72 71/71/71 70/70/70
f 70/70/70 73/73/73 72/72/72
f 74/74/74 72/72/72 73/73/73
f 73/73/73 75/75/75 74/74/74
f 76/76/76 74/74/74 75/75/75
f 75/75/75 77/77/77 76/76/76
f 77/77/77 70/70/70 71/71/71
f 71/71/71 76/76/76 77/77/77
v 0.027545 0.433779 0.276272
v 0.002813 0.528411 0.260043
v -0.055959 0.354146 0.263495
v -0.055959 0.498630 0.194314
v -0.055959 0.410580 0.179845
v -0.139463 0.433779 0.276272
v -0.055959 0.429696 0.346651
v -0.055959 0.506708 0.326930
v -0.114731 0.528411 0.260043
v 0.141958 0.750089 -0.005437
v 0.141958 0.750089 -0.005437
v 0.136714 0.911879 -0.011190
v 0.109015 0.767234 -0.060459
v 0.109015 0.767234 -0.060459
v 0.127954 0.774764 -0.024784
v 0.127954 0.774764 -0.024784
v 0.114155 0.652967 -0.036402
v 0.148814 0.780382 -0.063060
v 0.148814 0.780382 -0.063060
v 0.088402 1.007430 -0.044623
v 0.088402 1.007430 -0.044623
v 0.098100 0.918232 -0.071303
v 0.110878 1.019330 -0.027947
v 0.110878 1.019330 -0.027947
v 0.118980 1.020780 -0.005473
v 0.118980 1.020780 -0.005473
v 0.118195 0.917804 -0.019039
v 0.146846 0.932197 -0.061826
v 0.048839 1.058550 -0.062262
v 0.080072 1.122340 -0.024742
v 0.098138 1.067240 -0.018189
v 0.177885 0.749572 0.022101
v 0.177885 0.749572 0.022101
v 0.141958 0.750089 0.049639
v 0.141958 0.750089 0.049639
v 0.129516 0.603127 0.022101
v 0.172606 0.913957 0.022101
v 0.135243 1.022680 0.022101
v 0.135243 1.022680 0.022101
v 0.136714 0.911879 0.055392
v 0.109015 0.767234 0.104661
v 0.109015 0.767234 0.104661
v 0.127954 0.774764 0.068985
v 0.127954 0.774764 0.068985
v 0.148814 0.780382 0.107262
v 0.148814 0.780382 0.107262
v 0.114155 0.652967 0.080604
v 0.088402 1.007430 0.088826
v 0.088402 1.007430 0.088826
v 0.098100 0.918232 0.115506
v 0.118195 0.917804 0.063241
v 0.118980 1.020780 0.049675
v 0.118980 1.020780 0.049675
v 0.110878 1.019330 0.072149
v 0.110878 1.019330 0.072149
v 0.146846 0.932197 0.106026
v 0.048839 1.058550 0.106465
v 0.080072 1.122340 0.068944
v 0.107807 1.126120 0.022101
v 0.098138 1.067240 0.062390
v 0.126146 1.069260 0.022101
v -0.085880 0.434306 -0.254928
v -0.085880 0.434306 -0.254928
v -0.085880 0.434306 -0.254928
v -0.085880 0.434306 -0.254928
v -0.085880 0.434306 -0.254928
v -0.085880 0.434306 -0.254928
v -0.085880 0.456334 -0.309638
v -0.085880 0.456334 -0.309638
v -0.085880 0.456334 -0.309638
v -0.085880 0.456334 -0.309638
v -0.113481 0.341474 -0.315788
v -0.113481 0.341474 -0.315788
v -0.113481 0.341474 -0.315788
v -0.113481 0.341474 -0.315788
v -0.113296 0.330017 -0.279048
v -0.113296 0.330017 -0.279048
v -0.113296 0.330017 -0.279048
v -0.050676 0.444871 -0.282464
v -0.050676 0.444871 -0.282464
v -0.081181 0.419911 -0.263599
v -0.081181 0.419911 -0.263599
v -0.081181 0.419911 -0.263599
v -0.081181 0.419911 -0.263599
v -0.079616 0.301231 -0.249182
v -0.079616 0.301231 -0.249182
v -0.099738 0.401462 -0.230519
v -0.099738 0.401462 -0.230519
v -0.099738 0.401462 -0.230519
v -0.099738 0.401462 -0.230519
v -0.099738 0.401462 -0.230519
v -0.116555 0.523515 -0.206940
v -0.116555 0.523515 -0.206940
v -0.103815 0.533497 -0.232459
v -0.103815 0.533497 -0.232459
v -0.103815 0.533497 -0.232459
v -0.083126 0.244103 -0.338672
v -0.083126 0.244103 -0.338672
v -0.092074 0.531551 -0.237677
v -0.092074 0.531551 -0.237677
v -0.092074 0.544589 -0.270056
v -0.092074 0.544589 -0.270056
v -0.092074 0.544589 -0.270056
v -0.092074 0.544589 -0.270056
v -0.092074 0.544589 -0.270056
v -0.133334 0.474752 -0.350630
v -0.133334 0.474752 -0.350630
v -0.133334 0.474752 -0.350630
v -0.133334 0.474752 -0.350630
v -0.139865 0.350637 -0.356715
v -0.139865 0.350637 -0.356715
v -0.114777 0.466922 -0.312599
v -0.114777 0.466922 -0.312599
v -0.114777 0.466922 -0.312599
v -0.114777 0.466922 -0.312599
v -0.114777 0.466922 -0.312599
v -0.116555 0.554984 -0.286106
v -0.116555 0.554984 -0.286106
v -0.116555 0.554984 -0.286106
v -0.094336 0.487021 -0.348692
v -0.094336 0.487021 -0.348692
v -0.085652 0.566445 -0.289871
v -0.090228 0.335822 -0.297662
v -0.069321 0.539290 -0.253376
v -0.060740 0.411650 -0.223414
v -0.060740 0.411650 -0.223414
v -0.085652 0.533579 -0.208245
vn 0.939699 -0.331030 0.085936
vn 0.973089 0.229235 0.023457
vn 0.000001 -0.992467 0.122511
vn -0.000001 0.162152 -0.986766
vn 0.000001 -0.235240 -0.971937
vn -0.939699 -0.331029 0.085936
vn 0.000001 -0.086477 0.996254
vn -0.000001 0.248072 0.968742
vn -0.973088 0.229237 0.023456
vn 0.623354 -0.094859 -0.776165
vn 0.623354 -0.094859 -0.776165
vn 0.736784 0.130286 -0.663456
vn -0.018276 -0.140507 -0.989911
vn -0.018276 -0.140507 -0.989911
vn 0.880064 -0.051604 0.472043
vn 0.880064 -0.051604 0.472043
vn 0.814863 -0.322437 -0.481697
vn 0.864957 -0.167667 -0.473009
vn 0.864957 -0.167667 -0.473009
vn 0.504337 0.218250 -0.835470
vn 0.504337 0.218250 -0.835470
vn 0.175975 0.161705 -0.971022
vn 0.605655 0.344031 -0.717513
vn 0.605655 0.344031 -0.717513
vn 0.926888 0.224322 -0.300930
vn 0.926888 0.224322 -0.300930
vn 0.849963 -0.010214 0.526744
vn 0.893277 0.257322 -0.368568
vn 0.601712 0.190471 -0.775669
vn 0.750588 0.170160 -0.638485
vn 0.773402 0.239011 -0.587132
vn 0.989728 -0.142961 0.000000
vn 0.989728 -0.142961 0.000000
vn 0.623354 -0.094858 0.776165
vn 0.623354 -0.094858 0.776165
vn 0.949547 -0.313624 0.000000
vn 0.992417 0.122918 0.000001
vn 0.975134 0.221616 0.000000
vn 0.975134 0.221616 0.000000
vn 0.736784 0.130285 0.663457
vn -0.018275 -0.140511 0.989910
vn -0.018275 -0.140511 0.989910
vn 0.880064 -0.051604 -0.472044
vn 0.880064 -0.051604 -0.472044
vn 0.864962 -0.167668 0.472999
vn 0.864962 -0.167668 0.472999
vn 0.814864 -0.322438 0.481696
vn 0.504359 0.218258 0.835455
vn 0.504359 0.218258 0.835455
vn 0.176012 0.161706 0.971016
vn 0.849955 -0.010218 -0.526755
vn 0.926889 0.224321 0.300926
vn 0.926889 0.224321 0.300926
vn 0.605671 0.344029 0.717500
vn 0.605671 0.344029 0.717500
vn 0.893288 0.257315 0.368544
vn 0.601722 0.190480 0.775660
vn 0.750591 0.170162 0.638481
vn 0.960985 0.276600 -0.000000
vn 0.773404 0.239011 0.587129
vn 0.968737 0.248091 -0.000000
vn -0.858373 -0.029206 0.512195
vn -0.858373 -0.029206 0.512195
vn -0.858373 -0.029206 0.512195
vn -0.858373 -0.029206 0.512195
vn -0.858373 -0.029206 0.512195
vn -0.858373 -0.029206 0.512195
vn -0.451414 0.250924 -0.856307
vn -0.451414 0.250924 -0.856307
vn -0.451414 0.250924 -0.856307
vn -0.451414 0.250924 -0.856307
vn -0.951576 0.099694 -0.290798
vn -0.951576 0.099694 -0.290798
vn -0.951576 0.099694 -0.290798
vn -0.951576 0.099694 -0.290798
vn -0.854303 -0.228016 0.467092
vn -0.854303 -0.228016 0.467092
vn -0.854303 -0.228016 0.467092
vn 0.979717 -0.040981 -0.196150
vn 0.979717 -0.040981 -0.196150
vn 0.026262 0.068654 -0.997295
vn 0.026262 0.068654 -0.997295
vn 0.026262 0.068654 -0.997295
vn 0.026262 0.068654 -0.997295
vn -0.145001 -0.988110 0.051129
vn -0.145001 -0.988110 0.051129
vn -0.969501 -0.187965 0.157280
vn -0.969501 -0.187965 0.157280
vn -0.969501 -0.187965 0.157280
vn -0.969501 -0.187965 0.157280
vn -0.969501 -0.187965 0.157280
vn -0.850693 -0.178355 0.494481
vn -0.850693 -0.178355 0.494481
vn -0.892146 0.017374 -0.451414
vn -0.892146 0.017374 -0.451414
vn -0.892146 0.017374 -0.451414
vn 0.182247 -0.940140 -0.287962
vn 0.182247 -0.940140 -0.287962
vn -0.892146 0.017374 -0.451414
vn -0.892146 0.017374 -0.451414
vn -0.947751 -0.266691 0.175054
vn -0.947751 -0.266691 0.175054
vn -0.947751 -0.266691 0.175054
vn -0.947751 -0.266691 0.175054
vn -0.947751 -0.266691 0.175054
vn -0.875566 0.258999 -0.407804
vn -0.875566 0.258999 -0.407804
vn -0.875566 0.258999 -0.407804
vn -0.875566 0.258999 -0.407804
vn -0.409581 -0.771767 -0.486436
vn -0.409581 -0.771767 -0.486436
vn -0.249696 -0.423925 0.870597
vn -0.249696 -0.423925 0.870597
vn -0.249696 -0.423925 0.870597
vn -0.249696 -0.423925 0.870597
vn -0.249696 -0.423925 0.870597
vn -0.964012 0.128656 0.232654
vn -0.964012 0.128656 0.232654
vn -0.964012 0.128656 0.232654
vn 0.792155 0.055997 -0.607746
vn 0.792155 0.055997 -0.607746
vn 0.662936 0.397418 -0.634488
vn 0.960608 -0.205796 0.186762
vn 0.979093 0.191963 0.067284
vn 0.839116 -0.079693 0.538083
vn 0.839116 -0.079693 0.538083
vn 0.895229 0.129883 0.426258
vt 0.280318 0.535124
vt 0.266547 0.606901
vt 0.312078 0.483038
vt 0.324931 0.606592
vt 0.360307 0.549107
vt 0.280539 0.534039
vt 0.227746 0.510112
vt 0.221509 0.570573
vt 0.265895 0.606409
vt 0.791504 0.635525
vt 0.792368 0.503795
vt 0.792368 0.503795
vt 0.791504 0.635525
vt 0.792368 0.503795
vt 0.791504 0.635525
vt 0.792368 0.503795
vt 0.790941 0.402790
vt 0.744386 0.628607
vt 0.746630 0.522980
vt -0.253829 0.534785
vt 0.791504 0.635525
vt 0.792368 0.503795
vt -0.212458 0.568687
vt 0.744386 0.628607
vt -0.172772 0.593015
vt 0.791504 0.635525
vt 0.792368 0.503795
vt 0.746630 0.522980
vt -0.176268 0.478636
vt -0.047915 0.486291
vt -0.109710 0.534956
vt 0.744386 0.628607
vt 0.746630 0.522980
vt 0.791504 0.635525
vt 0.792368 0.503795
vt 0.790941 0.402790
vt 0.746630 0.522980
vt -0.134945 0.617822
vt 0.744386 0.628607
vt 0.792368 0.503795
vt 0.791504 0.635525
vt 0.792368 0.503795
vt 0.791504 0.635525
vt 0.792368 0.503795
vt 0.744386 0.628607
vt 0.746630 0.522980
vt 0.790941 0.402790
vt -0.253829 0.534785
vt 0.791504 0.635525
vt 0.792368 0.503795
vt 0.792368 0.503795
vt -0.172772 0.593015
vt 0.791504 0.635525
vt -0.212458 0.568687
vt 0.744386 0.628607
vt 0.746630 0.522980
vt -0.176268 0.478636
vt -0.047915 0.486291
vt -0.014925 0.550333
vt -0.109710 0.534956
vt -0.081542 0.588511
vt 0.950534 0.711942
vt 0.559596 0.585027
vt 0.559596 0.585027
vt 0.966073 0.533312
vt 0.559596 0.585027
vt 0.559596 0.585027
vt 0.950534 0.711942
vt 0.574691 0.748823
vt 0.966073 0.533312
vt 0.574691 0.748823
vt 0.963125 0.591157
vt 0.425432 0.759866
vt 0.425432 0.759866
vt 0.425432 0.759866
vt 0.963501 0.593567
vt 0.417190 0.637563
vt 0.417190 0.637563
vt 0.863079 0.687130
vt 0.854563 0.547558
vt 0.950534 0.711942
vt 0.966073 0.533312
vt 0.425432 0.759866
vt 0.425432 0.759866
vt 0.901035 0.401903
vt 0.241273 0.702327
vt 0.950534 0.711942
vt 0.966073 0.533312
vt 0.417190 0.637563
vt 0.417190 0.637563
vt 0.417190 0.637563
vt 0.966073 0.533312
vt 0.559596 0.585027
vt 0.966073 0.533312
vt 0.574691 0.748823
vt 0.574691 0.748823
vt 0.901035 0.401903
vt 0.241273 0.702327
vt 0.966073 0.533312
vt 0.417190 0.637563
vt 0.966073 0.533312
vt 0.966073 0.533312
vt 0.559596 0.585027
vt 0.425432 0.759866
vt 0.425432 0.759866
vt 0.950534 0.711942
vt 0.966073 0.533312
vt 0.425432 0.759866
vt 0.425432 0.759866
vt 0.901035 0.401903
vt 0.241273 0.702327
vt 0.950534 0.711942
vt 0.966073 0.533312
vt 0.417190 0.637563
vt 0.417190 0.637563
vt 0.417190 0.637563
vt 0.966073 0.533312
vt 0.574691 0.748823
vt 0.574691 0.748823
vt 0.863079 0.687130
vt 0.854563 0.547558
vt 0.854563 0.547558
vt 0.883051 0.606275
vt 0.854563 0.547558
vt 0.863079 0.687130
vt 0.854563 0.547558
vt 0.854563 0.547558
f 171/171/171 204/204/204 202/202/202
f 202/202/202 158/158/158 171/171/171
f 169/169/169 164/164/164 202/202/202
f 159/159/159 203/203/203 162/162/162
f 165/165/165 162/162/162 203/203/203
f 201/201/201 176/176/176 139/139/139
f 139/139/139 156/156/156 201/201/201
f 153/153/153 174/174/174 200/200/200
f 202/202/202 204/204/204 169/169/169
f 178/178/178 189/189/189 197/197/197
f 197/197/197 199/199/199 178/178/178
f 194/194/194 197/197/197 183/183/183
f 190/190/190 187/187/187 198/198/198
f 184/184/184 198/198/198 187/187/187
f 201/201/201 156/156/156 145/145/145
f 145/145/145 179/179/179 201/201/201
f 200/200/200 174/174/174 149/149/149
f 197/197/197 194/194/194 199/199/199
f 195/195/195 185/185/185 191/191/191
f 192/192/192 180/180/180 196/196/196
f 186/186/186 188/188/188 193/193/193
f 181/181/181 146/146/146 140/140/140
f 141/141/141 177/177/177 182/182/182
f 150/150/150 175/175/175 154/154/154
f 172/172/172 160/160/160 166/166/166
f 167/167/167 170/170/170 173/173/173
f 161/161/161 163/163/163 168/168/168
f 157/157/157 200/200/200 149/149/149
f 149/149/149 147/147/147 157/157/157
f 142/142/142 153/153/153 200/200/200
f 200/200/200 157/157/157 142/142/142
f 151/151/151 155/155/155 143/143/143
f 144/144/144 148/148/148 152/152/152
f 137/137/137 129/129/129 138/138/138
f 137/137/137 138/138/138 136/136/136
f 136/136/136 135/135/135 137/137/137
f 131/131/131 137/137/137 134/134/134
f 137/137/137 135/135/135 134/134/134
f 137/137/137 131/131/131 129/129/129
f 134/134/134 125/125/125 131/131/131
f 129/129/129 115/115/115 138/138/138
f 130/130/130 132/132/132 133/133/133
f 133/133/133 128/128/128 130/130/130
f 132/132/132 126/126/126 127/127/127
f 127/127/127 133/133/133 132/132/132
f 128/128/128 133/133/133 122/122/122
f 122/122/122 120/120/120 128/128/128
f 127/127/127 118/118/118 122/122/122
f 121/121/121 123/123/123 124/124/124
f 119/119/119 124/124/124 123/123/123
f 116/116/116 130/130/130 117/117/117
f 117/117/117 114/114/114 116/116/116
f 114/114/114 117/117/117 111/111/111
f 111/111/111 109/109/109 114/114/114
f 110/110/110 112/112/112 113/113/113
f 122/122/122 133/133/133 127/127/127
f 108/108/108 138/138/138 102/102/102
f 108/108/108 107/107/107 136/136/136
f 136/136/136 138/138/138 108/108/108
f 100/100/100 106/106/106 108/108/108
f 108/108/108 106/106/106 107/107/107
f 108/108/108 102/102/102 100/100/100
f 106/106/106 100/100/100 97/97/97
f 102/102/102 138/138/138 115/115/115
f 103/103/103 104/104/104 105/105/105
f 105/105/105 101/101/101 103/103/103
f 101/101/101 105/105/105 99/99/99
f 99/99/99 98/98/98 101/101/101
f 104/104/104 92/92/92 95/95/95
f 95/95/95 105/105/105 104/104/104
f 99/99/99 95/95/95 90/90/90
f 93/93/93 94/94/94 96/96/96
f 91/91/91 96/96/96 94/94/94
f 116/116/116 114/114/114 89/89/89
f 89/89/89 103/103/103 116/116/116
f 114/114/114 109/109/109 87/87/87
f 87/87/87 89/89/89 114/114/114
f 110/110/110 113/113/113 88/88/88
f 95/95/95 99/99/99 105/105/105
f 84/84/84 85/85/85 86/86/86
f 86/86/86 83/83/83 84/84/84
f 86/86/86 81/81/81 82/82/82
f 82/82/82 83/83/83 86/86/86
f 83/83/83 80/80/80 84/84/84
f 82/82/82 80/80/80 83/83/83
f 84/84/84 78/78/78 79/79/79
f 79/79/79 85/85/85 84/84/84
f 79/79/79 78/78/78 82/82/82
f 82/82/82 81/81/81 79/79/79
f 78/78/78 84/84/84 80/80/80
f 82/82/82 78/78/78 80/80/80
v 0.085897 0.529956 0.237321
v 0.135254 0.562193 0.224222
v 0.151975 0.527146 0.171184
v 0.069473 0.585602 0.218857
v 0.135550 0.582791 0.152719
v 0.003789 0.670353 0.189206
v 0.025232 0.597167 0.213736
v 0.108825 0.665889 0.084076
v 0.065685 0.720905 0.151664
v 0.124865 0.648722 0.209655
v 0.130268 0.592701 0.108606
v 0.049630 0.380763 0.228417
v 0.103010 0.408506 0.223141
v 0.120525 0.378281 0.167458
v 0.040722 0.439700 0.215993
v 0.111617 0.437219 0.155035
v -0.013010 0.534261 0.192594
v -0.001472 0.456735 0.209164
v 0.099683 0.530318 0.095694
v 0.056806 0.581528 0.166370
v 0.102947 0.496763 0.218923
v 0.111220 0.452792 0.112263
v 0.144109 0.425323 0.177639
v 0.182602 0.456812 0.143381
v 0.167280 0.426632 0.087031
v 0.125325 0.483118 0.173896
v 0.148495 0.484428 0.083289
v 0.060999 0.572840 0.187631
v 0.085690 0.496807 0.192844
v 0.097831 0.574925 0.043604
v 0.099463 0.624504 0.127239
v 0.173550 0.544694 0.141963
v 0.122522 0.498891 0.048817
v 0.129559 0.301348 0.228487
v 0.176062 0.328588 0.201244
v 0.174173 0.291734 0.146845
v 0.113779 0.358190 0.213422
v 0.158394 0.348578 0.131780
v 0.050422 0.448677 0.200206
v 0.071092 0.373931 0.220300
v 0.121339 0.433399 0.070430
v 0.103805 0.492774 0.145418
v 0.169938 0.415613 0.187236
v 0.142009 0.358652 0.090523
vn 0.038561 0.324928 0.944952
vn 0.403444 0.262168 0.876642
vn 0.978048 0.202357 0.049729
vn -0.015233 0.229179 0.973265
vn 0.968610 0.232635 -0.087612
vn 0.240821 0.371143 0.896804
vn -0.014470 0.364156 0.931226
vn 0.891837 0.355183 0.280130
vn 0.576004 0.566882 0.588951
vn 0.724728 0.415548 0.549627
vn 0.929647 0.368389 -0.006748
vn -0.009728 0.204850 0.978745
vn 0.351205 0.109552 0.929867
vn 0.985786 0.082736 0.146224
vn -0.075395 0.113126 0.990716
vn 0.991437 0.129884 0.013491
vn 0.199651 0.233130 0.951730
vn -0.056991 0.251143 0.966271
vn 0.896320 0.216129 0.387169
vn 0.578660 0.424439 0.696422
vn 0.713713 0.262899 0.649228
vn 0.959927 0.258686 0.107807
vn 0.537120 0.227180 0.812337
vn 0.810944 0.157755 0.563457
vn 0.882425 0.159128 -0.442725
vn 0.497191 0.131176 0.857668
vn 0.807525 0.203332 -0.553678
vn 0.690488 0.270239 0.670967
vn 0.487910 0.269539 0.830236
vn 0.937370 0.291308 -0.190988
vn 0.839503 0.482910 0.249065
vn 0.934809 0.330744 0.129385
vn 0.826190 0.331692 -0.455402
vn 0.328320 0.326095 0.886492
vn 0.652705 0.227997 0.722491
vn 0.967669 0.107480 -0.228179
vn 0.276043 0.236155 0.931682
vn 0.923303 0.137630 -0.358566
vn 0.512634 0.352265 0.783017
vn 0.277379 0.370130 0.886603
vn 0.962940 0.269458 0.011804
vn 0.765672 0.512689 0.388455
vn 0.883286 0.347471 0.314753
vn 0.920764 0.277038 -0.274671
vt 0.910517 0.111131
vt 0.938280 0.104372
vt 0.969836 0.113835
vt 0.911546 0.087080
vt 0.970864 0.089783
vt 0.895793 0.045172
vt 0.894258 0.076810
vt 0.990084 0.049468
vt 0.940187 0.030913
vt 0.940164 0.070299
vt 0.988550 0.081107
vt 0.910517 0.111131
vt 0.938280 0.104372
vt 0.969836 0.113835
vt 0.911546 0.087080
vt 0.970864 0.089783
vt 0.895793 0.045172
vt 0.894258 0.076810
vt 0.990084 0.049468
vt 0.940187 0.030913
vt 0.940164 0.070299
vt 0.988550 0.081107
vt 0.910517 0.111131
vt 0.938280 0.104372
vt 0.969836 0.113835
vt 0.911546 0.087080
vt 0.970864 0.089783
vt 0.895793 0.045172
vt 0.894258 0.076810
vt 0.990084 0.049468
vt 0.940187 0.030913
vt 0.940164 0.070299
vt 0.988550 0.081107
vt 0.910517 0.111131
vt 0.938280 0.104372
vt 0.969836 0.113835
vt 0.911546 0.087080
vt 0.970864 0.089783
vt 0.895793 0.045172
vt 0.894258 0.076810
vt 0.990084 0.049468
vt 0.940187 0.030913
vt 0.940164 0.070299
vt 0.988550 0.081107
f 246/246/246 247/247/247 248/248/248
f 248/248/248 245/245/245 246/246/246
f 244/244/244 247/247/247 246/246/246
f 246/246/246 243/243/243 244/244/244
f 242/242/242 248/248/248 247/247/247
f 241/241/241 247/247/247 244/244/244
f 240/240/240 242/242/242 247/247/247
f 247/247/247 239/239/239 240/240/240
f 239/239/239 247/247/247 241/241/241
f 241/241/241 238/238/238 239/239/239
f 235/235/235 236/236/236 237/237/237
f 237/237/237 234/234/234 235/235/235
f 233/233/233 236/236/236 235/235/235
f 235/235/235 232/232/232 233/233/233
f 231/231/231 237/237/237 236/236/236
f 230/230/230 236/236/236 233/233/233
f 229/229/229 231/231/231 236/236/236
f 236/236/236 228/228/228 229/229/229
f 228/228/228 236/236/236 230/230/230
f 230/230/230 227/227/227 228/228/228
f 224/224/224 225/225/225 226/226/226
f 226/226/226 223/223/223 224/224/224
f 222/222/222 225/225/225 224/224/224
f 224/224/224 221/221/221 222/222/222
f 220/220/220 226/226/226 225/225/225
f 219/219/219 225/225/225 222/222/222
f 218/218/218 220/220/220 225/225/225
f 225/225/225 217/217/217 218/218/218
f 217/217/217 225/225/225 219/219/219
f 219/219/219 216/216/216 217/217/217
f 213/213/213 214/214/214 215/215/215
f 215/215/215 212/212/212 213/213/213
f 211/211/211 214/214/214 213/213/213
f 213/213/213 210/210/210 211/211/211
f 209/209/209 215/215/215 214/214/214
f 208/208/208 214/214/214 211/211/211
f 207/207/207 209/209/209 214/214/214
f 214/214/214 206/206/206 207/207/207
f 206/206/206 214/214/214 208/208/208
f 208/208/208 205/205/205 206/206/206
v -0.178682 0.463770 -0.268232
v -0.178682 0.463770 -0.268232
v -0.057788 0.434135 -0.178258
v -0.057788 0.434135 -0.178258
v 0.024929 0.494273 -0.273079
v 0.024929 0.494273 -0.273079
v -0.041611 0.534107 -0.358581
v -0.041611 0.534107 -0.358581
v -0.063236 0.624636 -0.123605
v -0.063236 0.624636 -0.123605
v -0.051108 0.560317 -0.248392
v -0.180949 0.520158 -0.255912
v -0.042226 0.573344 -0.345160
v -0.057275 0.488338 -0.176190
v 0.019245 0.545978 -0.261236
v -0.179742 0.633194 -0.224465
v -0.044192 0.673932 -0.281888
v -0.056304 0.682007 -0.153010
v -0.055447 0.591077 -0.164821
v 0.002094 0.650536 -0.215192
v -0.139212 0.747689 -0.191807
v -0.048323 0.740767 -0.236032
v -0.058057 0.750922 -0.139856
v -0.058057 0.750922 -0.139856
v -0.015498 0.737846 -0.185258
v -0.138695 0.864824 -0.113223
v -0.138695 0.864824 -0.113223
v 0.004462 0.845332 -0.113671
v 0.004462 0.845332 -0.113671
v -0.045830 0.917174 -0.192339
v -0.045830 0.938264 -0.139628
v -0.045830 0.938264 -0.139628
v 0.054482 0.953474 -0.054751
v 0.054482 0.953474 -0.054751
v 0.054482 0.953474 -0.054751
v -0.108627 0.998152 -0.052989
v -0.108627 0.998152 -0.052989
v -0.108627 0.998152 -0.052989
v -0.129226 1.156960 -0.046973
v -0.136009 1.086100 -0.049366
v 0.198121 1.081150 -0.245885
v -0.053179 1.153700 -0.154881
v 0.125647 1.017850 -0.163085
v -0.013772 1.060660 -0.143507
v 0.093927 0.964904 -0.074565
v -0.174859 0.623970 -0.058445
v -0.174859 0.623970 -0.058445
v 0.047126 0.625490 -0.060548
v 0.047126 0.625490 -0.060548
v 0.054576 0.826777 -0.060500
v -0.183863 0.344933 -0.094571
v -0.248024 -0.002407 -0.130071
v -0.187157 0.302245 -0.097099
v -0.056846 -0.002407 -0.251428
v -0.030083 0.327782 -0.192149
v 0.132172 0.000186 -0.133672
v 0.101764 0.340853 -0.097465
v -0.178682 0.447258 0.245155
v -0.178682 0.447258 0.245155
v -0.057788 0.443567 0.150496
v -0.057788 0.443567 0.150496
v -0.041611 0.489973 0.351387
v -0.041611 0.489973 0.351387
v 0.024929 0.475244 0.258218
v 0.024929 0.475244 0.258218
v -0.063236 0.624636 0.167807
v -0.063236 0.624636 0.167807
v -0.051108 0.545534 0.252688
v -0.180949 0.504858 0.248851
v -0.042226 0.531389 0.349299
v -0.057275 0.496240 0.163447
v 0.019245 0.528211 0.261083
v -0.179742 0.633194 0.268668
v -0.044192 0.673932 0.326092
v -0.055447 0.622598 0.193262
v -0.056304 0.682007 0.197212
v 0.002094 0.650536 0.259394
v -0.139212 0.747689 0.236011
v -0.048323 0.740767 0.280234
v -0.058057 0.750922 0.184058
v -0.058057 0.750922 0.184058
v -0.015498 0.737846 0.229461
v -0.138695 0.864824 0.157426
v -0.138695 0.864824 0.157426
v 0.004462 0.845332 0.157873
v 0.004462 0.845332 0.157873
v -0.045830 0.938264 0.183831
v -0.045830 0.938264 0.183831
v -0.045830 0.917174 0.236541
v -0.135089 1.002860 0.022101
v -0.135089 1.002860 0.022101
v -0.135089 1.002860 0.022101
v -0.108627 0.998152 0.097191
v -0.108627 0.998152 0.097191
v -0.108627 0.998152 0.097191
v 0.054482 0.953474 0.098953
v 0.054482 0.953474 0.098953
v 0.054482 0.953474 0.098953
v 0.086251 0.936217 0.022101
v 0.086251 0.936217 0.022101
v 0.086251 0.936217 0.022101
v -0.135089 1.162130 0.022101
v -0.157501 1.086700 0.022101
v -0.129226 1.156960 0.091176
v -0.136009 1.086100 0.093568
v 0.198121 1.081150 0.290086
v -0.053179 1.153700 0.199084
v -0.013772 1.060660 0.187708
v 0.125647 1.017850 0.207288
v 0.093927 0.964904 0.118768
v -0.199663 0.870487 0.022101
v -0.210840 0.623970 0.022101
v -0.210840 0.623970 0.022101
v -0.174859 0.623970 0.102648
v -0.174859 0.623970 0.102648
v 0.054577 0.826777 0.104702
v 0.047126 0.625490 0.104751
v 0.047126 0.625490 0.104751
v 0.090322 0.625490 0.022101
v 0.090322 0.625490 0.022101
v 0.097103 0.819202 0.022101
v -0.233414 0.344933 0.022101
v -0.238035 0.299378 0.022101
v -0.309649 -0.002407 0.022101
v -0.183863 0.344933 0.138771
v -0.248024 -0.002407 0.174272
v -0.187157 0.302245 0.141301
v -0.056846 -0.002407 0.295630
v -0.030083 0.327782 0.236350
v 0.101764 0.340853 0.141667
v 0.132172 0.000186 0.177874
v 0.206154 0.000186 0.022101
v 0.161250 0.340853 0.022101
vn -0.364066 -0.922900 0.125349
vn -0.364066 -0.922900 0.125349
vn 0.092436 -0.970660 0.221979
vn 0.092436 -0.970660 0.221979
vn 0.412783 -0.909062 -0.056705
vn 0.412783 -0.909062 -0.056705
vn 0.122641 -0.685037 -0.718111
vn 0.122641 -0.685037 -0.718111
vn 0.101164 0.049742 -0.993626
vn 0.101164 0.049742 -0.993626
vn -0.064083 -0.901660 -0.427671
vn -0.998582 0.034034 0.040934
vn -0.001584 0.402319 -0.915498
vn 0.129649 -0.109495 0.985496
vn 0.990731 0.134937 -0.015641
vn -0.836029 0.362609 -0.411789
vn 0.493275 0.490427 -0.718444
vn 0.272515 -0.147647 0.950755
vn 0.040992 -0.155690 0.986955
vn 0.954243 0.077390 0.288843
vn -0.958754 0.032744 0.282344
vn 0.095391 0.411572 -0.906371
vn 0.426536 -0.898533 -0.103465
vn 0.426536 -0.898533 -0.103465
vn 0.998910 0.039191 0.025340
vn -0.904410 0.251377 -0.344748
vn -0.904410 0.251377 -0.344748
vn 0.920924 -0.008879 -0.389641
vn 0.920924 -0.008879 -0.389641
vn 0.231038 0.554613 -0.799391
vn 0.167465 0.782775 -0.599348
vn 0.167465 0.782775 -0.599348
vn 0.453247 0.891136 0.021076
vn 0.453247 0.891136 0.021076
vn 0.453247 0.891136 0.021076
vn 0.164335 0.982263 0.090295
vn 0.164335 0.982263 0.090295
vn 0.164335 0.982263 0.090295
vn 0.929550 -0.164616 0.329908
vn 0.847688 0.145506 0.510150
vn 0.419092 0.506149 0.753774
vn 0.545003 0.255150 0.798668
vn 0.323959 0.511937 0.795595
vn 0.372518 0.505461 0.778293
vn 0.115094 0.834798 0.538392
vn -0.667928 0.030411 -0.743604
vn -0.667928 0.030411 -0.743604
vn 0.727126 0.084069 -0.681337
vn 0.727126 0.084069 -0.681337
vn 0.801680 -0.028179 -0.597089
vn -0.817967 0.097236 -0.566989
vn -0.749137 0.217392 -0.625728
vn -0.752235 0.175531 -0.635084
vn -0.204434 0.190253 -0.960214
vn -0.073436 0.175544 -0.981729
vn 0.745887 0.127104 -0.653833
vn 0.729837 0.199263 -0.653936
vn -0.364072 -0.852615 -0.374833
vn -0.364072 -0.852615 -0.374833
vn 0.092434 -0.871890 -0.480899
vn 0.092434 -0.871890 -0.480899
vn 0.122640 -0.856410 0.501520
vn 0.122640 -0.856410 0.501520
vn 0.412783 -0.889486 -0.196023
vn 0.412783 -0.889486 -0.196023
vn 0.101163 0.049740 0.993626
vn 0.101163 0.049740 0.993626
vn -0.064082 -0.984605 0.162624
vn -0.997991 0.060135 -0.019965
vn 0.016248 0.053514 0.998435
vn 0.128190 0.187313 -0.973900
vn 0.991274 0.120703 0.052983
vn -0.838016 0.280400 0.468086
vn 0.511466 0.334149 0.791673
vn 0.049202 0.113797 -0.992285
vn 0.306549 -0.069075 -0.949345
vn 0.956677 0.123580 -0.263623
vn -0.952399 0.090422 -0.291136
vn 0.095393 0.411576 0.906369
vn 0.426530 -0.898536 0.103468
vn 0.426530 -0.898536 0.103468
vn 0.998910 0.039195 -0.025336
vn -0.904410 0.251377 0.344751
vn -0.904410 0.251377 0.344751
vn 0.920924 -0.008879 0.389642
vn 0.920924 -0.008879 0.389642
vn 0.167466 0.782774 0.599349
vn 0.167466 0.782774 0.599349
vn 0.231041 0.554612 0.799391
vn 0.206477 0.978451 -0.000000
vn 0.206477 0.978451 -0.000000
vn 0.206477 0.978451 -0.000000
vn 0.164334 0.982263 -0.090298
vn 0.164334 0.982263 -0.090298
vn 0.164334 0.982263 -0.090298
vn 0.453250 0.891135 -0.021077
vn 0.453250 0.891135 -0.021077
vn 0.453250 0.891135 -0.021077
vn 0.490981 0.871170 -0.000000
vn 0.490981 0.871170 -0.000000
vn 0.490981 0.871170 -0.000000
vn 0.958582 -0.284817 0.000000
vn 0.998850 -0.047951 0.000000
vn 0.929550 -0.164614 -0.329907
vn 0.847688 0.145509 -0.510150
vn 0.419087 0.506142 -0.753782
vn 0.545006 0.255159 -0.798663
vn 0.372523 0.505465 -0.778288
vn 0.323965 0.511941 -0.795589
vn 0.115103 0.834798 -0.538390
vn -0.953339 0.301902 -0.000001
vn -0.997817 0.066045 -0.000001
vn -0.997817 0.066045 -0.000001
vn -0.667928 0.030408 0.743605
vn -0.667928 0.030408 0.743605
vn 0.801680 -0.028178 0.597089
vn 0.727127 0.084068 0.681337
vn 0.727127 0.084068 0.681337
vn 0.994273 0.106872 -0.000002
vn 0.994273 0.106872 -0.000002
vn 0.999975 0.007029 -0.000002
vn -0.995871 0.090784 0.000003
vn -0.989441 0.144935 0.000001
vn -0.972284 0.233803 0.000001
vn -0.817966 0.097243 0.566988
vn -0.749137 0.217391 0.625727
vn -0.752234 0.175541 0.635082
vn -0.204435 0.190255 0.960213
vn -0.073436 0.175549 0.981728
vn 0.729836 0.199262 0.653937
vn 0.745886 0.127105 0.653834
vn 0.991424 0.130682 -0.000000
vn 0.985225 0.171267 0.000000
vt 0.721665 0.213999
vt 0.391109 0.531929
vt 0.744120 0.210736
vt 0.440892 0.531782
vt 0.721665 0.213999
vt 0.391109 0.531929
vt 0.699817 0.222896
vt 0.336252 0.532770
vt 0.368564 0.760381
vt 0.382275 0.648881
vt 0.728395 0.227557
vt 0.391017 0.583154
vt 0.338441 0.583533
vt 0.436087 0.582999
vt 0.391017 0.583154
vt 0.390052 0.645167
vt 0.345973 0.645786
vt 0.422383 0.697543
vt 0.425023 0.644411
vt 0.390052 0.645167
vt 0.391538 0.726711
vt 0.351098 0.717687
vt 0.383366 0.710234
vt 0.419385 0.730010
vt 0.391538 0.726711
vt 0.339556 0.763776
vt 0.421004 0.819503
vt 0.414977 0.757332
vt 0.421004 0.819503
vt 0.338717 0.810805
vt 0.387371 0.801348
vt 0.382533 0.853772
vt 0.439847 0.810829
vt 0.709191 0.439141
vt 0.707790 0.230699
vt 0.353625 0.829070
vt 0.679001 0.446102
vt 0.722342 0.227105
vt 0.532602 0.318672
vt 0.556125 0.385590
vt 0.532602 0.318672
vt 0.677298 0.238245
vt 0.556125 0.385590
vt 0.701080 0.377437
vt 0.679001 0.446102
vt 0.331633 0.760114
vt 0.323673 0.646214
vt 0.405079 0.760727
vt 0.440212 0.651614
vt 0.441530 0.749387
vt 0.332661 0.685702
vt 0.324240 0.534907
vt 0.333375 0.651285
vt 0.370818 0.534907
vt 0.376224 0.671909
vt 0.416871 0.535680
vt 0.412191 0.676275
vt 0.721665 0.213999
vt 0.391109 0.531929
vt 0.744120 0.210736
vt 0.440892 0.531782
vt 0.699817 0.222896
vt 0.336252 0.532770
vt 0.721665 0.213999
vt 0.391109 0.531929
vt 0.368564 0.760381
vt 0.382275 0.648881
vt 0.728395 0.227557
vt 0.391017 0.583154
vt 0.338441 0.583533
vt 0.436087 0.582999
vt 0.391017 0.583154
vt 0.390052 0.645167
vt 0.345973 0.645786
vt 0.425023 0.644411
vt 0.422383 0.697543
vt 0.390052 0.645167
vt 0.391538 0.726711
vt 0.351098 0.717687
vt 0.383366 0.710234
vt 0.419385 0.730010
vt 0.391538 0.726711
vt 0.339556 0.763776
vt 0.421004 0.819503
vt 0.414977 0.757332
vt 0.421004 0.819503
vt 0.387371 0.801348
vt 0.382533 0.853772
vt 0.338717 0.810805
vt 0.339669 0.830798
vt 0.709191 0.439141
vt 0.720439 0.211385
vt 0.353625 0.829070
vt 0.679001 0.446102
vt 0.722342 0.227105
vt 0.439847 0.810829
vt 0.709191 0.439141
vt 0.707790 0.230699
vt 0.451755 0.810888
vt 0.550382 0.368910
vt 0.698612 0.216199
vt 0.677298 0.238245
vt 0.701080 0.377437
vt 0.532602 0.318672
vt 0.556125 0.385590
vt 0.532602 0.318672
vt 0.677298 0.238245
vt 0.701080 0.377437
vt 0.556125 0.385590
vt 0.679001 0.446102
vt 0.313299 0.764469
vt 0.319728 0.760114
vt 0.307694 0.643131
vt 0.331633 0.760114
vt 0.323673 0.646214
vt 0.441530 0.749387
vt 0.405079 0.760727
vt 0.440212 0.651614
vt 0.445172 0.759921
vt 0.462894 0.652523
vt 0.458962 0.754368
vt 0.319144 0.685702
vt 0.319496 0.650327
vt 0.309226 0.534907
vt 0.332661 0.685702
vt 0.324240 0.534907
vt 0.333375 0.651285
vt 0.370818 0.534907
vt 0.376224 0.671909
vt 0.412191 0.676275
vt 0.416871 0.535680
vt 0.460698 0.534874
vt 0.454221 0.675469
f 379/379/379 380/380/380 381/381/381
f 381/381/381 378/378/378 379/379/379
f 378/378/378 381/381/381 367/367/367
f 367/367/367 365/365/365 378/378/378
f 379/379/379 378/378/378 377/377/377
f 377/377/377 376/376/376 379/379/379
f 378/378/378 365/365/365 314/314/314
f 314/314/314 377/377/377 378/378/378
f 376/376/376 377/377/377 375/375/375
f 375/375/375 374/374/374 376/376/376
f 377/377/377 314/314/314 362/362/362
f 362/362/362 373/373/373 377/377/377
f 375/375/375 371/371/371 372/372/372
f 372/372/372 374/374/374 375/375/375
f 373/373/373 362/362/362 360/360/360
f 360/360/360 370/370/370 373/373/373
f 377/377/377 373/373/373 375/375/375
f 373/373/373 370/370/370 371/371/371
f 371/371/371 375/375/375 373/373/373
f 366/366/366 368/368/368 369/369/369
f 369/369/369 364/364/364 366/366/366
f 364/364/364 333/333/333 328/328/328
f 328/328/328 366/366/366 364/364/364
f 363/363/363 328/328/328 331/331/331
f 361/361/361 363/363/363 331/331/331
f 331/331/331 359/359/359 361/361/361
f 364/364/364 369/369/369 347/347/347
f 347/347/347 344/344/344 364/364/364
f 335/335/335 344/344/344 341/341/341
f 331/331/331 335/335/335 341/341/341
f 359/359/359 331/331/331 341/341/341
f 341/341/341 338/338/338 359/359/359
f 345/345/345 358/358/358 348/348/348
f 358/358/358 356/356/356 357/357/357
f 357/357/357 356/356/356 355/355/355
f 355/355/355 354/354/354 357/357/357
f 356/356/356 342/342/342 353/353/353
f 355/355/355 356/356/356 353/353/353
f 353/353/353 352/352/352 355/355/355
f 344/344/344 335/335/335 333/333/333
f 333/333/333 364/364/364 344/344/344
f 339/339/339 351/351/351 353/353/353
f 353/353/353 342/342/342 339/339/339
f 351/351/351 350/350/350 352/352/352
f 352/352/352 353/353/353 351/351/351
f 356/356/356 345/345/345 342/342/342
f 358/358/358 345/345/345 356/356/356
f 343/343/343 346/346/346 349/349/349
f 349/349/349 340/340/340 343/343/343
f 334/334/334 336/336/336 337/337/337
f 336/336/336 332/332/332 337/337/337
f 329/329/329 334/334/334 330/330/330
f 337/337/337 327/327/327 330/330/330
f 337/337/337 332/332/332 326/326/326
f 332/332/332 329/329/329 326/326/326
f 324/324/324 330/330/330 325/325/325
f 325/325/325 323/323/323 324/324/324
f 330/330/330 327/327/327 322/322/322
f 322/322/322 325/325/325 330/330/330
f 327/327/327 326/326/326 321/321/321
f 321/321/321 322/322/322 327/327/327
f 326/326/326 324/324/324 323/323/323
f 323/323/323 321/321/321 326/326/326
f 323/323/323 325/325/325 320/320/320
f 320/320/320 319/319/319 323/323/323
f 322/322/322 318/318/318 320/320/320
f 320/320/320 325/325/325 322/322/322
f 321/321/321 317/317/317 318/318/318
f 318/318/318 322/322/322 321/321/321
f 323/323/323 319/319/319 317/317/317
f 317/317/317 321/321/321 323/323/323
f 308/308/308 312/312/312 316/316/316
f 312/312/312 310/310/310 316/316/316
f 310/310/310 306/306/306 316/316/316
f 306/306/306 308/308/308 316/316/316
f 330/330/330 334/334/334 337/337/337
f 326/326/326 327/327/327 337/337/337
f 330/330/330 324/324/324 329/329/329
f 329/329/329 324/324/324 326/326/326
f 363/363/363 315/315/315 328/328/328
f 328/328/328 315/315/315 366/366/366
f 311/311/311 313/313/313 320/320/320
f 320/320/320 318/318/318 311/311/311
f 313/313/313 309/309/309 319/319/319
f 319/319/319 320/320/320 313/313/313
f 319/319/319 309/309/309 307/307/307
f 307/307/307 317/317/317 319/319/319
f 317/317/317 307/307/307 311/311/311
f 311/311/311 318/318/318 317/317/317
f 304/304/304 305/305/305 381/381/381
f 381/381/381 380/380/380 304/304/304
f 305/305/305 296/296/296 367/367/367
f 367/367/367 381/381/381 305/305/305
f 304/304/304 302/302/302 303/303/303
f 303/303/303 305/305/305 304/304/304
f 305/305/305 303/303/303 257/257/257
f 257/257/257 296/296/296 305/305/305
f 302/302/302 300/300/300 301/301/301
f 301/301/301 303/303/303 302/302/302
f 303/303/303 299/299/299 294/294/294
f 294/294/294 257/257/257 303/303/303
f 301/301/301 300/300/300 372/372/372
f 372/372/372 371/371/371 301/301/301
f 299/299/299 370/370/370 360/360/360
f 360/360/360 294/294/294 299/299/299
f 303/303/303 301/301/301 299/299/299
f 299/299/299 301/301/301 371/371/371
f 371/371/371 370/370/370 299/299/299
f 297/297/297 298/298/298 369/369/369
f 369/369/369 368/368/368 297/297/297
f 298/298/298 297/297/297 271/271/271
f 271/271/271 276/276/276 298/298/298
f 295/295/295 274/274/274 271/271/271
f 361/361/361 359/359/359 274/274/274
f 274/274/274 295/295/295 361/361/361
f 298/298/298 281/281/281 347/347/347
f 347/347/347 369/369/369 298/298/298
f 279/279/279 284/284/284 281/281/281
f 274/274/274 284/284/284 279/279/279
f 359/359/359 338/338/338 284/284/284
f 284/284/284 274/274/274 359/359/359
f 282/282/282 348/348/348 293/293/293
f 293/293/293 291/291/291 292/292/292
f 291/291/291 289/289/289 290/290/290
f 290/290/290 292/292/292 291/291/291
f 292/292/292 288/288/288 285/285/285
f 290/290/290 287/287/287 288/288/288
f 288/288/288 292/292/292 290/290/290
f 281/281/281 298/298/298 276/276/276
f 276/276/276 279/279/279 281/281/281
f 339/339/339 285/285/285 288/288/288
f 288/288/288 351/351/351 339/339/339
f 351/351/351 288/288/288 287/287/287
f 287/287/287 350/350/350 351/351/351
f 292/292/292 285/285/285 282/282/282
f 293/293/293 292/292/292 282/282/282
f 286/286/286 340/340/340 349/349/349
f 349/349/349 283/283/283 286/286/286
f 277/277/277 278/278/278 280/280/280
f 280/280/280 278/278/278 275/275/275
f 272/272/272 273/273/273 277/277/277
f 278/278/278 273/273/273 270/270/270
f 278/278/278 269/269/269 275/275/275
f 275/275/275 269/269/269 272/272/272
f 266/266/266 267/267/267 268/268/268
f 268/268/268 273/273/273 266/266/266
f 273/273/273 268/268/268 265/265/265
f 265/265/265 270/270/270 273/273/273
f 270/270/270 265/265/265 264/264/264
f 264/264/264 269/269/269 270/270/270
f 269/269/269 264/264/264 267/267/267
f 267/267/267 266/266/266 269/269/269
f 267/267/267 262/262/262 263/263/263
f 263/263/263 268/268/268 267/267/267
f 265/265/265 268/268/268 263/263/263
f 263/263/263 261/261/261 265/265/265
f 264/264/264 265/265/265 261/261/261
f 261/261/261 260/260/260 264/264/264
f 267/267/267 264/264/264 260/260/260
f 260/260/260 262/262/262 267/267/267
f 251/251/251 259/259/259 253/253/253
f 253/253/253 259/259/259 255/255/255
f 255/255/255 259/259/259 249/249/249
f 249/249/249 259/259/259 251/251/251
f 273/273/273 278/278/278 277/277/277
f 269/269/269 278/278/278 270/270/270
f 273/273/273 272/272/272 266/266/266
f 272/272/272 269/269/269 266/266/266
f 295/295/295 271/271/271 258/258/258
f 271/271/271 297/297/297 258/258/258
f 256/256/256 261/261/261 263/263/263
f 263/263/263 254/254/254 256/256/256
f 254/254/254 263/263/263 262/262/262
f 262/262/262 252/252/252 254/254/254
f 262/262/262 260/260/260 250/250/250
f 250/250/250 252/252/252 262/262/262
f 260/260/260 261/261/261 256/256/256
f 256/256/256 250/250/250 260/260/260
v -0.189480 0.659754 -0.083047
v -0.189480 0.659754 -0.083047
v -0.051904 0.657374 -0.135574
v -0.051904 0.657374 -0.135574
v 0.050135 0.681034 -0.111520
v 0.050135 0.681034 -0.111520
v 0.050135 0.681034 -0.111520
v 0.098121 0.756869 -0.095292
v 0.098121 0.756869 -0.095292
v 0.096172 0.698031 -0.074682
v 0.096172 0.698031 -0.074682
v 0.096172 0.698031 -0.074682
v 0.096172 0.665186 -0.039978
v 0.096172 0.665186 -0.039978
v 0.096172 0.665186 -0.039978
v -0.189480 0.612275 -0.092555
v -0.051904 0.609893 -0.145082
v 0.100071 0.594599 -0.022471
v 0.100071 0.594599 -0.022471
v 0.064037 0.612697 -0.079262
v 0.064037 0.612697 -0.079262
v 0.098488 0.723203 -0.016941
v -0.016965 0.736628 -0.225893
v 0.016346 0.766364 -0.166537
v -0.010431 0.795629 -0.216638
v -0.009138 0.842354 -0.211809
v 0.020225 0.840704 -0.143342
v 0.010652 0.973852 -0.086286
v -0.009234 0.826619 -0.228746
v 0.039539 0.898649 -0.082248
v 0.030560 0.832259 -0.138524
v 0.013275 0.960629 -0.150126
v 0.003601 0.891839 -0.205880
v -0.065100 0.746992 -0.264970
v -0.111876 0.750037 -0.232690
v -0.059308 0.845924 -0.250673
v -0.060466 0.805349 -0.259051
v -0.102780 0.842354 -0.211809
v -0.105654 0.801937 -0.216638
v -0.156714 0.775934 -0.173336
v -0.148082 0.840712 -0.143342
v -0.122569 0.973852 -0.086286
v -0.055959 0.998294 -0.109532
v -0.055959 0.835079 -0.271500
v -0.102684 0.826619 -0.228746
v -0.158418 0.832259 -0.138524
v -0.167397 0.898649 -0.082248
v -0.125193 0.960629 -0.150126
v -0.055959 0.983497 -0.176996
v -0.055959 0.909239 -0.240905
v -0.115519 0.891839 -0.205880
v -0.211359 0.660313 0.022101
v -0.211359 0.660313 0.022101
v -0.189480 0.659754 0.127248
v -0.189480 0.659754 0.127248
v -0.051904 0.657374 0.179776
v -0.051904 0.657374 0.179776
v 0.050135 0.681034 0.155722
v 0.050135 0.681034 0.155722
v 0.050135 0.681034 0.155722
v 0.098121 0.756869 0.139493
v 0.098121 0.756869 0.139493
v -0.016020 0.642343 0.022101
v 0.096172 0.698031 0.118884
v 0.096172 0.698031 0.118884
v 0.096172 0.698031 0.118884
v 0.096172 0.665186 0.084180
v 0.096172 0.665186 0.084180
v 0.096172 0.665186 0.084180
v -0.211359 0.612616 0.022101
v -0.189480 0.612275 0.136756
v -0.051904 0.609893 0.189283
v 0.100071 0.594599 0.066672
v 0.100071 0.594599 0.066672
v 0.064037 0.612697 0.123465
v 0.064037 0.612697 0.123465
v 0.098488 0.743122 0.022101
v 0.098488 0.723203 0.061143
v 0.117329 0.560762 0.022101
v 0.132085 0.652665 0.022101
v -0.016965 0.736628 0.270094
v -0.009138 0.842354 0.256011
v -0.010431 0.795629 0.260842
v 0.016346 0.766364 0.210739
v 0.020225 0.840704 0.187543
v 0.010652 0.973852 0.130489
v -0.009234 0.826619 0.272947
v 0.030560 0.832259 0.182727
v 0.039539 0.898649 0.126450
v 0.013275 0.960629 0.194328
v 0.003601 0.891839 0.250083
v -0.065100 0.746992 0.309172
v -0.111876 0.750037 0.276892
v -0.060466 0.805349 0.303253
v -0.059308 0.845924 0.294874
v -0.156714 0.775934 0.217537
v -0.105654 0.801937 0.260842
v -0.102780 0.842354 0.256011
v -0.148082 0.840704 0.187543
v -0.055959 0.998294 0.153734
v -0.122569 0.973852 0.130489
v -0.102684 0.826619 0.272947
v -0.055959 0.835079 0.315702
v -0.167397 0.898649 0.126450
v -0.158418 0.832259 0.182727
v -0.055959 0.909239 0.285107
v -0.055959 0.983497 0.221200
v -0.125193 0.960629 0.194328
v -0.115519 0.891839 0.250083
vn -0.563590 0.764160 -0.313727
vn -0.563590 0.764160 -0.313727
vn -0.190341 0.797670 -0.572271
vn -0.190341 0.797670 -0.572271
vn 0.236155 0.288765 -0.927817
vn 0.236155 0.288765 -0.927817
vn 0.236155 0.288765 -0.927817
vn 0.603456 0.766285 -0.220561
vn 0.603456 0.766285 -0.220561
vn 0.991218 -0.028098 -0.129218
vn 0.991218 -0.028098 -0.129218
vn 0.991218 -0.028098 -0.129218
vn 0.957305 0.259752 -0.126870
vn 0.957305 0.259752 -0.126870
vn 0.957305 0.259752 -0.126870
vn -0.630216 0.152454 -0.761305
vn 0.114239 0.030506 -0.992985
vn 0.849427 -0.101310 -0.517890
vn 0.849427 -0.101310 -0.517890
vn 0.715929 -0.228670 -0.659663
vn 0.715929 -0.228670 -0.659663
vn 0.910324 0.251736 -0.328541
vn 0.770455 0.014645 -0.637326
vn 0.889311 0.032811 -0.456125
vn 0.789835 0.036954 -0.612205
vn 0.747723 0.074767 -0.659788
vn 0.928202 0.053490 -0.368212
vn 0.610827 0.778208 -0.145887
vn 0.817361 0.040630 -0.574692
vn 0.959400 0.233854 -0.157684
vn 0.928202 0.053490 -0.368212
vn 0.826297 0.450606 -0.337917
vn 0.724991 0.279032 -0.629705
vn 0.024220 0.165750 -0.985870
vn -0.617351 0.299057 -0.727628
vn -0.033883 0.203028 -0.978587
vn -0.026196 0.146304 -0.988893
vn -0.730335 0.143483 -0.667850
vn -0.696318 0.228431 -0.680412
vn -0.702669 0.330395 -0.630156
vn -0.836251 0.196123 -0.512075
vn -0.567339 0.809000 -0.153770
vn -0.000002 0.976781 -0.214239
vn -0.000001 0.281075 -0.959686
vn -0.773495 0.068681 -0.630070
vn -0.836251 0.196123 -0.512075
vn -0.903020 0.362618 -0.230356
vn -0.766398 0.514991 -0.383951
vn -0.000001 0.857008 -0.515303
vn -0.000001 0.524090 -0.851663
vn -0.690457 0.300049 -0.658209
vn -0.673941 0.738785 0.000001
vn -0.673941 0.738785 0.000001
vn -0.563591 0.764160 0.313727
vn -0.563591 0.764160 0.313727
vn -0.190343 0.797665 0.572276
vn -0.190343 0.797665 0.572276
vn 0.236155 0.288766 0.927817
vn 0.236155 0.288766 0.927817
vn 0.236155 0.288766 0.927817
vn 0.603459 0.766286 0.220551
vn 0.603459 0.766286 0.220551
vn -0.029850 0.999554 -0.000001
vn 0.991218 -0.028097 0.129218
vn 0.991218 -0.028097 0.129218
vn 0.991218 -0.028097 0.129218
vn 0.957307 0.259748 0.126865
vn 0.957307 0.259748 0.126865
vn 0.957307 0.259748 0.126865
vn -0.999817 0.019139 0.000001
vn -0.630219 0.152446 0.761304
vn 0.114236 0.030493 0.992986
vn 0.849429 -0.101312 0.517887
vn 0.849429 -0.101312 0.517887
vn 0.715930 -0.228665 0.659664
vn 0.715930 -0.228665 0.659664
vn 0.937431 0.348171 0.000000
vn 0.910325 0.251737 0.328539
vn 0.987354 -0.158530 -0.000000
vn 0.996994 0.077473 -0.000001
vn 0.770459 0.014612 0.637322
vn 0.747716 0.074791 0.659793
vn 0.789834 0.036952 0.612206
vn 0.889315 0.032799 0.456116
vn 0.928203 0.053494 0.368208
vn 0.610827 0.778208 0.145885
vn 0.817361 0.040612 0.574693
vn 0.928203 0.053494 0.368208
vn 0.959400 0.233855 0.157682
vn 0.826299 0.450605 0.337913
vn 0.724992 0.279026 0.629707
vn 0.024219 0.165727 0.985874
vn -0.617364 0.299030 0.727628
vn -0.026195 0.146326 0.988890
vn -0.033882 0.203051 0.978582
vn -0.702688 0.330398 0.630133
vn -0.696321 0.228437 0.680407
vn -0.730329 0.143510 0.667850
vn -0.836257 0.196136 0.512060
vn -0.000002 0.976783 0.214233
vn -0.567339 0.809000 0.153769
vn -0.773496 0.068662 0.630071
vn -0.000001 0.281061 0.959690
vn -0.903020 0.362619 0.230354
vn -0.836257 0.196136 0.512060
vn -0.000001 0.524083 0.851667
vn -0.000001 0.857008 0.515303
vn -0.766401 0.514990 0.383947
vn -0.690459 0.300042 0.658211
vt 0.878808 0.525795
vt 0.929738 0.433986
vt 0.963272 0.555036
vt 0.855497 0.404091
vt 0.814604 0.377183
vt 0.878808 0.525795
vt 0.929738 0.433986
vt 0.665829 0.377369
vt 0.855497 0.404091
vt 0.757110 0.530683
vt 0.741999 0.509623
vt 0.929738 0.433986
vt -0.000554 0.773964
vt 0.681339 0.417400
vt 0.855497 0.404091
vt 0.821459 0.376125
vt 0.976387 0.443340
vt 0.016795 0.662839
vt 0.919044 0.419032
vt 0.821459 0.376125
vt 0.665829 0.377369
vt 0.018019 0.862365
vt 0.016795 0.662839
vt 0.000513 0.721615
vt 0.030543 0.721667
vt 0.031463 0.809048
vt 0.000437 0.809595
vt 0.018019 0.862365
vt 0.016795 0.662839
vt 0.000437 0.809595
vt 0.000513 0.721615
vt 0.031463 0.809048
vt 0.030543 0.721667
vt 0.060170 0.660026
vt 0.016795 0.662839
vt 0.059772 0.809233
vt 0.059721 0.721686
vt 0.031463 0.809048
vt 0.030543 0.721667
vt 0.000513 0.721615
vt 0.000437 0.809595
vt 0.018019 0.862365
vt 0.060230 0.864852
vt 0.060170 0.660026
vt 0.016795 0.662839
vt 0.000513 0.721615
vt 0.000437 0.809595
vt 0.031463 0.809048
vt 0.059772 0.809233
vt 0.059721 0.721686
vt 0.030543 0.721667
vt 0.963272 0.555036
vt 0.855497 0.404091
vt 0.878808 0.525795
vt 0.929738 0.433986
vt 0.963272 0.555036
vt 0.855497 0.404091
vt 0.814604 0.377183
vt 0.878808 0.525795
vt 0.929738 0.433986
vt 0.665829 0.377369
vt 0.855497 0.404091
vt 0.912261 0.355743
vt 0.757110 0.530683
vt 0.741999 0.509623
vt 0.929738 0.433986
vt -0.000554 0.773964
vt 0.681339 0.417400
vt 0.855497 0.404091
vt 0.976387 0.443340
vt 0.821459 0.376125
vt 0.976387 0.443340
vt 0.016795 0.662839
vt 0.919044 0.419032
vt 0.821459 0.376125
vt 0.665829 0.377369
vt 0.060230 0.864852
vt 0.018019 0.862365
vt 0.060170 0.660026
vt 0.060156 0.773331
vt 0.016795 0.662839
vt 0.031463 0.809048
vt 0.030543 0.721667
vt 0.000513 0.721615
vt 0.000437 0.809595
vt 0.018019 0.862365
vt 0.016795 0.662839
vt 0.000513 0.721615
vt 0.000437 0.809595
vt 0.031463 0.809048
vt 0.030543 0.721667
vt 0.060170 0.660026
vt 0.016795 0.662839
vt 0.059721 0.721686
vt 0.059772 0.809233
vt 0.000513 0.721615
vt 0.030543 0.721667
vt 0.031463 0.809048
vt 0.000437 0.809595
vt 0.060230 0.864852
vt 0.018019 0.862365
vt 0.016795 0.662839
vt 0.060170 0.660026
vt 0.000437 0.809595
vt 0.000513 0.721615
vt 0.059721 0.721686
vt 0.059772 0.809233
vt 0.031463 0.809048
vt 0.030543 0.721667
f 488/488/488 489/489/489 490/490/490
f 490/490/490 487/487/487 488/488/488
f 486/486/486 490/490/490 489/489/489
f 489/489/489 485/485/485 486/486/486
f 484/484/484 487/487/487 490/490/490
f 490/490/490 483/483/483 484/484/484
f 483/483/483 490/490/490 486/486/486
f 482/482/482 489/489/489 488/488/488
f 488/488/488 481/481/481 482/482/482
f 482/482/482 485/485/485 489/489/489
f 478/478/478 479/479/479 480/480/480
f 480/480/480 477/477/477 478/478/478
f 475/475/475 476/476/476 479/479/479
f 479/479/479 478/478/478 475/475/475
f 477/477/477 474/474/474 478/478/478
f 473/473/473 475/475/475 478/478/478
f 478/478/478 474/474/474 473/473/473
f 488/488/488 487/487/487 472/472/472
f 472/472/472 471/471/471 488/488/488
f 469/469/469 470/470/470 471/471/471
f 471/471/471 472/472/472 469/469/469
f 484/484/484 468/468/468 472/472/472
f 472/472/472 487/487/487 484/484/484
f 472/472/472 468/468/468 469/469/469
f 467/467/467 481/481/481 488/488/488
f 488/488/488 471/471/471 467/467/467
f 470/470/470 467/467/467 471/471/471
f 464/464/464 465/465/465 466/466/466
f 466/466/466 463/463/463 464/464/464
f 475/475/475 464/464/464 463/463/463
f 463/463/463 476/476/476 475/475/475
f 462/462/462 465/465/465 464/464/464
f 473/473/473 462/462/462 464/464/464
f 464/464/464 475/475/475 473/473/473
f 460/460/460 461/461/461 454/454/454
f 458/458/458 459/459/459 461/461/461
f 461/461/461 448/448/448 454/454/454
f 459/459/459 448/448/448 461/461/461
f 445/445/445 456/456/456 449/449/449
f 446/446/446 439/439/439 457/457/457
f 442/442/442 439/439/439 446/446/446
f 456/456/456 455/455/455 449/449/449
f 453/453/453 456/456/456 440/440/440
f 440/440/440 437/437/437 453/453/453
f 452/452/452 453/453/453 437/437/437
f 437/437/437 435/435/435 452/452/452
f 451/451/451 452/452/452 435/435/435
f 435/435/435 433/433/433 451/451/451
f 444/444/444 447/447/447 450/450/450
f 444/444/444 441/441/441 443/443/443
f 444/444/444 443/443/443 447/447/447
f 444/444/444 438/438/438 441/441/441
f 444/444/444 436/436/436 438/438/438
f 444/444/444 434/434/434 436/436/436
f 430/430/430 431/431/431 432/432/432
f 432/432/432 429/429/429 430/430/430
f 427/427/427 428/428/428 429/429/429
f 429/429/429 432/432/432 427/427/427
f 425/425/425 426/426/426 432/432/432
f 432/432/432 431/431/431 425/425/425
f 432/432/432 426/426/426 427/427/427
f 423/423/423 424/424/424 430/430/430
f 430/430/430 429/429/429 423/423/423
f 428/428/428 423/423/423 429/429/429
f 420/420/420 421/421/421 422/422/422
f 422/422/422 419/419/419 420/420/420
f 418/418/418 420/420/420 419/419/419
f 419/419/419 417/417/417 418/418/418
f 416/416/416 421/421/421 420/420/420
f 415/415/415 416/416/416 420/420/420
f 420/420/420 418/418/418 415/415/415
f 430/430/430 413/413/413 414/414/414
f 414/414/414 431/431/431 430/430/430
f 412/412/412 414/414/414 413/413/413
f 413/413/413 411/411/411 412/412/412
f 425/425/425 431/431/431 414/414/414
f 414/414/414 410/410/410 425/425/425
f 410/410/410 414/414/414 412/412/412
f 409/409/409 413/413/413 430/430/430
f 430/430/430 424/424/424 409/409/409
f 409/409/409 411/411/411 413/413/413
f 406/406/406 407/407/407 408/408/408
f 408/408/408 405/405/405 406/406/406
f 418/418/418 417/417/417 407/407/407
f 407/407/407 406/406/406 418/418/418
f 405/405/405 404/404/404 406/406/406
f 415/415/415 418/418/418 406/406/406
f 406/406/406 404/404/404 415/415/415
f 461/461/461 460/460/460 399/399/399
f 403/403/403 458/458/458 461/461/461
f 394/394/394 461/461/461 399/399/399
f 394/394/394 403/403/403 461/461/461
f 401/401/401 391/391/391 395/395/395
f 386/386/386 392/392/392 402/402/402
f 386/386/386 389/389/389 392/392/392
f 400/400/400 401/401/401 395/395/395
f 398/398/398 384/384/384 387/387/387
f 387/387/387 401/401/401 398/398/398
f 397/397/397 382/382/382 384/384/384
f 384/384/384 398/398/398 397/397/397
f 451/451/451 433/433/433 382/382/382
f 382/382/382 397/397/397 451/451/451
f 393/393/393 444/444/444 396/396/396
f 388/388/388 444/444/444 390/390/390
f 390/390/390 444/444/444 393/393/393
f 385/385/385 444/444/444 388/388/388
f 383/383/383 444/444/444 385/385/385
f 434/434/434 444/444/444 383/383/383
v -0.031281 1.121340 -0.022415
v -0.031281 1.121340 0.066617
v -0.064512 1.130950 0.022101
v -0.069251 1.056660 -0.035045
v -0.069251 1.056660 0.079247
v -0.102483 1.043850 0.022101
v -0.062200 0.989444 0.022101
v -0.095432 0.999059 0.022101
v 0.041543 0.960802 0.022101
v 0.041543 0.960802 0.022101
v 0.021653 0.968354 0.022101
v 0.050365 0.994994 -0.059440
v 0.050365 0.994994 -0.059440
v 0.082003 0.984442 -0.059440
v 0.022969 1.004140 -0.059440
v 0.050365 0.994994 0.103642
v 0.050365 0.994994 0.103642
v 0.082003 0.984442 0.103642
v 0.022969 1.004140 0.103642
v 0.069190 0.950294 0.022101
v 0.049908 1.042026 -0.084092
v 0.049908 1.042026 -0.084092
v 0.077828 1.032186 -0.084092
v 0.019954 1.060240 -0.084092
v 0.049908 1.042026 0.128293
v 0.049908 1.042026 0.128293
v 0.077828 1.032186 0.128293
v 0.019954 1.060240 0.128293
v -0.048124 1.184520 -0.022415
v -0.106317 1.183140 0.022101
v -0.048124 1.184520 0.066617
v -0.024341 1.230980 0.022101
v 0.092893 1.219300 0.022101
v 0.109004 1.097253 -0.032365
v 0.109004 1.097253 -0.032365
v 0.116613 1.061109 -0.036918
v 0.109004 1.097253 0.076567
v 0.109004 1.097253 0.076567
v 0.116613 1.061109 0.081120
v 0.082136 1.081973 -0.045359
v 0.082136 1.081973 -0.045359
v 0.036962 1.112170 -0.053380
v 0.082136 1.081973 0.089562
v 0.082136 1.081973 0.089562
v 0.036962 1.112170 0.097582
v 0.147134 1.138730 0.022101
v 0.143241 1.092893 -0.002652
v 0.143241 1.092893 -0.002652
v 0.167402 1.079138 0.022101
v 0.167402 1.079138 0.022101
v 0.156611 1.045056 0.022101
v 0.143241 1.092893 0.046854
v 0.143241 1.092893 0.046854
v 0.063415 1.176880 -0.022415
v 0.063415 1.176880 0.066617
vn -0.632800 0.271545 -0.725140
vn -0.632800 0.271542 0.725141
vn -0.987453 -0.157914 -0.000001
vn -0.632621 -0.159965 -0.757761
vn -0.632618 -0.159964 0.757763
vn -0.957486 0.288481 -0.000001
vn -0.394756 -0.918786 -0.000000
vn -0.797324 -0.603552 -0.000002
vn -0.345424 -0.938447 0.000000
vn -0.345424 -0.938447 0.000000
vn -0.305543 -0.952178 0.000000
vn -0.242796 -0.702217 -0.669284
vn -0.242796 -0.702217 -0.669284
vn -0.268836 -0.764450 -0.585955
vn -0.325611 -0.633321 -0.702056
vn -0.242794 -0.702211 0.669291
vn -0.242794 -0.702211 0.669291
vn -0.268834 -0.764447 0.585960
vn -0.325608 -0.633316 0.702062
vn -0.355279 -0.934760 0.000000
vn 0.056058 0.038309 -0.997692
vn 0.056058 0.038309 -0.997692
vn 0.114732 0.054310 -0.991911
vn -0.264836 0.142363 -0.953727
vn 0.056055 0.038307 0.997693
vn 0.056055 0.038307 0.997693
vn 0.114733 0.054307 0.991911
vn -0.264832 0.142360 0.953728
vn -0.427820 0.215987 -0.877679
vn -0.956029 0.293272 -0.000001
vn -0.427821 0.215987 0.877678
vn -0.145512 0.989356 -0.000001
vn 0.506268 0.862376 -0.000001
vn 0.508370 0.278540 -0.814847
vn 0.508370 0.278540 -0.814847
vn 0.601241 0.225248 -0.766663
vn 0.508377 0.278536 0.814844
vn 0.508377 0.278536 0.814844
vn 0.601246 0.225237 0.766662
vn 0.354751 0.386967 -0.851121
vn 0.354751 0.386967 -0.851121
vn 0.065247 0.362166 -0.929827
vn 0.354747 0.386958 0.851128
vn 0.354747 0.386958 0.851128
vn 0.065239 0.362159 0.929830
vn 0.879384 0.476113 -0.000002
vn 0.720918 0.139620 -0.678811
vn 0.720918 0.139620 -0.678811
vn 0.999944 0.010609 0.000000
vn 0.999944 0.010609 0.000000
vn 0.983196 -0.182551 -0.000001
vn 0.720922 0.139617 0.678806
vn 0.720922 0.139617 0.678806
vn 0.284533 0.470046 -0.835522
vn 0.284532 0.470050 0.835521
vt 0.581503 0.346202
vt 0.581503 0.346202
vt 0.552652 0.344626
vt 0.580710 0.299293
vt 0.580710 0.299293
vt 0.543438 0.290235
vt 0.588499 0.261988
vt 0.551667 0.250230
vt 0.634270 0.232013
vt 0.634270 0.232013
vt 0.621685 0.235128
vt 0.637916 0.251690
vt 0.637916 0.251690
vt 0.657859 0.247554
vt 0.620647 0.255276
vt 0.637916 0.251690
vt 0.637916 0.251690
vt 0.657859 0.247554
vt 0.620647 0.255276
vt 0.651763 0.227678
vt 0.646632 0.296345
vt 0.646632 0.296345
vt 0.664258 0.292399
vt 0.635220 0.306329
vt 0.646632 0.296345
vt 0.646632 0.296345
vt 0.664258 0.292399
vt 0.635220 0.306329
vt 0.587070 0.372203
vt 0.538693 0.402101
vt 0.587070 0.372203
vt 0.578509 0.416580
vt 0.671739 0.408149
vt 0.673957 0.343344
vt 0.673957 0.343344
vt 0.693341 0.298076
vt 0.673957 0.343344
vt 0.673957 0.343344
vt 0.693341 0.298076
vt 0.662103 0.332915
vt 0.662103 0.332915
vt 0.642970 0.336417
vt 0.662103 0.332915
vt 0.662103 0.332915
vt 0.642970 0.336417
vt 0.736927 0.379781
vt 0.706989 0.343015
vt 0.706989 0.343015
vt 0.747689 0.309128
vt 0.747689 0.309128
vt 0.718638 0.265957
vt 0.706989 0.343015
vt 0.706989 0.343015
vt 0.655853 0.374205
vt 0.655853 0.374205
f 501/501/501 499/499/499 506/506/506
f 506/506/506 509/509/509 501/501/501
f 509/509/509 506/506/506 515/515/515
f 515/515/515 518/518/518 509/509/509
f 515/515/515 533/533/533 535/535/535
f 535/535/535 518/518/518 515/515/515
f 533/533/533 527/527/527 545/545/545
f 545/545/545 535/535/535 533/533/533
f 527/527/527 542/542/542 536/536/536
f 536/536/536 545/545/545 527/527/527
f 539/539/539 536/536/536 542/542/542
f 545/545/545 536/536/536 523/523/523
f 545/545/545 523/523/523 522/522/522
f 522/522/522 521/521/521 545/545/545
f 521/521/521 522/522/522 520/520/520
f 521/521/521 520/520/520 493/493/493
f 492/492/492 493/493/493 496/496/496
f 496/496/496 495/495/495 492/492/492
f 495/495/495 496/496/496 498/498/498
f 498/498/498 497/497/497 495/495/495
f 497/497/497 501/501/501 509/509/509
f 521/521/521 535/535/535 545/545/545
f 492/492/492 518/518/518 535/535/535
f 509/509/509 518/518/518 495/495/495
f 509/509/509 495/495/495 497/497/497
f 492/492/492 495/495/495 518/518/518
f 521/521/521 492/492/492 535/535/535
f 493/493/493 492/492/492 521/521/521
f 500/500/500 510/510/510 508/508/508
f 508/508/508 507/507/507 500/500/500
f 507/507/507 508/508/508 517/517/517
f 517/517/517 516/516/516 507/507/507
f 517/517/517 529/529/529 534/534/534
f 534/534/534 516/516/516 517/517/517
f 534/534/534 529/529/529 528/528/528
f 528/528/528 529/529/529 543/543/543
f 543/543/543 529/529/529 541/541/541
f 541/541/541 540/540/540 543/543/543
f 501/501/501 505/505/505 502/502/502
f 502/502/502 499/499/499 501/501/501
f 505/505/505 514/514/514 511/511/511
f 511/511/511 502/502/502 505/505/505
f 511/511/511 514/514/514 532/532/532
f 532/532/532 530/530/530 511/511/511
f 530/530/530 532/532/532 544/544/544
f 544/544/544 524/524/524 530/530/530
f 524/524/524 544/544/544 536/536/536
f 536/536/536 537/537/537 524/524/524
f 539/539/539 537/537/537 536/536/536
f 544/544/544 523/523/523 536/536/536
f 544/544/544 519/519/519 522/522/522
f 522/522/522 523/523/523 544/544/544
f 519/519/519 520/520/520 522/522/522
f 519/519/519 493/493/493 520/520/520
f 491/491/491 494/494/494 496/496/496
f 496/496/496 493/493/493 491/491/491
f 494/494/494 497/497/497 498/498/498
f 498/498/498 496/496/496 494/494/494
f 497/497/497 505/505/505 501/501/501
f 519/519/519 544/544/544 532/532/532
f 491/491/491 532/532/532 514/514/514
f 505/505/505 494/494/494 514/514/514
f 505/505/505 497/497/497 494/494/494
f 491/491/491 514/514/514 494/494/494
f 519/519/519 532/532/532 491/491/491
f 493/493/493 519/519/519 491/491/491
f 500/500/500 503/503/503 504/504/504
f 504/504/504 510/510/510 500/500/500
f 503/503/503 512/512/512 513/513/513
f 513/513/513 504/504/504 503/503/503
f 513/513/513 512/512/512 531/531/531
f 531/531/531 526/526/526 513/513/513
f 531/531/531 525/525/525 526/526/526
f 525/525/525 538/538/538 526/526/526
f 538/538/538 540/540/540 541/541/541
f 541/541/541 526/526/526 538/538/538
