# WC3 MDX geosets → Unity Y-up
mtllib materials.mtl
usemtl Faceless
o Model
v 0.027290 0.726348 0.128543
v -0.031368 0.768662 0.155918
v 0.060118 0.843423 0.144274
v 0.083719 0.741541 0.087410
v 0.115311 0.756735 0.001102
v 0.100404 0.675285 0.072128
v 0.027661 0.675291 0.105658
v 0.027661 0.675291 -0.103453
v 0.083719 0.741541 -0.085205
v 0.027290 0.726348 -0.126338
v 0.060118 0.843423 -0.142069
v 0.075027 0.876205 0.001102
v -0.023329 0.930183 0.136211
v -0.033780 0.743998 -0.150840
v 0.101388 0.675281 -0.073157
v 0.100404 0.675285 0.072128
v -0.023329 0.930183 -0.134006
v -0.041004 0.994405 0.001102
v -0.201317 0.793942 -0.194116
v -0.103275 0.890574 -0.338464
v -0.195611 0.873508 -0.142293
v -0.074642 0.837227 -0.331251
v -0.124809 0.741078 -0.340755
v -0.033780 0.743998 -0.150840
v -0.088550 0.687108 -0.175415
v -0.179473 0.699362 -0.222124
v 0.100404 0.675285 0.072128
v 0.107377 0.564617 -0.058109
v 0.107421 0.564687 0.057709
v 0.101388 0.675281 -0.073157
v 0.017520 0.631898 -0.127627
v 0.027661 0.675291 -0.103453
v 0.028184 0.698657 0.255886
v -0.051339 0.704683 0.323588
v -0.047756 0.808805 0.295872
v 0.026490 0.811106 0.225564
v -0.044204 0.667369 0.188264
v -0.031368 0.768662 0.155918
v 0.027290 0.726348 0.128543
v -0.169757 0.752555 0.093274
v -0.031368 0.768662 0.155918
v -0.195611 0.873508 0.144498
v -0.236023 0.873508 0.001102
v -0.123850 0.939061 0.085066
v -0.125264 0.984458 0.001102
v -0.023329 0.930183 0.136211
v -0.041004 0.994405 0.001102
v -0.123850 0.939061 -0.082862
v -0.187926 0.752555 0.001102
v -0.102812 0.675287 0.073014
v -0.102812 0.675287 0.073014
v -0.103705 0.675281 -0.073229
v -0.169757 0.752555 -0.091069
v -0.195611 0.873508 -0.142293
v -0.023329 0.930183 -0.134006
v 0.027661 0.675291 -0.103453
v 0.027290 0.726348 -0.126338
v -0.033780 0.743998 -0.150840
v 0.027661 0.675291 0.105658
v -0.100892 0.570694 0.053844
v -0.100916 0.570746 -0.054589
v -0.103705 0.675281 -0.073229
v -0.102812 0.675287 0.073014
v 0.017520 0.631898 -0.127627
v 0.027661 0.675291 -0.103453
v 0.017520 0.631898 0.129832
v 0.027661 0.675291 0.105658
v 0.100404 0.675285 0.072128
v 0.107421 0.564687 0.057709
v 0.017520 0.631898 0.129832
v -0.100892 0.570694 0.053844
v -0.102812 0.675287 0.073014
v 0.027661 0.675291 0.105658
v -0.033780 0.743998 -0.150840
v 0.060118 0.843423 -0.142069
v 0.019934 0.792042 -0.237313
v -0.103275 0.890574 -0.338464
v -0.074642 0.837227 -0.331251
v -0.088550 0.687108 -0.175415
v -0.029547 0.721809 -0.295191
v -0.124809 0.741078 -0.340755
v -0.047756 0.808805 0.295872
v -0.067148 0.850662 0.361613
v 0.026490 0.811106 0.225564
v 0.060118 0.843423 0.144274
v -0.031368 0.768662 0.155918
v -0.147763 0.803432 0.215408
v -0.031368 0.768662 0.155918
v -0.195611 0.873508 0.144498
v -0.067148 0.850662 0.361613
v -0.047756 0.808805 0.295872
v -0.051339 0.704683 0.323588
v -0.134529 0.682220 0.243414
v -0.147763 0.803432 0.215408
v -0.047756 0.808805 0.295872
v -0.044204 0.667369 0.188264
v -0.031368 0.768662 0.155918
vn 0.161229 -0.459260 0.873547
vn 0.175543 -0.982911 -0.055410
vn 0.897763 -0.081505 0.432873
vn 0.746314 -0.111577 0.656175
vn 0.992144 0.125096 0.000581
vn 0.901152 0.019433 0.433067
vn 0.141452 0.077182 0.986932
vn 0.130724 0.090556 -0.987275
vn 0.740909 -0.098021 -0.664413
vn 0.172069 -0.567892 -0.804917
vn 0.897462 -0.030783 -0.440017
vn 0.809474 0.587156 -0.000001
vn 0.295822 0.862287 0.411036
vn 0.189220 -0.944397 -0.268904
vn 0.816827 0.059858 -0.573768
vn 0.901152 0.019433 0.433067
vn 0.295822 0.862286 -0.411037
vn 0.332144 0.943229 -0.000001
vn -0.978223 -0.168907 0.120627
vn -0.051711 0.252283 -0.966271
vn -0.979549 0.087058 -0.181399
vn -0.062419 0.068756 -0.995679
vn -0.294211 0.041452 -0.954841
vn 0.189220 -0.944397 -0.268904
vn 0.243666 -0.658439 0.712099
vn -0.923135 -0.288474 0.254174
vn 0.901152 0.019433 0.433067
vn 0.953575 0.014201 -0.300820
vn 0.893085 -0.001994 0.449883
vn 0.816827 0.059858 -0.573768
vn 0.071704 0.190004 -0.979161
vn 0.130724 0.090556 -0.987275
vn 0.929787 0.094128 0.355860
vn -0.011474 0.218394 0.975793
vn 0.101818 -0.388050 0.915997
vn 0.952379 -0.288645 0.098273
vn 0.166949 -0.294961 -0.940811
vn 0.175543 -0.982911 -0.055410
vn 0.161229 -0.459260 0.873547
vn -0.571544 -0.534721 0.622424
vn 0.175543 -0.982911 -0.055410
vn -0.907893 -0.146296 0.392846
vn -0.969239 0.246121 -0.000000
vn -0.425765 0.805186 0.412796
vn -0.358175 0.933654 -0.000000
vn 0.295822 0.862287 0.411036
vn 0.332144 0.943229 -0.000001
vn -0.425764 0.805186 -0.412796
vn -0.817256 -0.576274 0.000596
vn -0.802387 -0.370508 0.467867
vn -0.802387 -0.370508 0.467867
vn -0.795958 -0.321354 -0.513013
vn -0.585308 -0.577383 -0.569248
vn -0.979549 0.087058 -0.181399
vn 0.295822 0.862286 -0.411037
vn 0.130724 0.090556 -0.987275
vn 0.172069 -0.567892 -0.804917
vn 0.189220 -0.944397 -0.268904
vn 0.141452 0.077182 0.986932
vn -0.855189 -0.110894 0.506314
vn -0.850945 -0.114125 -0.512706
vn -0.795958 -0.321354 -0.513013
vn -0.802387 -0.370508 0.467867
vn 0.071704 0.190004 -0.979161
vn 0.130724 0.090556 -0.987275
vn 0.078874 0.192147 0.978191
vn 0.141452 0.077182 0.986932
vn 0.901152 0.019433 0.433067
vn 0.893085 -0.001994 0.449883
vn 0.078874 0.192147 0.978191
vn -0.855189 -0.110894 0.506314
vn -0.802387 -0.370508 0.467867
vn 0.141452 0.077182 0.986932
vn 0.189220 -0.944397 -0.268904
vn 0.897462 -0.030783 -0.440017
vn 0.910311 -0.264928 -0.318038
vn -0.051711 0.252283 -0.966271
vn -0.062419 0.068756 -0.995679
vn 0.243666 -0.658439 0.712099
vn 0.758867 -0.292376 -0.581925
vn -0.294211 0.041452 -0.954841
vn 0.101818 -0.388050 0.915997
vn 0.092995 -0.521238 0.848330
vn 0.952379 -0.288645 0.098273
vn 0.897763 -0.081505 0.432873
vn 0.175543 -0.982911 -0.055410
vn -0.907568 -0.414459 0.067413
vn 0.175543 -0.982911 -0.055410
vn -0.907893 -0.146296 0.392846
vn 0.092995 -0.521238 0.848330
vn 0.101818 -0.388050 0.915997
vn -0.011474 0.218394 0.975793
vn -0.988463 -0.126993 -0.082546
vn -0.907568 -0.414459 0.067413
vn 0.101818 -0.388050 0.915997
vn 0.166949 -0.294961 -0.940811
vn 0.175543 -0.982911 -0.055410
vt 0.731015 0.493441
vt 0.533110 0.539667
vt 0.729383 0.587246
vt 0.696927 0.497787
vt 0.605061 0.546294
vt 0.689528 0.455493
vt 0.709288 0.455493
vt 0.708577 0.455493
vt 0.696927 0.497787
vt 0.731015 0.493441
vt 0.729383 0.587246
vt 0.642735 0.583757
vt 0.728081 0.618216
vt 0.734982 0.539519
vt 0.689528 0.455493
vt 0.676587 0.514371
vt 0.728081 0.618216
vt 0.641400 0.635685
vt -0.352798 0.580084
vt -0.497100 0.622412
vt -0.281920 0.612591
vt -0.436199 0.585430
vt -0.431181 0.552035
vt -0.288096 0.545501
vt -0.302650 0.532804
vt -0.378561 0.554851
vt 0.640333 0.465261
vt 0.679629 0.384839
vt 0.638535 0.374360
vt 0.689528 0.455493
vt 0.724009 0.427790
vt 0.708577 0.455493
vt 0.625279 0.557083
vt 0.682432 0.552945
vt 0.663792 0.607292
vt 0.620170 0.614414
vt 0.551648 0.542247
vt 0.543027 0.591551
vt -0.414446 0.388491
vt -0.433936 0.399091
vt -0.288096 0.545501
vt -0.281920 0.612591
vt -0.408515 0.588414
vt -0.466129 0.634075
vt -0.430637 0.624816
vt -0.501754 0.627891
vt -0.430679 0.641658
vt -0.466129 0.634075
vt -0.503555 0.442513
vt -0.406528 0.445555
vt -0.434391 0.398858
vt -0.406528 0.445555
vt -0.433936 0.399091
vt -0.281920 0.612591
vt -0.501754 0.627891
vt -0.504180 0.442599
vt -0.500587 0.488832
vt -0.288096 0.545501
vt -0.394378 0.427871
vt -0.413585 0.529586
vt -0.392804 0.502209
vt -0.406528 0.445555
vt -0.461422 0.469114
vt -0.491457 0.432698
vt -0.394378 0.427871
vt 0.724009 0.427790
vt 0.708577 0.455493
vt 0.689528 0.455493
vt 0.679629 0.384839
vt -0.491457 0.432698
vt -0.392804 0.502209
vt -0.406528 0.445555
vt -0.394378 0.427871
vt 0.734982 0.539519
vt 0.729383 0.587246
vt 0.598527 0.621657
vt 0.709254 0.650557
vt 0.654198 0.613447
vt 0.555884 0.544110
vt 0.631400 0.555025
vt 0.680834 0.555456
vt 0.654198 0.613447
vt 0.709254 0.650557
vt 0.598527 0.621657
vt 0.729383 0.587246
vt 0.533110 0.539667
vt -0.352798 0.580084
vt -0.288096 0.545501
vt -0.281920 0.612591
vt -0.497100 0.622412
vt -0.436199 0.585430
vt -0.430925 0.549473
vt -0.379852 0.558323
vt -0.362721 0.572699
vt -0.453131 0.565390
vt -0.316175 0.540285
vt -0.307028 0.565823
f 3/3/3 2/2/2 1/1/1
f 4/4/4 3/3/3 1/1/1
f 5/5/5 3/3/3 4/4/4
f 5/5/5 4/4/4 6/6/6
f 4/4/4 1/1/1 7/7/7
f 4/4/4 7/7/7 6/6/6
f 10/10/10 9/9/9 8/8/8
f 11/11/11 9/9/9 10/10/10
f 11/11/11 5/5/5 9/9/9
f 11/11/11 12/12/12 5/5/5
f 12/12/12 3/3/3 5/5/5
f 12/12/12 13/13/13 3/3/3
f 14/14/14 11/11/11 10/10/10
f 5/5/5 16/16/16 15/15/15
f 9/9/9 5/5/5 15/15/15
f 8/8/8 9/9/9 15/15/15
f 17/17/17 12/12/12 11/11/11
f 12/12/12 17/17/17 18/18/18
f 13/13/13 12/12/12 18/18/18
f 21/21/21 20/20/20 19/19/19
f 19/19/19 20/20/20 22/22/22
f 19/19/19 22/22/22 23/23/23
f 24/24/24 21/21/21 19/19/19
f 24/24/24 19/19/19 25/25/25
f 25/25/25 19/19/19 26/26/26
f 26/26/26 19/19/19 23/23/23
f 29/29/29 28/28/28 27/27/27
f 30/30/30 27/27/27 28/28/28
f 30/30/30 28/28/28 31/31/31
f 32/32/32 30/30/30 31/31/31
f 35/35/35 34/34/34 33/33/33
f 36/36/36 35/35/35 33/33/33
f 36/36/36 33/33/33 37/37/37
f 38/38/38 36/36/36 37/37/37
f 41/41/41 40/40/40 39/39/39
f 42/42/42 40/40/40 41/41/41
f 43/43/43 40/40/40 42/42/42
f 44/44/44 43/43/43 42/42/42
f 44/44/44 45/45/45 43/43/43
f 46/46/46 45/45/45 44/44/44
f 46/46/46 47/47/47 45/45/45
f 46/46/46 44/44/44 42/42/42
f 45/45/45 48/48/48 43/43/43
f 49/49/49 40/40/40 43/43/43
f 40/40/40 49/49/49 50/50/50
f 52/52/52 51/51/51 49/49/49
f 49/49/49 53/53/53 52/52/52
f 53/53/53 49/49/49 43/43/43
f 53/53/53 43/43/43 54/54/54
f 43/43/43 48/48/48 54/54/54
f 48/48/48 55/55/55 54/54/54
f 45/45/45 55/55/55 48/48/48
f 47/47/47 55/55/55 45/45/45
f 52/52/52 53/53/53 56/56/56
f 53/53/53 57/57/57 56/56/56
f 53/53/53 58/58/58 57/57/57
f 53/53/53 54/54/54 58/58/58
f 39/39/39 40/40/40 59/59/59
f 40/40/40 50/50/50 59/59/59
f 61/61/61 60/60/60 62/62/62
f 63/63/63 62/62/62 60/60/60
f 62/62/62 65/65/65 64/64/64
f 62/62/62 64/64/64 61/61/61
f 68/68/68 67/67/67 66/66/66
f 69/69/69 68/68/68 66/66/66
f 70/70/70 72/72/72 71/71/71
f 73/73/73 72/72/72 70/70/70
f 76/76/76 75/75/75 74/74/74
f 77/77/77 75/75/75 76/76/76
f 77/77/77 76/76/76 78/78/78
f 76/76/76 74/74/74 79/79/79
f 80/80/80 76/76/76 79/79/79
f 78/78/78 76/76/76 80/80/80
f 81/81/81 78/78/78 80/80/80
f 84/84/84 83/83/83 82/82/82
f 85/85/85 83/83/83 84/84/84
f 85/85/85 84/84/84 86/86/86
f 89/89/89 88/88/88 87/87/87
f 90/90/90 89/89/89 87/87/87
f 90/90/90 87/87/87 91/91/91
f 94/94/94 93/93/93 92/92/92
f 95/95/95 94/94/94 92/92/92
f 94/94/94 97/97/97 96/96/96
f 94/94/94 96/96/96 93/93/93
v 0.060118 0.843423 -0.142069
v -0.023329 0.930183 -0.134006
v -0.057694 0.937396 -0.169034
v -0.103275 0.890574 -0.338464
v -0.057694 0.937396 -0.169034
v -0.023329 0.930183 -0.134006
v -0.195611 0.873508 -0.142293
v -0.103275 0.890574 -0.338464
v 0.060118 0.843423 0.144274
v -0.067148 0.850662 0.361613
v -0.056259 0.932869 0.200060
v -0.023329 0.930183 0.136211
v -0.067148 0.850662 0.361613
v -0.195611 0.873508 0.144498
v -0.056259 0.932869 0.200060
v -0.023329 0.930183 0.136211
vn 0.623297 0.661960 -0.416305
vn 0.210605 0.977557 -0.005322
vn 0.148270 0.977517 -0.149924
vn 0.116392 0.948840 -0.293524
vn 0.148270 0.977517 -0.149924
vn 0.210605 0.977557 -0.005322
vn -0.385500 0.905795 0.175854
vn 0.116392 0.948840 -0.293524
vn 0.670299 0.657384 0.344305
vn 0.114489 0.882248 0.456652
vn 0.152681 0.952287 0.264269
vn 0.215445 0.973993 0.070143
vn 0.114489 0.882248 0.456652
vn -0.420101 0.903127 0.088753
vn 0.152681 0.952287 0.264269
vn 0.215445 0.973993 0.070143
vt 0.793144 0.847712
vt 0.786380 0.920486
vt 0.839937 0.922738
vt 0.975447 0.853783
vt 0.361631 0.922778
vt 0.414946 0.920536
vt 0.406074 0.841985
vt 0.225430 0.850230
vt 0.793144 0.847712
vt 0.975447 0.853783
vt 0.839937 0.922738
vt 0.786380 0.920486
vt 0.225430 0.850230
vt 0.406074 0.841985
vt 0.361631 0.922778
vt 0.414946 0.920536
f 100/100/100 99/99/99 98/98/98
f 101/101/101 100/100/100 98/98/98
f 104/104/104 103/103/103 102/102/102
f 104/104/104 102/102/102 105/105/105
f 108/108/108 107/107/107 106/106/106
f 109/109/109 108/108/108 106/106/106
f 112/112/112 111/111/111 110/110/110
f 113/113/113 111/111/111 112/112/112
v -0.063162 0.091169 -0.735959
v 0.336225 0.091169 -0.422057
v -0.093350 0.091169 -0.471002
v 0.366413 0.091169 -0.687014
v -0.096426 0.047014 -0.647619
v -0.138780 0.085529 -0.709195
v -0.185965 0.064714 -0.670791
v -0.093116 0.128446 -0.694793
v -0.045074 0.110319 -0.653753
v -0.058149 0.185515 -0.628956
v -0.047141 0.101440 -0.588656
v -0.048007 0.152945 -0.551913
v -0.100335 0.103849 -0.511832
v -0.097462 0.191597 -0.543917
v -0.144646 0.170781 -0.505513
v -0.187001 0.209297 -0.567090
v -0.190310 0.127863 -0.519916
v -0.076715 0.049070 -0.565909
v -0.139990 0.037707 -0.564654
v -0.173353 0.066906 -0.519510
v -0.170421 0.024279 -0.621351
v -0.238353 0.145992 -0.560955
v -0.225279 0.070796 -0.585752
v -0.236285 0.154870 -0.626053
v -0.235419 0.103365 -0.662795
v -0.185965 0.064714 -0.670791
v -0.206711 0.207241 -0.648798
v -0.170421 0.024279 -0.621351
v -0.139990 0.037707 -0.564654
v -0.173353 0.066906 -0.519510
v -0.113006 0.232031 -0.593358
v -0.143436 0.218603 -0.650055
v -0.183090 0.152461 -0.702878
v -0.235419 0.103365 -0.662795
v -0.110072 0.189405 -0.695197
v -0.110072 0.189405 -0.695197
v -0.093116 0.128446 -0.694793
v -0.138780 0.085529 -0.709195
v 0.052463 0.124704 -0.638816
v 0.116337 0.124706 -0.078185
v -0.335886 0.124706 -0.594570
v -0.272010 0.124706 -0.033938
v -0.511465 0.091169 -0.366932
v -0.376096 0.091169 -0.632610
v -0.273859 0.091169 -0.245867
v -0.138491 0.091169 -0.511543
v -0.007224 0.091169 -0.223528
v -0.144412 0.091169 0.186483
v -0.260114 0.091169 -0.308145
v -0.397302 0.091169 0.101866
v -0.078097 0.124706 -0.034004
v -0.108255 0.124706 0.397296
v -0.281166 0.124706 -0.048204
v -0.311326 0.124706 0.383097
v 0.273255 0.124706 0.287861
v 0.231047 0.124706 -0.095208
v 0.413230 0.124706 0.202084
v 0.091074 0.124706 -0.009431
v 0.101389 0.091169 0.109334
v 0.102574 0.091169 -0.300324
v 0.284757 0.091169 -0.003033
v -0.080791 0.091169 -0.187957
vn 0.000000 1.000000 0.000000
vn 0.000000 1.000000 0.000000
vn 0.000000 1.000000 0.000000
vn 0.000000 1.000000 0.000000
vn 0.447191 -0.801219 -0.397578
vn 0.052078 -0.417516 -0.907176
vn -0.490790 -0.682220 -0.541942
vn 0.423686 0.006644 -0.905785
vn 0.884430 -0.182462 -0.429525
vn 0.806350 0.553489 -0.208444
vn 0.948240 -0.280082 0.149650
vn 0.846911 0.236317 0.476336
vn 0.387070 -0.227379 0.893575
vn 0.421497 0.663676 0.617960
vn -0.053130 0.418786 0.906530
vn -0.447191 0.801221 0.397575
vn -0.511284 0.023399 0.859093
vn 0.590577 -0.734513 0.334231
vn -0.088921 -0.918287 0.385799
vn -0.304311 -0.554272 0.774711
vn -0.247831 -0.959111 -0.136698
vn -0.884426 0.182469 0.429530
vn -0.806352 -0.553486 0.208446
vn -0.948237 0.280086 -0.149657
vn -0.846597 -0.235725 -0.477188
vn -0.490790 -0.682220 -0.541942
vn -0.590574 0.734517 -0.334228
vn -0.247831 -0.959111 -0.136698
vn -0.088921 -0.918287 0.385799
vn -0.304311 -0.554272 0.774711
vn 0.247204 0.959231 0.136987
vn -0.015456 0.920355 -0.390779
vn -0.387066 0.227381 -0.893576
vn -0.846597 -0.235725 -0.477188
vn 0.304326 0.554285 -0.774696
vn 0.304326 0.554285 -0.774696
vn 0.423686 0.006644 -0.905785
vn 0.052078 -0.417516 -0.907176
vn 0.000005 1.000000 -0.000004
vn 0.000002 1.000000 -0.000002
vn 0.000002 1.000000 -0.000002
vn 0.000000 1.000000 0.000000
vn 0.000000 1.000000 0.000000
vn 0.000000 1.000000 0.000000
vn 0.000000 1.000000 0.000000
vn 0.000000 1.000000 0.000000
vn 0.000000 1.000000 0.000000
vn 0.000000 1.000000 0.000000
vn 0.000000 1.000000 0.000000
vn 0.000000 1.000000 0.000000
vn 0.000000 1.000000 0.000000
vn 0.000000 1.000000 0.000000
vn 0.000000 1.000000 0.000000
vn 0.000000 1.000000 0.000000
vn 0.000000 1.000000 0.000000
vn 0.000000 1.000000 0.000000
vn 0.000000 1.000000 0.000000
vn 0.000000 1.000000 0.000000
vn 0.000000 1.000000 0.000000
vn 0.000000 1.000000 0.000000
vn 0.000000 1.000000 0.000000
vn 0.000000 1.000000 0.000000
vt 0.317742 0.004831
vt 0.619104 0.504831
vt 0.625025 0.007246
vt 0.319716 0.495169
vt 0.743443 0.747175
vt 0.743443 0.878016
vt 0.720412 0.878015
vt 0.766475 0.878016
vt 0.766475 0.747175
vt 0.784386 0.747175
vt 0.766475 0.616335
vt 0.784386 0.616335
vt 0.807417 0.616335
vt 0.802296 0.616335
vt 0.825328 0.616335
vt 0.825328 0.747175
vt 0.848360 0.616335
vt 0.743443 0.616335
vt 0.720412 0.616335
vt 0.784386 0.616335
vt 0.720412 0.747175
vt 0.848360 0.747175
vt 0.886635 0.747175
vt 0.848360 0.878015
vt 0.886635 0.878015
vt 0.924911 0.878015
vt 0.825328 0.878015
vt 0.924911 0.747175
vt 0.924911 0.616335
vt 0.886635 0.616335
vt 0.802296 0.747175
vt 0.802296 0.878016
vt 0.761354 0.878016
vt 0.784386 0.878015
vt 0.738322 0.878016
vt 0.784386 0.878016
vt 0.674348 0.878016
vt 0.697380 0.878016
vt 0.635485 0.495169
vt 0.633511 0.004831
vt 0.994079 0.497585
vt 1.000000 0.000000
vt 0.319716 0.495169
vt 0.317742 0.004831
vt 0.619104 0.504831
vt 0.625025 0.007246
vt 0.005921 0.995169
vt 0.003947 0.504831
vt 0.305309 1.004831
vt 0.311229 0.507246
vt 0.005921 0.492754
vt 0.003947 0.002415
vt 0.305309 0.502415
vt 0.311229 0.004831
vt 0.003947 0.002415
vt 0.305309 0.502415
vt 0.311229 0.004831
vt 0.005921 0.492754
vt 0.003947 0.504831
vt 0.305309 1.004831
vt 0.311229 0.507246
vt 0.005921 0.995169
f 116/116/116 115/115/115 114/114/114
f 117/117/117 114/114/114 115/115/115
f 120/120/120 119/119/119 118/118/118
f 118/118/118 119/119/119 121/121/121
f 121/121/121 122/122/122 118/118/118
f 123/123/123 122/122/122 121/121/121
f 124/124/124 122/122/122 123/123/123
f 123/123/123 125/125/125 124/124/124
f 124/124/124 125/125/125 126/126/126
f 126/126/126 125/125/125 127/127/127
f 127/127/127 128/128/128 126/126/126
f 129/129/129 128/128/128 127/127/127
f 126/126/126 128/128/128 130/130/130
f 126/126/126 131/131/131 124/124/124
f 118/118/118 122/122/122 124/124/124
f 124/124/124 131/131/131 118/118/118
f 118/118/118 131/131/131 132/132/132
f 132/132/132 131/131/131 126/126/126
f 126/126/126 133/133/133 132/132/132
f 130/130/130 133/133/133 126/126/126
f 118/118/118 134/134/134 120/120/120
f 132/132/132 134/134/134 118/118/118
f 130/130/130 128/128/128 129/129/129
f 129/129/129 135/135/135 130/130/130
f 130/130/130 135/135/135 136/136/136
f 136/136/136 135/135/135 137/137/137
f 137/137/137 138/138/138 136/136/136
f 136/136/136 138/138/138 139/139/139
f 129/129/129 140/140/140 137/137/137
f 137/137/137 135/135/135 129/129/129
f 139/139/139 141/141/141 136/136/136
f 136/136/136 141/141/141 142/142/142
f 142/142/142 143/143/143 136/136/136
f 136/136/136 143/143/143 130/130/130
f 127/127/127 125/125/125 123/123/123
f 123/123/123 144/144/144 127/127/127
f 127/127/127 144/144/144 129/129/129
f 129/129/129 144/144/144 145/145/145
f 145/145/145 140/140/140 129/129/129
f 146/146/146 140/140/140 145/145/145
f 137/137/137 140/140/140 146/146/146
f 146/146/146 147/147/147 137/137/137
f 145/145/145 148/148/148 146/146/146
f 145/145/145 144/144/144 123/123/123
f 123/123/123 149/149/149 145/145/145
f 121/121/121 149/149/149 123/123/123
f 120/120/120 147/147/147 146/146/146
f 146/146/146 148/148/148 150/150/150
f 150/150/150 151/151/151 146/146/146
f 146/146/146 151/151/151 120/120/120
f 154/154/154 153/153/153 152/152/152
f 153/153/153 154/154/154 155/155/155
f 158/158/158 157/157/157 156/156/156
f 157/157/157 158/158/158 159/159/159
f 162/162/162 161/161/161 160/160/160
f 161/161/161 162/162/162 163/163/163
f 166/166/166 165/165/165 164/164/164
f 165/165/165 166/166/166 167/167/167
f 170/170/170 169/169/169 168/168/168
f 171/171/171 168/168/168 169/169/169
f 174/174/174 173/173/173 172/172/172
f 175/175/175 172/172/172 173/173/173
v 0.160869 0.872873 0.001102
v 0.105145 0.934026 -0.037812
v 0.037629 1.011350 -0.062094
v -0.011408 1.059200 0.001102
v -0.104326 1.091260 0.001102
v 0.037629 1.011350 0.064300
v 0.073015 1.051030 0.001102
v 0.108765 0.996175 -0.056114
v 0.108765 0.996175 0.058319
v 0.126992 1.002680 0.001102
v 0.143702 0.970854 0.001102
v 0.142621 0.930507 0.000987
v 0.105145 0.934026 0.040016
v 0.037629 1.011350 -0.062094
v -0.033782 1.041060 -0.107503
v 0.105145 0.934026 -0.037812
v 0.142621 0.930507 0.000987
v 0.105145 0.934026 0.040016
v -0.033782 1.041060 0.109708
v 0.037629 1.011350 0.064300
v -0.104326 1.091260 0.001102
v -0.104326 1.091260 0.001102
v 0.175172 0.713031 0.001102
v 0.129306 0.754807 -0.137441
v 0.094673 0.871679 0.099003
v 0.129306 0.754807 0.139646
v 0.075027 0.876205 0.001102
v 0.094673 0.871679 -0.096798
v 0.037391 0.917297 -0.069678
v -0.019807 0.955328 -0.134427
v 0.037391 0.917297 -0.069678
v -0.019807 0.955328 0.136632
v -0.058478 0.993910 0.089106
v 0.037391 0.917297 0.071883
v 0.037391 0.917297 0.071883
v 0.080159 0.882881 0.034210
v 0.125111 0.816455 -0.281443
v 0.080159 0.882881 -0.032005
v 0.060118 0.843423 -0.142069
v 0.060118 0.843423 -0.142069
v 0.060118 0.843423 -0.142069
v -0.058478 0.993910 -0.086902
v -0.058478 0.993910 -0.086902
v -0.058478 0.993910 -0.086902
v 0.037391 0.917297 -0.069678
v 0.037391 0.917297 -0.069678
v -0.041004 0.994405 0.001102
v -0.041004 0.994405 0.001102
v -0.058478 0.993910 0.089106
v -0.041004 0.994405 0.001102
v -0.041004 0.994405 0.001102
v -0.058478 0.993910 0.089106
v 0.037391 0.917297 0.071883
v 0.037391 0.917297 0.071883
vn 0.947093 0.320957 -0.000406
vn 0.585245 -0.118453 -0.802158
vn 0.764879 0.374699 -0.523985
vn 0.141739 0.989904 -0.000001
vn -0.994938 -0.100488 -0.000000
vn 0.035210 0.137044 0.989939
vn 0.375356 0.926881 -0.000001
vn 0.629447 0.358292 -0.689510
vn 0.629448 0.358292 0.689508
vn 0.788221 0.615392 -0.000001
vn 0.996176 0.087363 -0.000425
vn 0.980030 -0.198845 -0.001616
vn 0.586159 -0.118704 0.801453
vn 0.764879 0.374699 -0.523985
vn -0.096951 0.291818 -0.951547
vn 0.585245 -0.118453 -0.802158
vn 0.980030 -0.198845 -0.001616
vn 0.586159 -0.118704 0.801453
vn -0.065526 -0.197880 0.978034
vn 0.035210 0.137044 0.989939
vn -0.994938 -0.100488 -0.000000
vn -0.994938 -0.100488 -0.000000
vn 0.996020 0.089126 -0.000000
vn 0.875690 0.250391 -0.412883
vn 0.599574 0.503044 0.622461
vn 0.875690 0.250391 0.412881
vn 0.000000 0.000000 0.000000
vn 0.599574 0.503043 -0.622462
vn 0.576464 -0.423922 -0.698555
vn 0.986831 0.141381 0.078591
vn 0.576464 -0.423922 -0.698555
vn -0.119760 -0.175741 0.977125
vn -0.822083 -0.468627 0.323372
vn -0.078236 -0.313650 0.946310
vn -0.078236 -0.313650 0.946310
vn 0.561169 -0.358821 0.745880
vn 0.000000 0.000000 0.000000
vn 0.560169 -0.358440 -0.746814
vn 0.000000 0.000000 0.000000
vn 0.000000 0.000000 0.000000
vn 0.000000 0.000000 0.000000
vn -0.822082 -0.468627 -0.323371
vn -0.822082 -0.468627 -0.323371
vn -0.822082 -0.468627 -0.323371
vn 0.576464 -0.423922 -0.698555
vn 0.576464 -0.423922 -0.698555
vn -0.745825 -0.666141 0.000000
vn -0.745825 -0.666141 0.000000
vn -0.822083 -0.468627 0.323372
vn -0.745825 -0.666141 0.000000
vn -0.745825 -0.666141 0.000000
vn -0.822083 -0.468627 0.323372
vn -0.078236 -0.313650 0.946310
vn -0.078236 -0.313650 0.946310
vt 0.007525 0.439711
vt 0.143303 0.581541
vt 0.094102 0.643949
vt 0.007228 0.770696
vt 0.007047 0.817293
vt 0.094102 0.643949
vt 0.007002 0.722444
vt 0.138745 0.672781
vt 0.138745 0.672781
vt 0.007263 0.664146
vt 0.059551 0.628331
vt 0.059551 0.558575
vt 0.143303 0.581541
vt 0.009926 0.831418
vt 0.041352 0.938144
vt 0.070805 0.443722
vt 0.056827 0.486563
vt 0.070805 0.443722
vt 0.041352 0.938144
vt 0.009926 0.831418
vt 0.172261 0.690595
vt 0.172261 0.690595
vt 0.007458 0.163350
vt 0.251320 0.232326
vt 0.182998 0.437644
vt 0.251320 0.232326
vt 0.674243 0.875210
vt 0.182998 0.437644
vt 0.133103 0.518717
vt 0.124539 0.844914
vt 0.115275 0.746548
vt 0.124539 0.844914
vt 0.160405 0.694378
vt 0.133103 0.518717
vt 0.115275 0.746548
vt 0.119902 0.420488
vt 0.277549 0.109922
vt 0.119902 0.420488
vt 0.793144 0.847712
vt 0.274819 0.234107
vt 0.793144 0.847712
vt 0.160405 0.694378
vt 0.150804 0.561615
vt 0.150804 0.561615
vt 0.073922 0.419052
vt 0.206530 0.506368
vt 0.224248 0.608991
vt 0.224248 0.608991
vt 0.151102 0.561805
vt 0.224248 0.608991
vt 0.224248 0.608991
vt 0.151102 0.561805
vt 0.206645 0.506441
vt 0.073922 0.419052
f 199/199/199 176/176/176 198/198/198
f 176/176/176 199/199/199 203/203/203
f 203/203/203 177/177/177 176/176/176
f 177/177/177 203/203/203 204/204/204
f 177/177/177 204/204/204 178/178/178
f 178/178/178 204/204/204 217/217/217
f 179/179/179 178/178/178 217/217/217
f 217/217/217 180/180/180 179/179/179
f 180/180/180 208/208/208 179/179/179
f 209/209/209 181/181/181 208/208/208
f 181/181/181 179/179/179 208/208/208
f 181/181/181 182/182/182 179/179/179
f 182/182/182 178/178/178 179/179/179
f 183/183/183 178/178/178 182/182/182
f 177/177/177 178/178/178 183/183/183
f 181/181/181 184/184/184 182/182/182
f 182/182/182 184/184/184 185/185/185
f 183/183/183 182/182/182 185/185/185
f 186/186/186 183/183/183 185/185/185
f 177/177/177 183/183/183 186/186/186
f 177/177/177 186/186/186 187/187/187
f 187/187/187 176/176/176 177/177/177
f 176/176/176 187/187/187 188/188/188
f 188/188/188 200/200/200 176/176/176
f 200/200/200 188/188/188 209/209/209
f 186/186/186 188/188/188 187/187/187
f 184/184/184 186/186/186 185/185/185
f 188/188/188 186/186/186 184/184/184
f 181/181/181 188/188/188 184/184/184
f 209/209/209 188/188/188 181/181/181
f 176/176/176 201/201/201 198/198/198
f 201/201/201 176/176/176 200/200/200
f 206/206/206 205/205/205 189/189/189
f 190/190/190 189/189/189 205/205/205
f 205/205/205 189/189/189 190/190/190
f 189/189/189 205/205/205 206/206/206
f 213/213/213 220/220/220 191/191/191
f 192/192/192 213/213/213 191/191/191
f 211/211/211 192/192/192 193/193/193
f 229/229/229 211/211/211 193/193/193
f 195/195/195 194/194/194 207/207/207
f 207/207/207 210/210/210 195/195/195
f 195/195/195 207/207/207 194/194/194
f 207/207/207 195/195/195 210/210/210
f 224/224/224 196/196/196 223/223/223
f 218/218/218 222/222/222 197/197/197
f 221/221/221 225/225/225 219/219/219
f 228/228/228 227/227/227 226/226/226
v -0.090456 0.226669 -0.391170
v -0.101801 0.233574 -0.442825
v -0.085250 0.436637 -0.309074
v -0.100059 0.473768 -0.258677
v -0.086913 0.537770 -0.236354
v -0.069886 0.594810 -0.327854
v -0.041588 0.481823 -0.366030
v -0.120292 0.561101 -0.394033
v -0.106012 0.436192 -0.402971
v -0.139240 0.512319 -0.410320
v -0.173020 0.592491 -0.303276
v -0.086913 0.537770 -0.236354
v -0.100059 0.473768 -0.258677
v -0.185032 0.479354 -0.340271
v -0.139240 0.512319 -0.410320
v -0.120292 0.561101 -0.394033
v -0.041588 0.481823 -0.366030
v -0.090456 0.226669 -0.391170
v -0.085250 0.436637 -0.309074
v -0.043286 0.243230 -0.428836
v -0.106012 0.436192 -0.402971
v -0.101801 0.233574 -0.442825
v -0.185032 0.479354 -0.340271
v -0.085250 0.436637 -0.309074
v -0.090456 0.226669 -0.391170
v -0.101801 0.233574 -0.442825
v -0.106012 0.436192 -0.402971
v -0.101801 0.233574 -0.442825
v -0.043286 0.243230 -0.428836
v -0.090456 0.226669 -0.391170
v -0.086913 0.537770 -0.236354
v -0.069886 0.594810 -0.327854
v -0.120292 0.561101 -0.394033
v -0.120292 0.561101 -0.394033
v -0.173020 0.592491 -0.303276
v -0.086913 0.537770 -0.236354
v -0.106012 0.436192 -0.402971
v -0.139240 0.512319 -0.410320
v -0.127552 0.370760 -0.482610
v -0.136475 0.339830 -0.448974
v -0.185032 0.479354 -0.340271
v -0.136475 0.339830 -0.448974
v -0.166135 0.387902 -0.457828
v -0.185032 0.479354 -0.340271
v -0.139240 0.512319 -0.410320
v -0.127552 0.370760 -0.482610
v -0.127552 0.370760 -0.482610
v -0.161072 0.218208 -0.512495
v -0.136475 0.339830 -0.448974
v -0.136475 0.339830 -0.448974
v -0.161072 0.218208 -0.512495
v -0.166135 0.387902 -0.457828
v -0.127552 0.370760 -0.482610
v -0.132421 0.313868 -0.261758
v -0.100059 0.473768 -0.258677
v -0.078325 0.317891 -0.292089
v -0.085250 0.436637 -0.309074
v -0.109605 0.308117 -0.315062
v -0.185032 0.479354 -0.340271
v -0.100059 0.473768 -0.258677
v -0.132421 0.313868 -0.261758
v -0.185032 0.479354 -0.340271
v -0.109605 0.308117 -0.315062
v -0.132421 0.313868 -0.261758
v -0.078325 0.317891 -0.292089
v -0.109605 0.308117 -0.315062
v -0.109605 0.308117 -0.315062
v -0.132421 0.313868 -0.261758
v -0.105700 0.047323 -0.468670
v 0.068956 0.002652 -0.053166
v -0.057207 0.129696 -0.095665
v 0.092314 0.050592 -0.062468
v 0.028643 0.130711 -0.161812
v 0.117110 0.068108 -0.124393
v 0.036180 0.000886 -0.159956
v 0.093753 0.002652 -0.124393
v -0.041765 0.000886 -0.115748
v 0.204293 0.001474 -0.083949
v 0.045760 0.002652 -0.284449
v 0.069117 0.056558 -0.270974
v -0.057114 0.129703 -0.214016
v 0.093914 0.068108 -0.201063
v 0.070556 0.002652 -0.201063
v 0.159682 0.001474 -0.292210
v -0.057114 0.129703 0.216222
v 0.045760 0.002652 0.286653
v -0.042097 0.000886 0.211737
v -0.159663 0.000886 0.211504
v -0.109140 0.128917 0.159693
v -0.041765 0.000886 0.117953
v -0.057207 0.129696 0.097870
v 0.068956 0.002652 0.055371
v 0.036180 0.000886 0.162161
v -0.159663 0.000886 0.211504
v -0.042097 0.000886 0.211737
v -0.041765 0.000886 0.117953
v 0.093753 0.002652 0.126598
v 0.068956 0.002652 0.055371
v 0.204293 0.001474 0.086154
v 0.045760 0.002652 0.286653
v 0.159682 0.001474 0.294414
v 0.070556 0.002652 0.203267
v -0.057207 0.129696 -0.095665
v 0.068956 0.002652 -0.053166
v -0.041765 0.000886 -0.115748
v -0.109140 0.128917 -0.157488
v -0.159663 0.000886 -0.209298
v -0.057114 0.129703 -0.214016
v -0.042097 0.000886 -0.209533
v 0.045760 0.002652 -0.284449
v 0.068956 0.002652 -0.053166
v 0.204293 0.001474 -0.083949
v 0.093753 0.002652 -0.124393
v -0.041765 0.000886 -0.115748
v 0.036180 0.000886 -0.159956
v -0.159663 0.000886 -0.209298
v -0.042097 0.000886 -0.209533
v 0.070556 0.002652 -0.201063
v 0.045760 0.002652 -0.284449
v 0.159682 0.001474 -0.292210
v -0.105700 0.047323 -0.468670
v -0.111589 0.164659 -0.320979
v -0.111589 0.164659 -0.320979
v 0.036180 0.000886 0.162161
v -0.057207 0.129696 0.097870
v -0.041765 0.000886 0.117953
v 0.028643 0.130711 0.164018
v 0.092314 0.050592 0.064673
v 0.117110 0.068108 0.126598
v 0.204293 0.001474 0.086154
v 0.093753 0.002652 0.126598
v 0.068956 0.002652 0.055371
v 0.045760 0.002652 0.286653
v -0.057114 0.129703 0.216222
v 0.069117 0.056558 0.273178
v 0.093914 0.068108 0.203267
v 0.070556 0.002652 0.203267
v 0.159682 0.001474 0.294414
v -0.009681 0.382913 -0.026828
v -0.009671 0.395474 -0.165821
v 0.103325 0.366502 -0.125010
v -0.009681 0.382913 -0.026828
v -0.067727 0.387125 -0.125034
v -0.009671 0.395474 -0.165821
v 0.103325 0.366502 0.127215
v -0.009671 0.395474 0.168027
v -0.009681 0.382913 0.029033
v -0.009681 0.382913 0.029033
v -0.067727 0.387125 0.127239
v -0.009671 0.395474 0.168027
v 0.112862 0.441715 -0.110359
v 0.001561 0.527187 -0.178463
v 0.001561 0.527187 -0.178463
v 0.001561 0.527187 -0.178463
v 0.087027 0.525900 0.250671
v 0.100972 0.478095 0.288595
v 0.066973 0.553689 0.273787
v 0.060759 0.522577 0.232998
v 0.050234 0.554942 0.200835
v -0.110516 0.550191 0.193756
v -0.053145 0.412574 0.242880
v -0.088001 0.481739 0.239151
v -0.044666 0.460848 0.340941
v -0.088135 0.534665 0.282513
v -0.036134 0.582951 0.353696
v -0.116411 0.588717 0.242303
v 0.012253 0.501353 0.290902
v -0.038829 0.468079 0.240832
v -0.009746 0.514320 0.202567
v -0.008714 0.590305 0.240013
v -0.116411 0.588717 0.242303
v 0.012253 0.501353 0.290902
v -0.008714 0.590305 0.240013
v -0.088135 0.534665 0.282513
v -0.038829 0.468079 0.240832
v -0.088001 0.481739 0.239151
v -0.009746 0.514320 0.202567
v -0.110516 0.550191 0.193756
v 0.060759 0.522577 0.232998
v 0.008801 0.552953 0.234363
v 0.087027 0.525900 0.250671
v 0.028390 0.546455 0.252038
v 0.100972 0.478095 0.288595
v 0.028390 0.546455 0.252038
v 0.008801 0.552953 0.234363
v -0.036134 0.582951 0.353696
v -0.116411 0.588717 0.242303
v -0.008714 0.590305 0.240013
v -0.008714 0.590305 0.240013
v -0.116411 0.588717 0.242303
v 0.001561 0.527187 0.180669
v 0.001561 0.527187 0.180669
v 0.001561 0.527187 0.180669
v 0.112862 0.441715 0.112564
v -0.062764 0.497826 0.169288
v -0.067148 0.850662 0.361613
v 0.060118 0.843423 0.144274
v 0.145288 0.799247 0.247010
v -0.066913 0.806485 0.443884
v 0.028184 0.698657 0.255886
v -0.051339 0.704683 0.323588
v -0.044204 0.667369 0.188264
v -0.134529 0.682220 0.243414
v -0.051339 0.704683 0.323588
v 0.028184 0.698657 0.255886
v 0.028184 0.698657 0.255886
v -0.044204 0.667369 0.188264
v -0.134529 0.682220 0.243414
v -0.051339 0.704683 0.323588
v -0.134529 0.682220 0.243414
v -0.044204 0.667369 0.188264
v -0.124809 0.741078 -0.340755
v -0.088550 0.687108 -0.175415
v -0.179473 0.699362 -0.222124
v -0.088550 0.687108 -0.175415
v -0.029547 0.721809 -0.295191
v -0.124809 0.741078 -0.340755
v -0.124809 0.741078 -0.340755
v -0.179473 0.699362 -0.222124
v -0.088550 0.687108 -0.175415
v -0.088550 0.687108 -0.175415
v -0.029547 0.721809 -0.295191
v -0.124809 0.741078 -0.340755
v 0.107377 0.564617 -0.058109
v 0.017520 0.631898 -0.127627
v 0.039399 0.542504 0.001102
v 0.039399 0.542504 0.001102
v 0.107421 0.564687 0.057709
v 0.017520 0.631898 0.129832
v -0.100892 0.570694 0.053844
v 0.039399 0.542504 0.001102
v -0.100916 0.570746 -0.054589
v 0.017520 0.631898 -0.127627
v 0.017520 0.631898 -0.127627
v 0.017520 0.631898 0.129832
v 0.017520 0.631898 0.129832
v 0.039399 0.542504 0.001102
v 0.107377 0.564617 -0.058109
v 0.107421 0.564687 0.057709
v 0.039399 0.542504 0.001102
v -0.100892 0.570694 0.053844
v 0.039399 0.542504 0.001102
v -0.100916 0.570746 -0.054589
v 0.107421 0.564687 0.057709
v -0.100892 0.570694 0.053844
v -0.067148 0.850662 0.361613
v -0.067148 0.850662 0.361613
v -0.258980 0.851405 0.247320
v -0.120921 0.864468 -0.426366
v 0.125111 0.816455 -0.281443
v -0.103275 0.890574 -0.338464
v 0.060118 0.843423 -0.142069
v -0.195611 0.873508 -0.142293
v -0.268938 0.867537 -0.190515
v -0.195611 0.873508 0.144498
vn -0.128371 -0.415026 0.900708
vn -0.569133 0.068198 -0.819412
vn 0.848475 -0.273038 0.453366
vn 0.099705 -0.143250 0.984651
vn 0.242010 -0.391420 0.887818
vn 0.951754 0.065527 -0.299783
vn 0.985620 0.074097 -0.151865
vn -0.103900 0.363559 -0.925759
vn 0.408379 0.095494 -0.907804
vn -0.053431 0.419231 -0.906306
vn -0.987247 -0.013952 0.158583
vn 0.242010 -0.391420 0.887818
vn 0.099705 -0.143250 0.984651
vn -0.952842 -0.294212 0.074371
vn -0.053431 0.419231 -0.906306
vn -0.103900 0.363559 -0.925759
vn 0.985620 0.074097 -0.151865
vn -0.128371 -0.415026 0.900708
vn 0.848475 -0.273038 0.453366
vn 0.853705 -0.046804 -0.518649
vn 0.408379 0.095494 -0.907804
vn -0.569133 0.068198 -0.819412
vn -0.952842 -0.294212 0.074371
vn 0.848475 -0.273038 0.453366
vn -0.128371 -0.415026 0.900708
vn -0.569133 0.068198 -0.819412
vn 0.408379 0.095494 -0.907804
vn -0.569133 0.068198 -0.819412
vn 0.853705 -0.046804 -0.518649
vn -0.128371 -0.415026 0.900708
vn 0.242010 -0.391420 0.887818
vn 0.951754 0.065527 -0.299783
vn -0.103900 0.363559 -0.925759
vn -0.103900 0.363559 -0.925759
vn -0.987247 -0.013952 0.158583
vn 0.242010 -0.391420 0.887818
vn 0.408379 0.095494 -0.907804
vn -0.053431 0.419231 -0.906306
vn 0.500098 0.197663 -0.843108
vn 0.127160 -0.687307 0.715150
vn -0.952842 -0.294212 0.074371
vn 0.127160 -0.687307 0.715150
vn -0.957574 0.061291 -0.281593
vn -0.952842 -0.294212 0.074371
vn -0.053431 0.419231 -0.906306
vn 0.500098 0.197663 -0.843108
vn 0.500098 0.197663 -0.843108
vn -0.086725 -0.950910 -0.297068
vn 0.127160 -0.687307 0.715150
vn 0.127160 -0.687307 0.715150
vn -0.086725 -0.950910 -0.297068
vn -0.957574 0.061291 -0.281593
vn 0.500098 0.197663 -0.843108
vn -0.477168 -0.286431 0.830823
vn 0.099705 -0.143250 0.984651
vn 0.987682 -0.134002 0.080790
vn 0.848475 -0.273038 0.453366
vn -0.283485 -0.161478 -0.945284
vn -0.952842 -0.294212 0.074371
vn 0.099705 -0.143250 0.984651
vn -0.477168 -0.286431 0.830823
vn -0.952842 -0.294212 0.074371
vn -0.283485 -0.161478 -0.945284
vn -0.477168 -0.286431 0.830823
vn 0.987682 -0.134002 0.080790
vn -0.283485 -0.161478 -0.945284
vn -0.283485 -0.161478 -0.945284
vn -0.477168 -0.286431 0.830823
vn -0.212794 -0.895741 -0.390342
vn -0.191914 -0.479788 0.856138
vn -0.146471 0.060627 0.987355
vn 0.296493 0.626015 0.721247
vn 0.671496 0.722382 0.165098
vn 0.672862 0.426482 -0.604459
vn 0.617604 -0.745502 0.250582
vn 0.289542 -0.761484 -0.579920
vn -0.060034 -0.597627 0.799523
vn 0.809205 -0.464378 0.359918
vn -0.385207 -0.393740 -0.834616
vn 0.224263 0.698744 -0.679310
vn -0.241743 0.416036 -0.876626
vn 0.843115 0.325712 0.427865
vn 0.458608 -0.792826 0.401380
vn 0.778533 -0.463391 -0.423267
vn -0.241738 0.416030 0.876631
vn -0.385204 -0.393746 0.834615
vn -0.226655 -0.730121 0.644632
vn -0.666968 -0.612978 0.423570
vn -0.919740 0.105516 -0.378081
vn -0.060035 -0.597628 -0.799523
vn -0.146470 0.060629 -0.987355
vn -0.191914 -0.479788 -0.856138
vn 0.617604 -0.745502 -0.250585
vn -0.666968 -0.612978 0.423570
vn -0.226655 -0.730121 0.644632
vn -0.060035 -0.597628 -0.799523
vn 0.289542 -0.761484 0.579920
vn -0.191914 -0.479788 -0.856138
vn 0.809204 -0.464377 -0.359920
vn -0.385204 -0.393746 0.834615
vn 0.778533 -0.463391 0.423267
vn 0.458606 -0.792826 -0.401383
vn -0.146471 0.060627 0.987355
vn -0.191914 -0.479788 0.856138
vn -0.060034 -0.597627 0.799523
vn -0.919740 0.105517 0.378081
vn -0.666971 -0.612975 -0.423570
vn -0.241743 0.416036 -0.876626
vn -0.226663 -0.730117 -0.644634
vn -0.385207 -0.393740 -0.834616
vn -0.191914 -0.479788 0.856138
vn 0.809205 -0.464378 0.359918
vn 0.289542 -0.761484 -0.579920
vn -0.060034 -0.597627 0.799523
vn 0.617604 -0.745502 0.250582
vn -0.666971 -0.612975 -0.423570
vn -0.226663 -0.730117 -0.644634
vn 0.458608 -0.792826 0.401380
vn -0.385207 -0.393740 -0.834616
vn 0.778533 -0.463391 -0.423267
vn -0.212794 -0.895741 -0.390342
vn 0.138117 -0.442379 -0.886129
vn 0.138117 -0.442379 -0.886129
vn 0.617604 -0.745502 -0.250585
vn -0.146470 0.060629 -0.987355
vn -0.060035 -0.597628 -0.799523
vn 0.671497 0.722382 -0.165096
vn 0.296493 0.626016 -0.721246
vn 0.672863 0.426481 0.604458
vn 0.809204 -0.464377 -0.359920
vn 0.289542 -0.761484 0.579920
vn -0.191914 -0.479788 -0.856138
vn -0.385204 -0.393746 0.834615
vn -0.241738 0.416030 0.876631
vn 0.224267 0.698741 0.679312
vn 0.843112 0.325713 -0.427870
vn 0.458606 -0.792826 -0.401383
vn 0.778533 -0.463391 0.423267
vn 0.004159 -0.310936 0.950422
vn -0.092514 -0.014398 -0.995607
vn 0.981445 -0.091639 -0.168427
vn 0.004159 -0.310936 0.950422
vn -0.899807 -0.101465 -0.424326
vn -0.092514 -0.014398 -0.995607
vn 0.981446 -0.091639 0.168423
vn -0.092516 -0.014398 0.995607
vn 0.006371 -0.315912 -0.948767
vn 0.006371 -0.315912 -0.948767
vn -0.901246 -0.101584 0.421231
vn -0.092516 -0.014398 0.995607
vn 0.896503 0.015676 -0.442760
vn -0.302886 0.219174 -0.927482
vn -0.302886 0.219174 -0.927482
vn -0.302886 0.219174 -0.927482
vn 0.677312 -0.521190 -0.519239
vn 0.185276 -0.871600 0.453858
vn 0.547669 0.826514 0.130130
vn 0.542968 -0.788439 0.289049
vn 0.376290 0.823855 -0.423873
vn -0.947925 0.032060 0.316875
vn -0.050317 -0.901532 -0.429777
vn -0.681968 0.485380 0.547107
vn -0.406332 -0.515246 0.754597
vn -0.832237 0.208857 -0.513576
vn 0.008819 0.019034 0.999780
vn -0.854433 -0.462074 -0.237553
vn 0.748869 -0.303405 -0.589186
vn 0.731427 0.342870 -0.589453
vn 0.153583 -0.537803 0.828963
vn 0.819172 -0.326316 -0.471672
vn -0.854433 -0.462074 -0.237553
vn 0.748869 -0.303405 -0.589186
vn 0.819172 -0.326316 -0.471672
vn -0.832237 0.208857 -0.513576
vn 0.731427 0.342870 -0.589453
vn -0.681968 0.485380 0.547107
vn 0.153583 -0.537803 0.828963
vn -0.947925 0.032060 0.316875
vn 0.542968 -0.788439 0.289049
vn -0.392392 0.301728 0.868901
vn 0.677312 -0.521190 -0.519239
vn -0.975979 -0.072292 0.205521
vn 0.185276 -0.871600 0.453858
vn -0.975979 -0.072292 0.205521
vn -0.392392 0.301728 0.868901
vn 0.008819 0.019034 0.999780
vn -0.854433 -0.462074 -0.237553
vn 0.819172 -0.326316 -0.471672
vn 0.819172 -0.326316 -0.471672
vn -0.854433 -0.462074 -0.237553
vn -0.309520 0.220082 0.925074
vn -0.309520 0.220082 0.925074
vn -0.309520 0.220082 0.925074
vn 0.898063 0.014107 0.439640
vn 0.282762 -0.678047 -0.678453
vn 0.098834 0.944112 0.314460
vn 0.307780 0.939730 0.148925
vn 0.371023 0.881415 0.292318
vn 0.082819 0.878091 0.471272
vn 0.986515 -0.116630 -0.114831
vn -0.044738 0.234586 0.971065
vn 0.067315 -0.317142 -0.945986
vn -0.983627 -0.099781 -0.150075
vn -0.044738 0.234586 0.971065
vn 0.986515 -0.116630 -0.114831
vn 0.986515 -0.116630 -0.114831
vn 0.067315 -0.317142 -0.945986
vn -0.983627 -0.099781 -0.150075
vn -0.044738 0.234586 0.971065
vn -0.983627 -0.099781 -0.150075
vn 0.067315 -0.317142 -0.945986
vn -0.218560 0.250436 -0.943140
vn 0.255007 -0.452502 0.854525
vn -0.937776 -0.244131 0.246933
vn 0.255007 -0.452502 0.854525
vn 0.965555 -0.153460 -0.210128
vn -0.218560 0.250436 -0.943140
vn -0.218560 0.250436 -0.943140
vn -0.937776 -0.244131 0.246933
vn 0.255007 -0.452502 0.854525
vn 0.255007 -0.452502 0.854525
vn 0.965555 -0.153460 -0.210128
vn -0.218560 0.250436 -0.943140
vn 0.734494 -0.646909 0.205003
vn 0.036355 0.459322 -0.887525
vn 0.259798 -0.965634 -0.007439
vn 0.259798 -0.965634 -0.007439
vn 0.732242 -0.647807 -0.210160
vn 0.033646 0.464130 0.885128
vn -0.919134 -0.362759 0.153621
vn 0.259798 -0.965634 -0.007439
vn -0.931989 -0.343380 -0.116129
vn 0.036355 0.459322 -0.887525
vn 0.036355 0.459322 -0.887525
vn 0.033646 0.464130 0.885128
vn 0.033646 0.464130 0.885128
vn 0.259798 -0.965634 -0.007439
vn 0.734494 -0.646909 0.205003
vn 0.732242 -0.647807 -0.210160
vn 0.259798 -0.965634 -0.007439
vn -0.919134 -0.362759 0.153621
vn 0.259798 -0.965634 -0.007439
vn -0.931989 -0.343380 -0.116129
vn 0.732242 -0.647807 -0.210160
vn -0.919134 -0.362759 0.153621
vn 0.098834 0.944112 0.314460
vn 0.098834 0.944112 0.314460
vn -0.182191 0.932498 0.311856
vn 0.025652 0.956884 -0.289335
vn 0.344999 0.919996 -0.185963
vn 0.068565 0.987332 -0.143092
vn 0.316561 0.947897 -0.035793
vn -0.105209 0.993764 0.036932
vn -0.214100 0.972817 -0.088257
vn -0.089359 0.983647 0.156377
vt 0.302928 0.410603
vt 0.259511 0.408232
vt 0.874219 0.568973
vt 0.849519 0.599809
vt 0.849486 0.648993
vt 0.910831 0.658192
vt 0.914495 0.592905
vt 0.959210 0.644163
vt 0.941538 0.554334
vt 0.962266 0.596304
vt 0.294335 0.658141
vt 0.354565 0.650266
vt 0.356301 0.604404
vt 0.288555 0.593764
vt 0.239131 0.610827
vt 0.243332 0.645570
vt 0.914495 0.592905
vt 0.900131 0.408245
vt 0.874219 0.568973
vt 0.923490 0.415523
vt 0.941538 0.554334
vt 0.938231 0.405251
vt 0.288555 0.593764
vt 0.336042 0.566947
vt 0.302928 0.410603
vt 0.259511 0.408232
vt 0.256828 0.556644
vt 0.938231 0.405251
vt 0.923490 0.415523
vt 0.900131 0.408245
vt 0.849486 0.648993
vt 0.910831 0.658192
vt 0.959210 0.644163
vt 0.243332 0.645570
vt 0.294335 0.658141
vt 0.354565 0.650266
vt 0.941538 0.554334
vt 0.962266 0.596304
vt 0.989290 0.495813
vt 0.962318 0.478681
vt 0.914490 0.592902
vt 0.239801 0.480722
vt 0.223219 0.512575
vt 0.288555 0.593764
vt 0.239131 0.610827
vt 0.212341 0.499606
vt 0.989290 0.495813
vt 0.990790 0.382720
vt 0.962318 0.478681
vt 0.239801 0.480722
vt 0.211457 0.385193
vt 0.223219 0.512575
vt 0.212341 0.499606
vt 0.828206 0.487996
vt 0.849519 0.599809
vt 0.843826 0.487650
vt 0.874219 0.568973
vt 0.861752 0.476613
vt 0.914490 0.592902
vt 0.356301 0.604404
vt 0.373309 0.489995
vt 0.288555 0.593764
vt 0.339914 0.478663
vt 0.828206 0.487996
vt 0.843826 0.487650
vt 0.861752 0.476613
vt 0.339914 0.478663
vt 0.373309 0.489995
vt 0.273390 0.272598
vt 0.709872 0.142475
vt 0.754219 0.249040
vt 0.736523 0.181721
vt 0.809704 0.249891
vt 0.778317 0.197380
vt 0.808147 0.142445
vt 0.778317 0.142475
vt 0.771065 0.142445
vt 0.744371 0.142627
vt 0.931419 0.142475
vt 0.881935 0.185759
vt 0.853492 0.249046
vt 0.842627 0.197380
vt 0.842627 0.142475
vt 0.903156 0.142441
vt 0.348136 0.252121
vt 0.289325 0.144323
vt 0.356842 0.144557
vt 0.417782 0.144855
vt 0.402496 0.251466
vt 0.466623 0.144557
vt 0.446962 0.252116
vt 0.482450 0.144323
vt 0.163759 0.900522
vt 0.042303 0.981344
vt 0.122412 0.953155
vt 0.100024 0.889215
vt 0.194386 0.862425
vt 0.160326 0.819903
vt 0.259990 0.808441
vt 0.200299 0.982981
vt 0.279684 0.960587
vt 0.197078 0.920223
vt 0.446962 0.252116
vt 0.482450 0.144323
vt 0.466623 0.144557
vt 0.402496 0.251466
vt 0.417782 0.144910
vt 0.348136 0.252121
vt 0.356677 0.144557
vt 0.289325 0.144323
vt 0.160326 0.819903
vt 0.259990 0.808441
vt 0.194386 0.862425
vt 0.100024 0.889215
vt 0.163759 0.900522
vt 0.042303 0.981344
vt 0.122412 0.953155
vt 0.197078 0.920223
vt 0.200299 0.982981
vt 0.279684 0.960587
vt 0.928577 0.269616
vt 0.874236 0.374728
vt 0.329599 0.376738
vt 0.808147 0.142445
vt 0.754219 0.249040
vt 0.771065 0.142445
vt 0.809704 0.249891
vt 0.736523 0.181721
vt 0.778317 0.197380
vt 0.744371 0.142627
vt 0.778317 0.142475
vt 0.709872 0.142475
vt 0.931419 0.142475
vt 0.853492 0.249046
vt 0.881935 0.185759
vt 0.842627 0.197380
vt 0.842627 0.142475
vt 0.903156 0.142441
vt 0.696479 0.461438
vt 0.813067 0.471973
vt 0.778833 0.447673
vt 0.504442 0.463556
vt 0.422438 0.467073
vt 0.388380 0.474044
vt 0.778833 0.447673
vt 0.813067 0.471973
vt 0.696479 0.461438
vt 0.504442 0.463556
vt 0.422438 0.467073
vt 0.388380 0.474044
vt 0.766545 0.510761
vt 0.823671 0.582454
vt 0.377823 0.584027
vt 0.377823 0.584027
vt 0.941457 0.384062
vt 0.928463 0.267992
vt 0.914516 0.381770
vt 0.941008 0.426886
vt 0.918823 0.424959
vt 0.887273 0.524856
vt 0.917550 0.493996
vt 0.878876 0.571172
vt 0.917695 0.573083
vt 0.868416 0.595320
vt 0.913345 0.637545
vt 0.849511 0.637962
vt 0.959549 0.588472
vt 0.943776 0.538766
vt 0.942846 0.477503
vt 0.963894 0.648423
vt 0.242497 0.627513
vt 0.349699 0.592229
vt 0.354516 0.648566
vt 0.249438 0.568626
vt 0.329859 0.499831
vt 0.255540 0.506964
vt 0.311559 0.447131
vt 0.260433 0.453498
vt 0.301496 0.396784
vt 0.258695 0.410774
vt 0.292177 0.359462
vt 0.265275 0.368620
vt 0.276847 0.282608
vt 0.897937 0.414080
vt 0.890999 0.477181
vt 0.913345 0.637545
vt 0.849511 0.637962
vt 0.963894 0.648423
vt 0.354516 0.648566
vt 0.242497 0.627513
vt 0.823671 0.582454
vt 0.377823 0.584027
vt 0.377823 0.584027
vt 0.766545 0.510761
vt 0.916967 0.461006
vt 0.056477 0.149922
vt 0.274819 0.234107
vt 0.277549 0.109922
vt 0.009075 0.089980
vt 0.893043 0.727334
vt 0.951334 0.727474
vt 0.819412 0.712498
vt 0.820393 0.711678
vt 0.896291 0.723452
vt 0.955230 0.727550
vt 0.374836 0.706522
vt 0.312003 0.714620
vt 0.245155 0.716480
vt 0.247559 0.724347
vt 0.327680 0.721001
vt 0.381137 0.705858
vt 0.247344 0.726497
vt 0.375751 0.709052
vt 0.328764 0.718086
vt 0.823648 0.714361
vt 0.899164 0.725276
vt 0.949736 0.729986
vt 0.247344 0.726497
vt 0.328764 0.718086
vt 0.375751 0.709052
vt 0.823648 0.714361
vt 0.899164 0.725276
vt 0.949736 0.729986
vt 0.722718 0.613851
vt 0.781029 0.670285
vt 0.675223 0.595302
vt 0.675223 0.595302
vt 0.722718 0.613851
vt 0.781029 0.670285
vt 0.481262 0.620400
vt 0.525602 0.596817
vt 0.481262 0.620400
vt 0.781029 0.670285
vt 0.420273 0.671462
vt 0.781029 0.670285
vt 0.420273 0.671462
vt 0.525602 0.596817
vt 0.722718 0.613851
vt 0.627756 0.613968
vt 0.675223 0.595302
vt 0.569342 0.620314
vt 0.525602 0.596817
vt 0.481262 0.620400
vt 0.722718 0.613851
vt 0.481262 0.620400
vt 0.975447 0.853783
vt 0.225430 0.850230
vt 0.277590 0.109870
vt 0.009075 0.089980
vt 0.277549 0.109922
vt 0.056477 0.149922
vt 0.274819 0.234107
vt 0.274922 0.233956
vt 0.277590 0.109870
vt 0.274922 0.233956
f 231/231/231 298/298/298 230/230/230
f 386/386/386 385/385/385 384/384/384
f 384/384/384 387/387/387 386/386/386
f 388/388/388 386/386/386 387/387/387
f 424/424/424 388/388/388 387/387/387
f 388/388/388 424/424/424 389/389/389
f 424/424/424 390/390/390 389/389/389
f 391/391/391 389/389/389 390/390/390
f 390/390/390 392/392/392 391/391/391
f 393/393/393 391/391/391 392/392/392
f 392/392/392 394/394/394 393/393/393
f 395/395/395 393/393/393 394/394/394
f 396/396/396 394/394/394 392/392/392
f 392/392/392 390/390/390 396/396/396
f 397/397/397 396/396/396 390/390/390
f 390/390/390 424/424/424 397/397/397
f 398/398/398 397/397/397 424/424/424
f 387/387/387 398/398/398 424/424/424
f 394/394/394 396/396/396 399/399/399
f 402/402/402 401/401/401 400/400/400
f 403/403/403 400/400/400 401/401/401
f 401/401/401 404/404/404 403/403/403
f 405/405/405 403/403/403 404/404/404
f 404/404/404 406/406/406 405/405/405
f 407/407/407 405/405/405 406/406/406
f 406/406/406 408/408/408 407/407/407
f 409/409/409 407/407/407 408/408/408
f 408/408/408 410/410/410 409/409/409
f 411/411/411 409/409/409 410/410/410
f 410/410/410 412/412/412 411/411/411
f 301/301/301 300/300/300 299/299/299
f 300/300/300 301/301/301 302/302/302
f 303/303/303 302/302/302 301/301/301
f 302/302/302 303/303/303 304/304/304
f 305/305/305 304/304/304 303/303/303
f 300/300/300 306/306/306 304/304/304
f 304/304/304 302/302/302 300/300/300
f 299/299/299 307/307/307 301/301/301
f 301/301/301 307/307/307 303/303/303
f 303/303/303 307/307/307 305/305/305
f 310/310/310 309/309/309 308/308/308
f 309/309/309 310/310/310 302/302/302
f 302/302/302 311/311/311 309/309/309
f 311/311/311 302/302/302 304/304/304
f 304/304/304 312/312/312 311/311/311
f 313/313/313 311/311/311 312/312/312
f 313/313/313 309/309/309 311/311/311
f 313/313/313 308/308/308 309/309/309
f 316/316/316 315/315/315 314/314/314
f 316/316/316 314/314/314 317/317/317
f 318/318/318 317/317/317 314/314/314
f 317/317/317 318/318/318 319/319/319
f 320/320/320 319/319/319 318/318/318
f 321/321/321 319/319/319 320/320/320
f 234/234/234 233/233/233 232/232/232
f 234/234/234 232/232/232 235/235/235
f 236/236/236 235/235/235 232/232/232
f 235/235/235 236/236/236 237/237/237
f 238/238/238 237/237/237 236/236/236
f 239/239/239 237/237/237 238/238/238
f 381/381/381 454/454/454 380/380/380
f 380/380/380 454/454/454 453/453/453
f 380/380/380 453/453/453 368/368/368
f 368/368/368 453/453/453 455/455/455
f 369/369/369 381/381/381 380/380/380
f 370/370/370 369/369/369 380/380/380
f 370/370/370 380/380/380 368/368/368
f 324/324/324 323/323/323 322/322/322
f 325/325/325 322/322/322 323/323/323
f 326/326/326 322/322/322 325/325/325
f 325/325/325 327/327/327 326/326/326
f 328/328/328 326/326/326 327/327/327
f 331/331/331 330/330/330 329/329/329
f 329/329/329 324/324/324 331/331/331
f 322/322/322 331/331/331 324/324/324
f 371/371/371 466/466/466 461/461/461
f 371/371/371 461/461/461 372/372/372
f 372/372/372 461/461/461 382/382/382
f 373/373/373 372/372/372 382/382/382
f 468/468/468 469/469/469 467/467/467
f 413/413/413 385/385/385 386/386/386
f 386/386/386 388/388/388 413/413/413
f 414/414/414 413/413/413 388/388/388
f 389/389/389 414/414/414 388/388/388
f 334/334/334 333/333/333 332/332/332
f 334/334/334 332/332/332 335/335/335
f 335/335/335 336/336/336 334/334/334
f 336/336/336 335/335/335 337/337/337
f 337/337/337 338/338/338 336/336/336
f 339/339/339 338/338/338 337/337/337
f 342/342/342 341/341/341 340/340/340
f 340/340/340 343/343/343 342/342/342
f 344/344/344 342/342/342 343/343/343
f 344/344/344 343/343/343 345/345/345
f 345/345/345 346/346/346 344/344/344
f 347/347/347 344/344/344 346/346/346
f 346/346/346 348/348/348 347/347/347
f 349/349/349 347/347/347 348/348/348
f 242/242/242 241/241/241 240/240/240
f 240/240/240 243/243/243 242/242/242
f 240/240/240 244/244/244 243/243/243
f 244/244/244 240/240/240 245/245/245
f 248/248/248 247/247/247 246/246/246
f 249/249/249 246/246/246 247/247/247
f 246/246/246 249/249/249 250/250/250
f 251/251/251 250/250/250 249/249/249
f 254/254/254 253/253/253 252/252/252
f 252/252/252 255/255/255 254/254/254
f 256/256/256 255/255/255 252/252/252
f 483/483/483 482/482/482 480/480/480
f 480/480/480 478/478/478 483/483/483
f 478/478/478 480/480/480 479/479/479
f 481/481/481 479/479/479 480/480/480
f 432/432/432 416/416/416 415/415/415
f 433/433/433 432/432/432 415/415/415
f 434/434/434 433/433/433 415/415/415
f 434/434/434 415/415/415 417/417/417
f 436/436/436 435/435/435 418/418/418
f 436/436/436 418/418/418 419/419/419
f 437/437/437 436/436/436 419/419/419
f 375/375/375 374/374/374 423/423/423
f 420/420/420 375/375/375 423/423/423
f 458/458/458 420/420/420 423/423/423
f 458/458/458 423/423/423 457/457/457
f 457/457/457 423/423/423 376/376/376
f 423/423/423 374/374/374 376/376/376
f 457/457/457 376/376/376 456/456/456
f 258/258/258 350/350/350 257/257/257
f 259/259/259 350/350/350 258/258/258
f 460/460/460 377/377/377 459/459/459
f 459/459/459 377/377/377 378/378/378
f 459/459/459 378/378/378 421/421/421
f 378/378/378 379/379/379 421/421/421
f 472/472/472 471/471/471 470/470/470
f 383/383/383 472/472/472 463/463/463
f 474/474/474 422/422/422 465/465/465
f 445/445/445 444/444/444 260/260/260
f 261/261/261 445/445/445 260/260/260
f 446/446/446 445/445/445 261/261/261
f 446/446/446 261/261/261 262/262/262
f 264/264/264 447/447/447 263/263/263
f 448/448/448 447/447/447 264/264/264
f 449/449/449 448/448/448 264/264/264
f 265/265/265 449/449/449 264/264/264
f 268/268/268 267/267/267 266/266/266
f 266/266/266 269/269/269 268/268/268
f 269/269/269 266/266/266 270/270/270
f 273/273/273 272/272/272 271/271/271
f 272/272/272 273/273/273 274/274/274
f 274/274/274 275/275/275 272/272/272
f 278/278/278 277/277/277 276/276/276
f 281/281/281 280/280/280 279/279/279
f 282/282/282 280/280/280 281/281/281
f 285/285/285 284/284/284 283/283/283
f 285/285/285 286/286/286 284/284/284
f 286/286/286 285/285/285 287/287/287
f 286/286/286 287/287/287 288/288/288
f 291/291/291 290/290/290 289/289/289
f 290/290/290 291/291/291 292/292/292
f 351/351/351 294/294/294 293/293/293
f 351/351/351 295/295/295 294/294/294
f 352/352/352 297/297/297 296/296/296
f 425/425/425 428/428/428 427/427/427
f 428/428/428 425/425/425 477/477/477
f 484/484/484 477/477/477 425/425/425
f 427/427/427 426/426/426 425/425/425
f 355/355/355 354/354/354 353/353/353
f 356/356/356 353/353/353 354/354/354
f 357/357/357 354/354/354 356/356/356
f 356/356/356 358/358/358 357/357/357
f 359/359/359 357/357/357 358/358/358
f 359/359/359 358/358/358 360/360/360
f 358/358/358 356/356/356 353/353/353
f 353/353/353 360/360/360 358/358/358
f 359/359/359 361/361/361 357/357/357
f 354/354/354 357/357/357 361/361/361
f 364/364/364 363/363/363 362/362/362
f 363/363/363 364/364/364 356/356/356
f 365/365/365 356/356/356 364/364/364
f 356/356/356 365/365/365 353/353/353
f 366/366/366 353/353/353 365/365/365
f 365/365/365 367/367/367 366/366/366
f 364/364/364 367/367/367 365/365/365
f 362/362/362 367/367/367 364/364/364
v -0.057207 0.129696 -0.095665
v 0.028643 0.130711 -0.161812
v -0.057114 0.129703 -0.214016
v -0.057114 0.129703 0.216222
v -0.109140 0.128917 0.159693
v -0.057207 0.129696 0.097870
v -0.127209 0.315769 -0.129140
v 0.028643 0.130711 0.164018
v -0.057114 0.129703 0.216222
v -0.010978 0.304465 0.223302
v -0.003570 0.248379 0.037682
v -0.057207 0.129696 0.097870
v -0.127209 0.315769 0.131344
v -0.003570 0.248379 0.037682
v -0.109140 0.128917 0.159693
v -0.057207 0.129696 0.097870
v -0.057114 0.129703 0.216222
v -0.010978 0.304465 0.223302
v -0.057207 0.129696 -0.095665
v -0.109140 0.128917 -0.157488
v -0.057114 0.129703 -0.214016
v -0.010978 0.304465 -0.221096
v 0.028643 0.130711 -0.161812
v -0.057114 0.129703 -0.214016
v -0.003570 0.248379 -0.035477
v -0.057207 0.129696 -0.095665
v -0.127209 0.315769 -0.129140
v -0.003570 0.248379 -0.035477
v -0.057207 0.129696 -0.095665
v -0.109140 0.128917 -0.157488
v -0.057114 0.129703 -0.214016
v -0.010978 0.304465 -0.221096
v -0.057207 0.129696 0.097870
v 0.028643 0.130711 0.164018
v -0.057114 0.129703 0.216222
v -0.009681 0.382913 -0.026828
v -0.009671 0.395474 -0.165821
v 0.103325 0.366502 -0.125010
v -0.009681 0.382913 -0.026828
v -0.067727 0.387125 -0.125034
v -0.009671 0.395474 -0.165821
v 0.103325 0.366502 0.127215
v -0.009671 0.395474 0.168027
v -0.009681 0.382913 0.029033
v -0.009671 0.395474 0.168027
v -0.067727 0.387125 0.127239
v -0.009681 0.382913 0.029033
v 0.103325 0.366502 -0.125010
v -0.009671 0.395474 -0.165821
v -0.009681 0.382913 -0.026828
v -0.009681 0.382913 -0.026828
v -0.009671 0.395474 -0.165821
v 0.103325 0.366502 0.127215
v -0.009671 0.395474 0.168027
v -0.009681 0.382913 0.029033
v -0.009681 0.382913 0.029033
v -0.067727 0.387125 0.127239
v -0.009671 0.395474 0.168027
vn -0.122480 -0.453664 0.882716
vn 0.896284 -0.417799 -0.148725
vn -0.101487 -0.056316 -0.993242
vn -0.101492 -0.056315 0.993241
vn -0.995369 -0.092052 0.027697
vn -0.122476 -0.453667 -0.882715
vn -0.925164 0.371703 -0.076871
vn 0.896284 -0.417798 0.148725
vn -0.101492 -0.056315 0.993241
vn -0.011586 0.222263 0.974918
vn 0.030520 -0.271741 -0.961886
vn -0.122476 -0.453667 -0.882715
vn -0.967860 0.247203 0.046233
vn 0.030520 -0.271741 -0.961886
vn -0.995369 -0.092052 0.027697
vn -0.122476 -0.453667 -0.882715
vn -0.101492 -0.056315 0.993241
vn -0.011586 0.222263 0.974918
vn -0.122480 -0.453664 0.882716
vn -0.995369 -0.092052 -0.027701
vn -0.101487 -0.056316 -0.993242
vn -0.011583 0.222262 -0.974918
vn 0.896284 -0.417799 -0.148725
vn -0.101487 -0.056316 -0.993242
vn 0.030516 -0.271740 0.961887
vn -0.122480 -0.453664 0.882716
vn -0.925164 0.371703 -0.076871
vn 0.030516 -0.271740 0.961887
vn -0.122480 -0.453664 0.882716
vn -0.995369 -0.092052 -0.027701
vn -0.101487 -0.056316 -0.993242
vn -0.011583 0.222262 -0.974918
vn -0.122476 -0.453667 -0.882715
vn 0.896284 -0.417798 0.148725
vn -0.101492 -0.056315 0.993241
vn -0.317376 0.217084 0.923118
vn -0.249707 0.525672 -0.813213
vn 0.994980 0.009038 -0.099666
vn -0.317376 0.217084 0.923118
vn -0.756080 0.638531 -0.143600
vn -0.249707 0.525672 -0.813213
vn 0.994980 0.009037 0.099665
vn -0.075750 0.534003 0.842082
vn -0.041928 0.167778 -0.984933
vn -0.075750 0.534003 0.842082
vn -0.756082 0.638529 0.143598
vn -0.041928 0.167778 -0.984933
vn 0.994980 0.009038 -0.099666
vn -0.249707 0.525672 -0.813213
vn -0.317376 0.217084 0.923118
vn -0.317376 0.217084 0.923118
vn -0.249707 0.525672 -0.813213
vn 0.994980 0.009037 0.099665
vn -0.075750 0.534003 0.842082
vn -0.041928 0.167778 -0.984933
vn -0.041928 0.167778 -0.984933
vn -0.756082 0.638529 0.143598
vn -0.075750 0.534003 0.842082
vt 1.247786 -0.728259
vt 1.313884 -0.739974
vt 1.375506 -0.714582
vt 0.252290 -0.728064
vt 0.311790 -0.740407
vt 0.374517 -0.721268
vt 0.313962 -0.622593
vt 1.313884 -0.739974
vt 1.375506 -0.714582
vt 1.372354 -0.648495
vt 1.260042 -0.661972
vt 1.247786 -0.728259
vt 0.313962 -0.622593
vt 0.372478 -0.659093
vt 0.311790 -0.740407
vt 0.374517 -0.721268
vt 0.252290 -0.728064
vt 0.258221 -0.666397
vt 0.374517 -0.721268
vt 0.311790 -0.740407
vt 0.252290 -0.728064
vt 1.372354 -0.648495
vt 1.313884 -0.739974
vt 1.375506 -0.714582
vt 1.260042 -0.661972
vt 1.247786 -0.728259
vt 0.313962 -0.622593
vt 0.372478 -0.659093
vt 0.374517 -0.721268
vt 0.311790 -0.740407
vt 0.252290 -0.728064
vt 0.258221 -0.666397
vt 1.247786 -0.728259
vt 1.313884 -0.739974
vt 1.375506 -0.714582
vt 1.249195 -0.601505
vt 1.379469 -0.591467
vt 1.313565 -0.560462
vt 0.383708 -0.593032
vt 0.314481 -0.561748
vt 0.249781 -0.601210
vt 1.313565 -0.560462
vt 1.379469 -0.591467
vt 1.249195 -0.601505
vt 0.249781 -0.601210
vt 0.314481 -0.561748
vt 0.383708 -0.593032
vt 1.313565 -0.560462
vt 1.379469 -0.591467
vt 1.249195 -0.601505
vt 0.383708 -0.593032
vt 0.249781 -0.601210
vt 1.313565 -0.560462
vt 1.379469 -0.591467
vt 1.249195 -0.601505
vt 0.383708 -0.593032
vt 0.314481 -0.561748
vt 0.249781 -0.601210
f 491/491/491 523/523/523 524/524/524
f 491/491/491 524/524/524 525/525/525
f 494/494/494 493/493/493 492/492/492
f 494/494/494 492/492/492 526/526/526
f 527/527/527 494/494/494 526/526/526
f 526/526/526 495/495/495 528/528/528
f 492/492/492 495/495/495 526/526/526
f 492/492/492 496/496/496 495/495/495
f 530/530/530 497/497/497 529/529/529
f 531/531/531 497/497/497 530/530/530
f 531/531/531 498/498/498 497/497/497
f 500/500/500 499/499/499 497/497/497
f 498/498/498 500/500/500 497/497/497
f 497/497/497 499/499/499 501/501/501
f 497/497/497 501/501/501 502/502/502
f 497/497/497 502/502/502 529/529/529
f 506/506/506 533/533/533 532/532/532
f 507/507/507 506/506/506 532/532/532
f 508/508/508 506/506/506 507/507/507
f 509/509/509 532/532/532 534/534/534
f 509/509/509 507/507/507 532/532/532
f 510/510/510 507/507/507 509/509/509
f 512/512/512 535/535/535 511/511/511
f 513/513/513 512/512/512 511/511/511
f 514/514/514 513/513/513 511/511/511
f 514/514/514 511/511/511 515/515/515
f 515/515/515 511/511/511 516/516/516
f 516/516/516 511/511/511 536/536/536
v -0.347757 0.778815 0.177000
v -0.229650 1.064320 0.246557
v -0.129014 0.715553 0.017484
v -0.055883 0.957518 0.042997
v -0.055883 0.957518 -0.040793
v -0.229650 1.064320 -0.244353
v -0.129014 0.715553 -0.015279
v -0.347757 0.778815 -0.174796
vn 0.296378 0.381534 0.875552
vn -0.499989 0.218519 -0.838010
vn -0.499989 0.218519 -0.838010
vn 0.856734 -0.247352 0.452574
vn -0.636594 0.342616 0.690914
vn -0.838694 -0.169522 0.517547
vn -0.838694 -0.169522 0.517547
vn -0.145493 -0.520826 -0.841173
vt 0.668464 0.782848
vt 0.668692 0.921536
vt 0.540192 0.781689
vt 0.541762 0.895416
vt 0.541762 0.895416
vt 0.668692 0.921536
vt 0.540192 0.781689
vt 0.668464 0.782848
f 549/549/549 548/548/548 547/547/547
f 548/548/548 549/549/549 550/550/550
f 547/547/547 548/548/548 549/549/549
f 550/550/550 549/549/549 548/548/548
f 544/544/544 545/545/545 546/546/546
f 545/545/545 544/544/544 543/543/543
f 544/544/544 546/546/546 545/545/545
f 545/545/545 543/543/543 544/544/544
v -0.117951 1.111053 -0.026508
v -0.168730 1.097790 0.000992
v -0.091592 1.290293 -0.006162
v -0.117529 1.112881 0.027244
v -0.064479 0.968211 -0.087798
v -0.090279 1.035606 -0.099929
v -0.090279 1.042488 0.097182
v -0.064479 0.974411 0.089783
v -0.117529 1.112881 0.027244
v 0.031741 0.995023 -0.090845
v 0.064558 1.109273 -0.036154
v -0.012527 1.073075 -0.095881
v 0.133252 1.025479 -0.000899
v 0.125925 1.141037 -0.004934
v 0.064558 1.111547 0.028996
v 0.008689 1.270721 -0.009462
v 0.031741 1.001371 0.090953
v 0.064558 1.111547 0.028996
v -0.012527 1.079583 0.090532
v 0.031741 1.001371 0.090953
v 0.000141 1.058404 0.239210
v -0.012527 1.079583 0.090532
v -0.041378 1.116616 0.156660
v -0.090279 1.042488 0.097182
v -0.054933 1.011995 0.231942
v -0.064479 0.974411 0.089783
v -0.113763 1.138237 0.281624
v -0.129917 1.096027 0.289332
v -0.259942 1.159051 0.224641
v -0.260456 1.189069 0.228998
v -0.348347 1.158363 0.087369
v -0.236785 1.187417 0.193442
v -0.114954 1.154902 0.226382
v -0.024808 0.973285 -0.136231
v -0.012527 1.073075 -0.095881
v -0.050610 1.051346 -0.147745
v -0.090279 1.035606 -0.099929
v -0.012527 1.073075 -0.095881
v -0.095651 1.228346 -0.082289
v -0.024808 0.982880 0.138606
v -0.012527 1.079583 0.090532
v -0.090279 1.042488 0.097182
v -0.050610 1.061525 0.143786
v -0.012527 1.079583 0.090532
v -0.095651 1.233559 0.067007
v 0.031741 0.995023 -0.090845
v -0.012527 1.073075 -0.095881
v 0.000141 1.041578 -0.242722
v -0.054933 0.995788 -0.232233
v -0.064479 0.968211 -0.087798
v -0.090279 1.035606 -0.099929
v -0.041378 1.105406 -0.164431
v -0.114954 1.138736 -0.236653
v -0.260456 1.172637 -0.241647
v -0.113763 1.118259 -0.290598
v -0.259942 1.142996 -0.235205
v -0.348347 1.151883 -0.098221
v -0.236785 1.173469 -0.206063
v -0.129917 1.075614 -0.295343
v 0.062517 0.943169 -0.048547
v -0.079124 1.045136 0.002080
v -0.072926 1.016060 0.003020
v -0.029038 1.014684 -0.027395
v 0.062517 0.943169 -0.048547
v -0.028565 1.016731 0.032767
v 0.062517 0.946692 0.052372
v 0.062517 0.943169 -0.048547
v 0.140411 0.955722 0.001536
v 0.062517 0.946692 0.052372
v 0.062517 0.946692 0.052372
vn -0.420500 -0.429784 -0.799040
vn -0.936319 -0.350893 0.013424
vn -0.041965 0.997765 -0.051993
vn -0.413321 -0.376509 0.829100
vn -0.683995 -0.724485 0.085276
vn -0.971166 -0.186709 0.148245
vn -0.971134 -0.196089 -0.135823
vn -0.688573 -0.723638 -0.047065
vn -0.413321 -0.376509 0.829100
vn 0.831549 0.322730 -0.452075
vn 0.058942 -0.079367 -0.995101
vn 0.854171 0.501031 -0.139138
vn 0.996120 -0.087975 0.002252
vn 0.923852 0.382369 -0.017084
vn 0.078492 -0.001341 0.996914
vn -0.736829 0.675347 -0.031452
vn 0.831573 0.352525 0.429199
vn 0.078492 -0.001341 0.996914
vn 0.853998 0.509470 0.105487
vn 0.831573 0.352525 0.429199
vn 0.942281 0.283994 0.177351
vn 0.853998 0.509470 0.105487
vn -0.275019 0.950824 -0.142474
vn -0.971134 -0.196089 -0.135823
vn -0.568865 -0.647744 0.506774
vn -0.688573 -0.723638 -0.047065
vn -0.193302 0.448932 0.872407
vn -0.259563 -0.900084 -0.349966
vn -0.456651 -0.654644 0.602421
vn -0.271643 0.809216 0.520940
vn -0.961652 0.219548 0.164392
vn 0.321040 -0.162958 -0.932940
vn 0.344339 0.909609 -0.232471
vn 0.322293 -0.777687 -0.539750
vn 0.854171 0.501031 -0.139138
vn -0.014737 0.107783 -0.994065
vn -0.971166 -0.186709 0.148245
vn 0.854171 0.501031 -0.139138
vn -0.287389 0.746088 -0.600634
vn 0.321283 -0.732056 0.600726
vn 0.853998 0.509470 0.105487
vn -0.971134 -0.196089 -0.135823
vn -0.015886 0.179465 0.983636
vn 0.853998 0.509470 0.105487
vn -0.288073 0.784922 0.548554
vn 0.831549 0.322730 -0.452075
vn 0.854171 0.501031 -0.139138
vn 0.942282 0.270931 -0.196726
vn -0.568866 -0.681513 -0.460360
vn -0.683995 -0.724485 0.085276
vn -0.971166 -0.186709 0.148245
vn -0.275024 0.958444 0.075810
vn 0.344338 0.923607 0.168469
vn -0.271650 0.770906 -0.576117
vn -0.193311 0.386972 -0.901601
vn -0.456641 -0.695090 -0.555273
vn -0.961663 0.207507 -0.179293
vn 0.321048 -0.097477 0.942033
vn -0.259559 -0.873479 0.411903
vn 0.545664 -0.787617 -0.286199
vn -0.889870 -0.456067 0.011592
vn -0.542370 -0.839954 0.017666
vn -0.022516 -0.785934 0.617901
vn 0.545664 -0.787617 -0.286199
vn -0.019957 -0.796766 -0.603959
vn 0.561096 -0.761675 0.324072
vn 0.545664 -0.787617 -0.286199
vn 0.994781 0.101973 -0.003559
vn 0.561096 -0.761675 0.324072
vn 0.561096 -0.761675 0.324072
vt 0.211192 0.827045
vt 0.233615 0.826920
vt 0.233615 0.956934
vt 0.256086 0.827031
vt 0.157398 0.766101
vt 0.152490 0.827118
vt 0.152530 0.827118
vt 0.157406 0.766100
vt 0.211472 0.827634
vt 0.157232 0.766074
vt 0.210947 0.827055
vt 0.152300 0.827120
vt 0.233615 0.761549
vt 0.233615 0.827180
vt 0.257069 0.827069
vt 0.233615 0.957286
vt 0.157246 0.766075
vt 0.211114 0.827069
vt 0.152283 0.827121
vt 0.776708 0.543624
vt 0.888429 0.582681
vt 0.778426 0.600322
vt 0.828558 0.631507
vt 0.782409 0.637918
vt 0.862417 0.609166
vt 0.775139 0.596987
vt 0.985513 0.743381
vt 0.953294 0.740345
vt 0.922605 0.907954
vt 0.936965 0.920854
vt 0.841536 0.977881
vt 0.902512 0.902417
vt 0.912419 0.752087
vt 0.233153 0.760185
vt 0.257556 0.827450
vt 0.233756 0.827381
vt 0.211057 0.827115
vt 0.257556 0.827450
vt 0.233273 0.957629
vt 0.233153 0.760185
vt 0.257556 0.827450
vt 0.211057 0.827115
vt 0.233756 0.827381
vt 0.257556 0.827450
vt 0.233273 0.957629
vt 0.776460 0.543624
vt 0.778178 0.600322
vt 0.888181 0.582681
vt 0.865164 0.610521
vt 0.774891 0.596987
vt 0.782161 0.637919
vt 0.828310 0.631507
vt 0.912171 0.752087
vt 0.936717 0.920855
vt 0.985265 0.743382
vt 0.921643 0.909594
vt 0.841288 0.977881
vt 0.902264 0.902417
vt 0.952475 0.741343
vt 0.746354 0.504577
vt 0.233615 0.762573
vt 0.233615 0.716626
vt 0.195918 0.719161
vt 0.161066 0.717460
vt 0.195931 0.719161
vt 0.161099 0.717460
vt 0.195555 0.719251
vt 0.233615 0.717288
vt 0.195568 0.719251
vt 0.746602 0.504577
f 552/552/552 551/551/551 611/611/611
f 551/551/551 552/552/552 553/553/553
f 554/554/554 551/551/551 553/553/553
f 556/556/556 555/555/555 551/551/551
f 611/611/611 551/551/551 555/555/555
f 551/551/551 554/554/554 611/611/611
f 554/554/554 552/552/552 611/611/611
f 552/552/552 554/554/554 553/553/553
f 559/559/559 558/558/558 557/557/557
f 558/558/558 559/559/559 611/611/611
f 611/611/611 612/612/612 558/558/558
f 612/612/612 611/611/611 555/555/555
f 612/612/612 555/555/555 613/613/613
f 555/555/555 614/614/614 613/613/613
f 558/558/558 612/612/612 615/615/615
f 558/558/558 615/615/615 616/616/616
f 562/562/562 561/561/561 560/560/560
f 560/560/560 561/561/561 563/563/563
f 617/617/617 560/560/560 563/563/563
f 618/618/618 617/617/617 563/563/563
f 619/619/619 618/618/618 563/563/563
f 561/561/561 564/564/564 563/563/563
f 564/564/564 565/565/565 563/563/563
f 565/565/565 561/561/561 563/563/563
f 561/561/561 565/565/565 566/566/566
f 564/564/564 561/561/561 566/566/566
f 565/565/565 564/564/564 566/566/566
f 567/567/567 619/619/619 563/563/563
f 568/568/568 567/567/567 563/563/563
f 568/568/568 569/569/569 567/567/567
f 572/572/572 571/571/571 570/570/570
f 573/573/573 571/571/571 572/572/572
f 573/573/573 572/572/572 574/574/574
f 575/575/575 573/573/573 574/574/574
f 575/575/575 574/574/574 576/576/576
f 575/575/575 576/576/576 620/620/620
f 571/571/571 575/575/575 620/620/620
f 570/570/570 571/571/571 620/620/620
f 579/579/579 578/578/578 577/577/577
f 580/580/580 579/579/579 577/577/577
f 581/581/581 579/579/579 580/580/580
f 581/581/581 580/580/580 582/582/582
f 579/579/579 582/582/582 578/578/578
f 581/581/581 582/582/582 579/579/579
f 582/582/582 580/580/580 583/583/583
f 582/582/582 583/583/583 578/578/578
f 580/580/580 577/577/577 583/583/583
f 586/586/586 585/585/585 584/584/584
f 587/587/587 586/586/586 584/584/584
f 588/588/588 587/587/587 584/584/584
f 587/587/587 588/588/588 589/589/589
f 586/586/586 587/587/587 589/589/589
f 585/585/585 586/586/586 589/589/589
f 592/592/592 591/591/591 590/590/590
f 593/593/593 592/592/592 590/590/590
f 594/594/594 593/593/593 590/590/590
f 593/593/593 594/594/594 595/595/595
f 591/591/591 592/592/592 595/595/595
f 592/592/592 593/593/593 595/595/595
f 598/598/598 597/597/597 596/596/596
f 598/598/598 596/596/596 610/610/610
f 599/599/599 598/598/598 610/610/610
f 600/600/600 599/599/599 610/610/610
f 601/601/601 599/599/599 600/600/600
f 602/602/602 599/599/599 601/601/601
f 597/597/597 602/602/602 601/601/601
f 598/598/598 602/602/602 597/597/597
f 605/605/605 604/604/604 603/603/603
f 606/606/606 604/604/604 605/605/605
f 606/606/606 607/607/607 604/604/604
f 608/608/608 607/607/607 606/606/606
f 604/604/604 608/608/608 603/603/603
f 604/604/604 607/607/607 608/608/608
f 608/608/608 606/606/606 609/609/609
f 603/603/603 608/608/608 609/609/609
f 609/609/609 606/606/606 605/605/605
v 0.000141 1.041578 -0.242722
v -0.129917 1.075614 -0.295343
v -0.054933 0.995788 -0.232233
v -0.114954 1.138736 -0.236653
v -0.041378 1.105406 -0.164431
v -0.113763 1.118259 -0.290598
v -0.054933 1.011995 0.231942
v -0.041378 1.116616 0.156660
v -0.114954 1.154902 0.226382
v -0.129917 1.096027 0.289332
v 0.000141 1.058404 0.239210
v -0.113763 1.138237 0.281624
vn 0.502038 0.099002 -0.859160
vn -0.128293 -0.541426 -0.830902
vn -0.759626 -0.626933 0.172981
vn -0.715397 0.115046 0.689181
vn 0.374552 0.925779 0.051416
vn 0.607836 0.556657 -0.566277
vn -0.759625 -0.637473 -0.128834
vn 0.374554 0.919938 -0.115857
vn -0.715401 0.066700 -0.695523
vn -0.128270 -0.482151 0.866647
vn 0.502052 0.158688 0.850154
vn 0.607840 0.594795 0.526069
vt 0.888181 0.582681
vt 0.952475 0.741343
vt 0.865164 0.610521
vt 0.912171 0.752087
vt 0.828310 0.631507
vt 0.985265 0.743382
vt 0.862417 0.609166
vt 0.828558 0.631507
vt 0.912419 0.752087
vt 0.953294 0.740345
vt 0.888429 0.582681
vt 0.985513 0.743381
f 623/623/623 622/622/622 621/621/621
f 624/624/624 622/622/622 623/623/623
f 625/625/625 624/624/624 623/623/623
f 626/626/626 624/624/624 625/625/625
f 621/621/621 626/626/626 625/625/625
f 622/622/622 626/626/626 621/621/621
f 629/629/629 628/628/628 627/627/627
f 630/630/630 629/629/629 627/627/627
f 630/630/630 627/627/627 631/631/631
f 632/632/632 630/630/630 631/631/631
f 632/632/632 631/631/631 628/628/628
f 629/629/629 632/632/632 628/628/628
v -0.105324 0.428782 0.026392
v -0.105810 0.428782 -0.029351
v -0.105566 0.284461 -0.001479
v -0.104670 0.555629 -0.050107
v -0.103821 0.555629 0.047126
v -0.102812 0.675287 0.073014
v -0.103705 0.675281 -0.073229
v -0.104670 0.555629 -0.050107
v -0.103705 0.675281 -0.073229
v -0.102812 0.675287 0.073014
v -0.103821 0.555629 0.047126
v -0.105810 0.428782 -0.029351
v -0.105324 0.428782 0.026392
v -0.103821 0.555629 0.047126
v -0.104670 0.555629 -0.050107
v -0.105810 0.428782 -0.029351
v -0.104670 0.555629 -0.050107
v -0.103821 0.555629 0.047126
v -0.105324 0.428782 0.026392
v 0.113464 0.555629 0.047274
v 0.100404 0.675285 0.072128
v 0.101388 0.675281 -0.073157
v 0.113464 0.555629 -0.049962
v 0.114785 0.428782 0.026529
v 0.114785 0.428782 -0.029217
v 0.113464 0.555629 -0.049962
v 0.113464 0.555629 0.047274
v 0.114785 0.428782 0.026529
v 0.113464 0.555629 0.047274
v 0.113464 0.555629 -0.049962
v 0.114785 0.428782 -0.029217
v -0.105566 0.284461 -0.001479
v -0.105810 0.428782 -0.029351
v -0.105324 0.428782 0.026392
v 0.113464 0.555629 0.047274
v 0.113464 0.555629 -0.049962
v 0.101388 0.675281 -0.073157
v 0.100404 0.675285 0.072128
v 0.114785 0.428782 -0.029217
v 0.114785 0.428782 0.026529
v 0.114785 0.284461 -0.001344
v 0.114785 0.284461 -0.001344
v 0.114785 0.428782 0.026529
v 0.114785 0.428782 -0.029217
vn -0.999970 0.007683 0.000000
vn -0.999968 -0.007942 0.000000
vn 0.000000 0.000000 0.000000
vn 0.000000 0.000000 0.000000
vn 0.000000 -1.000000 0.000000
vn 0.000000 0.000000 0.000000
vn 0.000000 0.000000 0.000000
vn 0.000000 0.000000 0.000000
vn 0.000000 0.000000 0.000000
vn 0.000000 0.000000 0.000000
vn 0.000000 -1.000000 0.000000
vn -0.999968 -0.007942 0.000000
vn -0.999970 0.007683 0.000000
vn 0.000000 -1.000000 0.000000
vn 0.000000 0.000000 0.000000
vn -0.999968 -0.007942 0.000000
vn 0.000000 0.000000 0.000000
vn 0.000000 -1.000000 0.000000
vn -0.999970 0.007683 0.000000
vn 0.000000 0.000000 0.000000
vn 0.000000 0.000000 0.000000
vn 0.000000 0.000000 0.000000
vn 0.000000 0.000000 0.000000
vn 0.000000 1.000000 0.000000
vn 0.000000 0.000000 0.000000
vn 0.000000 0.000000 0.000000
vn 0.000000 0.000000 0.000000
vn 0.000000 1.000000 0.000000
vn 0.000000 0.000000 0.000000
vn 0.000000 0.000000 0.000000
vn 0.000000 0.000000 0.000000
vn 0.000000 0.000000 0.000000
vn -0.999968 -0.007942 0.000000
vn -0.999970 0.007683 0.000000
vn 0.000000 0.000000 0.000000
vn 0.000000 0.000000 0.000000
vn 0.000000 0.000000 0.000000
vn 0.000000 0.000000 0.000000
vn 0.000000 0.000000 0.000000
vn 0.000000 1.000000 0.000000
vn 0.000000 0.000000 0.000000
vn 0.000000 0.000000 0.000000
vn 0.000000 1.000000 0.000000
vn 0.000000 0.000000 0.000000
vt 0.661041 0.804234
vt 0.646620 0.899993
vt 0.665723 0.854329
vt 0.611490 0.912009
vt 0.618643 0.779805
vt 0.534231 0.778877
vt 0.541663 0.901962
vt 0.611490 0.912009
vt 0.541663 0.901962
vt 0.534231 0.778877
vt 0.618643 0.779805
vt 0.646620 0.899993
vt 0.661041 0.804234
vt 0.618643 0.779805
vt 0.611490 0.912009
vt 0.646620 0.899993
vt 0.611490 0.912009
vt 0.618643 0.779805
vt 0.661041 0.804234
vt 0.611468 0.911993
vt 0.541607 0.901935
vt 0.534201 0.778853
vt 0.618566 0.779727
vt 0.646602 0.899969
vt 0.661023 0.804207
vt 0.618566 0.779727
vt 0.611468 0.911993
vt 0.646602 0.899969
vt 0.611468 0.911993
vt 0.618566 0.779727
vt 0.661023 0.804207
vt 0.665723 0.854329
vt 0.646620 0.899993
vt 0.661041 0.804234
vt 0.611468 0.911993
vt 0.618566 0.779727
vt 0.534201 0.778853
vt 0.541607 0.901935
vt 0.661023 0.804207
vt 0.646602 0.899969
vt 0.665720 0.854319
vt 0.665720 0.854319
vt 0.646602 0.899969
vt 0.661023 0.804207
f 635/635/635 634/634/634 633/633/633
f 638/638/638 637/637/637 636/636/636
f 636/636/636 639/639/639 638/638/638
f 642/642/642 641/641/641 640/640/640
f 640/640/640 643/643/643 642/642/642
f 646/646/646 645/645/645 644/644/644
f 644/644/644 647/647/647 646/646/646
f 650/650/650 649/649/649 648/648/648
f 648/648/648 651/651/651 650/650/650
f 654/654/654 653/653/653 652/652/652
f 652/652/652 655/655/655 654/654/654
f 658/658/658 657/657/657 656/656/656
f 656/656/656 659/659/659 658/658/658
f 662/662/662 661/661/661 660/660/660
f 660/660/660 663/663/663 662/662/662
f 666/666/666 665/665/665 664/664/664
f 669/669/669 668/668/668 667/667/667
f 667/667/667 670/670/670 669/669/669
f 673/673/673 672/672/672 671/671/671
f 676/676/676 675/675/675 674/674/674
v 0.102807 0.732663 -0.040324
v 0.133641 0.711840 -0.025726
v 0.114629 0.744231 0.013120
v 0.132179 0.727750 0.012969
v 0.095270 0.726668 0.062275
v 0.128164 0.707483 0.048846
v 0.094002 0.661962 0.078912
v 0.128479 0.659529 0.060956
v 0.097019 0.598871 0.053067
v 0.132229 0.612511 0.042195
v 0.103209 0.568176 -0.000548
v 0.133690 0.596602 0.003500
v 0.160802 0.659515 0.009830
v 0.137706 0.616869 -0.032377
v 0.136225 0.665692 -0.044504
v 0.104556 0.604867 -0.049532
v 0.104659 0.670442 -0.066185
vn 0.616100 0.481941 -0.623020
vn 0.777712 0.498251 -0.383288
vn 0.674865 0.737228 -0.032434
vn 0.783112 0.595853 0.178031
vn 0.577769 0.533733 0.617504
vn 0.689729 0.342445 0.637970
vn 0.466775 0.035720 0.883654
vn 0.627236 -0.090955 0.773500
vn 0.432662 -0.483808 0.760745
vn 0.689550 -0.505318 0.518821
vn 0.626680 -0.768495 0.129182
vn 0.770759 -0.630146 -0.094060
vn 0.997274 0.011622 0.072863
vn 0.738828 -0.362435 -0.568133
vn 0.738897 0.128676 -0.661418
vn 0.574625 -0.569417 -0.587853
vn 0.555911 -0.024258 -0.830888
vt 0.763903 0.031249
vt 0.792376 0.059721
vt 0.877582 -0.004000
vt 0.873696 0.028184
vt 0.980898 0.039020
vt 0.959550 0.064902
vt 0.998658 0.147518
vt 0.963887 0.147518
vt 0.969241 0.243711
vt 0.944654 0.219124
vt 0.877582 0.291909
vt 0.878877 0.244833
vt 0.877582 0.149461
vt 0.796909 0.237905
vt 0.762781 0.146223
vt 0.783332 0.248244
vt 0.740962 0.146223
f 679/679/679 678/678/678 677/677/677
f 680/680/680 678/678/678 679/679/679
f 681/681/681 680/680/680 679/679/679
f 682/682/682 680/680/680 681/681/681
f 683/683/683 682/682/682 681/681/681
f 684/684/684 682/682/682 683/683/683
f 685/685/685 684/684/684 683/683/683
f 686/686/686 684/684/684 685/685/685
f 687/687/687 686/686/686 685/685/685
f 688/688/688 686/686/686 687/687/687
f 684/684/684 689/689/689 682/682/682
f 686/686/686 689/689/689 684/684/684
f 691/691/691 689/689/689 690/690/690
f 690/690/690 689/689/689 688/688/688
f 688/688/688 689/689/689 686/686/686
f 692/692/692 688/688/688 687/687/687
f 690/690/690 688/688/688 692/692/692
f 693/693/693 690/690/690 692/692/692
f 691/691/691 690/690/690 693/693/693
f 682/682/682 689/689/689 680/680/680
f 680/680/680 689/689/689 678/678/678
f 678/678/678 689/689/689 691/691/691
f 678/678/678 691/691/691 677/677/677
f 677/677/677 691/691/691 693/693/693
v 0.143769 0.652509 -0.055525
v 0.114246 0.651348 -0.068353
v 0.110255 0.653082 -0.084051
v 0.156521 0.645203 -0.055608
v 0.093240 0.579738 -0.054019
v 0.142491 0.591126 -0.033944
v 0.104728 0.559650 0.008075
v 0.137354 0.570297 0.010763
v 0.138054 0.592152 0.054658
v 0.187149 0.642521 0.010982
v 0.175398 0.649304 0.010316
v 0.111492 0.667396 -0.081416
v 0.154566 0.664900 -0.048342
v 0.101455 0.746866 -0.058978
v 0.146102 0.724331 -0.032690
v 0.177222 0.669542 0.021045
v 0.137997 0.749155 0.009465
v 0.107518 0.770582 0.002602
v 0.150285 0.646732 0.074704
v 0.138534 0.653515 0.074037
v 0.130751 0.730991 0.054437
v 0.132894 0.674397 0.079800
v 0.080336 0.756029 0.060894
v 0.101676 0.655186 0.095237
v 0.085886 0.664321 0.086963
v 0.081678 0.680460 0.094886
v 0.087137 0.581149 0.067883
vn 0.559158 0.678368 -0.476612
vn 0.168611 0.948638 -0.267688
vn 0.168611 0.948638 -0.267688
vn 0.559158 0.678368 -0.476612
vn 0.415198 -0.604361 -0.679970
vn 0.589243 -0.671683 -0.449039
vn 0.326202 -0.938213 -0.115536
vn 0.549431 -0.826964 0.119397
vn 0.543359 -0.551129 0.633260
vn 0.825509 0.564103 0.017944
vn 0.825509 0.564103 0.017944
vn 0.593777 0.287214 -0.751623
vn 0.727518 0.271206 -0.630210
vn 0.612574 0.457155 -0.644797
vn 0.764424 0.514697 -0.388256
vn 0.919617 0.370792 0.129687
vn 0.700242 0.696516 0.156609
vn 0.580939 0.808936 -0.090176
vn 0.523502 0.627375 0.576494
vn 0.523502 0.627375 0.576494
vn 0.573652 0.501980 0.647256
vn 0.563417 0.355557 0.745749
vn 0.424461 0.692052 0.583863
vn 0.398119 0.045199 0.916219
vn 0.315670 0.757414 0.571556
vn 0.304637 0.397149 0.865719
vn 0.302266 -0.746500 0.592768
vt 0.745934 0.221518
vt 0.745363 0.199707
vt 0.773812 0.202181
vt 0.777475 0.225228
vt 0.827082 0.219630
vt 0.799364 0.248838
vt 0.865292 0.332347
vt 0.823359 0.329305
vt 0.798561 0.416091
vt 0.767348 0.336983
vt 0.745703 0.336364
vt 0.745363 0.199707
vt 0.745934 0.221518
vt 0.827082 0.219630
vt 0.799364 0.248838
vt 0.745703 0.336364
vt 0.823359 0.329305
vt 0.865292 0.332347
vt 0.770931 0.421971
vt 0.749904 0.422590
vt 0.798561 0.416091
vt 0.749904 0.422590
vt 0.824993 0.436755
vt 0.768749 0.454256
vt 0.750814 0.457349
vt 0.750814 0.457349
vt 0.824993 0.436755
f 696/696/696 695/695/695 694/694/694
f 694/694/694 697/697/697 696/696/696
f 698/698/698 696/696/696 697/697/697
f 699/699/699 698/698/698 697/697/697
f 700/700/700 698/698/698 699/699/699
f 701/701/701 700/700/700 699/699/699
f 720/720/720 700/700/700 701/701/701
f 702/702/702 720/720/720 701/701/701
f 717/717/717 720/720/720 702/702/702
f 712/712/712 717/717/717 702/702/702
f 701/701/701 699/699/699 703/703/703
f 702/702/702 701/701/701 703/703/703
f 712/712/712 702/702/702 703/703/703
f 699/699/699 697/697/697 703/703/703
f 718/718/718 717/717/717 712/712/712
f 712/712/712 713/713/713 718/718/718
f 697/697/697 694/694/694 704/704/704
f 704/704/704 703/703/703 697/697/697
f 703/703/703 704/704/704 713/713/713
f 713/713/713 712/712/712 703/703/703
f 707/707/707 706/706/706 705/705/705
f 708/708/708 706/706/706 707/707/707
f 708/708/708 709/709/709 706/706/706
f 710/710/710 709/709/709 708/708/708
f 714/714/714 709/709/709 710/710/710
f 714/714/714 710/710/710 716/716/716
f 719/719/719 714/714/714 716/716/716
f 710/710/710 708/708/708 711/711/711
f 716/716/716 710/710/710 711/711/711
f 711/711/711 708/708/708 707/707/707
f 715/715/715 709/709/709 714/714/714
f 715/715/715 714/714/714 719/719/719
v -0.239575 0.799738 -0.082680
v -0.210045 0.760441 -0.006437
v -0.200964 0.836462 -0.006703
v -0.289062 0.736286 -0.017847
v -0.186303 0.777602 -0.045299
v -0.288280 0.739310 0.008957
v -0.185775 0.779644 0.035297
v -0.273982 0.795232 -0.006964
v -0.465605 0.820385 -0.005312
v -0.386652 0.997051 -0.005450
v -0.295637 0.871910 0.031950
v -0.296457 0.870149 -0.042135
v -0.291191 0.911561 -0.006108
v -0.170872 0.897383 -0.007291
v -0.174916 0.861316 0.027326
v -0.175661 0.859718 -0.040059
vn 0.000000 0.000000 0.000000
vn 0.000000 0.000000 0.000000
vn -0.466539 0.675979 -0.570433
vn -0.185645 -0.355661 -0.915992
vn 0.224126 -0.873715 -0.431729
vn 0.006378 -0.721063 0.692840
vn -0.168348 -0.044761 0.984711
vn -0.393693 0.837007 0.380033
vn -0.612626 -0.774419 0.157999
vn 0.322554 0.945836 -0.036789
vn -0.193397 -0.663583 0.722672
vn -0.128041 0.118900 -0.984616
vn 0.360815 0.913264 0.189106
vn 0.105241 0.923847 -0.368010
vn 0.058596 0.245466 0.967633
vn -0.068233 -0.882481 -0.465373
vt 0.020653 0.271569
vt 0.617658 0.512373
vt 0.646201 0.741877
vt 0.611879 0.897181
vt 0.588521 0.776315
vt 0.653936 0.898340
vt 0.681422 0.765889
vt 0.637634 0.876299
vt 0.636288 0.973195
vt 0.636256 0.972763
vt 0.654272 0.898744
vt 0.611618 0.897709
vt 0.637125 0.876236
vt 0.646048 0.741881
vt 0.681490 0.765823
vt 0.588585 0.775798
f 725/725/725 724/724/724 723/723/723
f 724/724/724 725/725/725 726/726/726
f 727/727/727 726/726/726 725/725/725
f 726/726/726 727/727/727 728/728/728
f 724/724/724 726/726/726 729/729/729
f 728/728/728 724/724/724 729/729/729
f 728/728/728 723/723/723 724/724/724
f 723/723/723 728/728/728 727/727/727
f 728/728/728 729/729/729 726/726/726
f 732/732/732 731/731/731 730/730/730
f 733/733/733 732/732/732 730/730/730
f 733/733/733 734/734/734 732/732/732
f 734/734/734 733/733/733 735/735/735
f 733/733/733 730/730/730 731/731/731
f 736/736/736 732/732/732 734/734/734
f 732/732/732 736/736/736 731/731/731
f 735/735/735 731/731/731 736/736/736
f 731/731/731 735/735/735 733/733/733
v -0.252786 0.612761 0.311733
v -0.323641 0.644751 0.328752
v -0.253255 0.620148 0.287030
v -0.178292 0.576263 0.283284
v -0.234787 0.594547 0.270367
v -0.262047 0.597365 0.293235
v -0.255312 0.566075 0.219427
v -0.282134 0.606608 0.247549
v -0.290950 0.568780 0.217208
v -0.404693 0.638875 0.192427
v -0.279099 0.584874 0.172174
v -0.270158 0.622659 0.202533
v -0.241111 0.602876 0.209404
v -0.215891 0.564732 0.187780
v -0.227359 0.547189 0.225994
v -0.218386 0.582614 0.249782
v -0.274802 0.613221 0.282205
v -0.206918 0.600158 0.211568
v -0.230450 0.563563 0.162846
v -0.247073 0.576001 0.133811
v -0.269066 0.572225 0.139959
v -0.255866 0.553218 0.140017
v -0.313616 0.573160 0.080289
v -0.244922 0.556638 0.116916
v -0.173555 0.542428 0.165862
v 0.476523 0.345903 0.235843
v 0.375904 0.335770 0.200020
v 0.272380 0.305544 -0.057507
v 0.511600 0.282325 0.192280
v 0.540434 0.295130 0.272565
v 0.458112 0.287428 0.251937
v 0.459289 0.277692 0.331345
v 0.341535 0.368162 0.254783
v 0.367086 0.347170 0.307613
v 0.486188 0.386192 0.301188
v 0.817146 0.214404 0.364029
v 0.536184 0.325418 0.377746
v 0.452407 0.328081 0.393113
v 0.470818 0.386555 0.377020
v 0.501179 0.356584 0.450165
v 0.338137 0.392485 0.339146
v 0.367615 0.394836 0.405141
v 0.244565 0.503762 0.630851
v 0.383212 0.388955 0.296232
vn 0.345015 0.120324 0.930853
vn -0.914947 0.385678 0.118849
vn 0.268928 0.944002 -0.191151
vn 0.935920 -0.323412 0.139493
vn 0.936360 -0.347333 0.050894
vn -0.425282 -0.854327 0.298766
vn -0.244958 -0.934217 0.259296
vn -0.584769 0.415705 0.696587
vn -0.326987 -0.911495 0.249513
vn -0.936348 0.325489 -0.131567
vn -0.522382 -0.030814 -0.852155
vn 0.370730 0.896288 -0.243368
vn 0.448800 0.863353 -0.230652
vn 0.181459 -0.323313 -0.928731
vn -0.580516 -0.788331 0.203804
vn 0.104995 0.223722 0.968981
vn -0.904025 0.255808 -0.342493
vn 0.093377 0.957684 -0.272253
vn 0.929778 -0.301418 0.211330
vn 0.273956 0.906936 -0.320025
vn -0.921459 0.378842 0.085974
vn -0.419914 -0.891514 0.169929
vn -0.895170 0.243670 -0.373222
vn 0.415964 -0.384860 -0.823928
vn 0.936705 -0.327567 0.123626
vn 0.370413 0.823353 -0.429982
vn -0.955432 0.284923 -0.077259
vn -0.647158 -0.159494 -0.745485
vn 0.778259 -0.444189 -0.443857
vn 0.623745 -0.404170 -0.669021
vn -0.299571 -0.951562 0.069187
vn -0.359099 -0.900592 0.244911
vn -0.718714 0.075338 -0.691213
vn -0.621725 -0.758896 0.193739
vn 0.332713 0.909674 -0.248586
vn 0.965183 -0.238396 0.107651
vn 0.563335 0.026286 0.825811
vn -0.313988 -0.849246 0.424492
vn 0.354972 0.933716 -0.046588
vn 0.733309 -0.123878 0.668515
vn -0.766387 0.415578 0.489843
vn -0.952206 0.261840 -0.157299
vn -0.704189 0.246848 0.665721
vn 0.039024 0.960553 -0.275344
vt 0.568413 1.733326
vt 0.550065 1.762288
vt 0.536095 1.736849
vt 0.576142 1.656494
vt 0.507775 1.697773
vt 0.536095 1.736849
vt 0.424456 1.708231
vt 0.471686 1.766843
vt 0.416217 1.757465
vt 0.433322 1.662826
vt 0.471725 1.766850
vt 0.416217 1.757465
vt 0.424456 1.708231
vt 0.478035 1.668573
vt 0.432371 1.660930
vt 0.477866 1.668545
vt 0.523458 1.761920
vt 0.432371 1.660932
vt 0.507801 1.697777
vt 0.536135 1.736855
vt 0.523639 1.761951
vt 0.536135 1.736855
vt 0.550272 1.762324
vt 0.568473 1.733336
vt 0.576168 1.656498
vt -0.044771 1.939633
vt -0.093507 1.907844
vt -0.093129 1.999837
vt -0.000513 1.997787
vt 0.000379 1.910852
vt -0.044683 1.939633
vt -0.045773 1.908110
vt -0.094125 1.999687
vt -0.094624 1.907832
vt -0.045850 1.907785
vt -0.000826 1.997239
vt 0.000379 1.910837
vt -0.044713 1.939619
vt -0.044740 1.939619
vt -0.000513 1.997773
vt -0.094125 1.999668
vt -0.093507 1.907822
vt -0.093129 1.999821
vt -0.094624 1.907832
f 739/739/739 738/738/738 737/737/737
f 737/737/737 740/740/740 739/739/739
f 740/740/740 741/741/741 739/739/739
f 741/741/741 740/740/740 742/742/742
f 743/743/743 741/741/741 742/742/742
f 744/744/744 743/743/743 742/742/742
f 745/745/745 743/743/743 744/744/744
f 746/746/746 745/745/745 744/744/744
f 745/745/745 746/746/746 747/747/747
f 746/746/746 748/748/748 747/747/747
f 748/748/748 746/746/746 744/744/744
f 748/748/748 749/749/749 747/747/747
f 748/748/748 744/744/744 749/749/749
f 740/740/740 737/737/737 742/742/742
f 751/751/751 743/743/743 750/750/750
f 751/751/751 752/752/752 743/743/743
f 741/741/741 743/743/743 752/752/752
f 749/749/749 741/741/741 752/752/752
f 741/741/741 749/749/749 739/739/739
f 749/749/749 744/744/744 739/739/739
f 739/739/739 744/744/744 753/753/753
f 744/744/744 742/742/742 753/753/753
f 742/742/742 738/738/738 753/753/753
f 738/738/738 742/742/742 737/737/737
f 738/738/738 739/739/739 753/753/753
f 752/752/752 754/754/754 749/749/749
f 754/754/754 750/750/750 749/749/749
f 743/743/743 755/755/755 750/750/750
f 755/755/755 749/749/749 750/750/750
f 749/749/749 755/755/755 756/756/756
f 747/747/747 749/749/749 756/756/756
f 747/747/747 756/756/756 757/757/757
f 758/758/758 747/747/747 757/757/757
f 759/759/759 758/758/758 757/757/757
f 758/758/758 759/759/759 760/760/760
f 756/756/756 759/759/759 757/757/757
f 759/759/759 756/756/756 760/760/760
f 761/761/761 760/760/760 756/756/756
f 755/755/755 761/761/761 756/756/756
f 761/761/761 755/755/755 758/758/758
f 755/755/755 743/743/743 758/758/758
f 743/743/743 747/747/747 758/758/758
f 745/745/745 747/747/747 743/743/743
f 760/760/760 761/761/761 758/758/758
f 764/764/764 763/763/763 762/762/762
f 765/765/765 764/764/764 762/762/762
f 766/766/766 765/765/765 762/762/762
f 767/767/767 765/765/765 766/766/766
f 767/767/767 766/766/766 768/768/768
f 769/769/769 767/767/767 768/768/768
f 768/768/768 770/770/770 769/769/769
f 764/764/764 765/765/765 767/767/767
f 763/763/763 764/764/764 767/767/767
f 769/769/769 763/763/763 767/767/767
f 763/763/763 769/769/769 762/762/762
f 771/771/771 762/762/762 769/769/769
f 762/762/762 771/771/771 766/766/766
f 771/771/771 772/772/772 766/766/766
f 772/772/772 768/768/768 766/766/766
f 768/768/768 772/772/772 773/773/773
f 774/774/774 768/768/768 773/773/773
f 772/772/772 771/771/771 773/773/773
f 773/773/773 771/771/771 775/775/775
f 775/775/775 776/776/776 773/773/773
f 775/775/775 771/771/771 777/777/777
f 770/770/770 768/768/768 777/777/777
f 778/778/778 777/777/777 774/774/774
f 774/774/774 777/777/777 768/768/768
f 776/776/776 774/774/774 773/773/773
f 776/776/776 779/779/779 774/774/774
f 779/779/779 776/776/776 775/775/775
f 778/778/778 779/779/779 775/775/775
f 777/777/777 778/778/778 775/775/775
f 779/779/779 778/778/778 774/774/774
f 780/780/780 777/777/777 771/771/771
f 769/769/769 780/780/780 771/771/771
v 0.377962 0.356891 0.266142
v -0.233546 0.570359 0.183428
v -0.245702 0.551763 0.223936
v -0.224035 0.607911 0.208644
v 0.413588 0.374666 0.301574
v 0.375056 0.377683 0.338259
v 0.399804 0.338946 0.311303
v -0.236192 0.589315 0.249151
vn 0.047716 -0.279966 -0.958823
vn 0.033942 -0.275064 -0.960827
vn -0.342548 -0.906336 0.247418
vn 0.355350 0.901887 -0.245612
vn 0.364336 0.898646 -0.244325
vn -0.029706 0.273481 0.961419
vn -0.333468 -0.909374 0.248674
vn -0.043489 0.278382 0.959485
vt 0.941284 0.038857
vt 0.933817 0.287147
vt 0.957998 0.287147
vt 0.957920 0.287147
vt 0.959487 0.025989
vt 0.977832 0.037165
vt 0.959775 0.025989
vt 0.984493 0.287147
f 783/783/783 782/782/782 781/781/781
f 782/782/782 784/784/784 781/781/781
f 785/785/785 781/781/781 784/784/784
f 786/786/786 785/785/785 784/784/784
f 781/781/781 787/787/787 783/783/783
f 787/787/787 786/786/786 783/783/783
f 788/788/788 783/783/783 786/786/786
f 784/784/784 788/788/788 786/786/786
