# WC3 MDX geosets → Unity Y-up
mtllib materials.mtl
usemtl Faceless
o Model
v 0.372721 2.071850 -0.046403
v 0.306971 2.117780 -0.050271
v 0.044318 2.144932 -0.070753
v 0.199096 2.248999 -0.142257
v -0.109147 2.418630 -0.251623
v 0.316883 2.166232 -0.146656
v -0.221300 2.126650 -0.288215
v -0.268832 2.030630 -0.253186
v -0.359118 2.180110 -0.341573
v -0.314119 1.927440 -0.231053
v -0.029122 1.884500 -0.138058
v -0.376548 1.329890 -0.366300
v -0.287702 1.396150 -0.315067
v -0.141490 1.517330 -0.230570
v -0.092747 1.833910 -0.116617
v -0.045114 1.798470 -0.227996
v -0.024046 1.712250 -0.233572
v 0.084471 1.664130 -0.235844
v 0.063727 1.527310 -0.159835
v -0.089666 1.627770 -0.109460
v 0.011252 1.474110 -0.172852
v -0.033518 1.595760 -0.119768
v -0.031347 1.394320 -0.000000
v -0.261742 2.205370 -0.281754
v -0.252316 2.153580 -0.218929
v -0.375850 1.955930 -0.236032
v -0.293815 2.052050 -0.200871
v -0.323780 2.082880 -0.261970
v -0.350604 2.240840 -0.325608
v -0.769084 2.420540 -0.498244
v -0.405028 2.156030 -0.308921
v -0.495111 2.124600 -0.329764
v -0.386448 2.322850 -0.375945
v -0.173076 2.256950 -0.262270
v 0.004841 1.950240 -0.112145
v -0.092747 1.833910 -0.116617
v -0.382012 2.206420 -0.282751
v -0.336328 1.946730 -0.181415
v -0.162818 1.958630 -0.180553
v -0.048827 2.134530 -0.194143
v -0.061606 1.897590 -0.089659
v -0.456126 1.343350 -0.365531
v -0.773209 1.016860 -0.584002
v -0.390732 1.247640 -0.359862
v -0.388391 1.156880 -0.383443
v -0.550991 1.356430 -0.408008
v -0.403032 1.315070 -0.311741
v -0.321548 1.377210 -0.245343
v -0.388558 1.432470 -0.308469
v -0.338475 1.549210 -0.252372
v -0.280580 1.292110 -0.294291
v -0.162907 1.308780 -0.232643
v -0.214695 1.600120 -0.195518
v -0.080289 1.417090 -0.145968
v -0.180442 1.501980 -0.150346
v 0.011252 1.474110 -0.172852
v 0.067707 1.289910 -0.119524
v 0.098569 1.051490 -0.076643
v 0.094039 0.898176 -0.061555
v 0.063727 1.527310 -0.159835
v 0.175386 1.324700 -0.073505
v -0.031347 1.394320 -0.000000
v 0.004841 1.950240 -0.112145
v 0.008772 1.866910 -0.227995
v 0.108960 1.864780 -0.223479
v 0.044309 1.252630 -0.431435
v 0.050856 1.174010 -0.417572
v 0.104855 1.243180 -0.360298
v 0.044309 1.252630 -0.289161
v -0.006445 1.277100 -0.360298
v 0.050856 1.174010 -0.303023
v -0.044122 1.214360 -0.360298
v 0.129891 1.160960 -0.360298
v 0.052772 1.321520 -0.403434
v 0.097056 1.330880 -0.360298
v 0.001165 1.351740 -0.360298
v 0.052772 1.321520 -0.317162
v 0.055165 1.018540 -0.321576
v 0.113135 1.020580 -0.360298
v -0.001783 1.038980 -0.360298
v 0.055165 1.021130 -0.401828
v 0.322989 2.170222 -0.025311
v 0.297011 2.181640 -0.000000
v 0.103420 1.519900 -0.364187
v 0.057125 1.526090 -0.314366
v -0.000200 1.547100 -0.364187
v 0.060617 1.578440 -0.426761
v -0.011291 1.594260 -0.355778
v 0.126377 1.572350 -0.355778
v 0.065713 1.604670 -0.280611
v 0.057125 1.521290 -0.405920
v -0.067858 1.562490 -0.088488
v -0.029122 1.884500 -0.138058
v -0.061606 1.897590 -0.089659
v -0.021113 1.524720 -0.105350
v 0.056894 0.634479 -0.399131
v 0.068831 0.721019 -0.408745
v 0.305566 2.067760 -0.049511
v 0.244656 1.977510 -0.087558
v 0.122112 1.976560 -0.121667
v 0.165411 2.035190 -0.071765
v 0.120361 2.082520 -0.000000
v 0.306971 2.117780 -0.050271
v 0.044318 2.144932 -0.070753
v 0.256729 1.915450 -0.069923
v 0.187917 1.929780 -0.135745
v 0.264078 1.536110 -0.000000
v 0.180502 1.757490 -0.220008
v 0.233539 1.817280 -0.134857
v 0.156715 1.815580 -0.220575
v 0.263608 1.697600 -0.120442
v 0.084471 1.664130 -0.235844
v 0.170257 1.527610 -0.137041
v 0.164143 1.715270 -0.233572
v 0.063727 1.527310 -0.159835
v 0.225112 1.572950 -0.084201
v 0.251105 2.090157 -0.106573
v 0.411610 2.161205 -0.104076
v 0.251105 2.090157 -0.106573
v 0.462313 2.062080 -0.000000
v 0.411610 2.161205 -0.104076
v -0.262281 1.540110 -0.024728
v -0.375850 1.955930 -0.236032
v -0.391933 1.871040 -0.210359
v -0.670914 1.974030 -0.352057
v -0.324047 1.881100 -0.211888
v -0.314119 1.927440 -0.231053
v -0.342504 1.897130 -0.170639
v -0.336328 1.946730 -0.181415
v -0.162251 1.884190 -0.116156
v -0.391933 1.871040 -0.210359
v -0.324047 1.881100 -0.211888
v -0.326652 1.763540 -0.167036
v -0.342504 1.897130 -0.170639
v -0.344744 1.779250 -0.126597
v -0.388801 1.770850 -0.170221
v -0.580643 1.648730 -0.218382
v -0.326652 1.763540 -0.167036
v -0.344744 1.779250 -0.126597
v -0.388801 1.770850 -0.170221
v -0.320319 1.714400 -0.140474
v -0.365443 1.692490 -0.129532
v -0.335266 1.727380 -0.107069
v -0.177722 1.813360 -0.085513
v 0.350776 2.013190 -0.012665
v 0.394088 1.993960 -0.029612
v 0.456471 1.959770 -0.000000
v 0.449220 2.034520 -0.000000
v 0.350776 2.013190 -0.012665
v 0.372721 2.071850 -0.046403
v 0.305566 2.067760 -0.049511
v -0.033518 1.595760 -0.119768
v -0.089666 1.627770 -0.109460
v -0.067858 1.562490 -0.088488
v -0.021113 1.524720 -0.105350
v 0.127812 0.801730 -0.359324
v 0.022366 0.806501 -0.359324
v -0.013752 0.736156 -0.358351
v 0.056894 0.634479 -0.317571
v -0.032531 0.675582 -0.358351
v 0.068831 0.722514 -0.312442
v 0.175200 0.727974 -0.358351
v 0.218091 0.679972 -0.358351
v 0.170257 1.527610 -0.137041
v 0.264078 1.536110 -0.000000
v 0.225112 1.572950 -0.084201
v 0.094102 0.433622 -0.095197
v 0.092595 0.712016 -0.132954
v 0.072864 0.791973 -0.318937
v 0.074706 0.791711 -0.401828
v 0.155965 0.652659 -0.383134
v 0.155965 0.652659 -0.333568
v 0.195767 0.556887 -0.387887
v 0.195767 0.556887 -0.328815
v 0.227165 0.586392 -0.358351
v 0.243276 0.553810 -0.358351
v 0.224308 0.432703 -0.358351
v 0.189566 0.400952 -0.358351
v 0.118669 0.635417 -0.388905
v 0.118669 0.635417 -0.327797
v -0.044876 0.578768 -0.358351
v 0.062852 0.537169 -0.373533
v 0.110162 0.539562 -0.375431
v 0.060898 0.516407 -0.374060
v 0.063246 0.536725 -0.333866
v 0.108011 0.515967 -0.373648
v 0.095845 0.539475 -0.333465
v -0.041479 0.550125 -0.354315
v 0.064426 0.435376 -0.365877
v 0.104461 0.432735 -0.370267
v 0.090426 0.449357 -0.339868
v 0.097846 0.332970 -0.348352
v 0.058472 0.443197 -0.335072
v 0.054126 0.434852 -0.372855
v 0.060625 0.337218 -0.353963
v -0.033979 0.438877 -0.354315
v 0.372721 2.071070 0.046402
v 0.306971 2.117000 0.050271
v 0.044318 2.143206 0.071089
v 0.199096 2.247296 0.142592
v -0.109147 2.416927 0.251959
v 0.316883 2.164762 0.146656
v -0.221300 2.125860 0.288215
v -0.268832 2.029850 0.253186
v -0.359227 2.179330 0.341573
v -0.314119 1.926660 0.231053
v -0.029122 1.883720 0.138058
v -0.376548 1.329110 0.366300
v -0.287702 1.395370 0.315067
v -0.141490 1.516550 0.230570
v -0.154957 1.740100 -0.000000
v -0.092747 1.833130 0.116617
v -0.045114 1.797690 0.227997
v -0.024046 1.711470 0.233572
v 0.084471 1.663340 0.235844
v 0.063727 1.526530 0.159835
v -0.089666 1.626990 0.109460
v -0.153486 1.638600 -0.000000
v 0.011252 1.473260 0.172852
v -0.033518 1.594980 0.119768
v -0.096785 1.502110 -0.000000
v -0.261742 2.204590 0.281754
v -0.252316 2.152800 0.218929
v -0.375850 1.955140 0.236032
v -0.293815 2.051270 0.200871
v -0.323780 2.082090 0.261971
v -0.350713 2.240060 0.325608
v -0.769193 2.419760 0.498244
v -0.405137 2.155250 0.308922
v -0.495220 2.123830 0.329764
v -0.386557 2.322080 0.375946
v -0.173076 2.256170 0.262270
v 0.004841 1.949460 0.112145
v -0.092747 1.833130 0.116617
v -0.382121 2.205640 0.282752
v -0.336328 1.945950 0.181416
v -0.162818 1.957850 0.180553
v -0.048827 2.133750 0.194143
v -0.061606 1.896810 0.089659
v -0.456126 1.342570 0.365531
v -0.773209 1.016080 0.584002
v -0.390732 1.246850 0.359862
v -0.388391 1.156090 0.383443
v -0.550991 1.355650 0.408008
v -0.403032 1.314290 0.311742
v -0.321548 1.376430 0.245343
v -0.388558 1.431690 0.308469
v -0.338475 1.548420 0.252372
v -0.280580 1.291330 0.294291
v -0.162907 1.308000 0.232644
v -0.214695 1.599340 0.195519
v -0.080289 1.416300 0.145968
v -0.180442 1.501190 0.150346
v 0.011252 1.473260 0.172852
v 0.067707 1.289030 0.119524
v 0.098569 1.050700 0.076643
v 0.094039 0.897392 0.061555
v 0.063727 1.526530 0.159835
v 0.175386 1.323910 0.073505
v 0.199908 1.107060 -0.000000
v 0.004391 1.214180 -0.000000
v 0.015071 1.045180 -0.000000
v 0.157982 0.858332 -0.000000
v -0.094443 1.916580 -0.000000
v 0.004841 1.949460 0.112145
v 0.008772 1.866130 0.227996
v 0.108960 1.863990 0.223479
v 0.044309 1.251840 0.431435
v 0.050856 1.173230 0.417573
v 0.104855 1.242400 0.360298
v 0.044309 1.251840 0.289161
v -0.006445 1.276310 0.360298
v 0.050856 1.173230 0.303024
v -0.044122 1.213570 0.360298
v 0.129891 1.160170 0.360298
v 0.052772 1.320740 0.403434
v 0.097056 1.330090 0.360298
v 0.001165 1.350950 0.360298
v 0.052772 1.320740 0.317163
v 0.055165 1.017750 0.321577
v 0.113135 1.019800 0.360298
v -0.001783 1.038190 0.360298
v 0.055165 1.020340 0.401828
v 0.322989 2.168519 0.025646
v 0.475048 2.005396 0.000168
v 0.103420 1.519110 0.364188
v 0.057125 1.525310 0.314366
v -0.000200 1.546310 0.364188
v 0.060617 1.577660 0.426761
v -0.011291 1.593480 0.355778
v 0.126377 1.571570 0.355778
v 0.065713 1.603890 0.280611
v 0.057125 1.520510 0.405920
v -0.067858 1.561700 0.088488
v -0.029122 1.883720 0.138058
v -0.061606 1.896810 0.089659
v -0.021113 1.523940 0.105350
v 0.056894 0.633695 0.399131
v 0.068831 0.720235 0.408745
v 0.305566 2.067130 0.049511
v 0.244656 1.976730 0.087558
v 0.122112 1.975780 0.121667
v 0.165411 2.034400 0.071765
v 0.030369 2.018900 -0.000000
v 0.306971 2.117000 0.050271
v 0.044318 2.143206 0.071089
v 0.462313 2.062080 -0.000000
v 0.337455 1.785220 -0.000000
v 0.311945 1.918790 -0.000000
v 0.256729 1.914670 0.069923
v 0.187917 1.929000 0.139470
v 0.334070 1.688570 -0.000000
v 0.180502 1.756700 0.220008
v 0.233539 1.816490 0.134857
v 0.156715 1.814790 0.220576
v 0.263608 1.696810 0.120442
v 0.084471 1.663340 0.235844
v 0.170257 1.526830 0.137041
v 0.164143 1.714490 0.233572
v 0.063727 1.526530 0.159835
v 0.225112 1.572170 0.084201
v 0.251105 2.088453 0.106909
v 0.411610 2.159543 0.104075
v 0.251105 2.088453 0.106909
v 0.475048 2.005396 0.000168
v 0.411610 2.159543 0.104075
v 0.297011 2.181640 -0.000000
v -0.262281 1.539320 0.024728
v -0.375850 1.955140 0.236032
v -0.391933 1.870260 0.210359
v -0.670914 1.973240 0.352057
v -0.324047 1.880320 0.211888
v -0.314119 1.926660 0.231053
v -0.342504 1.896350 0.170639
v -0.336328 1.945950 0.181416
v -0.162251 1.883400 0.116156
v -0.391933 1.870260 0.210359
v -0.324047 1.880320 0.211888
v -0.326652 1.762750 0.167036
v -0.342504 1.896350 0.170639
v -0.344744 1.778470 0.126597
v -0.388801 1.770070 0.170221
v -0.580643 1.647950 0.218382
v -0.326652 1.762750 0.167036
v -0.344744 1.778470 0.126597
v -0.388801 1.770070 0.170221
v -0.320319 1.713620 0.140475
v -0.365443 1.691710 0.129532
v -0.335266 1.726600 0.107070
v -0.177722 1.812570 0.085514
v 0.350776 2.012870 0.012665
v 0.394088 1.993540 0.029612
v 0.447942 1.990350 -0.000000
v 0.350776 2.012870 0.012665
v 0.372721 2.071070 0.046402
v 0.305566 2.067130 0.049511
v -0.033518 1.594980 0.119768
v -0.089666 1.626990 0.109460
v -0.067858 1.561700 0.088488
v -0.021113 1.523940 0.105350
v 0.127812 0.800947 0.359325
v 0.022366 0.805718 0.359325
v -0.013752 0.735372 0.358351
v 0.056894 0.633695 0.317571
v -0.032531 0.674798 0.358351
v 0.068831 0.721730 0.312442
v 0.175200 0.727191 0.358351
v 0.218091 0.679188 0.358351
v 0.170257 1.526830 0.137041
v 0.225112 1.572170 0.084201
v 0.266957 1.356090 -0.000000
v 0.046364 0.852356 -0.000000
v 0.094102 0.432839 0.095197
v 0.152303 0.380942 -0.000000
v 0.050625 0.025752 -0.000000
v 0.044529 0.316422 -0.000000
v 0.092595 0.711232 0.132954
v 0.182455 0.677033 -0.004310
v 0.009533 0.650754 -0.004310
v 0.072864 0.791189 0.318937
v 0.074706 0.790928 0.401828
v 0.155965 0.651876 0.383134
v 0.155965 0.651876 0.333568
v 0.195767 0.556104 0.387887
v 0.195767 0.556104 0.328815
v 0.227165 0.585609 0.358351
v 0.243276 0.553027 0.358351
v 0.224308 0.431919 0.358351
v 0.189566 0.400169 0.358351
v 0.118669 0.634633 0.388906
v 0.118669 0.634633 0.327797
v -0.044876 0.577985 0.358351
v 0.062852 0.536386 0.373533
v 0.110162 0.538779 0.375431
v 0.060898 0.515624 0.374061
v 0.063246 0.535941 0.333866
v 0.108011 0.515183 0.373648
v 0.095845 0.538691 0.333465
v -0.041479 0.549342 0.354315
v 0.063987 0.434631 0.372411
v 0.104461 0.431142 0.372893
v 0.090426 0.448574 0.339868
v 0.097846 0.332187 0.348352
v 0.058472 0.442414 0.335072
v 0.054126 0.434068 0.372855
v 0.060625 0.336434 0.353963
v -0.033979 0.438094 0.354315
v 0.071866 0.320558 -0.348352
v 0.071866 0.319774 0.348352
vn 0.216307 -0.028720 -0.975903
vn -0.146137 -0.364891 -0.919510
vn -0.964676 0.233141 0.122656
vn 0.284434 0.939494 0.190914
vn 0.442553 0.848837 -0.289175
vn 0.069784 -0.320970 -0.944515
vn 0.280139 -0.205822 -0.937635
vn 0.311559 -0.633804 -0.707972
vn 0.354912 -0.347539 -0.867902
vn 0.679771 -0.121646 -0.723266
vn -0.453220 0.011929 -0.891319
vn 0.511647 0.326733 -0.794646
vn 0.344467 0.179055 -0.921565
vn 0.502921 0.264798 -0.822771
vn -0.904580 -0.211035 -0.370405
vn -0.980430 0.196401 -0.013536
vn -0.783087 -0.287998 -0.551210
vn -0.104235 -0.517313 -0.849425
vn -0.014472 -0.257272 -0.966231
vn -0.820850 0.483815 -0.303525
vn -0.699924 -0.035362 -0.713341
vn 0.041306 -0.076898 -0.996183
vn -0.962483 -0.271343 -0.000598
vn 0.190876 0.940872 -0.279868
vn -0.323081 0.366892 0.872358
vn -0.422691 0.742754 -0.519277
vn -0.511729 0.087735 0.854656
vn -0.900335 -0.380044 -0.212047
vn 0.729374 0.683701 -0.023790
vn -0.645523 0.412475 -0.642779
vn -0.194188 -0.921447 0.336491
vn -0.022219 -0.920005 0.391276
vn 0.783699 0.621124 0.004487
vn 0.033011 0.956938 -0.288408
vn 0.262904 0.940303 -0.216127
vn -0.904580 -0.211035 -0.370405
vn -0.192061 0.327883 0.924989
vn 0.250656 0.434329 0.865176
vn -0.604100 -0.795459 -0.048055
vn 0.810651 0.577974 0.093765
vn -0.858489 0.368688 0.356462
vn -0.241527 0.959701 0.143659
vn -0.638671 -0.543611 -0.544597
vn 0.869728 -0.375809 0.319907
vn 0.898357 -0.243103 0.365862
vn -0.128236 0.972008 0.196863
vn -0.309007 -0.127678 0.942450
vn -0.474120 -0.273140 0.837021
vn -0.752107 0.629986 -0.193528
vn -0.651292 0.748561 -0.124398
vn 0.360335 -0.929541 -0.078179
vn 0.458855 -0.886036 0.066276
vn -0.334491 0.940566 0.058746
vn 0.678881 -0.640243 0.359457
vn -0.412553 -0.146096 0.899142
vn -0.699924 -0.035362 -0.713341
vn -0.067252 -0.247812 -0.966471
vn 0.041390 -0.149308 -0.987924
vn -0.201743 0.088422 -0.975439
vn -0.014472 -0.257272 -0.966231
vn 0.563531 -0.179722 -0.806308
vn -0.962483 -0.271343 -0.000598
vn 0.262904 0.940303 -0.216127
vn -0.437232 0.690063 -0.576750
vn 0.281750 0.588028 -0.758182
vn 0.056809 0.189249 -0.980284
vn 0.044455 -0.076518 -0.996077
vn 0.995666 0.093001 -0.000001
vn 0.056808 0.189254 0.980284
vn -0.927308 0.374298 -0.000000
vn 0.048194 -0.082059 0.995462
vn -0.998951 0.045801 -0.000001
vn 0.999730 0.022699 0.005047
vn 0.014631 0.127026 -0.991791
vn 0.992748 0.120209 0.000846
vn -0.999379 0.032887 -0.012655
vn 0.028346 0.134820 0.990465
vn -0.021920 -0.062157 0.997826
vn 0.999747 0.013761 0.017791
vn -0.985398 -0.170003 0.009440
vn -0.022012 -0.063693 -0.997727
vn 0.357832 0.908218 0.217017
vn -0.179721 0.983590 0.015841
vn 0.986977 -0.157350 -0.033428
vn 0.010682 -0.226637 0.973921
vn -0.980562 -0.194937 -0.022327
vn -0.287479 -0.243532 -0.926309
vn -0.973464 -0.228837 -0.000653
vn 0.909730 -0.414465 -0.024702
vn -0.294319 -0.366908 0.882471
vn 0.032058 -0.160310 -0.986546
vn -0.795562 -0.544642 0.265417
vn -0.453220 0.011929 -0.891319
vn -0.858489 0.368688 0.356462
vn -0.005063 -0.898602 -0.438735
vn -0.106315 -0.061731 -0.992414
vn -0.047881 -0.000567 -0.998853
vn 0.070761 -0.137395 -0.987986
vn 0.465094 0.139090 -0.874266
vn -0.049992 0.736050 -0.675079
vn -0.069264 0.536968 -0.840754
vn -0.706077 0.708134 0.000887
vn -0.146137 -0.364891 -0.919510
vn -0.964676 0.233141 0.122656
vn 0.735780 0.008700 -0.677165
vn 0.497008 0.393917 -0.773183
vn 0.978611 -0.205716 -0.000697
vn 0.759956 0.114805 -0.639755
vn 0.755367 0.216457 -0.618520
vn 0.643209 0.335911 -0.688075
vn 0.796440 -0.106015 -0.595352
vn -0.104235 -0.517313 -0.849425
vn 0.474238 -0.333859 -0.814639
vn 0.640678 -0.300734 -0.706464
vn -0.014472 -0.257272 -0.966231
vn 0.775628 -0.233090 -0.586575
vn 0.112407 -0.566118 -0.816624
vn 0.625749 0.119151 -0.770871
vn 0.112407 -0.566118 -0.816624
vn -0.090073 0.371255 0.924152
vn 0.625749 0.119151 -0.770871
vn 0.897491 -0.078077 0.434067
vn -0.422691 0.742754 -0.519277
vn -0.765889 -0.628307 -0.136544
vn -0.417422 0.607919 -0.675421
vn 0.570229 -0.537550 -0.621191
vn 0.679771 -0.121646 -0.723266
vn -0.344405 0.059618 0.936926
vn 0.250656 0.434329 0.865176
vn 0.773885 -0.397995 0.492648
vn -0.765889 -0.628307 -0.136544
vn 0.570229 -0.537550 -0.621191
vn 0.606676 -0.043700 -0.793747
vn -0.344405 0.059618 0.936926
vn 0.100894 0.582697 0.806402
vn -0.787943 0.390380 -0.476182
vn -0.825637 -0.564183 0.004582
vn 0.606676 -0.043700 -0.793747
vn 0.100894 0.582697 0.806402
vn -0.787943 0.390380 -0.476182
vn 0.607329 -0.607252 -0.512247
vn -0.318582 -0.915602 0.245311
vn -0.112039 -0.016208 0.993572
vn 0.916466 0.106003 0.385814
vn 0.212470 -0.797490 -0.564682
vn 0.020647 -0.467600 -0.883699
vn -0.146821 -0.989129 -0.008192
vn 0.973897 -0.226988 -0.000443
vn 0.212470 -0.797490 -0.564682
vn 0.216307 -0.028720 -0.975903
vn 0.070761 -0.137395 -0.987986
vn 0.041306 -0.076898 -0.996183
vn -0.820850 0.483815 -0.303525
vn -0.795562 -0.544642 0.265417
vn -0.005063 -0.898602 -0.438735
vn 0.947520 0.319122 0.019166
vn -0.995148 0.098016 0.008505
vn -0.965923 0.258566 0.011697
vn -0.107233 -0.018865 0.994055
vn -0.977547 0.210720 0.000000
vn -0.045128 0.022238 0.998734
vn 0.863425 0.504286 0.013860
vn 0.915990 0.401200 0.000000
vn 0.474238 -0.333859 -0.814639
vn 0.978611 -0.205716 -0.000697
vn 0.775628 -0.233090 -0.586575
vn -0.035693 -0.172056 -0.984440
vn -0.021612 0.104324 -0.994309
vn 0.068927 0.146931 0.986742
vn 0.083020 0.144134 -0.986069
vn -0.074269 -0.222872 -0.972015
vn 0.265185 -0.337466 0.903213
vn -0.052801 -0.029043 -0.998183
vn -0.303173 -0.132708 0.943650
vn 0.930842 0.365422 0.000000
vn 0.986045 0.166479 0.000000
vn 0.931506 -0.363725 0.000000
vn -0.886615 -0.462508 0.000000
vn 0.551538 -0.388769 -0.738014
vn 0.626740 -0.187690 0.756287
vn -0.874153 -0.163423 -0.457328
vn -0.083330 -0.106758 -0.990787
vn 0.769226 -0.225119 -0.598007
vn 0.057208 -0.069439 -0.995944
vn -0.217046 -0.106987 0.970281
vn 0.620133 -0.058926 -0.782280
vn 0.657533 -0.126812 0.742677
vn -0.997898 -0.062607 0.016732
vn -0.296599 -0.202132 -0.933366
vn 0.807518 -0.139586 -0.573088
vn 0.112410 -0.088266 0.989734
vn 0.796691 -0.349460 -0.493114
vn 0.664877 -0.079084 0.742755
vn -0.296599 -0.202132 -0.933366
vn 0.857854 -0.485710 -0.167846
vn -0.895974 -0.443997 0.009889
vn 0.215404 -0.040425 0.975688
vn -0.145126 -0.369353 0.917887
vn -0.968665 0.229364 -0.095286
vn 0.284351 0.939381 -0.191593
vn 0.443297 0.848944 0.287719
vn 0.069223 -0.321940 0.944226
vn 0.280091 -0.205843 0.937645
vn 0.311568 -0.633821 0.707952
vn 0.354780 -0.347537 0.867957
vn 0.679789 -0.121620 0.723253
vn -0.453225 0.011921 0.891316
vn 0.511648 0.326735 0.794645
vn 0.344464 0.179064 0.921564
vn 0.502915 0.264799 0.822774
vn -0.961109 0.276170 0.000810
vn -0.904504 -0.210982 0.370620
vn -0.980430 0.196403 0.013538
vn -0.783094 -0.287990 0.551204
vn -0.104238 -0.517323 0.849418
vn -0.014446 -0.257335 0.966214
vn -0.821240 0.483698 0.302657
vn -0.988883 -0.148696 -0.000421
vn -0.700513 -0.035740 0.712744
vn 0.041297 -0.076898 0.996183
vn -0.860866 -0.508830 -0.001499
vn 0.190627 0.940875 0.280027
vn -0.323064 0.366864 -0.872377
vn -0.422674 0.742732 0.519323
vn -0.511766 0.087739 -0.854633
vn -0.900241 -0.380289 0.212007
vn 0.729274 0.683805 0.023879
vn -0.645700 0.412345 0.642685
vn -0.194021 -0.921474 -0.336514
vn -0.022291 -0.920023 -0.391230
vn 0.783722 0.621095 -0.004514
vn 0.033018 0.956937 0.288412
vn 0.263338 0.939663 0.218372
vn -0.904504 -0.210982 0.370620
vn -0.191978 0.327789 -0.925040
vn 0.250682 0.434359 -0.865153
vn -0.604101 -0.795459 0.048044
vn 0.810652 0.577972 -0.093768
vn -0.859168 0.368660 -0.354851
vn -0.241529 0.959700 -0.143667
vn -0.638762 -0.543530 0.544571
vn 0.869735 -0.375776 -0.319927
vn 0.898358 -0.243094 -0.365867
vn -0.128238 0.972007 -0.196871
vn -0.309009 -0.127667 -0.942451
vn -0.474121 -0.273145 -0.837019
vn -0.752104 0.629991 0.193522
vn -0.651305 0.748550 0.124399
vn 0.360347 -0.929538 0.078161
vn 0.458838 -0.886046 -0.066259
vn -0.334519 0.940557 -0.058734
vn 0.678885 -0.640243 -0.359450
vn -0.412550 -0.146114 -0.899140
vn -0.700513 -0.035740 0.712744
vn -0.067871 -0.247941 0.966395
vn 0.041580 -0.149461 0.987893
vn -0.202613 0.072401 0.976579
vn -0.014446 -0.257335 0.966214
vn 0.564039 -0.179837 0.805927
vn 0.971434 -0.237309 -0.000567
vn -0.966789 -0.255575 -0.000639
vn -0.994718 -0.102643 -0.000313
vn 0.998692 -0.051024 0.003185
vn -0.782412 0.622758 0.002183
vn 0.263338 0.939663 0.218372
vn -0.437219 0.690062 0.576762
vn 0.265615 0.587066 0.764724
vn 0.056814 0.189228 0.980288
vn 0.044462 -0.076523 0.996076
vn 0.995667 0.092993 -0.000001
vn 0.056813 0.189229 -0.980288
vn -0.927317 0.374278 -0.000002
vn 0.048202 -0.082069 -0.995460
vn -0.998951 0.045791 -0.000001
vn 0.999730 0.022687 -0.005055
vn 0.014629 0.127005 0.991794
vn 0.992750 0.120195 -0.000849
vn -0.999379 0.032886 0.012655
vn 0.028348 0.134804 -0.990467
vn -0.021924 -0.062155 -0.997826
vn 0.999747 0.013759 -0.017791
vn -0.985398 -0.170002 -0.009447
vn -0.022009 -0.063694 0.997727
vn 0.361483 0.912616 -0.190952
vn 0.837044 -0.546690 0.022077
vn 0.986981 -0.157324 0.033427
vn 0.010683 -0.226623 -0.973924
vn -0.980564 -0.194927 0.022333
vn -0.287463 -0.243524 0.926316
vn -0.973475 -0.228791 0.000651
vn 0.909744 -0.414434 0.024698
vn -0.294317 -0.366892 -0.882478
vn 0.032059 -0.160297 0.986548
vn -0.795161 -0.544390 -0.267130
vn -0.453225 0.011921 0.891316
vn -0.859168 0.368660 -0.354851
vn -0.005803 -0.899234 0.437430
vn -0.106319 -0.061731 0.992414
vn -0.047880 -0.000568 0.998853
vn 0.070415 -0.138324 0.987881
vn 0.474846 0.145797 0.867908
vn -0.060859 0.736998 0.673149
vn -0.070109 0.541539 0.837747
vn -0.487107 0.873340 0.002245
vn -0.145126 -0.369353 0.917887
vn -0.968665 0.229364 -0.095286
vn -0.090073 0.371255 0.924152
vn 0.990995 0.133901 0.000302
vn 0.977866 -0.209226 -0.001705
vn 0.742018 0.007806 0.670334
vn 0.496926 0.397616 0.771341
vn 0.952939 -0.303161 -0.000866
vn 0.759957 0.114798 0.639756
vn 0.758606 0.210761 0.616520
vn 0.641490 0.325615 0.694597
vn 0.796611 -0.106028 0.595120
vn -0.104238 -0.517323 0.849418
vn 0.474245 -0.333856 0.814636
vn 0.640677 -0.300741 0.706461
vn -0.014446 -0.257335 0.966214
vn 0.776086 -0.233186 0.585931
vn 0.109251 -0.589716 0.800187
vn 0.626036 0.119662 0.770558
vn 0.109251 -0.589716 0.800187
vn 0.837044 -0.546690 0.022077
vn 0.626036 0.119662 0.770558
vn -0.179721 0.983590 0.015841
vn 0.897474 -0.078070 -0.434103
vn -0.422674 0.742732 0.519323
vn -0.765884 -0.628316 0.136533
vn -0.417209 0.608046 0.675439
vn 0.570215 -0.537552 0.621202
vn 0.679789 -0.121620 0.723253
vn -0.344411 0.059621 -0.936924
vn 0.250682 0.434359 -0.865153
vn 0.773888 -0.398000 -0.492639
vn -0.765884 -0.628316 0.136533
vn 0.570215 -0.537552 0.621202
vn 0.606670 -0.043735 0.793750
vn -0.344411 0.059621 -0.936924
vn 0.100908 0.582704 -0.806396
vn -0.787933 0.390386 0.476193
vn -0.825555 -0.564302 -0.004644
vn 0.606670 -0.043735 0.793750
vn 0.100908 0.582704 -0.806396
vn -0.787933 0.390386 0.476193
vn 0.607312 -0.607282 0.512232
vn -0.318602 -0.915592 -0.245325
vn -0.112040 -0.016214 -0.993571
vn 0.916596 0.105767 -0.385572
vn 0.214103 -0.802904 0.556331
vn 0.020456 -0.470102 0.882375
vn 0.999111 0.042160 0.000075
vn 0.214103 -0.802904 0.556331
vn 0.215404 -0.040425 0.975688
vn 0.070415 -0.138324 0.987881
vn 0.041297 -0.076898 0.996183
vn -0.821240 0.483698 0.302657
vn -0.795161 -0.544390 -0.267130
vn -0.005803 -0.899234 0.437430
vn 0.947520 0.319121 -0.019154
vn -0.995149 0.098014 -0.008499
vn -0.965924 0.258563 -0.011693
vn -0.107233 -0.018865 -0.994055
vn -0.977546 0.210720 -0.000000
vn -0.045128 0.022238 -0.998734
vn 0.863425 0.504287 -0.013856
vn 0.915992 0.401197 -0.000000
vn 0.474245 -0.333856 0.814636
vn 0.776086 -0.233186 0.585931
vn 0.985167 -0.171597 -0.000409
vn -0.999785 0.020239 0.004578
vn -0.037293 -0.165315 0.985536
vn 0.982264 -0.187490 -0.002161
vn -0.398522 -0.917155 -0.002480
vn -0.998087 -0.061727 -0.003518
vn -0.020888 0.105179 0.994234
vn 0.999150 0.040779 -0.005988
vn -0.998742 0.049768 -0.006207
vn 0.068924 0.146935 -0.986742
vn 0.083018 0.144128 0.986071
vn -0.074257 -0.222871 0.972016
vn 0.265193 -0.337461 -0.903212
vn -0.052803 -0.029043 0.998183
vn -0.303174 -0.132707 -0.943649
vn 0.930842 0.365422 -0.000000
vn 0.986045 0.166479 -0.000000
vn 0.931506 -0.363727 -0.000000
vn -0.886619 -0.462501 -0.000000
vn 0.551544 -0.388763 0.738013
vn 0.626743 -0.187688 -0.756285
vn -0.874156 -0.163403 0.457330
vn -0.083322 -0.106739 0.990790
vn 0.769224 -0.225122 0.598009
vn 0.074063 -0.050183 0.995990
vn -0.231774 -0.111181 -0.966395
vn 0.620721 -0.051580 0.782333
vn 0.660609 -0.128352 -0.739676
vn -0.997897 -0.062615 -0.016736
vn -0.269958 -0.197295 0.942442
vn 0.822907 -0.107883 0.557839
vn 0.090567 -0.092733 -0.991563
vn 0.808361 -0.376076 0.452902
vn 0.664876 -0.079084 -0.742755
vn -0.269958 -0.197295 0.942442
vn 0.857854 -0.485709 0.167847
vn -0.895975 -0.443995 -0.009890
vn -0.652609 -0.166909 0.739082
vn -0.707439 -0.208533 -0.675310
vt 0.714964 0.535610
vt 0.793418 0.568779
vt 0.734056 0.710211
vt 0.648506 0.732727
vt 0.746344 0.762295
vt 0.716697 0.692489
vt 0.350790 1.865313
vt 0.379048 1.859592
vt 0.322235 1.857355
vt 0.372954 1.853919
vt 0.452042 1.898485
vt 0.721390 0.043055
vt 0.743974 0.041585
vt 0.782698 0.040985
vt 0.462800 1.886444
vt 0.375685 1.877938
vt 0.373420 1.861325
vt 0.414380 1.755241
vt 0.440718 1.732858
vt 0.465995 1.756769
vt 0.434187 1.720196
vt 0.460822 1.749150
vt 0.520917 1.701206
vt 0.340947 1.881582
vt 0.372826 1.892955
vt 0.367826 1.856736
vt 0.395517 1.880660
vt 0.367563 1.866088
vt 0.318801 1.873520
vt 0.225362 1.848982
vt 0.338361 1.863776
vt 0.335374 1.851270
vt 0.286933 1.871685
vt 0.340273 1.897261
vt 0.465044 1.914131
vt 0.462800 1.886444
vt 0.340405 1.881442
vt 0.385735 1.869951
vt 0.384495 1.871911
vt 0.385188 1.897691
vt 0.476327 1.901600
vt 0.723276 0.044943
vt 0.621518 0.044475
vt 0.712988 0.028986
vt 0.695114 0.020425
vt 0.712992 0.056588
vt 0.734844 0.028402
vt 0.761168 0.022859
vt 0.750331 0.045655
vt 0.780543 0.050819
vt 0.736887 0.020922
vt 0.756236 0.009487
vt 0.802798 0.045721
vt 0.877068 0.010376
vt 0.893855 0.009377
vt 0.888643 0.001075
vt 0.851670 0.019040
vt 0.804141 0.032869
vt 0.773733 0.037262
vt 0.898966 0.006130
vt 0.857953 0.035864
vt 0.870759 0.062834
vt 0.465044 1.914131
vt 0.375686 1.891125
vt 0.377520 1.890715
vt 0.325430 2.081472
vt 0.344262 2.074849
vt 0.328312 2.045824
vt 0.326697 2.010095
vt 0.320240 2.045680
vt 0.345283 2.017382
vt 0.335170 2.045945
vt 0.347878 2.046171
vt 0.309285 2.067133
vt 0.307442 2.045453
vt 0.302478 2.045365
vt 0.310054 2.023852
vt 0.382115 2.027346
vt 0.381284 2.046764
vt 0.376906 2.046686
vt 0.380784 2.067596
vt 0.650956 0.674494
vt 0.717964 0.755663
vt 0.262425 2.046605
vt 0.261396 2.021585
vt 0.255953 2.046491
vt 0.247938 2.077751
vt 0.244805 2.042073
vt 0.250019 2.042166
vt 0.242997 2.004319
vt 0.261723 2.067537
vt 0.476517 1.741232
vt 0.452042 1.898485
vt 0.476327 1.901600
vt 0.468057 1.732242
vt 0.472818 2.067876
vt 0.452139 2.072334
vt 0.496471 1.942102
vt 0.477381 1.920622
vt 0.460266 1.920396
vt 0.485305 1.934350
vt 0.521314 1.945615
vt 0.496090 1.954007
vt 0.505020 1.962856
vt 0.486230 1.905851
vt 0.453203 1.909262
vt 0.520917 1.734953
vt 0.378930 1.870042
vt 0.453648 1.882486
vt 0.378700 1.881235
vt 0.460484 1.768909
vt 0.414380 1.755241
vt 0.452155 1.732930
vt 0.373420 1.861907
vt 0.440718 1.732858
vt 0.478668 1.743721
vt 0.684811 0.624729
vt 0.699908 0.683941
vt 1.027010 0.600524
vt 1.090679 0.632280
vt 1.040299 0.546075
vt 0.288960 1.729792
vt 0.367826 1.856736
vt 0.382850 1.891921
vt 0.294985 1.866594
vt 0.382229 1.893860
vt 0.372954 1.853919
vt 0.398984 1.896948
vt 0.385735 1.869951
vt 0.402566 1.921939
vt 0.382850 1.891921
vt 0.382229 1.893860
vt 0.400448 1.871208
vt 0.398984 1.896948
vt 0.334359 1.852902
vt 0.399154 1.872616
vt 0.365377 1.743820
vt 0.400448 1.871208
vt 0.334359 1.852902
vt 0.399154 1.872616
vt 0.340592 1.839086
vt 0.336033 1.758247
vt 0.325588 1.841851
vt 0.315907 1.860170
vt 0.514960 1.929114
vt 0.799656 0.405300
vt 0.751894 0.380497
vt 0.696698 0.541033
vt 0.758766 0.437429
vt 0.764586 0.538431
vt 0.802700 0.542813
vt 0.911958 0.021039
vt 0.918139 0.024973
vt 0.905010 0.032087
vt 0.897776 0.025751
vt 0.433373 2.047200
vt 0.432238 2.047180
vt 0.448986 2.046988
vt 0.473545 2.026959
vt 0.463401 2.047244
vt 0.452641 2.024014
vt 0.450933 2.047023
vt 0.462356 2.047226
vt 0.898741 0.014348
vt 0.898706 0.063802
vt 0.907018 0.033703
vt 0.682586 0.021966
vt 0.737931 0.010256
vt 0.436054 2.026979
vt 0.435379 2.068565
vt 0.468635 2.059774
vt 0.469076 2.034907
vt 0.491383 2.062563
vt 0.491909 2.032928
vt 0.484625 2.047621
vt 0.492378 2.047758
vt 0.521197 2.048270
vt 0.528753 2.048404
vt 0.472686 2.062742
vt 0.473231 2.032085
vt 0.486439 2.047653
vt 0.496203 2.055445
vt 0.495616 2.056387
vt 0.501139 2.055797
vt 0.496662 2.035547
vt 0.501247 2.055592
vt 0.496011 2.035334
vt 0.493291 2.045749
vt 0.520494 2.052034
vt 0.521084 2.054248
vt 0.517399 2.038927
vt 0.545020 2.043675
vt 0.518908 2.036547
vt 0.520557 2.055537
vt 0.543959 2.046472
vt 0.519764 2.046219
vt 0.714964 0.535610
vt 0.793418 0.568779
vt 0.734056 0.710211
vt 0.648506 0.732727
vt 0.746344 0.762295
vt 0.716697 0.692489
vt 0.351078 1.865315
vt 0.379334 1.859596
vt 0.322522 1.857358
vt 0.373186 1.853921
vt 0.452260 1.898299
vt 0.721307 0.042956
vt 0.743892 0.041486
vt 0.782616 0.040886
vt 0.521314 1.864116
vt 0.463019 1.886258
vt 0.375862 1.877788
vt 0.373597 1.861175
vt 0.414598 1.755053
vt 0.440937 1.732673
vt 0.466213 1.756583
vt 0.520917 1.759347
vt 0.434405 1.719994
vt 0.461041 1.748965
vt 0.520917 1.726861
vt 0.341234 1.881585
vt 0.373113 1.892959
vt 0.368060 1.856737
vt 0.395803 1.880663
vt 0.367851 1.866089
vt 0.319087 1.873523
vt 0.225649 1.848986
vt 0.338647 1.863779
vt 0.335659 1.851275
vt 0.287218 1.871690
vt 0.340560 1.897264
vt 0.465262 1.913946
vt 0.463019 1.886258
vt 0.340692 1.881445
vt 0.385966 1.869953
vt 0.384727 1.871914
vt 0.385474 1.897694
vt 0.476545 1.901415
vt 0.723193 0.044845
vt 0.621435 0.044377
vt 0.712904 0.028886
vt 0.695030 0.020324
vt 0.712909 0.056489
vt 0.734762 0.028303
vt 0.761086 0.022760
vt 0.750248 0.045556
vt 0.780459 0.050719
vt 0.736804 0.020823
vt 0.756154 0.009389
vt 0.802715 0.045623
vt 0.876938 0.010370
vt 0.893725 0.009371
vt 0.888500 0.001069
vt 0.851522 0.019033
vt 0.804011 0.032863
vt 0.773604 0.037255
vt 0.898838 0.006124
vt 0.857823 0.035859
vt 0.814138 0.060874
vt 0.835252 0.061605
vt 0.801941 0.060452
vt 0.765112 0.059177
vt 0.521314 1.906120
vt 0.465262 1.913946
vt 0.375862 1.890975
vt 0.377697 1.890563
vt 0.325622 2.081257
vt 0.344452 2.074635
vt 0.328501 2.045609
vt 0.326888 2.009880
vt 0.320432 2.045466
vt 0.345472 2.017167
vt 0.335362 2.045730
vt 0.348070 2.045956
vt 0.309475 2.066918
vt 0.307634 2.045238
vt 0.302670 2.045150
vt 0.310243 2.023637
vt 0.382306 2.027132
vt 0.381474 2.046548
vt 0.377098 2.046471
vt 0.380975 2.067382
vt 0.650956 0.674494
vt 0.668896 0.625245
vt 0.262617 2.046391
vt 0.261586 2.021370
vt 0.256145 2.046276
vt 0.248127 2.077536
vt 0.244994 2.041858
vt 0.250208 2.041950
vt 0.243186 2.004104
vt 0.261913 2.067322
vt 0.476736 1.741044
vt 0.452260 1.898299
vt 0.476545 1.901415
vt 0.468275 1.732056
vt 0.473009 2.067661
vt 0.452330 2.072119
vt 0.496690 1.941952
vt 0.477599 1.920436
vt 0.460485 1.920210
vt 0.485523 1.934162
vt 0.521314 1.930473
vt 0.496308 1.953822
vt 0.505239 1.962668
vt 0.670535 0.618842
vt 0.521314 1.874855
vt 0.521314 1.906646
vt 0.486448 1.905665
vt 0.451552 1.909076
vt 0.520917 1.766760
vt 0.379107 1.869890
vt 0.453866 1.882298
vt 0.378876 1.881083
vt 0.460702 1.768721
vt 0.414598 1.755053
vt 0.452374 1.732744
vt 0.373597 1.861757
vt 0.440937 1.732673
vt 0.478887 1.743536
vt 0.684811 0.624729
vt 0.699908 0.683941
vt 1.027078 0.601052
vt 1.106920 0.598865
vt 1.040378 0.546690
vt 0.521314 1.969207
vt 0.288764 1.729624
vt 0.368060 1.856737
vt 0.383026 1.891771
vt 0.295273 1.866595
vt 0.382405 1.893709
vt 0.373186 1.853921
vt 0.399161 1.896798
vt 0.385966 1.869953
vt 0.402785 1.921751
vt 0.383026 1.891771
vt 0.382405 1.893709
vt 0.400625 1.871055
vt 0.399161 1.896798
vt 0.334164 1.852736
vt 0.399331 1.872466
vt 0.365182 1.743654
vt 0.400625 1.871055
vt 0.334164 1.852736
vt 0.399331 1.872466
vt 0.340397 1.838920
vt 0.335838 1.758081
vt 0.325393 1.841685
vt 0.315711 1.860001
vt 0.515178 1.929038
vt 0.799656 0.405300
vt 0.737428 0.421272
vt 0.758766 0.437429
vt 0.764586 0.538431
vt 0.802700 0.542813
vt 0.911830 0.021032
vt 0.918011 0.024966
vt 0.904880 0.032080
vt 0.897647 0.025745
vt 0.433563 2.046985
vt 0.432427 2.046965
vt 0.449177 2.046773
vt 0.473735 2.026744
vt 0.463591 2.047029
vt 0.452832 2.023799
vt 0.451123 2.046808
vt 0.462547 2.047011
vt 0.898612 0.014342
vt 0.906890 0.033696
vt 0.863223 0.062573
vt 0.763934 0.059136
vt 0.682457 0.021960
vt 0.671015 0.055919
vt 0.601004 0.053496
vt 0.658297 0.055479
vt 0.737801 0.010250
vt 0.729430 0.056387
vt 0.724250 0.056207
vt 0.436245 2.026764
vt 0.435569 2.068350
vt 0.468825 2.059559
vt 0.469267 2.034693
vt 0.491573 2.062348
vt 0.492099 2.032712
vt 0.484815 2.047406
vt 0.492568 2.047543
vt 0.521388 2.048055
vt 0.528944 2.048189
vt 0.472877 2.062527
vt 0.473421 2.031870
vt 0.486629 2.047438
vt 0.496393 2.055230
vt 0.495807 2.056172
vt 0.501329 2.055583
vt 0.496852 2.035332
vt 0.501437 2.055377
vt 0.496201 2.035119
vt 0.493481 2.045534
vt 0.520617 2.055097
vt 0.521443 2.055353
vt 0.517589 2.038712
vt 0.545210 2.043460
vt 0.519098 2.036332
vt 0.520747 2.055323
vt 0.544149 2.046257
vt 0.519955 2.046004
vt 0.547974 2.043727
vt 0.548164 2.043512
f 2/2/2 1/1/1 151/151/151
f 2/2/2 3/3/3 6/6/6
f 118/118/118 6/6/6 4/4/4
f 6/6/6 5/5/5 4/4/4
f 8/8/8 10/10/10 26/26/26
f 28/28/28 8/8/8 26/26/26
f 28/28/28 7/7/7 8/8/8
f 7/7/7 24/24/24 34/34/34
f 7/7/7 9/9/9 24/24/24
f 9/9/9 7/7/7 28/28/28
f 9/9/9 28/28/28 31/31/31
f 29/29/29 24/24/24 9/9/9
f 8/8/8 7/7/7 39/39/39
f 7/7/7 34/34/34 40/40/40
f 51/51/51 13/13/13 51/51/51
f 13/13/13 49/49/49 49/49/49
f 13/13/13 12/12/12 49/49/49
f 12/12/12 13/13/13 51/51/51
f 12/12/12 51/51/51 44/44/44
f 42/42/42 49/49/49 12/12/12
f 51/51/51 13/13/13 52/52/52
f 13/13/13 49/49/49 50/50/50
f 50/50/50 14/14/14 13/13/13
f 13/13/13 14/14/14 52/52/52
f 52/52/52 14/14/14 54/54/54
f 14/14/14 50/50/50 53/53/53
f 20/20/20 15/15/15 17/17/17
f 17/17/17 20/20/20 17/17/17
f 22/22/22 20/20/20 17/17/17
f 18/18/18 22/22/22 17/17/17
f 19/19/19 22/22/22 18/18/18
f 218/218/218 211/211/211 15/15/15
f 218/218/218 15/15/15 20/20/20
f 221/221/221 218/218/218 20/20/20
f 221/221/221 20/20/20 92/92/92
f 11/11/11 39/39/39 7/7/7
f 36/36/36 39/39/39 11/11/11
f 7/7/7 35/35/35 11/11/11
f 35/35/35 7/7/7 40/40/40
f 26/26/26 38/38/38 27/27/27
f 26/26/26 27/27/27 28/28/28
f 27/27/27 25/25/25 28/28/28
f 34/34/34 24/24/24 25/25/25
f 24/24/24 37/37/37 25/25/25
f 28/28/28 25/25/25 37/37/37
f 31/31/31 28/28/28 37/37/37
f 37/37/37 24/24/24 29/29/29
f 39/39/39 25/25/25 27/27/27
f 40/40/40 34/34/34 25/25/25
f 25/25/25 39/39/39 41/41/41
f 41/41/41 39/39/39 36/36/36
f 41/41/41 35/35/35 25/25/25
f 40/40/40 25/25/25 35/35/35
f 27/27/27 8/8/8 39/39/39
f 8/8/8 27/27/27 38/38/38
f 8/8/8 38/38/38 10/10/10
f 51/51/51 48/48/48 51/51/51
f 49/49/49 49/49/49 48/48/48
f 49/49/49 47/47/47 48/48/48
f 51/51/51 48/48/48 47/47/47
f 44/44/44 51/51/51 47/47/47
f 47/47/47 49/49/49 42/42/42
f 52/52/52 48/48/48 51/51/51
f 50/50/50 49/49/49 48/48/48
f 48/48/48 55/55/55 50/50/50
f 52/52/52 55/55/55 48/48/48
f 54/54/54 55/55/55 52/52/52
f 53/53/53 50/50/50 55/55/55
f 57/57/57 56/56/56 60/60/60
f 57/57/57 60/60/60 61/61/61
f 58/58/58 57/57/57 61/61/61
f 58/58/58 61/61/61 260/260/260
f 261/261/261 57/57/57 58/58/58
f 262/262/262 261/261/261 58/58/58
f 262/262/262 58/58/58 59/59/59
f 64/64/64 100/100/100 65/65/65
f 63/63/63 100/100/100 64/64/64
f 304/304/304 63/63/63 264/264/264
f 100/100/100 63/63/63 304/304/304
f 66/66/66 74/74/74 75/75/75
f 66/66/66 75/75/75 68/68/68
f 70/70/70 76/76/76 74/74/74
f 70/70/70 74/74/74 66/66/66
f 67/67/67 66/66/66 68/68/68
f 67/67/67 68/68/68 73/73/73
f 72/72/72 70/70/70 66/66/66
f 72/72/72 66/66/66 67/67/67
f 84/84/84 85/85/85 77/77/77
f 75/75/75 84/84/84 77/77/77
f 75/75/75 77/77/77 69/69/69
f 68/68/68 75/75/75 69/69/69
f 77/77/77 85/85/85 76/76/76
f 77/77/77 76/76/76 70/70/70
f 69/69/69 77/77/77 70/70/70
f 68/68/68 69/69/69 71/71/71
f 73/73/73 68/68/68 71/71/71
f 69/69/69 70/70/70 72/72/72
f 71/71/71 69/69/69 72/72/72
f 73/73/73 71/71/71 78/78/78
f 71/71/71 72/72/72 80/80/80
f 78/78/78 71/71/71 80/80/80
f 79/79/79 78/78/78 169/169/169
f 156/156/156 79/79/79 169/169/169
f 169/169/169 78/78/78 157/157/157
f 73/73/73 78/78/78 79/79/79
f 78/78/78 80/80/80 157/157/157
f 67/67/67 80/80/80 72/72/72
f 81/81/81 80/80/80 67/67/67
f 73/73/73 81/81/81 67/67/67
f 79/79/79 81/81/81 73/73/73
f 170/170/170 81/81/81 79/79/79
f 156/156/156 170/170/170 79/79/79
f 157/157/157 81/81/81 170/170/170
f 80/80/80 81/81/81 157/157/157
f 100/100/100 106/106/106 65/65/65
f 4/4/4 82/82/82 118/118/118
f 118/118/118 82/82/82 285/285/285
f 6/6/6 3/3/3 5/5/5
f 5/5/5 3/3/3 4/4/4
f 4/4/4 3/3/3 82/82/82
f 83/83/83 82/82/82 3/3/3
f 89/89/89 90/90/90 85/85/85
f 90/90/90 88/88/88 86/86/86
f 85/85/85 90/90/90 86/86/86
f 84/84/84 89/89/89 85/85/85
f 76/76/76 85/85/85 86/86/86
f 74/74/74 91/91/91 84/84/84
f 74/74/74 84/84/84 75/75/75
f 74/74/74 76/76/76 91/91/91
f 91/91/91 76/76/76 86/86/86
f 91/91/91 86/86/86 87/87/87
f 87/87/87 86/86/86 88/88/88
f 89/89/89 84/84/84 91/91/91
f 87/87/87 89/89/89 91/91/91
f 16/16/16 93/93/93 64/64/64
f 64/64/64 93/93/93 63/63/63
f 17/17/17 93/93/93 16/16/16
f 15/15/15 93/93/93 17/17/17
f 264/264/264 63/63/63 94/94/94
f 264/264/264 94/94/94 264/264/264
f 264/264/264 94/94/94 211/211/211
f 94/94/94 15/15/15 211/211/211
f 22/22/22 19/19/19 95/95/95
f 95/95/95 19/19/19 21/21/21
f 23/23/23 95/95/95 21/21/21
f 221/221/221 92/92/92 95/95/95
f 23/23/23 221/221/221 95/95/95
f 162/162/162 97/97/97 170/170/170
f 158/158/158 97/97/97 96/96/96
f 96/96/96 160/160/160 158/158/158
f 99/99/99 98/98/98 145/145/145
f 106/106/106 99/99/99 105/105/105
f 145/145/145 105/105/105 99/99/99
f 145/145/145 309/309/309 105/105/105
f 99/99/99 101/101/101 98/98/98
f 100/100/100 304/304/304 101/101/101
f 101/101/101 304/304/304 102/102/102
f 98/98/98 101/101/101 103/103/103
f 103/103/103 101/101/101 102/102/102
f 104/104/104 103/103/103 102/102/102
f 106/106/106 101/101/101 99/99/99
f 100/100/100 101/101/101 106/106/106
f 109/109/109 308/308/308 111/111/111
f 111/111/111 308/308/308 312/312/312
f 105/105/105 309/309/309 308/308/308
f 105/105/105 308/308/308 109/109/109
f 105/105/105 109/109/109 106/106/106
f 111/111/111 312/312/312 116/116/116
f 116/116/116 312/312/312 107/107/107
f 110/110/110 109/109/109 108/108/108
f 108/108/108 109/109/109 111/111/111
f 108/108/108 111/111/111 114/114/114
f 114/114/114 111/111/111 116/116/116
f 114/114/114 116/116/116 114/114/114
f 114/114/114 116/116/116 114/114/114
f 114/114/114 116/116/116 113/113/113
f 114/114/114 113/113/113 112/112/112
f 112/112/112 113/113/113 115/115/115
f 65/65/65 106/106/106 110/110/110
f 110/110/110 106/106/106 109/109/109
f 325/325/325 120/120/120 119/119/119
f 118/118/118 117/117/117 6/6/6
f 307/307/307 148/148/148 1/1/1
f 1/1/1 117/117/117 307/307/307
f 121/121/121 325/325/325 119/119/119
f 104/104/104 102/102/102 327/327/327
f 122/122/122 122/122/122 141/141/141
f 142/142/142 141/141/141 122/122/122
f 143/143/143 122/122/122 122/122/122
f 122/122/122 143/143/143 142/142/142
f 122/122/122 141/141/141 143/143/143
f 125/125/125 123/123/123 127/127/127
f 125/125/125 127/127/127 126/126/126
f 124/124/124 125/125/125 126/126/126
f 130/130/130 126/126/126 127/127/127
f 129/129/129 123/123/123 125/125/125
f 128/128/128 129/129/129 125/125/125
f 128/128/128 125/125/125 124/124/124
f 129/129/129 128/128/128 130/130/130
f 127/127/127 129/129/129 130/130/130
f 132/132/132 133/133/133 136/136/136
f 131/131/131 132/132/132 136/136/136
f 136/136/136 135/135/135 134/134/134
f 136/136/136 134/134/134 131/131/131
f 132/132/132 135/135/135 133/133/133
f 134/134/134 135/135/135 132/132/132
f 137/137/137 140/140/140 138/138/138
f 137/137/137 138/138/138 141/141/141
f 142/142/142 137/137/137 141/141/141
f 144/144/144 141/141/141 138/138/138
f 139/139/139 140/140/140 137/137/137
f 143/143/143 139/139/139 137/137/137
f 143/143/143 137/137/137 142/142/142
f 139/139/139 143/143/143 144/144/144
f 138/138/138 139/139/139 144/144/144
f 151/151/151 150/150/150 146/146/146
f 146/146/146 147/147/147 149/149/149
f 146/146/146 149/149/149 151/151/151
f 147/147/147 146/146/146 353/353/353
f 353/353/353 146/146/146 150/150/150
f 150/150/150 148/148/148 353/353/353
f 6/6/6 117/117/117 1/1/1
f 2/2/2 6/6/6 1/1/1
f 128/128/128 126/126/126 130/130/130
f 144/144/144 143/143/143 141/141/141
f 55/55/55 153/153/153 53/53/53
f 154/154/154 153/153/153 55/55/55
f 14/14/14 53/53/53 153/153/153
f 14/14/14 153/153/153 152/152/152
f 155/155/155 14/14/14 152/152/152
f 54/54/54 14/14/14 155/155/155
f 55/55/55 155/155/155 154/154/154
f 54/54/54 155/155/155 55/55/55
f 9/9/9 33/33/33 29/29/29
f 30/30/30 33/33/33 9/9/9
f 31/31/31 32/32/32 9/9/9
f 9/9/9 32/32/32 30/30/30
f 37/37/37 29/29/29 33/33/33
f 37/37/37 33/33/33 30/30/30
f 31/31/31 37/37/37 32/32/32
f 32/32/32 37/37/37 30/30/30
f 42/42/42 12/12/12 46/46/46
f 46/46/46 12/12/12 43/43/43
f 46/46/46 47/47/47 42/42/42
f 43/43/43 47/47/47 46/46/46
f 12/12/12 44/44/44 45/45/45
f 43/43/43 12/12/12 45/45/45
f 45/45/45 44/44/44 47/47/47
f 43/43/43 45/45/45 47/47/47
f 169/169/169 161/161/161 162/162/162
f 159/159/159 161/161/161 158/158/158
f 158/158/158 160/160/160 159/159/159
f 61/61/61 60/60/60 164/164/164
f 61/61/61 164/164/164 166/166/166
f 371/371/371 166/166/166 165/165/165
f 166/166/166 371/371/371 61/61/61
f 61/61/61 371/371/371 260/260/260
f 61/61/61 371/371/371 260/260/260
f 261/261/261 56/56/56 57/57/57
f 261/261/261 62/62/62 56/56/56
f 263/263/263 58/58/58 260/260/260
f 263/263/263 59/59/59 58/58/58
f 372/372/372 262/262/262 59/59/59
f 167/167/167 168/168/168 378/378/378
f 167/167/167 378/378/378 374/374/374
f 375/375/375 167/167/167 374/374/374
f 375/375/375 374/374/374 375/375/375
f 375/375/375 376/376/376 167/167/167
f 375/375/375 167/167/167 375/375/375
f 375/375/375 374/374/374 375/375/375
f 378/378/378 168/168/168 59/59/59
f 59/59/59 263/263/263 378/378/378
f 379/379/379 168/168/168 167/167/167
f 376/376/376 379/379/379 167/167/167
f 59/59/59 168/168/168 379/379/379
f 379/379/379 372/372/372 59/59/59
f 158/158/158 170/170/170 97/97/97
f 162/162/162 156/156/156 169/169/169
f 170/170/170 156/156/156 162/162/162
f 158/158/158 161/161/161 169/169/169
f 157/157/157 158/158/158 169/169/169
f 170/170/170 158/158/158 157/157/157
f 97/97/97 162/162/162 96/96/96
f 159/159/159 162/162/162 161/161/161
f 163/163/163 162/162/162 172/172/172
f 163/163/163 171/171/171 162/162/162
f 171/171/171 163/163/163 175/175/175
f 175/175/175 163/163/163 172/172/172
f 174/174/174 175/175/175 172/172/172
f 171/171/171 175/175/175 173/173/173
f 174/174/174 172/172/172 171/171/171
f 174/174/174 171/171/171 173/173/173
f 174/174/174 176/176/176 175/175/175
f 175/175/175 176/176/176 173/173/173
f 176/176/176 174/174/174 177/177/177
f 177/177/177 173/173/173 176/176/176
f 177/177/177 174/174/174 178/178/178
f 178/178/178 174/174/174 173/173/173
f 178/178/178 173/173/173 177/177/177
f 162/162/162 159/159/159 180/180/180
f 162/162/162 179/179/179 96/96/96
f 180/180/180 172/172/172 162/162/162
f 171/171/171 179/179/179 162/162/162
f 171/171/171 172/172/172 179/179/179
f 179/179/179 172/172/172 180/180/180
f 159/159/159 185/185/185 187/187/187
f 180/180/180 159/159/159 187/187/187
f 185/185/185 159/159/159 181/181/181
f 181/181/181 159/159/159 160/160/160
f 160/160/160 96/96/96 181/181/181
f 181/181/181 96/96/96 182/182/182
f 182/182/182 96/96/96 183/183/183
f 183/183/183 96/96/96 179/179/179
f 179/179/179 180/180/180 183/183/183
f 183/183/183 180/180/180 187/187/187
f 182/182/182 183/183/183 186/186/186
f 183/183/183 187/187/187 186/186/186
f 184/184/184 182/182/182 186/186/186
f 181/181/181 182/182/182 184/184/184
f 188/188/188 185/185/185 181/181/181
f 188/188/188 181/181/181 184/184/184
f 184/184/184 186/186/186 190/190/190
f 184/184/184 190/190/190 189/189/189
f 186/186/186 187/187/187 190/190/190
f 190/190/190 187/187/187 191/191/191
f 185/185/185 184/184/184 189/189/189
f 191/191/191 185/185/185 189/189/189
f 190/190/190 192/192/192 189/189/189
f 191/191/191 192/192/192 190/190/190
f 184/184/184 185/185/185 193/193/193
f 193/193/193 194/194/194 184/184/184
f 188/188/188 184/184/184 194/194/194
f 194/194/194 196/196/196 188/188/188
f 196/196/196 195/195/195 195/195/195
f 194/194/194 193/193/193 195/195/195
f 195/195/195 195/195/195 194/194/194
f 196/196/196 194/194/194 195/195/195
f 195/195/195 196/196/196 196/196/196
f 196/196/196 195/195/195 193/193/193
f 193/193/193 188/188/188 196/196/196
f 185/185/185 188/188/188 193/193/193
f 187/187/187 185/185/185 191/191/191
f 356/356/356 197/197/197 198/198/198
f 202/202/202 199/199/199 198/198/198
f 200/200/200 202/202/202 323/323/323
f 200/200/200 201/201/201 202/202/202
f 224/224/224 206/206/206 204/204/204
f 224/224/224 204/204/204 226/226/226
f 204/204/204 203/203/203 226/226/226
f 232/232/232 222/222/222 203/203/203
f 222/222/222 205/205/205 203/203/203
f 226/226/226 203/203/203 205/205/205
f 229/229/229 226/226/226 205/205/205
f 205/205/205 222/222/222 227/227/227
f 237/237/237 203/203/203 204/204/204
f 238/238/238 232/232/232 203/203/203
f 249/249/249 209/209/209 249/249/249
f 247/247/247 247/247/247 209/209/209
f 247/247/247 208/208/208 209/209/209
f 249/249/249 209/209/209 208/208/208
f 242/242/242 249/249/249 208/208/208
f 208/208/208 247/247/247 240/240/240
f 250/250/250 209/209/209 249/249/249
f 248/248/248 247/247/247 209/209/209
f 209/209/209 210/210/210 248/248/248
f 250/250/250 210/210/210 209/209/209
f 252/252/252 210/210/210 250/250/250
f 251/251/251 248/248/248 210/210/210
f 214/214/214 212/212/212 217/217/217
f 214/214/214 217/217/217 214/214/214
f 214/214/214 217/217/217 220/220/220
f 214/214/214 220/220/220 215/215/215
f 215/215/215 220/220/220 216/216/216
f 212/212/212 211/211/211 218/218/218
f 217/217/217 212/212/212 218/218/218
f 217/217/217 218/218/218 221/221/221
f 294/294/294 217/217/217 221/221/221
f 203/203/203 237/237/237 207/207/207
f 207/207/207 237/237/237 234/234/234
f 207/207/207 233/233/233 203/203/203
f 238/238/238 203/203/203 233/233/233
f 225/225/225 236/236/236 224/224/224
f 226/226/226 225/225/225 224/224/224
f 226/226/226 223/223/223 225/225/225
f 223/223/223 222/222/222 232/232/232
f 223/223/223 235/235/235 222/222/222
f 235/235/235 223/223/223 226/226/226
f 235/235/235 226/226/226 229/229/229
f 227/227/227 222/222/222 235/235/235
f 225/225/225 223/223/223 237/237/237
f 223/223/223 232/232/232 238/238/238
f 239/239/239 237/237/237 223/223/223
f 234/234/234 237/237/237 239/239/239
f 223/223/223 233/233/233 239/239/239
f 233/233/233 223/223/223 238/238/238
f 237/237/237 204/204/204 225/225/225
f 236/236/236 225/225/225 204/204/204
f 206/206/206 236/236/236 204/204/204
f 249/249/249 246/246/246 249/249/249
f 246/246/246 247/247/247 247/247/247
f 246/246/246 245/245/245 247/247/247
f 245/245/245 246/246/246 249/249/249
f 245/245/245 249/249/249 242/242/242
f 240/240/240 247/247/247 245/245/245
f 249/249/249 246/246/246 250/250/250
f 246/246/246 247/247/247 248/248/248
f 248/248/248 253/253/253 246/246/246
f 246/246/246 253/253/253 250/250/250
f 250/250/250 253/253/253 252/252/252
f 253/253/253 248/248/248 251/251/251
f 258/258/258 254/254/254 255/255/255
f 259/259/259 258/258/258 255/255/255
f 259/259/259 255/255/255 256/256/256
f 260/260/260 259/259/259 256/256/256
f 256/256/256 255/255/255 261/261/261
f 256/256/256 261/261/261 262/262/262
f 257/257/257 256/256/256 262/262/262
f 267/267/267 302/302/302 266/266/266
f 266/266/266 302/302/302 265/265/265
f 264/264/264 265/265/265 304/304/304
f 304/304/304 265/265/265 302/302/302
f 277/277/277 276/276/276 268/268/268
f 270/270/270 277/277/277 268/268/268
f 276/276/276 278/278/278 272/272/272
f 268/268/268 276/276/276 272/272/272
f 270/270/270 268/268/268 269/269/269
f 275/275/275 270/270/270 269/269/269
f 268/268/268 272/272/272 274/274/274
f 269/269/269 268/268/268 274/274/274
f 279/279/279 287/287/287 286/286/286
f 279/279/279 286/286/286 277/277/277
f 271/271/271 279/279/279 277/277/277
f 271/271/271 277/277/277 270/270/270
f 278/278/278 287/287/287 279/279/279
f 272/272/272 278/278/278 279/279/279
f 272/272/272 279/279/279 271/271/271
f 273/273/273 271/271/271 270/270/270
f 273/273/273 270/270/270 275/275/275
f 274/274/274 272/272/272 271/271/271
f 274/274/274 271/271/271 273/273/273
f 280/280/280 273/273/273 275/275/275
f 282/282/282 274/274/274 273/273/273
f 282/282/282 273/273/273 280/280/280
f 380/380/380 280/280/280 281/281/281
f 380/380/380 281/281/281 361/361/361
f 362/362/362 280/280/280 380/380/380
f 281/281/281 280/280/280 275/275/275
f 362/362/362 282/282/282 280/280/280
f 274/274/274 282/282/282 269/269/269
f 269/269/269 282/282/282 283/283/283
f 269/269/269 283/283/283 275/275/275
f 275/275/275 283/283/283 281/281/281
f 281/281/281 283/283/283 381/381/381
f 281/281/281 381/381/381 361/361/361
f 381/381/381 283/283/283 362/362/362
f 362/362/362 283/283/283 282/282/282
f 267/267/267 311/311/311 302/302/302
f 323/323/323 284/284/284 200/200/200
f 285/285/285 284/284/284 323/323/323
f 201/201/201 199/199/199 202/202/202
f 200/200/200 199/199/199 201/201/201
f 284/284/284 199/199/199 200/200/200
f 199/199/199 284/284/284 83/83/83
f 287/287/287 292/292/292 291/291/291
f 288/288/288 290/290/290 292/292/292
f 288/288/288 292/292/292 287/287/287
f 287/287/287 291/291/291 286/286/286
f 288/288/288 287/287/287 278/278/278
f 286/286/286 293/293/293 276/276/276
f 277/277/277 286/286/286 276/276/276
f 293/293/293 278/278/278 276/276/276
f 288/288/288 278/278/278 293/293/293
f 289/289/289 288/288/288 293/293/293
f 290/290/290 288/288/288 289/289/289
f 293/293/293 286/286/286 291/291/291
f 293/293/293 291/291/291 289/289/289
f 266/266/266 295/295/295 213/213/213
f 265/265/265 295/295/295 266/266/266
f 213/213/213 295/295/295 214/214/214
f 214/214/214 295/295/295 212/212/212
f 296/296/296 265/265/265 264/264/264
f 264/264/264 296/296/296 264/264/264
f 211/211/211 296/296/296 264/264/264
f 211/211/211 212/212/212 296/296/296
f 297/297/297 216/216/216 220/220/220
f 219/219/219 216/216/216 297/297/297
f 219/219/219 297/297/297 23/23/23
f 297/297/297 294/294/294 221/221/221
f 297/297/297 221/221/221 23/23/23
f 381/381/381 299/299/299 367/367/367
f 298/298/298 299/299/299 363/363/363
f 363/363/363 365/365/365 298/298/298
f 351/351/351 300/300/300 301/301/301
f 310/310/310 301/301/301 311/311/311
f 301/301/301 310/310/310 351/351/351
f 310/310/310 309/309/309 351/351/351
f 300/300/300 303/303/303 301/301/301
f 303/303/303 304/304/304 302/302/302
f 102/102/102 304/304/304 303/303/303
f 305/305/305 303/303/303 300/300/300
f 102/102/102 303/303/303 305/305/305
f 102/102/102 305/305/305 306/306/306
f 301/301/301 303/303/303 311/311/311
f 311/311/311 303/303/303 302/302/302
f 316/316/316 308/308/308 314/314/314
f 312/312/312 308/308/308 316/316/316
f 308/308/308 309/309/309 310/310/310
f 314/314/314 308/308/308 310/310/310
f 311/311/311 314/314/314 310/310/310
f 321/321/321 312/312/312 316/316/316
f 107/107/107 312/312/312 321/321/321
f 313/313/313 314/314/314 315/315/315
f 316/316/316 314/314/314 313/313/313
f 319/319/319 316/316/316 313/313/313
f 321/321/321 316/316/316 319/319/319
f 319/319/319 321/321/321 319/319/319
f 319/319/319 321/321/321 319/319/319
f 318/318/318 321/321/321 319/319/319
f 317/317/317 318/318/318 319/319/319
f 320/320/320 318/318/318 317/317/317
f 315/315/315 311/311/311 267/267/267
f 314/314/314 311/311/311 315/315/315
f 324/324/324 120/120/120 325/325/325
f 202/202/202 322/322/322 323/323/323
f 197/197/197 148/148/148 307/307/307
f 307/307/307 322/322/322 197/197/197
f 324/324/324 325/325/325 326/326/326
f 327/327/327 102/102/102 306/306/306
f 347/347/347 328/328/328 328/328/328
f 328/328/328 347/347/347 348/348/348
f 328/328/328 328/328/328 349/349/349
f 348/348/348 349/349/349 328/328/328
f 349/349/349 347/347/347 328/328/328
f 333/333/333 329/329/329 331/331/331
f 332/332/332 333/333/333 331/331/331
f 332/332/332 331/331/331 330/330/330
f 333/333/333 332/332/332 336/336/336
f 331/331/331 329/329/329 335/335/335
f 331/331/331 335/335/335 334/334/334
f 330/330/330 331/331/331 334/334/334
f 336/336/336 334/334/334 335/335/335
f 336/336/336 335/335/335 333/333/333
f 342/342/342 339/339/339 338/338/338
f 342/342/342 338/338/338 337/337/337
f 340/340/340 341/341/341 342/342/342
f 337/337/337 340/340/340 342/342/342
f 339/339/339 341/341/341 338/338/338
f 338/338/338 341/341/341 340/340/340
f 344/344/344 346/346/346 343/343/343
f 347/347/347 344/344/344 343/343/343
f 347/347/347 343/343/343 348/348/348
f 344/344/344 347/347/347 350/350/350
f 343/343/343 346/346/346 345/345/345
f 343/343/343 345/345/345 349/349/349
f 348/348/348 343/343/343 349/349/349
f 350/350/350 349/349/349 345/345/345
f 350/350/350 345/345/345 344/344/344
f 352/352/352 355/355/355 356/356/356
f 354/354/354 147/147/147 352/352/352
f 356/356/356 354/354/354 352/352/352
f 353/353/353 352/352/352 147/147/147
f 355/355/355 352/352/352 353/353/353
f 353/353/353 148/148/148 355/355/355
f 197/197/197 322/322/322 202/202/202
f 197/197/197 202/202/202 198/198/198
f 336/336/336 332/332/332 334/334/334
f 347/347/347 349/349/349 350/350/350
f 251/251/251 358/358/358 253/253/253
f 253/253/253 358/358/358 359/359/359
f 358/358/358 251/251/251 210/210/210
f 357/357/357 358/358/358 210/210/210
f 357/357/357 210/210/210 360/360/360
f 360/360/360 210/210/210 252/252/252
f 359/359/359 360/360/360 253/253/253
f 253/253/253 360/360/360 252/252/252
f 227/227/227 231/231/231 205/205/205
f 205/205/205 231/231/231 228/228/228
f 205/205/205 230/230/230 229/229/229
f 228/228/228 230/230/230 205/205/205
f 231/231/231 227/227/227 235/235/235
f 228/228/228 231/231/231 235/235/235
f 230/230/230 235/235/235 229/229/229
f 228/228/228 235/235/235 230/230/230
f 244/244/244 208/208/208 240/240/240
f 241/241/241 208/208/208 244/244/244
f 240/240/240 245/245/245 244/244/244
f 244/244/244 245/245/245 241/241/241
f 243/243/243 242/242/242 208/208/208
f 243/243/243 208/208/208 241/241/241
f 245/245/245 242/242/242 243/243/243
f 245/245/245 243/243/243 241/241/241
f 367/367/367 366/366/366 380/380/380
f 363/363/363 366/366/366 364/364/364
f 364/364/364 365/365/365 363/363/363
f 369/369/369 258/258/258 259/259/259
f 370/370/370 369/369/369 259/259/259
f 165/165/165 370/370/370 371/371/371
f 259/259/259 371/371/371 370/370/370
f 260/260/260 371/371/371 259/259/259
f 260/260/260 371/371/371 259/259/259
f 255/255/255 254/254/254 261/261/261
f 254/254/254 62/62/62 261/261/261
f 260/260/260 256/256/256 263/263/263
f 256/256/256 257/257/257 263/263/263
f 257/257/257 262/262/262 372/372/372
f 378/378/378 377/377/377 373/373/373
f 374/374/374 378/378/378 373/373/373
f 374/374/374 373/373/373 375/375/375
f 375/375/375 374/374/374 375/375/375
f 373/373/373 376/376/376 375/375/375
f 375/375/375 373/373/373 375/375/375
f 375/375/375 374/374/374 375/375/375
f 257/257/257 377/377/377 378/378/378
f 378/378/378 263/263/263 257/257/257
f 373/373/373 377/377/377 379/379/379
f 373/373/373 379/379/379 376/376/376
f 379/379/379 377/377/377 257/257/257
f 257/257/257 372/372/372 379/379/379
f 299/299/299 381/381/381 363/363/363
f 380/380/380 361/361/361 367/367/367
f 367/367/367 361/361/361 381/381/381
f 380/380/380 366/366/366 363/363/363
f 380/380/380 363/363/363 362/362/362
f 362/362/362 363/363/363 381/381/381
f 298/298/298 367/367/367 299/299/299
f 366/366/366 367/367/367 364/364/364
f 383/383/383 367/367/367 368/368/368
f 367/367/367 382/382/382 368/368/368
f 386/386/386 368/368/368 382/382/382
f 383/383/383 368/368/368 386/386/386
f 383/383/383 386/386/386 385/385/385
f 384/384/384 386/386/386 382/382/382
f 382/382/382 383/383/383 385/385/385
f 384/384/384 382/382/382 385/385/385
f 386/386/386 387/387/387 385/385/385
f 384/384/384 387/387/387 386/386/386
f 388/388/388 385/385/385 387/387/387
f 387/387/387 384/384/384 388/388/388
f 389/389/389 385/385/385 388/388/388
f 384/384/384 385/385/385 389/389/389
f 388/388/388 384/384/384 389/389/389
f 391/391/391 364/364/364 367/367/367
f 298/298/298 390/390/390 367/367/367
f 367/367/367 383/383/383 391/391/391
f 367/367/367 390/390/390 382/382/382
f 390/390/390 383/383/383 382/382/382
f 391/391/391 383/383/383 390/390/390
f 398/398/398 396/396/396 364/364/364
f 398/398/398 364/364/364 391/391/391
f 392/392/392 364/364/364 396/396/396
f 365/365/365 364/364/364 392/392/392
f 392/392/392 298/298/298 365/365/365
f 393/393/393 298/298/298 392/392/392
f 394/394/394 298/298/298 393/393/393
f 390/390/390 298/298/298 394/394/394
f 394/394/394 391/391/391 390/390/390
f 398/398/398 391/391/391 394/394/394
f 397/397/397 394/394/394 393/393/393
f 397/397/397 398/398/398 394/394/394
f 397/397/397 393/393/393 395/395/395
f 395/395/395 393/393/393 392/392/392
f 392/392/392 396/396/396 399/399/399
f 395/395/395 392/392/392 399/399/399
f 401/401/401 397/397/397 395/395/395
f 400/400/400 401/401/401 395/395/395
f 401/401/401 398/398/398 397/397/397
f 402/402/402 398/398/398 401/401/401
f 400/400/400 395/395/395 396/396/396
f 400/400/400 396/396/396 402/402/402
f 400/400/400 403/403/403 401/401/401
f 401/401/401 403/403/403 402/402/402
f 404/404/404 396/396/396 395/395/395
f 395/395/395 405/405/405 404/404/404
f 405/405/405 395/395/395 399/399/399
f 399/399/399 407/407/407 405/405/405
f 406/406/406 406/406/406 407/407/407
f 406/406/406 404/404/404 405/405/405
f 405/405/405 406/406/406 406/406/406
f 406/406/406 405/405/405 407/407/407
f 407/407/407 407/407/407 406/406/406
f 404/404/404 406/406/406 407/407/407
f 407/407/407 399/399/399 404/404/404
f 404/404/404 399/399/399 396/396/396
f 402/402/402 396/396/396 398/398/398
f 284/284/284 82/82/82 83/83/83
f 82/82/82 284/284/284 285/285/285
f 149/149/149 147/147/147 354/354/354
f 351/351/351 309/309/309 145/145/145
f 189/189/189 408/408/408 191/191/191
f 191/191/191 408/408/408 192/192/192
f 189/189/189 192/192/192 408/408/408
f 403/403/403 400/400/400 409/409/409
f 409/409/409 400/400/400 402/402/402
f 409/409/409 402/402/402 403/403/403
v 0.013561 1.682750 -0.447168
v 0.070182 1.827440 -0.488327
v -0.017775 1.773600 -0.444511
v 0.160937 1.811900 -0.454234
v 0.180466 1.717970 -0.454947
v -0.082807 1.672620 -0.351258
v -0.100279 1.777820 -0.351258
v 0.269615 1.701800 -0.351258
v 0.099435 1.720490 -0.505627
v -0.024896 1.870090 -0.428393
v 0.235176 1.840360 -0.391545
v 0.225853 1.848090 -0.310369
v 0.109049 1.643670 -0.478830
v 0.060617 1.578440 -0.426761
v -0.024046 1.712250 -0.233572
v -0.045114 1.798470 -0.227996
v 0.164143 1.715270 -0.233572
v 0.084471 1.664130 -0.235844
v 0.008772 1.866910 -0.227995
v 0.156715 1.815580 -0.220575
v 0.108960 1.864780 -0.223479
v 0.180502 1.757490 -0.220008
v 0.121283 1.939100 -0.307743
v 0.128209 1.917100 -0.421798
v -0.029875 1.897530 -0.304056
v 0.065713 1.604670 -0.280611
v -0.011291 1.594260 -0.355778
v 0.126377 1.572350 -0.355778
v 0.209973 1.599860 -0.351258
v 0.013561 1.681960 0.447169
v 0.070182 1.826660 0.488327
v -0.017775 1.772810 0.444511
v 0.160937 1.811110 0.454235
v 0.180466 1.717180 0.454947
v -0.082807 1.671830 0.351258
v -0.100279 1.777040 0.351258
v 0.269615 1.701010 0.351258
v 0.099435 1.719710 0.505627
v -0.024896 1.869300 0.428394
v 0.235176 1.839570 0.391546
v 0.225853 1.847310 0.310369
v 0.109049 1.642890 0.478830
v 0.060617 1.577660 0.426761
v -0.024046 1.711470 0.233572
v -0.045114 1.797690 0.227997
v 0.164143 1.714490 0.233572
v 0.084471 1.663340 0.235844
v 0.008772 1.866130 0.227996
v 0.156715 1.814790 0.220576
v 0.108960 1.863990 0.223479
v 0.180502 1.756700 0.220008
v 0.121283 1.938320 0.307743
v 0.128209 1.916320 0.421799
v -0.029875 1.896750 0.304057
v 0.065713 1.603890 0.280611
v -0.011291 1.593480 0.355778
v 0.126377 1.571570 0.355778
v 0.209973 1.599080 0.351258
vn -0.559483 -0.336867 -0.757297
vn -0.080821 0.315417 -0.945505
vn -0.617086 -0.051956 -0.785178
vn 0.485404 0.256816 -0.835720
vn 0.640750 -0.133828 -0.755995
vn -0.916586 -0.381635 -0.119271
vn -0.970464 0.169113 -0.172049
vn 0.974521 -0.184917 0.126940
vn 0.006493 -0.065683 -0.997819
vn -0.542432 0.632951 -0.552395
vn 0.788373 0.369456 -0.491905
vn 0.759198 0.533088 0.373412
vn 0.207004 -0.557177 -0.804179
vn -0.252956 -0.598543 -0.760105
vn -0.566158 -0.531883 0.629734
vn -0.867955 0.137701 0.477171
vn 0.562271 -0.483215 0.671085
vn 0.208815 -0.649729 0.730923
vn -0.315383 0.747615 0.584470
vn 0.630801 0.434383 0.642963
vn 0.368009 0.661711 0.653229
vn 0.771739 -0.017549 0.635697
vn 0.080345 0.967361 0.240330
vn 0.331582 0.780925 -0.529348
vn -0.642762 0.734808 0.216596
vn -0.090198 -0.664575 0.741757
vn -0.736083 -0.675419 -0.044628
vn 0.437711 -0.895184 0.083989
vn 0.647748 -0.760390 0.047217
vn -0.559468 -0.336886 0.757300
vn -0.080824 0.315414 0.945506
vn -0.617086 -0.051953 0.785178
vn 0.485418 0.256801 0.835717
vn 0.640745 -0.133845 0.755997
vn -0.916582 -0.381648 0.119256
vn -0.970461 0.169120 0.172058
vn 0.974515 -0.184954 -0.126938
vn 0.006503 -0.065683 0.997819
vn -0.542441 0.632935 0.552406
vn 0.788376 0.369426 0.491923
vn 0.759206 0.533074 -0.373414
vn 0.207007 -0.557183 0.804174
vn -0.252938 -0.598565 0.760094
vn -0.566154 -0.531894 -0.629729
vn -0.867952 0.137706 -0.477175
vn 0.562257 -0.483237 -0.671080
vn 0.208800 -0.649760 -0.730900
vn -0.315364 0.747605 -0.584494
vn 0.630779 0.434368 -0.642995
vn 0.368013 0.661667 -0.653271
vn 0.771723 -0.017581 -0.635715
vn 0.080344 0.967358 -0.240340
vn 0.331586 0.780910 0.529368
vn -0.642765 0.734813 -0.216572
vn -0.090245 -0.664606 -0.741724
vn -0.736054 -0.675452 0.044606
vn 0.437687 -0.895198 -0.083970
vn 0.647739 -0.760398 -0.047211
vt 0.460444 0.656979
vt 0.564918 0.980597
vt 0.465485 0.804391
vt 0.467602 0.813801
vt 0.462941 0.668287
vt 0.284991 0.628087
vt 0.285328 0.734588
vt 0.279488 0.669152
vt 0.577235 0.637625
vt 0.409594 0.895682
vt 0.397129 0.793218
vt 0.279991 0.827110
vt 0.495073 0.459948
vt 0.431549 0.416693
vt 0.007026 0.583239
vt 0.008263 0.693470
vt 0.002199 0.640686
vt 0.004080 0.563578
vt 0.007273 0.796982
vt 0.002807 0.792120
vt 0.004680 0.827814
vt 0.002218 0.730943
vt 0.141991 0.982272
vt 0.409439 1.005990
vt 0.144984 0.843605
vt 0.203324 0.453466
vt 0.284211 0.510241
vt 0.284211 0.510241
vt 0.278019 0.574606
vt 0.460444 0.656979
vt 0.564918 0.980597
vt 0.465485 0.804391
vt 0.467602 0.813801
vt 0.462941 0.668287
vt 0.284991 0.628087
vt 0.285328 0.734588
vt 0.279488 0.669152
vt 0.577235 0.637625
vt 0.409594 0.895682
vt 0.397129 0.793218
vt 0.279991 0.827110
vt 0.495073 0.459948
vt 0.431549 0.416693
vt 0.007026 0.583239
vt 0.008263 0.693470
vt 0.002199 0.640686
vt 0.004080 0.563578
vt 0.007273 0.796982
vt 0.002807 0.792120
vt 0.004680 0.827814
vt 0.002218 0.730943
vt 0.141991 0.982272
vt 0.409439 1.005990
vt 0.144984 0.843605
vt 0.203324 0.453466
vt 0.284211 0.510241
vt 0.284211 0.510241
vt 0.278019 0.574606
f 410/410/410 422/422/422 423/423/423
f 416/416/416 419/419/419 412/412/412
f 412/412/412 419/419/419 411/411/411
f 414/414/414 438/438/438 422/422/422
f 438/438/438 414/414/414 417/417/417
f 435/435/435 427/427/427 424/424/424
f 425/425/425 434/434/434 416/416/416
f 428/428/428 434/434/434 425/425/425
f 427/427/427 438/438/438 426/426/426
f 417/417/417 426/426/426 438/438/438
f 428/428/428 432/432/432 434/434/434
f 430/430/430 432/432/432 428/428/428
f 430/430/430 421/421/421 432/432/432
f 429/429/429 421/421/421 430/430/430
f 421/421/421 429/429/429 431/431/431
f 431/431/431 426/426/426 417/417/417
f 417/417/417 421/421/421 431/431/431
f 411/411/411 419/419/419 433/433/433
f 420/420/420 413/413/413 433/433/433
f 433/433/433 413/413/413 411/411/411
f 411/411/411 413/413/413 418/418/418
f 418/418/418 413/413/413 414/414/414
f 422/422/422 418/418/418 414/414/414
f 410/410/410 418/418/418 422/422/422
f 412/412/412 418/418/418 410/410/410
f 411/411/411 418/418/418 412/412/412
f 412/412/412 410/410/410 415/415/415
f 412/412/412 415/415/415 416/416/416
f 425/425/425 415/415/415 424/424/424
f 416/416/416 415/415/415 425/425/425
f 413/413/413 420/420/420 414/414/414
f 414/414/414 420/420/420 417/417/417
f 432/432/432 421/421/421 433/433/433
f 432/432/432 433/433/433 419/419/419
f 432/432/432 419/419/419 434/434/434
f 434/434/434 419/419/419 416/416/416
f 435/435/435 424/424/424 436/436/436
f 436/436/436 424/424/424 415/415/415
f 437/437/437 427/427/427 435/435/435
f 438/438/438 427/427/427 437/437/437
f 422/422/422 437/437/437 423/423/423
f 438/438/438 437/437/437 422/422/422
f 423/423/423 436/436/436 410/410/410
f 410/410/410 436/436/436 415/415/415
f 421/421/421 420/420/420 433/433/433
f 417/417/417 420/420/420 421/421/421
f 452/452/452 451/451/451 439/439/439
f 441/441/441 448/448/448 445/445/445
f 440/440/440 448/448/448 441/441/441
f 451/451/451 467/467/467 443/443/443
f 446/446/446 443/443/443 467/467/467
f 453/453/453 456/456/456 464/464/464
f 445/445/445 463/463/463 454/454/454
f 454/454/454 463/463/463 457/457/457
f 455/455/455 467/467/467 456/456/456
f 467/467/467 455/455/455 446/446/446
f 463/463/463 461/461/461 457/457/457
f 457/457/457 461/461/461 459/459/459
f 461/461/461 450/450/450 459/459/459
f 459/459/459 450/450/450 458/458/458
f 460/460/460 458/458/458 450/450/450
f 446/446/446 455/455/455 460/460/460
f 460/460/460 450/450/450 446/446/446
f 462/462/462 448/448/448 440/440/440
f 462/462/462 442/442/442 449/449/449
f 440/440/440 442/442/442 462/462/462
f 447/447/447 442/442/442 440/440/440
f 443/443/443 442/442/442 447/447/447
f 443/443/443 447/447/447 451/451/451
f 451/451/451 447/447/447 439/439/439
f 439/439/439 447/447/447 441/441/441
f 441/441/441 447/447/447 440/440/440
f 444/444/444 439/439/439 441/441/441
f 445/445/445 444/444/444 441/441/441
f 453/453/453 444/444/444 454/454/454
f 454/454/454 444/444/444 445/445/445
f 443/443/443 449/449/449 442/442/442
f 446/446/446 449/449/449 443/443/443
f 462/462/462 450/450/450 461/461/461
f 448/448/448 462/462/462 461/461/461
f 463/463/463 448/448/448 461/461/461
f 445/445/445 448/448/448 463/463/463
f 465/465/465 453/453/453 464/464/464
f 444/444/444 453/453/453 465/465/465
f 464/464/464 456/456/456 466/466/466
f 466/466/466 456/456/456 467/467/467
f 452/452/452 466/466/466 451/451/451
f 451/451/451 466/466/466 467/467/467
f 439/439/439 465/465/465 452/452/452
f 444/444/444 465/465/465 439/439/439
f 462/462/462 449/449/449 450/450/450
f 450/450/450 449/449/449 446/446/446
v 0.183534 0.899206 -0.433682
v 0.184681 0.899999 -0.299559
v 0.159827 0.908370 -0.313676
v 0.158127 0.907760 -0.416704
v 0.183238 0.810416 -0.433682
v 0.183386 0.853606 -0.433682
v 0.184385 0.809623 -0.299559
v 0.184533 0.853606 -0.299559
v 0.073354 0.853685 -0.488932
v 0.159530 0.801251 -0.314450
v 0.157830 0.801862 -0.417479
v -0.036621 0.899206 -0.433627
v -0.037847 0.899999 -0.299504
v 0.073400 0.899332 -0.240090
v 0.073473 0.895215 -0.488879
v 0.073408 0.908340 -0.268652
v -0.010959 0.908370 -0.315630
v -0.011681 0.907760 -0.416634
v 0.072454 0.905670 -0.462960
v -0.036324 0.810416 -0.433626
v -0.036472 0.853606 -0.433627
v -0.037551 0.809623 -0.299504
v -0.037699 0.853606 -0.299504
v 0.073400 0.810289 -0.240090
v 0.073400 0.853606 -0.240090
v 0.073473 0.814249 -0.488879
v 0.073593 0.853685 -0.488826
v 0.073408 0.801282 -0.269426
v -0.010663 0.801251 -0.316404
v -0.011384 0.801862 -0.417408
v 0.072454 0.803952 -0.463734
v 0.183535 0.899207 0.295326
v 0.184682 0.900000 0.429450
v 0.159827 0.908371 0.415333
v 0.158127 0.907761 0.312304
v 0.183238 0.810417 0.295326
v 0.183386 0.853607 0.295326
v 0.184385 0.809624 0.429450
v 0.184534 0.853607 0.429450
v 0.073354 0.853686 0.240077
v 0.159530 0.801252 0.414559
v 0.157831 0.801863 0.311530
v -0.036621 0.899207 0.295382
v -0.037847 0.900000 0.429505
v 0.073400 0.899333 0.488919
v 0.073474 0.895216 0.240130
v 0.073408 0.908341 0.460357
v -0.010959 0.908371 0.413379
v -0.011680 0.907761 0.312375
v 0.072454 0.905671 0.266049
v -0.036324 0.810417 0.295382
v -0.036472 0.853607 0.295382
v -0.037551 0.809624 0.429505
v -0.037699 0.853607 0.429505
v 0.073400 0.810290 0.488919
v 0.073400 0.853607 0.488919
v 0.073474 0.814251 0.240130
v 0.073593 0.853686 0.240182
v 0.073408 0.801283 0.459583
v -0.010662 0.801252 0.412605
v -0.011384 0.801863 0.311601
v 0.072454 0.803953 0.265275
vn 0.535946 0.738422 -0.409261
vn 0.731630 0.554849 0.396055
vn 0.213100 0.957177 0.195963
vn 0.259543 0.960295 -0.102329
vn 0.536537 -0.737263 -0.410574
vn 0.848848 -0.002375 -0.528631
vn 0.730382 -0.557936 0.394018
vn 0.860034 -0.002819 0.510228
vn 0.000246 0.000038 -1.000000
vn 0.210843 -0.958685 0.190969
vn 0.261101 -0.959643 -0.104458
vn -0.538513 0.735415 -0.411301
vn -0.728217 0.560809 0.393945
vn 0.000889 0.791600 0.611039
vn -0.001097 0.390016 -0.920808
vn -0.005224 0.953681 0.300775
vn -0.202686 0.960857 0.188872
vn -0.253406 0.962200 -0.099780
vn -0.001962 0.943808 -0.330488
vn -0.539169 -0.734142 -0.412714
vn -0.848664 -0.002364 -0.528927
vn -0.726969 -0.563717 0.392095
vn -0.860121 -0.002824 0.510082
vn 0.000799 -0.795342 0.606160
vn 0.000127 -0.000877 1.000000
vn -0.001159 -0.389520 -0.921017
vn 0.000246 0.000038 -1.000000
vn -0.005127 -0.955945 0.293502
vn -0.200522 -0.962194 0.184321
vn -0.254927 -0.961576 -0.101898
vn -0.002055 -0.941814 -0.336129
vn 0.535944 0.738421 -0.409266
vn 0.731629 0.554850 0.396056
vn 0.213095 0.957178 0.195962
vn 0.259534 0.960297 -0.102329
vn 0.536538 -0.737258 -0.410582
vn 0.848845 -0.002383 -0.528636
vn 0.730380 -0.557940 0.394015
vn 0.860036 -0.002829 0.510226
vn 0.000238 0.000038 -1.000000
vn 0.210842 -0.958685 0.190969
vn 0.261103 -0.959643 -0.104455
vn -0.538513 0.735415 -0.411301
vn -0.728217 0.560809 0.393945
vn 0.000888 0.791600 0.611039
vn -0.001102 0.390018 -0.920807
vn -0.005223 0.953681 0.300775
vn -0.202687 0.960857 0.188872
vn -0.253406 0.962200 -0.099780
vn -0.001964 0.943808 -0.330488
vn -0.539170 -0.734136 -0.412723
vn -0.848664 -0.002360 -0.528926
vn -0.726969 -0.563717 0.392095
vn -0.860121 -0.002823 0.510082
vn 0.000800 -0.795343 0.606159
vn 0.000126 -0.000879 1.000000
vn -0.001161 -0.389510 -0.921022
vn 0.000238 0.000038 -1.000000
vn -0.005126 -0.955945 0.293500
vn -0.200521 -0.962194 0.184320
vn -0.254925 -0.961577 -0.101895
vn -0.002055 -0.941809 -0.336143
vt 0.783464 0.622265
vt 0.995284 0.621413
vt 0.993345 0.593222
vt 0.781525 0.594074
vt 0.783464 0.622265
vt 0.784001 0.514596
vt 0.995284 0.621413
vt 0.995453 0.519795
vt 0.995453 0.519795
vt 0.993345 0.593222
vt 0.781525 0.594074
vt 0.783464 0.622265
vt 0.995284 0.621413
vt 0.783464 0.622265
vt 0.995284 0.621413
vt 0.781525 0.594074
vt 0.993345 0.593222
vt 0.781525 0.594074
vt 0.993345 0.593222
vt 0.783464 0.622265
vt 0.784001 0.514596
vt 0.995284 0.621413
vt 0.995453 0.519795
vt 0.783464 0.622265
vt 0.784001 0.514596
vt 0.995284 0.621413
vt 0.995453 0.519795
vt 0.781525 0.594074
vt 0.993345 0.593222
vt 0.781525 0.594074
vt 0.993345 0.593222
vt 0.783464 0.622265
vt 0.995284 0.621413
vt 0.993345 0.593222
vt 0.781525 0.594074
vt 0.783464 0.622265
vt 0.784001 0.514596
vt 0.995284 0.621413
vt 0.995453 0.519795
vt 0.995453 0.519795
vt 0.993345 0.593222
vt 0.781525 0.594074
vt 0.783464 0.622265
vt 0.995284 0.621413
vt 0.783464 0.622265
vt 0.995284 0.621413
vt 0.781525 0.594074
vt 0.993345 0.593222
vt 0.781525 0.594074
vt 0.993345 0.593222
vt 0.783464 0.622265
vt 0.784001 0.514596
vt 0.995284 0.621413
vt 0.995453 0.519795
vt 0.783464 0.622265
vt 0.784001 0.514596
vt 0.995284 0.621413
vt 0.995453 0.519795
vt 0.781525 0.594074
vt 0.993345 0.593222
vt 0.781525 0.594074
vt 0.993345 0.593222
f 473/473/473 468/468/468 469/469/469
f 473/473/473 469/469/469 475/475/475
f 482/482/482 468/468/468 473/473/473
f 476/476/476 482/482/482 473/473/473
f 469/469/469 481/481/481 492/492/492
f 475/475/475 469/469/469 492/492/492
f 470/470/470 483/483/483 481/481/481
f 469/469/469 470/470/470 481/481/481
f 471/471/471 470/470/470 469/469/469
f 471/471/471 469/469/469 468/468/468
f 486/486/486 471/471/471 468/468/468
f 482/482/482 486/486/486 468/468/468
f 474/474/474 472/472/472 473/473/473
f 475/475/475 474/474/474 473/473/473
f 473/473/473 472/472/472 493/493/493
f 473/473/473 493/493/493 476/476/476
f 492/492/492 491/491/491 474/474/474
f 492/492/492 474/474/474 475/475/475
f 491/491/491 495/495/495 477/477/477
f 491/491/491 477/477/477 474/474/474
f 474/474/474 477/477/477 478/478/478
f 472/472/472 474/474/474 478/478/478
f 472/472/472 478/478/478 498/498/498
f 472/472/472 498/498/498 493/493/493
f 480/480/480 479/479/479 488/488/488
f 490/490/490 480/480/480 488/488/488
f 488/488/488 479/479/479 482/482/482
f 488/488/488 482/482/482 494/494/494
f 492/492/492 481/481/481 480/480/480
f 492/492/492 480/480/480 490/490/490
f 481/481/481 483/483/483 484/484/484
f 481/481/481 484/484/484 480/480/480
f 480/480/480 484/484/484 485/485/485
f 479/479/479 480/480/480 485/485/485
f 479/479/479 485/485/485 486/486/486
f 479/479/479 486/486/486 482/482/482
f 488/488/488 487/487/487 489/489/489
f 488/488/488 489/489/489 490/490/490
f 493/493/493 487/487/487 488/488/488
f 494/494/494 493/493/493 488/488/488
f 489/489/489 491/491/491 492/492/492
f 490/490/490 489/489/489 492/492/492
f 496/496/496 495/495/495 491/491/491
f 489/489/489 496/496/496 491/491/491
f 497/497/497 496/496/496 489/489/489
f 497/497/497 489/489/489 487/487/487
f 498/498/498 497/497/497 487/487/487
f 493/493/493 498/498/498 487/487/487
f 504/504/504 499/499/499 500/500/500
f 504/504/504 500/500/500 506/506/506
f 513/513/513 499/499/499 504/504/504
f 507/507/507 513/513/513 504/504/504
f 500/500/500 512/512/512 523/523/523
f 506/506/506 500/500/500 523/523/523
f 501/501/501 514/514/514 512/512/512
f 500/500/500 501/501/501 512/512/512
f 502/502/502 501/501/501 500/500/500
f 502/502/502 500/500/500 499/499/499
f 517/517/517 502/502/502 499/499/499
f 513/513/513 517/517/517 499/499/499
f 505/505/505 503/503/503 504/504/504
f 506/506/506 505/505/505 504/504/504
f 504/504/504 503/503/503 524/524/524
f 504/504/504 524/524/524 507/507/507
f 523/523/523 522/522/522 505/505/505
f 523/523/523 505/505/505 506/506/506
f 522/522/522 526/526/526 508/508/508
f 522/522/522 508/508/508 505/505/505
f 505/505/505 508/508/508 509/509/509
f 503/503/503 505/505/505 509/509/509
f 503/503/503 509/509/509 529/529/529
f 503/503/503 529/529/529 524/524/524
f 511/511/511 510/510/510 519/519/519
f 521/521/521 511/511/511 519/519/519
f 519/519/519 510/510/510 513/513/513
f 519/519/519 513/513/513 525/525/525
f 523/523/523 512/512/512 511/511/511
f 523/523/523 511/511/511 521/521/521
f 512/512/512 514/514/514 515/515/515
f 512/512/512 515/515/515 511/511/511
f 511/511/511 515/515/515 516/516/516
f 510/510/510 511/511/511 516/516/516
f 510/510/510 516/516/516 517/517/517
f 510/510/510 517/517/517 513/513/513
f 519/519/519 518/518/518 520/520/520
f 519/519/519 520/520/520 521/521/521
f 524/524/524 518/518/518 519/519/519
f 525/525/525 524/524/524 519/519/519
f 520/520/520 522/522/522 523/523/523
f 521/521/521 520/520/520 523/523/523
f 527/527/527 526/526/526 522/522/522
f 520/520/520 527/527/527 522/522/522
f 528/528/528 527/527/527 520/520/520
f 528/528/528 520/520/520 518/518/518
f 529/529/529 528/528/528 518/518/518
f 524/524/524 529/529/529 518/518/518
v 0.428219 1.963082 -0.069093
v 0.336855 2.120515 -0.112152
v 0.267687 2.220392 -0.000091
v 0.116796 2.307629 -0.000091
v 0.336855 2.120515 0.111970
v 0.411872 2.177613 -0.000091
v 0.455544 2.070037 -0.101548
v 0.455544 2.070037 0.101366
v 0.489471 2.075193 -0.000091
v 0.507790 2.014144 -0.000091
v 0.492260 1.944280 -0.000296
v 0.428219 1.963082 0.068911
v 0.336855 2.120515 -0.112152
v 0.222606 2.196386 -0.192670
v 0.428219 1.963082 -0.069093
v 0.492260 1.944280 -0.000296
v 0.428219 1.963082 0.068911
v 0.222606 2.196386 0.192488
v 0.336855 2.120515 0.111970
v 0.116796 2.307629 -0.000091
v 0.116796 2.307629 -0.000091
v 0.304624 1.956883 -0.125599
v 0.217930 2.042430 -0.240412
v 0.304624 1.956883 -0.125599
v 0.217930 2.042430 0.240230
v 0.163669 2.122669 0.155957
v 0.304624 1.956883 0.125416
v 0.304624 1.956883 0.125416
v 0.163669 2.122669 -0.156140
v 0.163669 2.122669 -0.156140
v 0.163669 2.122669 -0.156140
v 0.304624 1.956883 -0.125599
v 0.304624 1.956883 -0.125599
v 0.194252 2.117619 -0.000091
v 0.194252 2.117619 -0.000091
v 0.163669 2.122669 0.155957
v 0.194252 2.117619 -0.000091
v 0.194252 2.117619 -0.000091
v 0.163669 2.122669 0.155957
v 0.304624 1.956883 0.125416
v 0.304624 1.956883 0.125416
v 0.504527 1.837787 -0.000091
v 0.475352 1.554723 -0.000091
v 0.409648 1.642955 -0.245756
v 0.388900 1.858102 0.173505
v 0.409648 1.642955 0.245574
v 0.367426 1.882510 -0.058797
v 0.388900 1.858102 -0.173687
v 0.367426 1.882510 0.058615
vn 0.551898 -0.227926 -0.802158
vn 0.878227 0.462828 0.120446
vn 0.327983 0.944683 -0.000001
vn -0.995836 0.091166 -0.000000
vn -0.546825 0.303713 0.780218
vn 0.545287 0.838249 -0.000001
vn 0.686239 0.231629 -0.689510
vn 0.686241 0.231629 0.689508
vn 0.891146 0.453717 -0.000001
vn 0.994547 -0.104285 -0.000425
vn 0.924096 -0.382157 -0.001616
vn 0.552748 -0.228348 0.801453
vn 0.878227 0.462828 0.120446
vn 0.502341 -0.086639 0.860318
vn 0.551898 -0.227926 -0.802158
vn 0.924096 -0.382157 -0.001616
vn 0.552748 -0.228348 0.801453
vn -0.999231 -0.016268 0.035671
vn -0.546825 0.303713 0.780218
vn -0.995836 0.091166 -0.000000
vn -0.995836 0.091166 -0.000000
vn 0.210769 -0.796154 -0.567200
vn 0.274040 -0.105565 0.955907
vn 0.210769 -0.796154 -0.567200
vn -0.988567 0.012132 0.150292
vn -0.896387 -0.303186 0.323371
vn 0.408222 -0.347692 0.844076
vn 0.408222 -0.347692 0.844076
vn -0.896387 -0.303187 -0.323371
vn -0.896387 -0.303187 -0.323371
vn -0.896387 -0.303187 -0.323371
vn 0.210769 -0.796154 -0.567200
vn 0.210769 -0.796154 -0.567200
vn -0.859211 -0.511622 0.000000
vn -0.859211 -0.511622 0.000000
vn -0.896387 -0.303186 0.323371
vn -0.859211 -0.511622 0.000000
vn -0.859211 -0.511622 0.000000
vn -0.896387 -0.303186 0.323371
vn 0.408222 -0.347692 0.844076
vn 0.408222 -0.347692 0.844076
vn 0.990929 0.134382 -0.000406
vn 0.994730 -0.102525 -0.000000
vn 0.907375 0.078735 -0.412882
vn 0.684530 0.379423 0.622461
vn 0.907375 0.078734 0.412881
vn 0.481500 -0.458723 -0.746814
vn 0.684529 0.379422 -0.622462
vn 0.482409 -0.459288 0.745879
vt 0.143303 0.581541
vt 0.094102 0.643949
vt 0.007228 0.770696
vt 0.007047 0.817293
vt 0.094102 0.643949
vt 0.007002 0.722444
vt 0.138745 0.672781
vt 0.138745 0.672781
vt 0.007263 0.664146
vt 0.059551 0.628331
vt 0.059551 0.558575
vt 0.143303 0.581541
vt 0.009926 0.831418
vt 0.041352 0.938144
vt 0.070805 0.443722
vt 0.056827 0.486563
vt 0.070805 0.443722
vt 0.041352 0.938144
vt 0.009926 0.831418
vt 0.172261 0.690595
vt 0.172261 0.690595
vt 0.133103 0.518717
vt 0.124539 0.844914
vt 0.115275 0.746548
vt 0.124539 0.844914
vt 0.160405 0.694378
vt 0.133103 0.518717
vt 0.115275 0.746548
vt 0.160405 0.694378
vt 0.150804 0.561615
vt 0.150804 0.561615
vt 0.073922 0.419052
vt 0.206530 0.506368
vt 0.224248 0.608991
vt 0.224248 0.608991
vt 0.151102 0.561805
vt 0.224248 0.608991
vt 0.224248 0.608991
vt 0.151102 0.561805
vt 0.206645 0.506441
vt 0.073922 0.419052
vt 0.007525 0.439711
vt 0.007458 0.163350
vt 0.251320 0.232326
vt 0.182998 0.437644
vt 0.251320 0.232326
vt 0.119902 0.420488
vt 0.182998 0.437644
vt 0.119902 0.420488
f 573/573/573 571/571/571 572/572/572
f 571/571/571 573/573/573 577/577/577
f 577/577/577 530/530/530 571/571/571
f 530/530/530 577/577/577 551/551/551
f 530/530/530 551/551/551 531/531/531
f 531/531/531 551/551/551 558/558/558
f 532/532/532 531/531/531 558/558/558
f 558/558/558 533/533/533 532/532/532
f 533/533/533 555/555/555 532/532/532
f 556/556/556 534/534/534 555/555/555
f 534/534/534 532/532/532 555/555/555
f 534/534/534 535/535/535 532/532/532
f 535/535/535 531/531/531 532/532/532
f 536/536/536 531/531/531 535/535/535
f 530/530/530 531/531/531 536/536/536
f 534/534/534 537/537/537 535/535/535
f 535/535/535 537/537/537 538/538/538
f 536/536/536 535/535/535 538/538/538
f 539/539/539 536/536/536 538/538/538
f 530/530/530 536/536/536 539/539/539
f 530/530/530 539/539/539 540/540/540
f 540/540/540 571/571/571 530/530/530
f 571/571/571 540/540/540 541/541/541
f 541/541/541 574/574/574 571/571/571
f 574/574/574 541/541/541 556/556/556
f 539/539/539 541/541/541 540/540/540
f 537/537/537 539/539/539 538/538/538
f 541/541/541 539/539/539 537/537/537
f 534/534/534 541/541/541 537/537/537
f 556/556/556 541/541/541 534/534/534
f 571/571/571 575/575/575 572/572/572
f 575/575/575 571/571/571 574/574/574
f 553/553/553 552/552/552 542/542/542
f 543/543/543 542/542/542 552/552/552
f 552/552/552 542/542/542 543/543/543
f 542/542/542 552/552/552 553/553/553
f 576/576/576 561/561/561 544/544/544
f 545/545/545 576/576/576 544/544/544
f 578/578/578 545/545/545 546/546/546
f 570/570/570 578/578/578 546/546/546
f 548/548/548 547/547/547 554/554/554
f 554/554/554 557/557/557 548/548/548
f 548/548/548 554/554/554 547/547/547
f 554/554/554 548/548/548 557/557/557
f 565/565/565 549/549/549 564/564/564
f 559/559/559 563/563/563 550/550/550
f 562/562/562 566/566/566 560/560/560
f 569/569/569 568/568/568 567/567/567
