# WC3 MDX geosets → Unity Y-up
mtllib materials.mtl
usemtl Faceless
o Model
v -0.234505 0.373543 0.203255
v -0.235384 0.374608 0.163013
v -0.210398 0.458254 0.204426
v -0.235349 0.373961 0.242282
v -0.235349 0.373961 0.242282
v 0.182245 0.418736 0.206063
v 0.182255 0.389474 0.216672
v -0.235384 0.374608 0.163013
v 0.182243 0.385082 0.185858
v -0.210398 0.458254 0.204426
v 0.158788 0.602217 0.204936
v 0.225321 0.403805 0.237015
v 0.172070 0.407106 0.205004
v 0.143449 0.217494 0.262782
v 0.225293 0.403781 0.172947
v 0.172070 0.407106 0.205004
v 0.143396 0.217450 0.147398
v 0.158788 0.602217 0.204936
v 0.172070 0.407106 0.205004
v 0.143449 0.217494 0.262782
v 0.143396 0.217450 0.147398
v 0.158788 0.602217 0.204936
v 0.225293 0.403781 0.172947
v 0.225321 0.403805 0.237015
v 0.143449 0.217494 0.262782
v 0.143396 0.217450 0.147398
vn -0.697691 0.716376 0.005713
vn -0.493893 0.128690 -0.859947
vn -0.579933 0.737609 -0.345848
vn -0.174524 0.634535 0.752932
vn -0.174524 0.634535 0.752932
vn -0.812949 0.518897 0.264308
vn 0.050113 -0.837284 0.544467
vn -0.493893 0.128690 -0.859947
vn 0.068392 -0.025789 -0.997325
vn -0.579933 0.737609 -0.345848
vn -0.326876 0.945067 -0.000156
vn 0.500687 0.101323 0.859678
vn -0.812949 0.518897 0.264308
vn -0.553035 0.069227 0.830277
vn 0.491588 -0.028151 -0.870373
vn -0.812949 0.518897 0.264308
vn -0.553791 0.068587 -0.829826
vn -0.326876 0.945067 -0.000156
vn -0.812949 0.518897 0.264308
vn -0.553035 0.069227 0.830277
vn -0.553791 0.068587 -0.829826
vn -0.326876 0.945067 -0.000156
vn 0.491588 -0.028151 -0.870373
vn 0.500687 0.101323 0.859678
vn -0.553035 0.069227 0.830277
vn -0.553791 0.068587 -0.829826
vt 0.001227 0.040200
vt -0.000267 0.004652
vt 0.002510 0.081318
vt 0.001228 0.040200
vt 0.001228 0.040200
vt 0.612536 0.079985
vt 0.608640 0.038148
vt -0.000267 0.004652
vt 0.609805 0.006038
vt 0.002510 0.081318
vt 0.323425 0.837277
vt 0.347176 0.776460
vt 0.316604 0.781177
vt 0.365303 0.719866
vt 0.285754 0.783994
vt 0.316604 0.781177
vt 0.254685 0.733432
vt 0.323425 0.837277
vt 0.316604 0.781177
vt 0.365303 0.719866
vt 0.254685 0.733432
vt 0.323425 0.837277
vt 0.285754 0.783994
vt 0.347176 0.776460
vt 0.365303 0.719866
vt 0.254685 0.733432
f 3/3/3 2/2/2 1/1/1
f 4/4/4 3/3/3 1/1/1
f 2/2/2 4/4/4 1/1/1
f 7/7/7 6/6/6 5/5/5
f 7/7/7 5/5/5 8/8/8
f 9/9/9 7/7/7 8/8/8
f 9/9/9 8/8/8 10/10/10
f 6/6/6 10/10/10 5/5/5
f 6/6/6 9/9/9 10/10/10
f 13/13/13 12/12/12 11/11/11
f 12/12/12 13/13/13 14/14/14
f 17/17/17 16/16/16 15/15/15
f 18/18/18 15/15/15 16/16/16
f 21/21/21 20/20/20 19/19/19
f 24/24/24 23/23/23 22/22/22
f 23/23/23 24/24/24 25/25/25
f 25/25/25 26/26/26 23/23/23
v -0.101967 0.765000 -0.143725
v 0.041340 0.725485 -0.148659
v 0.016327 0.767255 -0.002192
v -0.086284 0.877092 -0.003498
v 0.018089 0.567168 -0.124516
v 0.103774 0.543289 -0.006375
v 0.014064 0.633930 -0.134092
v 0.115738 0.660272 -0.006353
v 0.056791 0.740803 -0.002884
v -0.087455 0.571397 -0.102918
v -0.130152 0.648137 -0.131822
v 0.041460 0.725474 0.136016
v 0.016327 0.767255 -0.002192
v 0.014161 0.633922 0.121472
v 0.018249 0.567168 0.111880
v -0.087324 0.571397 0.090426
v -0.130056 0.648148 0.119323
v -0.101846 0.765007 0.131204
vn 0.458692 0.795453 -0.396051
vn 0.715669 0.619176 -0.323170
vn 0.515118 0.857092 0.006916
vn 0.730626 0.682690 0.010928
vn 0.357758 -0.111415 -0.927144
vn 0.997341 -0.072868 -0.000580
vn 0.488604 -0.222837 -0.843570
vn 0.996917 0.078453 0.001029
vn 0.688200 0.725513 0.003321
vn -0.129077 -0.266600 -0.955125
vn -0.051701 -0.377069 -0.924741
vn 0.717080 0.613774 0.330269
vn 0.515118 0.857092 0.006916
vn 0.489501 -0.222715 0.843082
vn 0.359107 -0.111159 0.926653
vn -0.128018 -0.266552 0.955281
vn -0.050934 -0.376616 0.924968
vn 0.449861 0.792454 0.411876
vt 0.795669 0.923020
vt 0.803532 0.895116
vt 0.746151 0.949872
vt 0.676433 0.941585
vt 0.776790 0.732914
vt 0.675394 0.758220
vt 0.805151 0.823439
vt 0.676328 0.848320
vt 0.676413 0.906447
vt 0.749778 0.738406
vt 0.798493 0.840768
vt 0.803532 0.895116
vt 0.746151 0.949872
vt 0.805151 0.823439
vt 0.776790 0.732914
vt 0.749778 0.738406
vt 0.798493 0.840768
vt 0.795669 0.923020
f 29/29/29 28/28/28 27/27/27
f 27/27/27 30/30/30 29/29/29
f 33/33/33 32/32/32 31/31/31
f 33/33/33 34/34/34 32/32/32
f 28/28/28 34/34/34 33/33/33
f 28/28/28 35/35/35 34/34/34
f 28/28/28 29/29/29 35/35/35
f 33/33/33 31/31/31 36/36/36
f 37/37/37 33/33/33 36/36/36
f 39/39/39 38/38/38 35/35/35
f 35/35/35 38/38/38 34/34/34
f 34/34/34 38/38/38 40/40/40
f 34/34/34 40/40/40 32/32/32
f 32/32/32 40/40/40 41/41/41
f 40/40/40 43/43/43 42/42/42
f 41/41/41 40/40/40 42/42/42
f 30/30/30 44/44/44 39/39/39
f 38/38/38 39/39/39 44/44/44
v -0.066495 0.278454 0.073691
v 0.015616 0.358622 0.137381
v 0.008617 0.292713 0.122178
v 0.089047 0.274755 0.069324
v 0.102650 0.361995 0.066371
v -0.036944 0.329351 0.003439
v -0.109366 0.442371 -0.006237
v -0.107909 0.468722 0.089866
v 0.008244 0.277329 0.020773
v -0.092848 0.344676 0.075147
v 0.020527 0.467989 0.132779
v 0.100733 0.444799 -0.006374
v 0.008067 0.277324 -0.033407
v -0.066725 0.278480 -0.086249
v -0.093044 0.344729 -0.087674
v -0.037074 0.329371 -0.016024
v 0.088820 0.274723 -0.082040
v 0.102473 0.361943 -0.079100
v 0.015364 0.358619 -0.150018
v 0.020304 0.467986 -0.145424
v -0.108071 0.468752 -0.102326
v 0.100733 0.444799 -0.006374
v -0.109366 0.442371 -0.006237
v 0.008343 0.292713 -0.134812
v 0.011229 0.199408 0.156358
v 0.010126 0.087089 0.162429
v -0.095670 0.085054 0.100756
v 0.069741 0.091130 0.099193
v 0.089047 0.274755 0.069324
v 0.007293 0.086748 0.028750
v 0.008244 0.277329 0.020773
v -0.096090 0.200048 0.075970
v -0.066495 0.278454 0.073691
v 0.008617 0.292713 0.122178
v 0.069442 0.091121 -0.111899
v 0.115103 0.002000 -0.186047
v 0.154806 0.000080 -0.042195
v 0.007058 0.086748 -0.041399
v -0.101524 0.000070 -0.083802
v -0.095971 0.085066 -0.113311
v -0.096876 -0.000340 -0.166721
v 0.009770 0.087086 -0.175080
v 0.100733 0.444799 -0.006374
v 0.103774 0.543289 -0.006375
v 0.020304 0.467986 -0.145424
v 0.018089 0.567168 -0.124516
v 0.020527 0.467989 0.132779
v 0.018249 0.567168 0.111880
v -0.107909 0.468722 0.089866
v -0.087324 0.571397 0.090426
v -0.109366 0.442371 -0.006237
v -0.087390 0.571397 -0.006247
v -0.087455 0.571397 -0.102918
v -0.108071 0.468752 -0.102326
v -0.066725 0.278480 -0.086249
v 0.010915 0.199411 -0.169001
v 0.008343 0.292713 -0.134812
v 0.088820 0.274723 -0.082040
v 0.069442 0.091121 -0.111899
v 0.007058 0.086748 -0.041399
v -0.096322 0.200067 -0.088506
v 0.008067 0.277324 -0.033407
v -0.095971 0.085066 -0.113311
v 0.009770 0.087086 -0.175080
v -0.101244 0.000070 0.071252
v 0.007293 0.086748 0.028750
v -0.095670 0.085054 0.100756
v 0.155051 0.000080 0.029431
v -0.096528 -0.000337 0.154167
v 0.069741 0.091130 0.099193
v 0.010126 0.087089 0.162429
v 0.115467 0.002015 0.173316
vn -0.889100 0.031291 0.456642
vn -0.003234 -0.128474 0.991708
vn -0.003633 0.063021 0.998006
vn 0.998304 -0.038875 -0.043344
vn 0.974590 -0.094739 -0.202976
vn -0.256662 -0.266945 -0.928905
vn -0.851239 -0.524777 0.000733
vn -0.845970 -0.035789 0.532029
vn -0.257086 -0.141992 -0.955900
vn -0.917639 -0.397220 -0.012450
vn 0.415734 0.146766 0.897566
vn 0.975753 -0.218873 -0.000756
vn -0.256205 -0.141974 0.956139
vn -0.889565 0.031588 -0.455716
vn -0.917837 -0.396733 0.013361
vn -0.255835 -0.266968 0.929127
vn 0.998329 -0.039275 0.042379
vn 0.974774 -0.095308 0.201819
vn -0.004397 -0.128388 -0.991714
vn 0.414540 0.146575 -0.898149
vn -0.846776 -0.035422 -0.530769
vn 0.975753 -0.218873 -0.000756
vn -0.851239 -0.524777 0.000733
vn -0.004641 0.063096 -0.997997
vn -0.037769 0.200235 0.979020
vn 0.065760 0.263852 0.962319
vn -0.946049 0.212088 0.244969
vn 0.889968 0.392771 0.231706
vn 0.998304 -0.038875 -0.043344
vn -0.016284 0.109105 -0.993897
vn -0.257086 -0.141992 -0.955900
vn -0.937952 0.132728 -0.320358
vn -0.889100 0.031291 0.456642
vn -0.003633 0.063021 0.998006
vn 0.889811 0.392633 -0.232543
vn 0.565715 0.133042 -0.813797
vn 0.590964 -0.497581 0.634960
vn -0.015385 0.109096 0.993912
vn -0.664434 -0.359400 0.655254
vn -0.946235 0.212265 -0.244095
vn -0.548382 -0.523955 -0.651727
vn 0.064928 0.263817 -0.962385
vn 0.975753 -0.218873 -0.000756
vn 0.997845 0.065610 -0.000734
vn 0.414540 0.146575 -0.898149
vn 0.372100 0.199406 -0.906520
vn 0.415734 0.146766 0.897566
vn 0.373320 0.199489 0.906000
vn -0.845970 -0.035789 0.532029
vn -0.781532 0.196606 0.592077
vn -0.851239 -0.524777 0.000733
vn -0.985803 0.167907 0.000664
vn -0.782380 0.196797 -0.590891
vn -0.846776 -0.035422 -0.530769
vn -0.889565 0.031588 -0.455716
vn -0.038658 0.200310 -0.978970
vn -0.004641 0.063096 -0.997997
vn 0.998329 -0.039275 0.042379
vn 0.889811 0.392633 -0.232543
vn -0.015385 0.109096 0.993912
vn -0.937613 0.132862 0.321293
vn -0.256205 -0.141974 0.956139
vn -0.946235 0.212265 -0.244095
vn 0.064928 0.263817 -0.962385
vn -0.665004 -0.359453 -0.654647
vn -0.016284 0.109105 -0.993897
vn -0.946049 0.212088 0.244969
vn 0.590416 -0.497627 -0.635434
vn -0.547818 -0.523918 0.652231
vn 0.889968 0.392771 0.231706
vn 0.065760 0.263852 0.962319
vn 0.566382 0.133139 0.813318
vt 0.780654 0.444501
vt 0.829341 0.507639
vt 0.832103 0.455996
vt 0.776180 0.441482
vt 0.773051 0.511878
vt 0.689417 0.468620
vt 0.675647 0.609925
vt 0.759381 0.639345
vt 0.707049 0.426637
vt 0.782160 0.497935
vt 0.804977 0.638747
vt 0.674379 0.611937
vt 0.707049 0.426637
vt 0.780654 0.444501
vt 0.782160 0.497935
vt 0.689417 0.468620
vt 0.776180 0.441482
vt 0.773051 0.511878
vt 0.829341 0.507639
vt 0.804977 0.638747
vt 0.759381 0.639345
vt 0.674379 0.611937
vt 0.675647 0.609925
vt 0.832103 0.455996
vt 0.842465 0.371505
vt 0.857530 0.248808
vt 0.821000 0.247181
vt 0.819517 0.252055
vt 0.776180 0.441482
vt 0.761161 0.248526
vt 0.707049 0.426637
vt 0.782673 0.375121
vt 0.780654 0.444501
vt 0.832103 0.455996
vt 0.819517 0.252055
vt 0.919492 0.151162
vt 0.718879 0.151145
vt 0.761161 0.248526
vt 0.796746 0.151152
vt 0.821000 0.247181
vt 0.872065 0.150555
vt 0.857530 0.248808
vt 0.674685 0.611995
vt 0.675394 0.758220
vt 0.804977 0.638747
vt 0.776790 0.732914
vt 0.804977 0.638747
vt 0.776790 0.732914
vt 0.759381 0.639345
vt 0.749778 0.738406
vt 0.674747 0.610074
vt 0.675394 0.758220
vt 0.749778 0.738406
vt 0.759381 0.639345
vt 0.780654 0.444501
vt 0.842465 0.371505
vt 0.832103 0.455996
vt 0.776180 0.441482
vt 0.819517 0.252055
vt 0.761161 0.248526
vt 0.782673 0.375121
vt 0.707049 0.426637
vt 0.821000 0.247181
vt 0.857530 0.248808
vt 0.796746 0.151152
vt 0.761161 0.248526
vt 0.821000 0.247181
vt 0.718879 0.151145
vt 0.872065 0.150555
vt 0.819517 0.252055
vt 0.857530 0.248808
vt 0.919492 0.151162
f 47/47/47 46/46/46 45/45/45
f 46/46/46 47/47/47 48/48/48
f 48/48/48 49/49/49 46/46/46
f 49/49/49 48/48/48 50/50/50
f 50/50/50 51/51/51 49/49/49
f 51/51/51 50/50/50 52/52/52
f 53/53/53 50/50/50 48/48/48
f 50/50/50 53/53/53 54/54/54
f 54/54/54 52/52/52 50/50/50
f 52/52/52 54/54/54 46/46/46
f 55/55/55 52/52/52 46/46/46
f 55/55/55 46/46/46 49/49/49
f 49/49/49 56/56/56 55/55/55
f 56/56/56 49/49/49 51/51/51
f 45/45/45 46/46/46 54/54/54
f 45/45/45 54/54/54 53/53/53
f 59/59/59 58/58/58 57/57/57
f 57/57/57 60/60/60 59/59/59
f 60/60/60 57/57/57 61/61/61
f 61/61/61 62/62/62 60/60/60
f 62/62/62 61/61/61 63/63/63
f 63/63/63 64/64/64 62/62/62
f 65/65/65 64/64/64 63/63/63
f 66/66/66 62/62/62 64/64/64
f 62/62/62 66/66/66 67/67/67
f 67/67/67 60/60/60 62/62/62
f 60/60/60 67/67/67 65/65/65
f 65/65/65 59/59/59 60/60/60
f 59/59/59 65/65/65 63/63/63
f 63/63/63 58/58/58 59/59/59
f 63/63/63 68/68/68 58/58/58
f 68/68/68 63/63/63 61/61/61
f 71/71/71 70/70/70 69/69/69
f 70/70/70 72/72/72 69/69/69
f 73/73/73 69/69/69 72/72/72
f 74/74/74 73/73/73 72/72/72
f 73/73/73 74/74/74 75/75/75
f 76/76/76 75/75/75 74/74/74
f 76/76/76 77/77/77 75/75/75
f 74/74/74 71/71/71 76/76/76
f 69/69/69 76/76/76 71/71/71
f 77/77/77 76/76/76 69/69/69
f 69/69/69 78/78/78 77/77/77
f 78/78/78 69/69/69 73/73/73
f 81/81/81 80/80/80 79/79/79
f 79/79/79 82/82/82 81/81/81
f 83/83/83 81/81/81 82/82/82
f 82/82/82 84/84/84 83/83/83
f 85/85/85 83/83/83 84/84/84
f 84/84/84 86/86/86 85/85/85
f 86/86/86 79/79/79 80/80/80
f 80/80/80 85/85/85 86/86/86
f 85/85/85 80/80/80 81/81/81
f 83/83/83 85/85/85 81/81/81
f 89/89/89 88/88/88 87/87/87
f 90/90/90 88/88/88 89/89/89
f 88/88/88 92/92/92 91/91/91
f 88/88/88 91/91/91 87/87/87
f 91/91/91 94/94/94 93/93/93
f 91/91/91 92/92/92 94/94/94
f 93/93/93 94/94/94 95/95/95
f 95/95/95 94/94/94 96/96/96
f 97/97/97 95/95/95 96/96/96
f 97/97/97 98/98/98 95/95/95
f 97/97/97 89/89/89 98/98/98
f 90/90/90 89/89/89 97/97/97
f 101/101/101 100/100/100 99/99/99
f 100/100/100 101/101/101 102/102/102
f 100/100/100 102/102/102 103/103/103
f 102/102/102 104/104/104 103/103/103
f 105/105/105 99/99/99 100/100/100
f 99/99/99 105/105/105 106/106/106
f 104/104/104 102/102/102 106/106/106
f 106/106/106 105/105/105 104/104/104
f 107/107/107 104/104/104 105/105/105
f 105/105/105 100/100/100 107/107/107
f 108/108/108 107/107/107 100/100/100
f 103/103/103 108/108/108 100/100/100
f 111/111/111 110/110/110 109/109/109
f 112/112/112 109/109/109 110/110/110
f 113/113/113 109/109/109 112/112/112
f 116/116/116 113/113/113 112/112/112
f 113/113/113 116/116/116 115/115/115
f 114/114/114 115/115/115 116/116/116
f 115/115/115 111/111/111 113/113/113
f 109/109/109 113/113/113 111/111/111
f 110/110/110 114/114/114 112/112/112
f 116/116/116 112/112/112 114/114/114
v -0.101967 0.765000 -0.143725
v -0.009543 0.576298 -0.168243
v 0.041460 0.725474 0.136016
v -0.104056 0.572312 0.155938
v -0.101846 0.765007 0.131204
v -0.130056 0.648148 0.119323
v -0.104722 0.736475 0.205949
v 0.014161 0.633922 0.121472
v -0.000904 0.588094 0.206697
v -0.009446 0.576297 0.155640
v -0.130152 0.648137 -0.131822
v -0.137045 0.647545 0.171944
v -0.070461 0.683905 0.238953
v -0.071686 0.601673 0.246492
v 0.028459 0.662207 0.189712
v -0.071870 0.601670 -0.259037
v -0.137174 0.647521 -0.184435
v -0.104153 0.572300 -0.168456
v -0.070658 0.683899 -0.251501
v -0.104904 0.736461 -0.218467
v 0.041340 0.725485 -0.148659
v -0.101967 0.765000 -0.143725
v 0.028310 0.662226 -0.202343
v -0.001050 0.588098 -0.219308
v 0.014064 0.633930 -0.134092
vn -0.521102 0.803970 -0.286505
vn 0.582659 -0.577518 0.571823
vn 0.640032 0.566910 0.518625
vn -0.551162 -0.451571 -0.701644
vn -0.520752 0.804059 0.286892
vn -0.980590 -0.190773 -0.045265
vn -0.591306 0.638867 0.492144
vn 0.599723 -0.623185 -0.501969
vn 0.904434 -0.302349 0.300973
vn 0.581967 -0.577742 -0.572301
vn -0.980511 -0.190988 0.046063
vn -0.948990 -0.248486 0.194095
vn -0.035772 0.334731 0.941634
vn -0.194534 -0.097017 0.976086
vn 0.814808 -0.013513 0.579573
vn -0.195353 -0.097056 -0.975919
vn -0.949090 -0.248735 -0.193286
vn -0.550461 -0.451718 0.702099
vn -0.036651 0.334737 -0.941599
vn -0.591845 0.638693 -0.491721
vn 0.639488 0.567045 -0.519149
vn -0.521102 0.803970 -0.286505
vn 0.814338 -0.013311 -0.580238
vn 0.904292 -0.302036 -0.301712
vn 0.600264 -0.623002 0.501549
vt 0.795669 0.923020
vt 0.874431 0.693512
vt 0.803532 0.895116
vt 0.874431 0.693512
vt 0.795669 0.923020
vt 0.798493 0.840768
vt 0.872113 0.918936
vt 0.805151 0.823439
vt 0.909798 0.706993
vt 0.874431 0.693512
vt 0.798493 0.840768
vt 0.882312 0.858658
vt 0.922690 0.892190
vt 0.935442 0.727606
vt 0.884214 0.856029
vt 0.935442 0.727606
vt 0.882312 0.858658
vt 0.874431 0.693512
vt 0.922690 0.892190
vt 0.872113 0.918936
vt 0.803532 0.895116
vt 0.795669 0.923020
vt 0.884214 0.856029
vt 0.909798 0.706993
vt 0.805151 0.823439
f 134/134/134 133/133/133 132/132/132
f 135/135/135 132/132/132 133/133/133
f 136/136/136 135/135/135 133/133/133
f 135/135/135 136/136/136 137/137/137
f 136/136/136 138/138/138 137/137/137
f 137/137/137 139/139/139 135/135/135
f 132/132/132 135/135/135 139/139/139
f 139/139/139 140/140/140 132/132/132
f 139/139/139 137/137/137 141/141/141
f 140/140/140 139/139/139 141/141/141
f 141/141/141 118/118/118 140/140/140
f 138/138/138 136/136/136 127/127/127
f 133/133/133 127/127/127 136/136/136
f 127/127/127 133/133/133 141/141/141
f 134/134/134 141/141/141 133/133/133
f 141/141/141 134/134/134 118/118/118
f 120/120/120 124/124/124 126/126/126
f 126/126/126 124/124/124 125/125/125
f 131/131/131 125/125/125 124/124/124
f 125/125/125 131/131/131 130/130/130
f 129/129/129 130/130/130 131/131/131
f 130/130/130 129/129/129 128/128/128
f 129/129/129 123/123/123 128/128/128
f 122/122/122 128/128/128 123/123/123
f 123/123/123 121/121/121 122/122/122
f 128/128/128 122/122/122 124/124/124
f 124/124/124 120/120/120 128/128/128
f 128/128/128 120/120/120 130/130/130
f 121/121/121 123/123/123 119/119/119
f 123/123/123 129/129/129 119/119/119
f 131/131/131 119/119/119 129/129/129
f 119/119/119 131/131/131 124/124/124
v -0.096636 0.544179 -0.220081
v 0.017838 0.357163 0.186428
v 0.005888 0.265525 -0.254282
v -0.068916 0.358386 0.273389
v 0.017711 0.440597 -0.203572
v 0.017838 0.357163 0.186428
v -0.101839 0.428809 0.240846
v -0.001067 0.541164 -0.227031
v -0.104056 0.572312 0.155938
v 0.006084 0.405090 0.146427
v -0.069360 0.541614 -0.274175
v -0.035897 0.411907 0.229801
v -0.009446 0.576297 0.155640
v 0.004981 0.425438 0.248512
v -0.071686 0.601673 0.246492
v -0.071296 0.425934 0.301274
v -0.000904 0.588094 0.206697
v -0.077709 0.348731 0.182064
v -0.104153 0.572300 -0.168456
v -0.077833 0.432179 -0.199115
v 0.017711 0.440597 -0.203572
v -0.068916 0.358386 0.273389
v -0.071870 0.601670 -0.259037
v -0.001050 0.588098 -0.219308
v 0.005888 0.265525 -0.254282
v 0.005888 0.265525 -0.254282
v -0.009543 0.576298 -0.168243
v -0.037594 0.529050 -0.178160
v -0.077709 0.348731 0.182064
v -0.069129 0.441847 -0.290447
v -0.069129 0.441847 -0.290447
v -0.077833 0.432179 -0.199115
v 0.006084 0.405090 0.146427
v 0.006084 0.405090 0.146427
vn -0.993051 -0.116271 -0.018181
vn -0.536867 0.752346 -0.381771
vn -0.234198 -0.944916 0.228661
vn -0.162435 -0.943296 0.289495
vn 0.907326 -0.074774 0.413726
vn -0.536867 0.752346 -0.381771
vn -0.995231 -0.047598 -0.085146
vn 0.966502 -0.008240 -0.256525
vn -0.590539 -0.371179 -0.716582
vn -0.107839 -0.949318 0.295238
vn -0.041314 0.188717 -0.981162
vn 0.071037 0.114094 -0.990927
vn 0.593481 -0.335468 -0.731602
vn 0.982198 -0.084555 0.167742
vn -0.622395 0.260811 0.737972
vn -0.045965 0.032570 0.998412
vn 0.801101 0.185968 0.568904
vn 0.078514 0.941486 0.327780
vn -0.722260 -0.404877 0.560728
vn -0.643210 -0.340291 0.685918
vn 0.907326 -0.074774 0.413726
vn -0.162435 -0.943296 0.289495
vn -0.628293 0.254915 -0.735029
vn 0.803879 0.131851 -0.579995
vn -0.234198 -0.944916 0.228661
vn -0.234198 -0.944916 0.228661
vn 0.706750 -0.311056 0.635412
vn 0.114500 -0.323065 0.939425
vn 0.078514 0.941486 0.327780
vn -0.253878 -0.148227 -0.955811
vn -0.253878 -0.148227 -0.955811
vn -0.643210 -0.340291 0.685918
vn -0.107839 -0.949318 0.295238
vn -0.107839 -0.949318 0.295238
vt 0.903025 0.653027
vt 0.889338 0.528794
vt 0.931326 0.284010
vt 0.947814 0.535088
vt 0.889338 0.528794
vt 0.889338 0.528794
vt 0.903025 0.653027
vt 0.903025 0.653027
vt 0.874431 0.693512
vt 0.931326 0.284010
vt 0.940964 0.651628
vt 0.882524 0.635065
vt 0.874431 0.693512
vt 0.903025 0.653027
vt 0.935442 0.727606
vt 0.940964 0.651628
vt 0.909798 0.706993
vt 0.889338 0.528794
vt 0.874431 0.693512
vt 0.889338 0.528794
vt 0.889338 0.528794
vt 0.947814 0.535088
vt 0.935442 0.727606
vt 0.909798 0.706993
vt 0.931326 0.284010
vt 0.931326 0.284010
vt 0.874431 0.693512
vt 0.882524 0.635065
vt 0.889338 0.528794
vt 0.947814 0.535088
vt 0.947814 0.535088
vt 0.889338 0.528794
vt 0.931326 0.284010
vt 0.931326 0.284010
f 173/173/173 166/166/166 167/167/167
f 144/144/144 167/167/167 166/166/166
f 146/146/146 167/167/167 144/144/144
f 144/144/144 171/171/171 146/146/146
f 166/166/166 173/173/173 171/171/171
f 171/171/171 144/144/144 166/166/166
f 167/167/167 146/146/146 173/173/173
f 152/152/152 164/164/164 165/165/165
f 165/165/165 149/149/149 152/152/152
f 149/149/149 165/165/165 168/168/168
f 149/149/149 168/168/168 169/169/169
f 160/160/160 169/169/169 168/168/168
f 160/160/160 142/142/142 169/169/169
f 169/169/169 161/161/161 162/162/162
f 162/162/162 149/149/149 169/169/169
f 149/149/149 162/162/162 172/172/172
f 172/172/172 152/152/152 149/149/149
f 152/152/152 172/172/172 142/142/142
f 164/164/164 152/152/152 142/142/142
f 142/142/142 160/160/160 164/164/164
f 161/161/161 142/142/142 172/172/172
f 161/161/161 169/169/169 142/142/142
f 175/175/175 143/143/143 151/151/151
f 175/175/175 151/151/151 174/174/174
f 174/174/174 170/170/170 175/175/175
f 170/170/170 174/174/174 145/145/145
f 145/145/145 151/151/151 143/143/143
f 151/151/151 145/145/145 174/174/174
f 143/143/143 175/175/175 170/170/170
f 156/156/156 157/157/157 158/158/158
f 155/155/155 158/158/158 157/157/157
f 158/158/158 155/155/155 154/154/154
f 154/154/154 155/155/155 153/153/153
f 153/153/153 150/150/150 154/154/154
f 148/148/148 150/150/150 153/153/153
f 159/159/159 153/153/153 147/147/147
f 155/155/155 147/147/147 153/153/153
f 147/147/147 155/155/155 163/163/163
f 157/157/157 163/163/163 155/155/155
f 163/163/163 157/157/157 148/148/148
f 157/157/157 156/156/156 148/148/148
f 150/150/150 148/148/148 156/156/156
f 148/148/148 159/159/159 163/163/163
f 153/153/153 159/159/159 148/148/148
v 0.012880 0.803148 -0.001580
v 0.012880 0.803148 -0.001580
v 0.012880 0.803148 -0.001580
v 0.012880 0.803148 -0.001580
v 0.012880 0.803148 -0.001580
v 0.012880 0.803148 -0.001580
v 0.012880 0.803148 -0.001580
v 0.012880 0.803148 -0.001580
v 0.012880 0.803148 -0.001580
v 0.012880 0.803148 -0.001580
v 0.012880 0.803148 -0.001580
v 0.012880 0.803148 -0.001580
v 0.012880 0.803148 -0.001580
v 0.012880 0.803148 -0.001580
v 0.012880 0.803148 -0.001580
v 0.012880 0.803148 -0.001580
v 0.012880 0.803148 -0.001580
v 0.012880 0.803148 -0.001580
v 0.012880 0.803148 -0.001580
v 0.012880 0.803148 -0.001580
v 0.012880 0.803148 -0.001580
v 0.012880 0.803148 -0.001580
v 0.012880 0.803148 -0.001580
v 0.012880 0.803148 -0.001580
v 0.012880 0.803148 -0.001580
v 0.012880 0.803148 -0.001580
v 0.012880 0.803148 -0.001580
v 0.012880 0.803148 -0.001580
v 0.012880 0.803148 -0.001580
v 0.012880 0.803148 -0.001580
v 0.012880 0.803148 -0.001580
v 0.012880 0.803148 -0.001580
v 0.012880 0.803148 -0.001580
v 0.012880 0.803148 -0.001580
v 0.012880 0.803148 -0.001580
v 0.012880 0.803148 -0.001580
v 0.012880 0.803148 -0.001580
v 0.012880 0.803148 -0.001580
v 0.012880 0.803148 -0.001580
v 0.012880 0.803148 -0.001580
v 0.012880 0.803148 -0.001580
v 0.012880 0.803148 -0.001580
v 0.012880 0.803148 -0.001580
v 0.012880 0.803148 -0.001580
v 0.012880 0.803148 -0.001580
v 0.012880 0.803148 -0.001580
v 0.012880 0.803148 -0.001580
v 0.012880 0.803148 -0.001580
v 0.012880 0.803148 -0.001580
v -0.043488 0.854087 -0.004484
v -0.086284 0.877092 -0.003498
v -0.078345 0.794342 0.069123
v 0.137322 0.618740 -0.004484
v 0.125359 0.752433 -0.004484
v 0.098958 0.653682 -0.120362
v 0.069991 0.751432 -0.086367
v 0.078752 0.803581 -0.037031
v 0.028363 0.739337 -0.063684
v 0.022280 0.868256 -0.057342
v -0.078345 0.794342 -0.078090
v -0.018734 0.908278 -0.004484
v -0.086284 0.877092 -0.003498
v -0.078345 0.794342 0.069123
v 0.110095 0.800638 -0.004580
v 0.022280 0.868256 0.048374
v 0.028363 0.739337 0.054717
v 0.069991 0.751432 0.077400
v 0.098958 0.653682 0.111395
v 0.078752 0.803580 0.028064
v 0.110999 0.834383 -0.004484
v 0.081778 0.855559 -0.052340
v 0.051877 0.901436 -0.004484
v 0.097024 0.861004 -0.004484
v 0.081778 0.855559 0.043372
v 0.022280 0.868256 -0.057342
v -0.025759 0.821398 -0.117840
v 0.028363 0.739337 -0.063684
v -0.037448 0.893105 -0.095322
v -0.025759 0.821398 0.108872
v -0.037448 0.893105 0.086353
v 0.022280 0.868256 0.048374
v 0.028363 0.739337 0.054717
v 0.078752 0.803581 -0.037031
v 0.028363 0.739337 -0.063684
v 0.057853 0.760803 -0.032175
v 0.110095 0.800638 -0.004580
v 0.078752 0.803580 0.028064
v 0.057853 0.760803 0.023207
v 0.028363 0.739337 0.054717
v -0.086284 0.877092 -0.003498
v -0.043488 0.854087 -0.004484
v -0.078345 0.794342 -0.078090
v -0.078345 0.794342 -0.078090
v -0.043488 0.854087 -0.004484
v 0.028363 0.739337 -0.063684
v -0.043488 0.854087 -0.004484
v -0.078345 0.794342 0.069123
v 0.028363 0.739337 0.054717
vn 0.000000 0.000000 0.000000
vn 0.000000 0.000000 0.000000
vn 0.000000 0.000000 0.000000
vn 0.000000 0.000000 0.000000
vn 0.000000 0.000000 0.000000
vn 0.000000 0.000000 0.000000
vn 0.000000 0.000000 0.000000
vn 0.000000 0.000000 0.000000
vn 0.000000 0.000000 0.000000
vn 0.000000 0.000000 0.000000
vn 0.000000 0.000000 0.000000
vn 0.000000 0.000000 0.000000
vn 0.000000 0.000000 0.000000
vn 0.000000 0.000000 0.000000
vn 0.000000 0.000000 0.000000
vn 0.000000 0.000000 0.000000
vn 0.000000 0.000000 0.000000
vn 0.000000 0.000000 0.000000
vn 0.000000 0.000000 0.000000
vn 0.000000 0.000000 0.000000
vn 0.000000 0.000000 0.000000
vn 0.000000 0.000000 0.000000
vn 0.000000 0.000000 0.000000
vn 0.000000 0.000000 0.000000
vn 0.000000 0.000000 0.000000
vn 0.000000 0.000000 0.000000
vn 0.000000 0.000000 0.000000
vn 0.000000 0.000000 0.000000
vn 0.000000 0.000000 0.000000
vn 0.000000 0.000000 0.000000
vn 0.000000 0.000000 0.000000
vn 0.000000 0.000000 0.000000
vn 0.000000 0.000000 0.000000
vn 0.000000 0.000000 0.000000
vn 0.000000 0.000000 0.000000
vn 0.000000 0.000000 0.000000
vn 0.000000 0.000000 0.000000
vn 0.000000 0.000000 0.000000
vn 0.000000 0.000000 0.000000
vn 0.000000 0.000000 0.000000
vn 0.000000 0.000000 0.000000
vn 0.000000 0.000000 0.000000
vn 0.000000 0.000000 0.000000
vn 0.000000 0.000000 0.000000
vn 0.000000 0.000000 0.000000
vn 0.000000 0.000000 0.000000
vn 0.000000 0.000000 0.000000
vn 0.000000 0.000000 0.000000
vn 0.000000 0.000000 0.000000
vn -0.514999 -0.857191 -0.000165
vn -0.947029 -0.321063 0.007402
vn -0.704246 -0.597923 -0.382786
vn 0.996020 0.089126 -0.000001
vn 0.947091 0.320965 -0.000406
vn 0.875682 0.250397 -0.412896
vn 0.429168 0.591463 -0.682632
vn 0.649449 -0.148902 -0.745683
vn 0.785909 -0.615467 -0.059562
vn 0.675250 0.725685 0.131980
vn -0.693944 -0.608104 0.385553
vn -0.243055 0.970008 0.002933
vn -0.947029 -0.321063 0.007402
vn -0.704246 -0.597923 -0.382786
vn 0.980031 -0.198839 -0.001618
vn 0.419130 0.884383 -0.205419
vn 0.863011 -0.425763 0.271914
vn 0.429167 0.591469 0.682627
vn 0.875682 0.250399 0.412894
vn 0.650332 -0.149093 0.744876
vn 0.996179 0.087338 -0.000425
vn 0.629437 0.358294 -0.689518
vn 0.375365 0.926877 -0.000001
vn 0.788211 0.615406 -0.000001
vn 0.629438 0.358296 0.689515
vn 0.675250 0.725685 0.131980
vn 0.215363 -0.046772 0.975413
vn 0.785909 -0.615467 -0.059562
vn -0.291141 0.075410 -0.953704
vn 0.065361 -0.027399 -0.997485
vn 0.982706 0.081545 0.166250
vn 0.419130 0.884383 -0.205419
vn 0.863011 -0.425763 0.271914
vn 0.649449 -0.148902 -0.745683
vn 0.785909 -0.615467 -0.059562
vn 0.721623 -0.415406 -0.553803
vn 0.980031 -0.198839 -0.001618
vn 0.650332 -0.149093 0.744876
vn 0.722386 -0.415654 0.552621
vn 0.863011 -0.425763 0.271914
vn -0.947029 -0.321063 0.007402
vn -0.514999 -0.857191 -0.000165
vn -0.693944 -0.608104 0.385553
vn -0.693944 -0.608104 0.385553
vn -0.514999 -0.857191 -0.000165
vn 0.785909 -0.615467 -0.059562
vn -0.514999 -0.857191 -0.000165
vn -0.704246 -0.597923 -0.382786
vn 0.863011 -0.425763 0.271914
vt 0.224248 0.608991
vt 0.172261 0.690595
vt 0.151102 0.561805
vt 0.007458 0.163350
vt 0.007525 0.439711
vt 0.251320 0.232326
vt 0.182998 0.437644
vt 0.085703 0.555335
vt 0.133103 0.518717
vt 0.118257 0.666661
vt 0.160405 0.694378
vt 0.007228 0.770696
vt 0.007047 0.817293
vt 0.160405 0.694378
vt 0.007525 0.539358
vt 0.118257 0.666661
vt 0.133103 0.518717
vt 0.182998 0.437644
vt 0.251320 0.232326
vt 0.085703 0.555335
vt 0.007525 0.609114
vt 0.081146 0.646575
vt 0.007002 0.722444
vt 0.007263 0.664146
vt 0.081146 0.646575
vt 0.009926 0.831418
vt 0.124539 0.844914
vt 0.115275 0.746548
vt 0.041352 0.938144
vt 0.124539 0.844914
vt 0.041352 0.938144
vt 0.009926 0.831418
vt 0.115275 0.746548
vt 0.070805 0.443722
vt 0.073922 0.419052
vt 0.119902 0.420488
vt 0.056827 0.486563
vt 0.070805 0.443722
vt 0.119902 0.420488
vt 0.073922 0.419052
vt 0.172261 0.690595
vt 0.224248 0.608991
vt 0.150804 0.561615
vt 0.150804 0.561615
vt 0.224248 0.608991
vt 0.206530 0.506368
vt 0.224248 0.608991
vt 0.151102 0.561805
vt 0.206645 0.506441
vt 0.224248 0.608991
vt 0.172261 0.690595
vt 0.151102 0.561805
vt 0.007458 0.163350
vt 0.007525 0.439711
vt 0.251320 0.232326
vt 0.182998 0.437644
vt 0.085703 0.555335
vt 0.133103 0.518717
vt 0.118257 0.666661
vt 0.160405 0.694378
vt 0.007228 0.770696
vt 0.007047 0.817293
vt 0.160405 0.694378
vt 0.007525 0.539358
vt 0.118257 0.666661
vt 0.133103 0.518717
vt 0.182998 0.437644
vt 0.251320 0.232326
vt 0.085703 0.555335
vt 0.007525 0.609114
vt 0.081146 0.646575
vt 0.007002 0.722444
vt 0.007263 0.664146
vt 0.081146 0.646575
vt 0.009926 0.831418
vt 0.124539 0.844914
vt 0.115275 0.746548
vt 0.041352 0.938144
vt 0.124539 0.844914
vt 0.041352 0.938144
vt 0.009926 0.831418
vt 0.115275 0.746548
vt 0.070805 0.443722
vt 0.073922 0.419052
vt 0.119902 0.420488
vt 0.056827 0.486563
vt 0.070805 0.443722
vt 0.119902 0.420488
vt 0.073922 0.419052
vt 0.172261 0.690595
vt 0.224248 0.608991
vt 0.150804 0.561615
vt 0.150804 0.561615
vt 0.224248 0.608991
vt 0.206530 0.506368
vt 0.224248 0.608991
vt 0.151102 0.561805
vt 0.206645 0.506441
f 178/178/178 177/177/177 176/176/176
f 181/181/181 180/180/180 179/179/179
f 180/180/180 181/181/181 182/182/182
f 182/182/182 183/183/183 180/180/180
f 183/183/183 182/182/182 184/184/184
f 183/183/183 184/184/184 185/185/185
f 185/185/185 184/184/184 186/186/186
f 187/187/187 185/185/185 186/186/186
f 186/186/186 188/188/188 187/187/187
f 188/188/188 189/189/189 187/187/187
f 190/190/190 180/180/180 183/183/183
f 191/191/191 187/187/187 189/189/189
f 192/192/192 191/191/191 189/189/189
f 194/194/194 180/180/180 193/193/193
f 195/195/195 193/193/193 180/180/180
f 180/180/180 190/190/190 195/195/195
f 196/196/196 195/195/195 190/190/190
f 183/183/183 196/196/196 190/190/190
f 183/183/183 197/197/197 196/196/196
f 183/183/183 185/185/185 197/197/197
f 197/197/197 185/185/185 198/198/198
f 198/198/198 185/185/185 187/187/187
f 191/191/191 198/198/198 187/187/187
f 180/180/180 194/194/194 179/179/179
f 196/196/196 197/197/197 199/199/199
f 197/197/197 198/198/198 199/199/199
f 198/198/198 200/200/200 199/199/199
f 191/191/191 200/200/200 198/198/198
f 191/191/191 195/195/195 200/200/200
f 192/192/192 195/195/195 191/191/191
f 193/193/193 195/195/195 192/192/192
f 200/200/200 196/196/196 199/199/199
f 195/195/195 196/196/196 200/200/200
f 203/203/203 202/202/202 201/201/201
f 204/204/204 201/201/201 202/202/202
f 202/202/202 201/201/201 204/204/204
f 201/201/201 202/202/202 203/203/203
f 207/207/207 206/206/206 205/205/205
f 205/205/205 208/208/208 207/207/207
f 207/207/207 205/205/205 206/206/206
f 205/205/205 207/207/207 208/208/208
f 211/211/211 210/210/210 209/209/209
f 212/212/212 211/211/211 209/209/209
f 214/214/214 212/212/212 213/213/213
f 215/215/215 214/214/214 213/213/213
f 218/218/218 217/217/217 216/216/216
f 221/221/221 220/220/220 219/219/219
f 224/224/224 223/223/223 222/222/222
f 227/227/227 226/226/226 225/225/225
f 230/230/230 229/229/229 228/228/228
f 229/229/229 230/230/230 231/231/231
f 231/231/231 232/232/232 229/229/229
f 232/232/232 231/231/231 233/233/233
f 232/232/232 233/233/233 234/234/234
f 234/234/234 233/233/233 235/235/235
f 236/236/236 234/234/234 235/235/235
f 235/235/235 237/237/237 236/236/236
f 237/237/237 238/238/238 236/236/236
f 239/239/239 229/229/229 232/232/232
f 240/240/240 236/236/236 238/238/238
f 241/241/241 240/240/240 238/238/238
f 243/243/243 229/229/229 242/242/242
f 244/244/244 242/242/242 229/229/229
f 229/229/229 239/239/239 244/244/244
f 245/245/245 244/244/244 239/239/239
f 232/232/232 245/245/245 239/239/239
f 232/232/232 246/246/246 245/245/245
f 232/232/232 234/234/234 246/246/246
f 246/246/246 234/234/234 247/247/247
f 247/247/247 234/234/234 236/236/236
f 240/240/240 247/247/247 236/236/236
f 229/229/229 243/243/243 228/228/228
f 245/245/245 246/246/246 248/248/248
f 246/246/246 247/247/247 248/248/248
f 247/247/247 249/249/249 248/248/248
f 240/240/240 249/249/249 247/247/247
f 240/240/240 244/244/244 249/249/249
f 241/241/241 244/244/244 240/240/240
f 242/242/242 244/244/244 241/241/241
f 249/249/249 245/245/245 248/248/248
f 244/244/244 245/245/245 249/249/249
f 252/252/252 251/251/251 250/250/250
f 253/253/253 250/250/250 251/251/251
f 251/251/251 250/250/250 253/253/253
f 250/250/250 251/251/251 252/252/252
f 256/256/256 255/255/255 254/254/254
f 254/254/254 257/257/257 256/256/256
f 256/256/256 254/254/254 255/255/255
f 254/254/254 256/256/256 257/257/257
f 260/260/260 259/259/259 258/258/258
f 261/261/261 260/260/260 258/258/258
f 263/263/263 261/261/261 262/262/262
f 264/264/264 263/263/263 262/262/262
f 267/267/267 266/266/266 265/265/265
f 270/270/270 269/269/269 268/268/268
f 273/273/273 272/272/272 271/271/271
v -0.101967 0.765000 -0.143725
v -0.087455 0.571397 -0.102918
v -0.130152 0.648137 -0.131822
v -0.087324 0.571397 0.090426
v -0.130056 0.648148 0.119323
v -0.101846 0.765007 0.131204
v -0.086284 0.877092 -0.003498
v -0.104419 0.764282 -0.006260
v -0.129025 0.650096 -0.006249
v -0.087390 0.571397 -0.006247
vn -0.980441 0.196125 -0.016464
vn -0.880110 -0.474702 0.007988
vn -0.999907 -0.013510 0.001676
vn -0.879994 -0.474932 -0.007039
vn -0.999907 -0.013630 -0.000870
vn -0.980495 0.195778 0.017320
vn -0.987325 0.158710 0.000434
vn -0.979616 0.200879 0.000407
vn -0.965448 -0.260596 0.000463
vn -0.883921 -0.467635 0.000596
vt 0.408389 0.923020
vt 0.459824 0.769268
vt 0.405565 0.840768
vt 0.459824 0.769268
vt 0.405565 0.840768
vt 0.408389 0.923020
vt 0.527747 0.944352
vt 0.527624 0.927404
vt 0.527624 0.843015
vt 0.525961 0.772146
f 281/281/281 279/279/279 280/280/280
f 281/281/281 278/278/278 279/279/279
f 282/282/282 278/278/278 281/281/281
f 277/277/277 278/278/278 282/282/282
f 283/283/283 277/277/277 282/282/282
f 275/275/275 283/283/283 282/282/282
f 276/276/276 275/275/275 282/282/282
f 276/276/276 282/282/282 281/281/281
f 276/276/276 281/281/281 274/274/274
f 274/274/274 281/281/281 280/280/280
