# WC3 MDX geosets → Unity Y-up
mtllib materials.mtl
usemtl Faceless
o Model
v -0.025333 1.005290 0.009033
v -0.088655 1.102140 0.009033
v -0.042807 1.004790 0.097037
v 0.190844 0.723910 0.009033
v 0.176541 0.883752 0.009033
v 0.144976 0.765686 -0.129511
v 0.110343 0.882556 -0.088867
v 0.120817 0.944905 -0.029881
v 0.053062 0.928177 -0.061747
v 0.053300 1.022230 -0.054164
v -0.042807 1.004790 -0.078971
v 0.004263 1.070080 0.009033
v -0.088655 1.102140 0.009033
v -0.042807 1.004790 0.097037
v 0.158291 0.941386 0.008918
v 0.053300 1.022230 0.072230
v 0.053062 0.928177 0.079813
v 0.110343 0.882556 0.106933
v 0.144976 0.765686 0.147578
v 0.120817 0.944904 0.047947
v 0.159372 0.981732 0.009033
v 0.124435 1.007050 -0.048184
v 0.088686 1.061900 0.009033
v 0.142664 1.013560 0.009033
v 0.124435 1.007050 0.066250
v -0.125264 0.984458 0.001102
v -0.041004 0.994405 0.001102
v -0.023329 0.930183 0.136211
v -0.023329 0.930183 -0.134006
v -0.123850 0.939061 -0.082862
v -0.195611 0.873508 -0.142293
v -0.236023 0.873508 0.001102
v -0.169757 0.752555 -0.091069
v -0.187926 0.752555 0.001102
v -0.103705 0.675281 -0.073229
v -0.102812 0.675287 0.073014
v 0.027661 0.675291 -0.103453
v 0.027290 0.726348 -0.126338
v -0.033780 0.743998 -0.150840
v -0.123850 0.939061 0.085066
v -0.195611 0.873508 0.144498
v -0.169757 0.752555 0.093274
v -0.102812 0.675287 0.073014
v -0.031368 0.768662 0.155918
v 0.027661 0.675291 0.105658
v 0.027290 0.726348 0.128543
v 0.101388 0.675281 -0.073157
v 0.100404 0.675285 0.072128
v 0.115311 0.756735 0.001102
v 0.083719 0.741541 -0.085205
v 0.060118 0.843423 -0.142069
v 0.027290 0.726348 -0.126338
v -0.033780 0.743998 -0.150840
v 0.027661 0.675291 -0.103453
v 0.027661 0.675291 0.105658
v 0.027290 0.726348 0.128543
v 0.083719 0.741541 0.087410
v 0.060118 0.843423 0.144274
v 0.075027 0.876205 0.001102
v -0.023329 0.930183 -0.134006
v 0.100404 0.675285 0.072128
v -0.031368 0.768662 0.155918
v -0.023329 0.930183 0.136211
v -0.041004 0.994405 0.001102
v 0.019934 0.792042 -0.237313
v 0.060118 0.843423 -0.142069
v -0.103275 0.890574 -0.338464
v -0.033780 0.743998 -0.150840
v -0.088550 0.687108 -0.175415
v -0.029547 0.721809 -0.295191
v -0.074642 0.837227 -0.331251
v -0.124809 0.741078 -0.340755
v -0.074642 0.837227 -0.331251
v -0.103275 0.890574 -0.338464
v -0.201317 0.793942 -0.194116
v -0.195611 0.873508 -0.142293
v -0.033780 0.743998 -0.150840
v -0.124809 0.741078 -0.340755
v -0.088550 0.687108 -0.175415
v -0.179473 0.699362 -0.222124
v 0.028184 0.698657 0.255886
v -0.051339 0.704683 0.323588
v -0.047756 0.808805 0.295872
v 0.026490 0.811106 0.225564
v -0.044204 0.667369 0.188264
v -0.031368 0.768662 0.155918
v -0.047756 0.808805 0.295872
v -0.067148 0.850662 0.361613
v 0.026490 0.811106 0.225564
v 0.060118 0.843423 0.144274
v -0.031368 0.768662 0.155918
v -0.147763 0.803432 0.215408
v -0.031368 0.768662 0.155918
v -0.195611 0.873508 0.144498
v -0.067148 0.850662 0.361613
v -0.047756 0.808805 0.295872
v 0.053300 1.022230 -0.054164
v -0.004135 0.966207 -0.126496
v 0.053062 0.928177 -0.061747
v -0.018111 1.051940 -0.099573
v -0.004135 0.966207 0.144561
v -0.018111 1.051940 0.117638
v 0.053300 1.022230 0.072230
v 0.053062 0.928177 0.079813
v 0.120817 0.944905 -0.029881
v 0.053062 0.928177 -0.061747
v 0.095831 0.893759 -0.024074
v 0.158291 0.941386 0.008918
v 0.120817 0.944904 0.047947
v 0.095831 0.893759 0.042140
v 0.053062 0.928177 0.079813
v -0.051339 0.704683 0.323588
v -0.134530 0.682220 0.243414
v -0.147763 0.803432 0.215408
v -0.047756 0.808805 0.295872
v -0.044204 0.667369 0.188264
v -0.031368 0.768662 0.155918
v -0.088655 1.102140 0.009033
v -0.025333 1.005290 0.009033
v -0.042807 1.004790 -0.078971
v -0.042807 1.004790 -0.078971
v -0.025333 1.005290 0.009033
v 0.053062 0.928177 -0.061747
v -0.025333 1.005290 0.009033
v -0.042807 1.004790 0.097037
v 0.053062 0.928177 0.079813
vn -0.745819 -0.666148 0.000000
vn -0.994935 -0.100516 -0.000000
vn -0.822089 -0.468643 0.323331
vn 0.996020 0.089126 -0.000001
vn 0.947091 0.320965 -0.000406
vn 0.875682 0.250397 -0.412896
vn 0.599570 0.503031 -0.622475
vn 0.585250 -0.118456 -0.802153
vn 0.560499 -0.561897 -0.608369
vn -0.826186 0.197446 -0.527667
vn -0.822089 -0.468643 -0.323330
vn 0.141779 0.989898 -0.000001
vn -0.994935 -0.100516 -0.000000
vn -0.822089 -0.468643 0.323331
vn 0.980031 -0.198840 -0.001618
vn -0.022370 0.424645 0.905083
vn -0.388446 -0.409920 0.825273
vn 0.599571 0.503035 0.622471
vn 0.875682 0.250399 0.412894
vn 0.586165 -0.118710 0.801448
vn 0.996179 0.087338 -0.000425
vn 0.629437 0.358294 -0.689518
vn 0.375364 0.926877 -0.000001
vn 0.788211 0.615405 -0.000001
vn 0.629438 0.358296 0.689516
vn -0.358175 0.933654 -0.000001
vn 0.332144 0.943229 -0.000001
vn 0.295822 0.862287 0.411036
vn 0.295822 0.862286 -0.411037
vn -0.425764 0.805186 -0.412796
vn -0.979549 0.087058 -0.181399
vn -0.969239 0.246121 -0.000000
vn -0.585308 -0.577383 -0.569248
vn -0.817256 -0.576274 0.000596
vn -0.616133 -0.680513 -0.396588
vn -0.634427 -0.710200 0.305152
vn 0.159610 -0.317734 -0.934650
vn 0.172069 -0.567892 -0.804917
vn 0.189220 -0.944397 -0.268904
vn -0.425765 0.805186 0.412796
vn -0.907893 -0.146296 0.392846
vn -0.571544 -0.534721 0.622424
vn -0.634427 -0.710200 0.305152
vn 0.175543 -0.982911 -0.055410
vn 0.165597 -0.338830 0.926160
vn 0.161229 -0.459260 0.873547
vn 0.871198 -0.024446 -0.490323
vn 0.923527 -0.081112 0.374859
vn 0.992144 0.125096 0.000581
vn 0.740909 -0.098021 -0.664414
vn 0.897462 -0.030783 -0.440017
vn 0.172069 -0.567892 -0.804917
vn 0.189220 -0.944397 -0.268904
vn 0.159610 -0.317734 -0.934650
vn 0.165597 -0.338830 0.926160
vn 0.161229 -0.459260 0.873547
vn 0.746314 -0.111577 0.656175
vn 0.897763 -0.081505 0.432873
vn 0.809474 0.587156 -0.000001
vn 0.295822 0.862286 -0.411037
vn 0.923527 -0.081112 0.374859
vn 0.175543 -0.982911 -0.055410
vn 0.295822 0.862287 0.411036
vn 0.332144 0.943229 -0.000001
vn 0.910310 -0.264928 -0.318038
vn 0.897462 -0.030783 -0.440017
vn -0.051711 0.252283 -0.966271
vn 0.189220 -0.944397 -0.268904
vn 0.243666 -0.658439 0.712099
vn 0.758867 -0.292376 -0.581925
vn -0.062420 0.068756 -0.995679
vn -0.294211 0.041452 -0.954841
vn -0.062420 0.068756 -0.995679
vn -0.051711 0.252283 -0.966271
vn -0.978223 -0.168907 0.120627
vn -0.979549 0.087058 -0.181399
vn 0.189220 -0.944397 -0.268904
vn -0.294211 0.041452 -0.954841
vn 0.243666 -0.658439 0.712099
vn -0.923135 -0.288474 0.254174
vn 0.929787 0.094128 0.355861
vn -0.011473 0.218396 0.975793
vn 0.101818 -0.388050 0.915997
vn 0.952379 -0.288645 0.098273
vn 0.166950 -0.294959 -0.940812
vn 0.175543 -0.982911 -0.055410
vn 0.101818 -0.388050 0.915997
vn 0.092995 -0.521238 0.848330
vn 0.952379 -0.288645 0.098273
vn 0.897763 -0.081505 0.432873
vn 0.175543 -0.982911 -0.055410
vn -0.907569 -0.414457 0.067412
vn 0.175543 -0.982911 -0.055410
vn -0.907893 -0.146296 0.392846
vn 0.092995 -0.521238 0.848330
vn 0.101818 -0.388050 0.915997
vn -0.826186 0.197446 -0.527667
vn -0.842396 -0.276232 0.462672
vn 0.560499 -0.561897 -0.608369
vn 0.573871 -0.090056 0.813980
vn -0.229669 0.397488 0.888401
vn -0.056898 0.248066 0.967071
vn -0.022370 0.424645 0.905083
vn -0.388446 -0.409920 0.825273
vn 0.585250 -0.118456 -0.802153
vn 0.560499 -0.561897 -0.608369
vn 0.560174 -0.358446 -0.746808
vn 0.980031 -0.198840 -0.001618
vn 0.586165 -0.118710 0.801448
vn 0.561173 -0.358834 0.745870
vn -0.388446 -0.409920 0.825273
vn -0.011473 0.218396 0.975793
vn -0.988464 -0.126985 -0.082547
vn -0.907569 -0.414457 0.067412
vn 0.101818 -0.388050 0.915997
vn 0.166950 -0.294959 -0.940812
vn 0.175543 -0.982911 -0.055410
vn -0.994935 -0.100516 -0.000000
vn -0.745819 -0.666148 0.000000
vn -0.822089 -0.468643 -0.323330
vn -0.822089 -0.468643 -0.323330
vn -0.745819 -0.666148 0.000000
vn 0.560499 -0.561897 -0.608369
vn -0.745819 -0.666148 0.000000
vn -0.822089 -0.468643 0.323331
vn -0.388446 -0.409920 0.825273
vt 0.224248 0.608991
vt 0.172261 0.690595
vt 0.151102 0.561805
vt 0.007458 0.163350
vt 0.007525 0.439711
vt 0.251320 0.232326
vt 0.182998 0.437644
vt 0.085703 0.555335
vt 0.133103 0.518717
vt 0.118257 0.666661
vt 0.160405 0.694378
vt 0.007228 0.770696
vt 0.007047 0.817293
vt 0.160405 0.694378
vt 0.007525 0.539358
vt 0.118257 0.666661
vt 0.133103 0.518717
vt 0.182998 0.437644
vt 0.251320 0.232326
vt 0.085703 0.555335
vt 0.007525 0.609114
vt 0.081146 0.646575
vt 0.007002 0.722444
vt 0.007263 0.664146
vt 0.081146 0.646575
vt 0.526261 0.965857
vt 0.526211 0.986047
vt 0.414946 0.920536
vt 0.414946 0.920536
vt 0.457653 0.927949
vt 0.406074 0.841985
vt 0.526720 0.873211
vt 0.467815 0.768711
vt 0.528739 0.772214
vt 0.472380 0.709699
vt 0.585758 0.709699
vt 0.444962 0.714703
vt 0.416345 0.753833
vt 0.400889 0.785663
vt 0.457653 0.927949
vt 0.406074 0.841985
vt 0.467815 0.768711
vt 0.472380 0.709699
vt 0.400889 0.785663
vt 0.444962 0.714703
vt 0.416345 0.753833
vt 0.735724 0.706684
vt 0.614795 0.706684
vt 0.674296 0.774999
vt 0.745446 0.762254
vt 0.793144 0.847712
vt 0.779949 0.749510
vt 0.800501 0.785002
vt 0.760753 0.706684
vt 0.760753 0.706684
vt 0.779949 0.749510
vt 0.745446 0.762254
vt 0.793144 0.847712
vt 0.674243 0.875210
vt 0.786380 0.920486
vt 0.735724 0.706684
vt 0.800501 0.785002
vt 0.786380 0.920486
vt 0.673984 0.974356
vt 0.863582 0.820604
vt 0.793144 0.847712
vt 0.975447 0.853783
vt 0.800501 0.785002
vt 0.823648 0.714361
vt 0.899164 0.725276
vt 0.920391 0.816673
vt 0.949736 0.729986
vt 0.276557 0.819184
vt 0.225430 0.850230
vt 0.346572 0.814696
vt 0.406074 0.841985
vt 0.400889 0.785663
vt 0.247344 0.726497
vt 0.375751 0.709052
vt 0.328764 0.718086
vt 0.893043 0.727334
vt 0.951334 0.727474
vt 0.929985 0.810518
vt 0.885225 0.813361
vt 0.819412 0.712498
vt 0.808082 0.790498
vt 0.920391 0.816673
vt 0.975447 0.853783
vt 0.863582 0.820604
vt 0.793144 0.847712
vt 0.800501 0.785002
vt 0.346572 0.814696
vt 0.400889 0.785663
vt 0.406074 0.841985
vt 0.225430 0.850230
vt 0.276557 0.819184
vt 0.009926 0.831418
vt 0.124539 0.844914
vt 0.115275 0.746548
vt 0.041352 0.938144
vt 0.124539 0.844914
vt 0.041352 0.938144
vt 0.009926 0.831418
vt 0.115275 0.746548
vt 0.070805 0.443722
vt 0.073922 0.419052
vt 0.119902 0.420488
vt 0.056827 0.486563
vt 0.070805 0.443722
vt 0.119902 0.420488
vt 0.073922 0.419052
vt 0.247559 0.724347
vt 0.327680 0.721001
vt 0.338242 0.808496
vt 0.262342 0.802360
vt 0.381137 0.705858
vt 0.384996 0.802724
vt 0.172261 0.690595
vt 0.224248 0.608991
vt 0.150804 0.561615
vt 0.150804 0.561615
vt 0.224248 0.608991
vt 0.206530 0.506368
vt 0.224248 0.608991
vt 0.151102 0.561805
vt 0.206645 0.506441
f 3/3/3 2/2/2 1/1/1
f 6/6/6 5/5/5 4/4/4
f 5/5/5 6/6/6 7/7/7
f 7/7/7 8/8/8 5/5/5
f 8/8/8 7/7/7 9/9/9
f 8/8/8 9/9/9 10/10/10
f 10/10/10 9/9/9 11/11/11
f 12/12/12 10/10/10 11/11/11
f 11/11/11 13/13/13 12/12/12
f 13/13/13 14/14/14 12/12/12
f 15/15/15 5/5/5 8/8/8
f 16/16/16 12/12/12 14/14/14
f 17/17/17 16/16/16 14/14/14
f 19/19/19 5/5/5 18/18/18
f 20/20/20 18/18/18 5/5/5
f 5/5/5 15/15/15 20/20/20
f 21/21/21 20/20/20 15/15/15
f 8/8/8 21/21/21 15/15/15
f 8/8/8 22/22/22 21/21/21
f 8/8/8 10/10/10 22/22/22
f 22/22/22 10/10/10 23/23/23
f 23/23/23 10/10/10 12/12/12
f 16/16/16 23/23/23 12/12/12
f 5/5/5 19/19/19 4/4/4
f 21/21/21 22/22/22 24/24/24
f 22/22/22 23/23/23 24/24/24
f 23/23/23 25/25/25 24/24/24
f 16/16/16 25/25/25 23/23/23
f 16/16/16 20/20/20 25/25/25
f 17/17/17 20/20/20 16/16/16
f 18/18/18 20/20/20 17/17/17
f 25/25/25 21/21/21 24/24/24
f 20/20/20 21/21/21 25/25/25
f 28/28/28 27/27/27 26/26/26
f 27/27/27 29/29/29 26/26/26
f 26/26/26 29/29/29 30/30/30
f 30/30/30 29/29/29 31/31/31
f 32/32/32 30/30/30 31/31/31
f 33/33/33 32/32/32 31/31/31
f 33/33/33 34/34/34 32/32/32
f 34/34/34 33/33/33 35/35/35
f 35/35/35 36/36/36 34/34/34
f 35/35/35 33/33/33 37/37/37
f 33/33/33 38/38/38 37/37/37
f 33/33/33 39/39/39 38/38/38
f 33/33/33 31/31/31 39/39/39
f 26/26/26 30/30/30 32/32/32
f 40/40/40 26/26/26 32/32/32
f 28/28/28 26/26/26 40/40/40
f 28/28/28 40/40/40 41/41/41
f 40/40/40 32/32/32 41/41/41
f 32/32/32 42/42/42 41/41/41
f 34/34/34 42/42/42 32/32/32
f 42/42/42 34/34/34 43/43/43
f 41/41/41 42/42/42 44/44/44
f 42/42/42 43/43/43 45/45/45
f 46/46/46 42/42/42 45/45/45
f 44/44/44 42/42/42 46/46/46
f 49/49/49 48/48/48 47/47/47
f 50/50/50 49/49/49 47/47/47
f 51/51/51 49/49/49 50/50/50
f 51/51/51 50/50/50 52/52/52
f 53/53/53 51/51/51 52/52/52
f 54/54/54 50/50/50 47/47/47
f 52/52/52 50/50/50 54/54/54
f 57/57/57 56/56/56 55/55/55
f 57/57/57 58/58/58 56/56/56
f 49/49/49 58/58/58 57/57/57
f 59/59/59 58/58/58 49/49/49
f 51/51/51 59/59/59 49/49/49
f 60/60/60 59/59/59 51/51/51
f 57/57/57 55/55/55 61/61/61
f 49/49/49 57/57/57 61/61/61
f 58/58/58 62/62/62 56/56/56
f 59/59/59 63/63/63 58/58/58
f 63/63/63 59/59/59 64/64/64
f 59/59/59 60/60/60 64/64/64
f 67/67/67 66/66/66 65/65/65
f 65/65/65 66/66/66 68/68/68
f 65/65/65 68/68/68 69/69/69
f 70/70/70 65/65/65 69/69/69
f 71/71/71 65/65/65 70/70/70
f 67/67/67 65/65/65 71/71/71
f 72/72/72 71/71/71 70/70/70
f 75/75/75 74/74/74 73/73/73
f 76/76/76 74/74/74 75/75/75
f 77/77/77 76/76/76 75/75/75
f 75/75/75 73/73/73 78/78/78
f 77/77/77 75/75/75 79/79/79
f 79/79/79 75/75/75 80/80/80
f 80/80/80 75/75/75 78/78/78
f 83/83/83 82/82/82 81/81/81
f 84/84/84 83/83/83 81/81/81
f 84/84/84 81/81/81 85/85/85
f 86/86/86 84/84/84 85/85/85
f 89/89/89 88/88/88 87/87/87
f 90/90/90 88/88/88 89/89/89
f 90/90/90 89/89/89 91/91/91
f 94/94/94 93/93/93 92/92/92
f 95/95/95 94/94/94 92/92/92
f 95/95/95 92/92/92 96/96/96
f 99/99/99 98/98/98 97/97/97
f 100/100/100 97/97/97 98/98/98
f 98/98/98 97/97/97 100/100/100
f 97/97/97 98/98/98 99/99/99
f 103/103/103 102/102/102 101/101/101
f 101/101/101 104/104/104 103/103/103
f 103/103/103 101/101/101 102/102/102
f 101/101/101 103/103/103 104/104/104
f 107/107/107 106/106/106 105/105/105
f 108/108/108 107/107/107 105/105/105
f 110/110/110 108/108/108 109/109/109
f 111/111/111 110/110/110 109/109/109
f 114/114/114 113/113/113 112/112/112
f 115/115/115 114/114/114 112/112/112
f 114/114/114 117/117/117 116/116/116
f 114/114/114 116/116/116 113/113/113
f 120/120/120 119/119/119 118/118/118
f 123/123/123 122/122/122 121/121/121
f 126/126/126 125/125/125 124/124/124
v 0.060118 0.843423 -0.142069
v -0.023329 0.930183 -0.134006
v -0.057694 0.937396 -0.169034
v -0.103275 0.890574 -0.338464
v -0.057694 0.937396 -0.169034
v -0.023329 0.930183 -0.134006
v -0.195611 0.873508 -0.142293
v -0.103275 0.890574 -0.338464
v 0.060118 0.843423 0.144274
v -0.067148 0.850662 0.361613
v -0.056259 0.932869 0.200060
v -0.023329 0.930183 0.136211
v -0.067148 0.850662 0.361613
v -0.195611 0.873508 0.144498
v -0.056259 0.932869 0.200060
v -0.023329 0.930183 0.136211
vn 0.623297 0.661960 -0.416305
vn 0.210605 0.977557 -0.005322
vn 0.148270 0.977517 -0.149924
vn 0.116392 0.948840 -0.293524
vn 0.148270 0.977517 -0.149924
vn 0.210605 0.977557 -0.005322
vn -0.385500 0.905795 0.175854
vn 0.116392 0.948840 -0.293524
vn 0.670299 0.657384 0.344305
vn 0.114489 0.882248 0.456652
vn 0.152681 0.952287 0.264269
vn 0.215445 0.973993 0.070143
vn 0.114489 0.882248 0.456652
vn -0.420101 0.903127 0.088753
vn 0.152681 0.952287 0.264269
vn 0.215445 0.973993 0.070143
vt 0.793144 0.847712
vt 0.786380 0.920486
vt 0.839937 0.922738
vt 0.975447 0.853783
vt 0.361631 0.922778
vt 0.414946 0.920536
vt 0.406074 0.841985
vt 0.225430 0.850230
vt 0.793144 0.847712
vt 0.975447 0.853783
vt 0.839937 0.922738
vt 0.786380 0.920486
vt 0.225430 0.850230
vt 0.406074 0.841985
vt 0.361631 0.922778
vt 0.414946 0.920536
f 129/129/129 128/128/128 127/127/127
f 130/130/130 129/129/129 127/127/127
f 133/133/133 132/132/132 131/131/131
f 133/133/133 131/131/131 134/134/134
f 137/137/137 136/136/136 135/135/135
f 138/138/138 137/137/137 135/135/135
f 141/141/141 140/140/140 139/139/139
f 142/142/142 140/140/140 141/141/141
